G75*
G70*
%OFA0B0*%
%FSLAX24Y24*%
%IPPOS*%
%LPD*%
%AMOC8*
5,1,8,0,0,1.08239X$1,22.5*
%
%ADD10C,0.0000*%
%ADD11R,0.0260X0.1200*%
%ADD12R,0.1200X0.0260*%
%ADD13R,0.1020X0.0220*%
%ADD14R,0.0710X0.0709*%
%ADD15R,0.0709X0.0551*%
%ADD16R,0.0551X0.0709*%
%ADD17R,0.0709X0.0710*%
%ADD18R,0.0400X0.1200*%
%ADD19R,0.0840X0.0880*%
D10*
X001675Y001175D02*
X039675Y001175D01*
X039719Y001177D01*
X039762Y001183D01*
X039804Y001192D01*
X039846Y001205D01*
X039886Y001222D01*
X039925Y001242D01*
X039962Y001265D01*
X039996Y001292D01*
X040029Y001321D01*
X040058Y001354D01*
X040085Y001388D01*
X040108Y001425D01*
X040128Y001464D01*
X040145Y001504D01*
X040158Y001546D01*
X040167Y001588D01*
X040173Y001631D01*
X040175Y001675D01*
X040175Y021675D01*
X040173Y021719D01*
X040167Y021762D01*
X040158Y021804D01*
X040145Y021846D01*
X040128Y021886D01*
X040108Y021925D01*
X040085Y021962D01*
X040058Y021996D01*
X040029Y022029D01*
X039996Y022058D01*
X039962Y022085D01*
X039925Y022108D01*
X039886Y022128D01*
X039846Y022145D01*
X039804Y022158D01*
X039762Y022167D01*
X039719Y022173D01*
X039675Y022175D01*
X001675Y022175D01*
X001631Y022173D01*
X001588Y022167D01*
X001546Y022158D01*
X001504Y022145D01*
X001464Y022128D01*
X001425Y022108D01*
X001388Y022085D01*
X001354Y022058D01*
X001321Y022029D01*
X001292Y021996D01*
X001265Y021962D01*
X001242Y021925D01*
X001222Y021886D01*
X001205Y021846D01*
X001192Y021804D01*
X001183Y021762D01*
X001177Y021719D01*
X001175Y021675D01*
X001175Y001675D01*
X001177Y001631D01*
X001183Y001588D01*
X001192Y001546D01*
X001205Y001504D01*
X001222Y001464D01*
X001242Y001425D01*
X001265Y001388D01*
X001292Y001354D01*
X001321Y001321D01*
X001354Y001292D01*
X001388Y001265D01*
X001425Y001242D01*
X001464Y001222D01*
X001504Y001205D01*
X001546Y001192D01*
X001588Y001183D01*
X001631Y001177D01*
X001675Y001175D01*
X001834Y002425D02*
X001836Y002473D01*
X001842Y002521D01*
X001852Y002568D01*
X001865Y002614D01*
X001883Y002659D01*
X001903Y002703D01*
X001928Y002745D01*
X001956Y002784D01*
X001986Y002821D01*
X002020Y002855D01*
X002057Y002887D01*
X002095Y002916D01*
X002136Y002941D01*
X002179Y002963D01*
X002224Y002981D01*
X002270Y002995D01*
X002317Y003006D01*
X002365Y003013D01*
X002413Y003016D01*
X002461Y003015D01*
X002509Y003010D01*
X002557Y003001D01*
X002603Y002989D01*
X002648Y002972D01*
X002692Y002952D01*
X002734Y002929D01*
X002774Y002902D01*
X002812Y002872D01*
X002847Y002839D01*
X002879Y002803D01*
X002909Y002765D01*
X002935Y002724D01*
X002957Y002681D01*
X002977Y002637D01*
X002992Y002592D01*
X003004Y002545D01*
X003012Y002497D01*
X003016Y002449D01*
X003016Y002401D01*
X003012Y002353D01*
X003004Y002305D01*
X002992Y002258D01*
X002977Y002213D01*
X002957Y002169D01*
X002935Y002126D01*
X002909Y002085D01*
X002879Y002047D01*
X002847Y002011D01*
X002812Y001978D01*
X002774Y001948D01*
X002734Y001921D01*
X002692Y001898D01*
X002648Y001878D01*
X002603Y001861D01*
X002557Y001849D01*
X002509Y001840D01*
X002461Y001835D01*
X002413Y001834D01*
X002365Y001837D01*
X002317Y001844D01*
X002270Y001855D01*
X002224Y001869D01*
X002179Y001887D01*
X002136Y001909D01*
X002095Y001934D01*
X002057Y001963D01*
X002020Y001995D01*
X001986Y002029D01*
X001956Y002066D01*
X001928Y002105D01*
X001903Y002147D01*
X001883Y002191D01*
X001865Y002236D01*
X001852Y002282D01*
X001842Y002329D01*
X001836Y002377D01*
X001834Y002425D01*
X001834Y020925D02*
X001836Y020973D01*
X001842Y021021D01*
X001852Y021068D01*
X001865Y021114D01*
X001883Y021159D01*
X001903Y021203D01*
X001928Y021245D01*
X001956Y021284D01*
X001986Y021321D01*
X002020Y021355D01*
X002057Y021387D01*
X002095Y021416D01*
X002136Y021441D01*
X002179Y021463D01*
X002224Y021481D01*
X002270Y021495D01*
X002317Y021506D01*
X002365Y021513D01*
X002413Y021516D01*
X002461Y021515D01*
X002509Y021510D01*
X002557Y021501D01*
X002603Y021489D01*
X002648Y021472D01*
X002692Y021452D01*
X002734Y021429D01*
X002774Y021402D01*
X002812Y021372D01*
X002847Y021339D01*
X002879Y021303D01*
X002909Y021265D01*
X002935Y021224D01*
X002957Y021181D01*
X002977Y021137D01*
X002992Y021092D01*
X003004Y021045D01*
X003012Y020997D01*
X003016Y020949D01*
X003016Y020901D01*
X003012Y020853D01*
X003004Y020805D01*
X002992Y020758D01*
X002977Y020713D01*
X002957Y020669D01*
X002935Y020626D01*
X002909Y020585D01*
X002879Y020547D01*
X002847Y020511D01*
X002812Y020478D01*
X002774Y020448D01*
X002734Y020421D01*
X002692Y020398D01*
X002648Y020378D01*
X002603Y020361D01*
X002557Y020349D01*
X002509Y020340D01*
X002461Y020335D01*
X002413Y020334D01*
X002365Y020337D01*
X002317Y020344D01*
X002270Y020355D01*
X002224Y020369D01*
X002179Y020387D01*
X002136Y020409D01*
X002095Y020434D01*
X002057Y020463D01*
X002020Y020495D01*
X001986Y020529D01*
X001956Y020566D01*
X001928Y020605D01*
X001903Y020647D01*
X001883Y020691D01*
X001865Y020736D01*
X001852Y020782D01*
X001842Y020829D01*
X001836Y020877D01*
X001834Y020925D01*
D11*
X011581Y014823D03*
X012014Y014823D03*
X014258Y014823D03*
X014691Y014823D03*
X016620Y014823D03*
X017053Y014823D03*
X017486Y014823D03*
X017919Y014823D03*
X018352Y014823D03*
X018785Y014823D03*
X019218Y014823D03*
X019218Y006527D03*
X018785Y006527D03*
X018352Y006527D03*
X017919Y006527D03*
X017486Y006527D03*
X017053Y006527D03*
X016620Y006527D03*
X014336Y006527D03*
X013903Y006527D03*
X012132Y006527D03*
X011699Y006527D03*
D12*
X010346Y008628D03*
X010346Y009061D03*
X010346Y009494D03*
X010346Y012289D03*
X010346Y012722D03*
X021004Y012762D03*
X021004Y013195D03*
X021004Y012329D03*
X021004Y011895D03*
X021004Y009888D03*
X021004Y009455D03*
X021004Y009021D03*
X021004Y008588D03*
D13*
X025025Y008575D03*
X025025Y008175D03*
X025025Y007775D03*
X026325Y007775D03*
X026325Y008175D03*
X026325Y008575D03*
X026325Y004575D03*
X026325Y004175D03*
X026325Y003775D03*
X025025Y003775D03*
X025025Y004175D03*
X025025Y004575D03*
X033525Y006275D03*
X033525Y006675D03*
X033525Y007075D03*
X034825Y007075D03*
X034825Y006675D03*
X034825Y006275D03*
X034825Y010275D03*
X034825Y010675D03*
X034825Y011075D03*
X033525Y011075D03*
X033525Y010675D03*
X033525Y010275D03*
X033525Y014275D03*
X033525Y014675D03*
X033525Y015075D03*
X034825Y015075D03*
X034825Y014675D03*
X034825Y014275D03*
X035325Y018275D03*
X035325Y018675D03*
X035325Y019075D03*
X034025Y019075D03*
X034025Y018675D03*
X034025Y018275D03*
X010325Y004175D03*
X009025Y003775D03*
X009025Y004575D03*
D14*
X007175Y004085D03*
X007175Y005265D03*
X002675Y005085D03*
X002675Y006265D03*
X022175Y006585D03*
X022175Y007765D03*
X028425Y007585D03*
X028425Y008765D03*
X028425Y004765D03*
X028425Y003585D03*
X036425Y014085D03*
X036425Y015265D03*
X036675Y019585D03*
X036675Y020765D03*
D15*
X014657Y016075D03*
X013693Y016075D03*
X008157Y011925D03*
X007193Y011925D03*
X007193Y009175D03*
X008157Y009175D03*
D16*
X006175Y009943D03*
X006175Y010907D03*
D17*
X013585Y017075D03*
X014765Y017075D03*
X030585Y010175D03*
X031765Y010175D03*
X033585Y008675D03*
X034765Y008675D03*
X031765Y006675D03*
X030585Y006675D03*
X026265Y006175D03*
X025085Y006175D03*
X020515Y004675D03*
X019335Y004675D03*
X033585Y012675D03*
X034765Y012675D03*
X035265Y016675D03*
X034085Y016675D03*
D18*
X006175Y007925D03*
D19*
X005375Y006925D03*
X006975Y006925D03*
M02*
