G75*
G70*
%OFA0B0*%
%FSLAX24Y24*%
%IPPOS*%
%LPD*%
%AMOC8*
5,1,8,0,0,1.08239X$1,22.5*
%
%ADD10C,0.0000*%
%ADD11R,0.0260X0.1200*%
%ADD12R,0.1200X0.0260*%
%ADD13C,0.0740*%
%ADD14R,0.0740X0.0740*%
%ADD15C,0.0768*%
%ADD16OC8,0.0640*%
%ADD17R,0.1020X0.0220*%
%ADD18R,0.0710X0.0709*%
%ADD19R,0.0709X0.0551*%
%ADD20R,0.0551X0.0709*%
%ADD21C,0.1100*%
%ADD22R,0.0709X0.0710*%
%ADD23R,0.0400X0.1200*%
%ADD24R,0.0840X0.0880*%
%ADD25C,0.0150*%
%ADD26C,0.0400*%
%ADD27C,0.0100*%
%ADD28C,0.0160*%
%ADD29C,0.0600*%
%ADD30C,0.0320*%
%ADD31C,0.0910*%
%ADD32C,0.0300*%
%ADD33C,0.0400*%
%ADD34C,0.0260*%
D10*
X001675Y001175D02*
X039675Y001175D01*
X039719Y001177D01*
X039762Y001183D01*
X039804Y001192D01*
X039846Y001205D01*
X039886Y001222D01*
X039925Y001242D01*
X039962Y001265D01*
X039996Y001292D01*
X040029Y001321D01*
X040058Y001354D01*
X040085Y001388D01*
X040108Y001425D01*
X040128Y001464D01*
X040145Y001504D01*
X040158Y001546D01*
X040167Y001588D01*
X040173Y001631D01*
X040175Y001675D01*
X040175Y021675D01*
X040173Y021719D01*
X040167Y021762D01*
X040158Y021804D01*
X040145Y021846D01*
X040128Y021886D01*
X040108Y021925D01*
X040085Y021962D01*
X040058Y021996D01*
X040029Y022029D01*
X039996Y022058D01*
X039962Y022085D01*
X039925Y022108D01*
X039886Y022128D01*
X039846Y022145D01*
X039804Y022158D01*
X039762Y022167D01*
X039719Y022173D01*
X039675Y022175D01*
X001675Y022175D01*
X001631Y022173D01*
X001588Y022167D01*
X001546Y022158D01*
X001504Y022145D01*
X001464Y022128D01*
X001425Y022108D01*
X001388Y022085D01*
X001354Y022058D01*
X001321Y022029D01*
X001292Y021996D01*
X001265Y021962D01*
X001242Y021925D01*
X001222Y021886D01*
X001205Y021846D01*
X001192Y021804D01*
X001183Y021762D01*
X001177Y021719D01*
X001175Y021675D01*
X001175Y001675D01*
X001177Y001631D01*
X001183Y001588D01*
X001192Y001546D01*
X001205Y001504D01*
X001222Y001464D01*
X001242Y001425D01*
X001265Y001388D01*
X001292Y001354D01*
X001321Y001321D01*
X001354Y001292D01*
X001388Y001265D01*
X001425Y001242D01*
X001464Y001222D01*
X001504Y001205D01*
X001546Y001192D01*
X001588Y001183D01*
X001631Y001177D01*
X001675Y001175D01*
X001834Y002425D02*
X001836Y002473D01*
X001842Y002521D01*
X001852Y002568D01*
X001865Y002614D01*
X001883Y002659D01*
X001903Y002703D01*
X001928Y002745D01*
X001956Y002784D01*
X001986Y002821D01*
X002020Y002855D01*
X002057Y002887D01*
X002095Y002916D01*
X002136Y002941D01*
X002179Y002963D01*
X002224Y002981D01*
X002270Y002995D01*
X002317Y003006D01*
X002365Y003013D01*
X002413Y003016D01*
X002461Y003015D01*
X002509Y003010D01*
X002557Y003001D01*
X002603Y002989D01*
X002648Y002972D01*
X002692Y002952D01*
X002734Y002929D01*
X002774Y002902D01*
X002812Y002872D01*
X002847Y002839D01*
X002879Y002803D01*
X002909Y002765D01*
X002935Y002724D01*
X002957Y002681D01*
X002977Y002637D01*
X002992Y002592D01*
X003004Y002545D01*
X003012Y002497D01*
X003016Y002449D01*
X003016Y002401D01*
X003012Y002353D01*
X003004Y002305D01*
X002992Y002258D01*
X002977Y002213D01*
X002957Y002169D01*
X002935Y002126D01*
X002909Y002085D01*
X002879Y002047D01*
X002847Y002011D01*
X002812Y001978D01*
X002774Y001948D01*
X002734Y001921D01*
X002692Y001898D01*
X002648Y001878D01*
X002603Y001861D01*
X002557Y001849D01*
X002509Y001840D01*
X002461Y001835D01*
X002413Y001834D01*
X002365Y001837D01*
X002317Y001844D01*
X002270Y001855D01*
X002224Y001869D01*
X002179Y001887D01*
X002136Y001909D01*
X002095Y001934D01*
X002057Y001963D01*
X002020Y001995D01*
X001986Y002029D01*
X001956Y002066D01*
X001928Y002105D01*
X001903Y002147D01*
X001883Y002191D01*
X001865Y002236D01*
X001852Y002282D01*
X001842Y002329D01*
X001836Y002377D01*
X001834Y002425D01*
X001834Y020925D02*
X001836Y020973D01*
X001842Y021021D01*
X001852Y021068D01*
X001865Y021114D01*
X001883Y021159D01*
X001903Y021203D01*
X001928Y021245D01*
X001956Y021284D01*
X001986Y021321D01*
X002020Y021355D01*
X002057Y021387D01*
X002095Y021416D01*
X002136Y021441D01*
X002179Y021463D01*
X002224Y021481D01*
X002270Y021495D01*
X002317Y021506D01*
X002365Y021513D01*
X002413Y021516D01*
X002461Y021515D01*
X002509Y021510D01*
X002557Y021501D01*
X002603Y021489D01*
X002648Y021472D01*
X002692Y021452D01*
X002734Y021429D01*
X002774Y021402D01*
X002812Y021372D01*
X002847Y021339D01*
X002879Y021303D01*
X002909Y021265D01*
X002935Y021224D01*
X002957Y021181D01*
X002977Y021137D01*
X002992Y021092D01*
X003004Y021045D01*
X003012Y020997D01*
X003016Y020949D01*
X003016Y020901D01*
X003012Y020853D01*
X003004Y020805D01*
X002992Y020758D01*
X002977Y020713D01*
X002957Y020669D01*
X002935Y020626D01*
X002909Y020585D01*
X002879Y020547D01*
X002847Y020511D01*
X002812Y020478D01*
X002774Y020448D01*
X002734Y020421D01*
X002692Y020398D01*
X002648Y020378D01*
X002603Y020361D01*
X002557Y020349D01*
X002509Y020340D01*
X002461Y020335D01*
X002413Y020334D01*
X002365Y020337D01*
X002317Y020344D01*
X002270Y020355D01*
X002224Y020369D01*
X002179Y020387D01*
X002136Y020409D01*
X002095Y020434D01*
X002057Y020463D01*
X002020Y020495D01*
X001986Y020529D01*
X001956Y020566D01*
X001928Y020605D01*
X001903Y020647D01*
X001883Y020691D01*
X001865Y020736D01*
X001852Y020782D01*
X001842Y020829D01*
X001836Y020877D01*
X001834Y020925D01*
D11*
X011581Y014823D03*
X012014Y014823D03*
X014258Y014823D03*
X014691Y014823D03*
X016620Y014823D03*
X017053Y014823D03*
X017486Y014823D03*
X017919Y014823D03*
X018352Y014823D03*
X018785Y014823D03*
X019218Y014823D03*
X019218Y006527D03*
X018785Y006527D03*
X018352Y006527D03*
X017919Y006527D03*
X017486Y006527D03*
X017053Y006527D03*
X016620Y006527D03*
X014336Y006527D03*
X013903Y006527D03*
X012132Y006527D03*
X011699Y006527D03*
D12*
X010346Y008628D03*
X010346Y009061D03*
X010346Y009494D03*
X010346Y012289D03*
X010346Y012722D03*
X021004Y012762D03*
X021004Y013195D03*
X021004Y012329D03*
X021004Y011895D03*
X021004Y009888D03*
X021004Y009455D03*
X021004Y009021D03*
X021004Y008588D03*
D13*
X026175Y011175D03*
X027175Y011175D03*
X027175Y012175D03*
X026175Y012175D03*
X027175Y013175D03*
X027175Y016175D03*
X027175Y017175D03*
X027175Y018175D03*
X025175Y019175D03*
X024175Y019175D03*
X023175Y019175D03*
X025175Y020175D03*
X026175Y020175D03*
X026175Y021175D03*
X025175Y021175D03*
X024175Y021175D03*
X023175Y021175D03*
X022175Y021175D03*
X021175Y021175D03*
X020175Y021175D03*
X019175Y021175D03*
X017575Y021175D03*
X016575Y021175D03*
X015575Y021175D03*
X014575Y021175D03*
X013575Y021175D03*
X012575Y021175D03*
X011575Y021175D03*
X010575Y021175D03*
X009575Y021175D03*
X008575Y021175D03*
X016175Y017175D03*
X017175Y017175D03*
X018175Y017175D03*
X019175Y017175D03*
X020175Y017175D03*
X021675Y016175D03*
X021675Y015175D03*
X032175Y020175D03*
X033175Y020175D03*
X033175Y021175D03*
X034175Y021175D03*
X035175Y021175D03*
X032175Y021175D03*
X031175Y021175D03*
X030175Y021175D03*
X029175Y021175D03*
X028175Y021175D03*
X037175Y018175D03*
X037175Y017175D03*
X016175Y005175D03*
X014175Y005175D03*
X013175Y003175D03*
X013175Y002175D03*
X012175Y002175D03*
X014175Y002175D03*
X015175Y002175D03*
X016175Y002175D03*
X017175Y002175D03*
X018175Y002175D03*
X019175Y002175D03*
X021175Y002175D03*
X022175Y002175D03*
X023175Y002175D03*
X024175Y002175D03*
X025175Y002175D03*
X026175Y002175D03*
X027175Y002175D03*
X028175Y002175D03*
X030175Y002175D03*
X031175Y002175D03*
X032175Y002175D03*
X033175Y002175D03*
X034175Y002175D03*
X035175Y002175D03*
X036175Y002175D03*
X037175Y002175D03*
X035175Y003175D03*
X034175Y003175D03*
X033175Y003175D03*
X032175Y003175D03*
X031175Y004175D03*
X030175Y004175D03*
X039175Y003175D03*
X017175Y003175D03*
X016175Y003175D03*
X015175Y003175D03*
X009175Y002175D03*
X008175Y002175D03*
X007175Y002175D03*
X006175Y002175D03*
X005175Y002175D03*
X004175Y002175D03*
X005175Y004175D03*
X004425Y004675D03*
X005175Y005175D03*
D14*
X026175Y013175D03*
D15*
X005675Y013175D03*
X005675Y021049D03*
D16*
X012175Y019175D03*
X013175Y019175D03*
X014175Y019175D03*
X014175Y018175D03*
X013175Y018175D03*
X012175Y018175D03*
X016175Y018175D03*
X017175Y018175D03*
X018175Y018175D03*
X019175Y018175D03*
X020175Y018175D03*
X020175Y019175D03*
X019175Y019175D03*
X018175Y019175D03*
X017175Y019175D03*
X016175Y019175D03*
X029175Y019175D03*
X030175Y019175D03*
X031175Y019175D03*
X031175Y018175D03*
X030175Y018175D03*
X029175Y018175D03*
X029175Y017175D03*
X030175Y017175D03*
X031175Y017175D03*
X031175Y016175D03*
X030175Y016175D03*
X029175Y016175D03*
X038175Y016175D03*
X039175Y016175D03*
X039175Y017175D03*
X038175Y017175D03*
X038175Y018175D03*
X039175Y018175D03*
X039175Y019175D03*
X038175Y019175D03*
X038175Y020175D03*
X039175Y020175D03*
X039175Y021175D03*
X038175Y021175D03*
X038175Y015175D03*
X039175Y015175D03*
X039175Y014175D03*
X038175Y014175D03*
X038175Y013175D03*
X039175Y013175D03*
X039175Y012175D03*
X038175Y012175D03*
X038175Y011175D03*
X039175Y011175D03*
X039175Y010175D03*
X038175Y010175D03*
X038175Y009175D03*
X039175Y009175D03*
X039175Y008175D03*
X038175Y008175D03*
X038175Y007175D03*
X039175Y007175D03*
X039175Y006175D03*
X038175Y006175D03*
X038175Y005175D03*
X039175Y005175D03*
X039175Y004175D03*
X038175Y004175D03*
D17*
X034825Y006275D03*
X034825Y006675D03*
X034825Y007075D03*
X033525Y007075D03*
X033525Y006675D03*
X033525Y006275D03*
X033525Y010275D03*
X033525Y010675D03*
X033525Y011075D03*
X034825Y011075D03*
X034825Y010675D03*
X034825Y010275D03*
X034825Y014275D03*
X034825Y014675D03*
X034825Y015075D03*
X033525Y015075D03*
X033525Y014675D03*
X033525Y014275D03*
X034025Y018275D03*
X034025Y018675D03*
X034025Y019075D03*
X035325Y019075D03*
X035325Y018675D03*
X035325Y018275D03*
X026325Y008575D03*
X026325Y008175D03*
X026325Y007775D03*
X025025Y007775D03*
X025025Y008175D03*
X025025Y008575D03*
X025025Y004575D03*
X025025Y004175D03*
X025025Y003775D03*
X026325Y003775D03*
X026325Y004175D03*
X026325Y004575D03*
X010325Y004175D03*
X009025Y003775D03*
X009025Y004575D03*
D18*
X007175Y004085D03*
X007175Y005265D03*
X002675Y005085D03*
X002675Y006265D03*
X022175Y006585D03*
X022175Y007765D03*
X028425Y007585D03*
X028425Y008765D03*
X028425Y004765D03*
X028425Y003585D03*
X036425Y014085D03*
X036425Y015265D03*
X036675Y019585D03*
X036675Y020765D03*
D19*
X014657Y016075D03*
X013693Y016075D03*
X008157Y011925D03*
X007193Y011925D03*
X007193Y009175D03*
X008157Y009175D03*
D20*
X006175Y009943D03*
X006175Y010907D03*
D21*
X004175Y010175D03*
X003175Y009175D03*
X002175Y008175D03*
X004175Y008175D03*
X002175Y010175D03*
D22*
X013585Y017075D03*
X014765Y017075D03*
X030585Y010175D03*
X031765Y010175D03*
X033585Y008675D03*
X034765Y008675D03*
X031765Y006675D03*
X030585Y006675D03*
X026265Y006175D03*
X025085Y006175D03*
X020515Y004675D03*
X019335Y004675D03*
X033585Y012675D03*
X034765Y012675D03*
X035265Y016675D03*
X034085Y016675D03*
D23*
X006175Y007925D03*
D24*
X005375Y006925D03*
X006975Y006925D03*
D25*
X006975Y007175D01*
X010175Y007175D01*
X010175Y008675D01*
X010346Y008628D01*
X010375Y008575D01*
X010175Y008675D01*
X011175Y008675D01*
X011175Y009475D01*
X010375Y009475D01*
X010346Y009494D01*
X010175Y009494D01*
X010175Y012289D01*
X010346Y012289D01*
X009571Y012289D01*
X009571Y012136D01*
X009583Y012092D01*
X009606Y012052D01*
X009639Y012019D01*
X009679Y011996D01*
X009723Y011984D01*
X010346Y011984D01*
X010346Y012289D01*
X010346Y012289D01*
X010346Y012289D01*
X009571Y012289D01*
X009571Y012442D01*
X009583Y012487D01*
X009594Y012506D01*
X009583Y012525D01*
X009571Y012569D01*
X009571Y012722D01*
X010346Y012722D01*
X010346Y012722D01*
X010346Y012722D01*
X010346Y012289D01*
X010346Y011984D01*
X010969Y011984D01*
X011014Y011996D01*
X011054Y012019D01*
X011086Y012052D01*
X011109Y012092D01*
X011121Y012136D01*
X011121Y012289D01*
X010346Y012289D01*
X010175Y012375D01*
X010175Y012675D01*
X010346Y012722D01*
X009571Y012722D01*
X009571Y012875D01*
X009583Y012920D01*
X009606Y012960D01*
X009639Y012992D01*
X009679Y013015D01*
X009723Y013027D01*
X010346Y013027D01*
X010346Y012722D01*
X010346Y012417D01*
X010346Y012289D01*
X010275Y012275D01*
X008175Y012275D01*
X008175Y011925D01*
X008157Y011925D01*
X008108Y011988D02*
X008108Y012263D01*
X008094Y012296D01*
X008094Y012376D01*
X008062Y012376D01*
X008060Y012379D01*
X007972Y012468D01*
X007856Y012516D01*
X006776Y012516D01*
X006660Y012468D01*
X006571Y012379D01*
X006545Y012315D01*
X006513Y012315D01*
X006467Y012362D01*
X006277Y012440D01*
X006073Y012440D01*
X005883Y012362D01*
X005738Y012217D01*
X005660Y012027D01*
X005660Y011823D01*
X005738Y011633D01*
X005785Y011587D01*
X005785Y011555D01*
X005721Y011529D01*
X005632Y011440D01*
X005584Y011324D01*
X005584Y010124D01*
X005560Y010065D01*
X005560Y009945D01*
X004864Y009945D01*
X004888Y010033D01*
X004896Y010100D01*
X004250Y010100D01*
X004250Y010250D01*
X004100Y010250D01*
X004100Y010896D01*
X004033Y010888D01*
X003941Y010863D01*
X003854Y010827D01*
X003771Y010779D01*
X003696Y010721D01*
X003629Y010654D01*
X003571Y010579D01*
X003523Y010496D01*
X003487Y010409D01*
X003462Y010317D01*
X003454Y010250D01*
X004100Y010250D01*
X004100Y010100D01*
X003454Y010100D01*
X003462Y010033D01*
X003475Y009987D01*
X003347Y010040D01*
X003003Y010040D01*
X002875Y009987D01*
X002888Y010033D01*
X002896Y010100D01*
X002250Y010100D01*
X002250Y010250D01*
X002100Y010250D01*
X002100Y010896D01*
X002033Y010888D01*
X001941Y010863D01*
X001854Y010827D01*
X001771Y010779D01*
X001696Y010721D01*
X001629Y010654D01*
X001571Y010579D01*
X001523Y010496D01*
X001490Y010416D01*
X001490Y021675D01*
X001494Y021711D01*
X001521Y021778D01*
X001572Y021829D01*
X001639Y021856D01*
X001675Y021860D01*
X039675Y021860D01*
X039711Y021856D01*
X039778Y021829D01*
X039829Y021778D01*
X039856Y021711D01*
X039860Y021675D01*
X039860Y001675D01*
X039856Y001639D01*
X039829Y001572D01*
X039778Y001521D01*
X039711Y001494D01*
X039675Y001490D01*
X029042Y001490D01*
X029519Y001968D01*
X029594Y001787D01*
X029787Y001594D01*
X030039Y001490D01*
X030311Y001490D01*
X030563Y001594D01*
X030675Y001706D01*
X030787Y001594D01*
X031039Y001490D01*
X031311Y001490D01*
X031563Y001594D01*
X031675Y001706D01*
X031787Y001594D01*
X032039Y001490D01*
X032311Y001490D01*
X032563Y001594D01*
X032675Y001706D01*
X032787Y001594D01*
X033039Y001490D01*
X033311Y001490D01*
X033563Y001594D01*
X033675Y001706D01*
X033787Y001594D01*
X034039Y001490D01*
X034311Y001490D01*
X034563Y001594D01*
X034675Y001706D01*
X034787Y001594D01*
X035039Y001490D01*
X035311Y001490D01*
X035563Y001594D01*
X035675Y001706D01*
X035787Y001594D01*
X036039Y001490D01*
X036311Y001490D01*
X036563Y001594D01*
X036675Y001706D01*
X036787Y001594D01*
X037039Y001490D01*
X037311Y001490D01*
X037563Y001594D01*
X037756Y001787D01*
X037860Y002039D01*
X037860Y002311D01*
X037756Y002563D01*
X037563Y002756D01*
X037311Y002860D01*
X037039Y002860D01*
X036787Y002756D01*
X036675Y002644D01*
X036563Y002756D01*
X036311Y002860D01*
X036039Y002860D01*
X035787Y002756D01*
X035675Y002644D01*
X035644Y002675D01*
X035756Y002787D01*
X035860Y003039D01*
X035860Y003311D01*
X035756Y003563D01*
X035563Y003756D01*
X035311Y003860D01*
X035039Y003860D01*
X034787Y003756D01*
X034675Y003644D01*
X034563Y003756D01*
X034311Y003860D01*
X034039Y003860D01*
X033787Y003756D01*
X033675Y003644D01*
X033563Y003756D01*
X033311Y003860D01*
X033039Y003860D01*
X032787Y003756D01*
X032675Y003644D01*
X032563Y003756D01*
X032382Y003831D01*
X033337Y004785D01*
X036160Y004785D01*
X036160Y004723D01*
X036238Y004533D01*
X036383Y004388D01*
X036573Y004310D01*
X036777Y004310D01*
X036967Y004388D01*
X037112Y004533D01*
X037190Y004723D01*
X037190Y004824D01*
X037540Y005174D01*
X037540Y004912D01*
X037876Y004576D01*
X037680Y004380D01*
X037680Y004200D01*
X038150Y004200D01*
X038150Y004150D01*
X038200Y004150D01*
X038200Y004200D01*
X038670Y004200D01*
X038670Y004380D01*
X038474Y004576D01*
X038675Y004777D01*
X038876Y004576D01*
X038680Y004380D01*
X038680Y004200D01*
X039150Y004200D01*
X039150Y004150D01*
X038680Y004150D01*
X038680Y003970D01*
X038969Y003681D01*
X038966Y003680D01*
X038889Y003641D01*
X038820Y003591D01*
X038759Y003530D01*
X038709Y003461D01*
X038670Y003384D01*
X038643Y003303D01*
X038630Y003218D01*
X038630Y003200D01*
X039150Y003200D01*
X039150Y003680D01*
X039150Y004150D01*
X039200Y004150D01*
X039200Y004200D01*
X039670Y004200D01*
X039670Y004380D01*
X039474Y004576D01*
X039810Y004912D01*
X039810Y005438D01*
X039573Y005675D01*
X039810Y005912D01*
X039810Y006438D01*
X039573Y006675D01*
X039810Y006912D01*
X039810Y007438D01*
X039573Y007675D01*
X039810Y007912D01*
X039810Y008438D01*
X039573Y008675D01*
X039810Y008912D01*
X039810Y009438D01*
X039573Y009675D01*
X039810Y009912D01*
X039810Y010438D01*
X039573Y010675D01*
X039810Y010912D01*
X039810Y011438D01*
X039573Y011675D01*
X039810Y011912D01*
X039810Y012438D01*
X039573Y012675D01*
X039810Y012912D01*
X039810Y013438D01*
X039573Y013675D01*
X039810Y013912D01*
X039810Y014438D01*
X039573Y014675D01*
X039810Y014912D01*
X039810Y015438D01*
X039573Y015675D01*
X039810Y015912D01*
X039810Y016438D01*
X039573Y016675D01*
X039810Y016912D01*
X039810Y017438D01*
X039573Y017675D01*
X039810Y017912D01*
X039810Y018438D01*
X039573Y018675D01*
X039810Y018912D01*
X039810Y019438D01*
X039573Y019675D01*
X039810Y019912D01*
X039810Y020438D01*
X039573Y020675D01*
X039810Y020912D01*
X039810Y021438D01*
X039438Y021810D01*
X038912Y021810D01*
X038675Y021573D01*
X038438Y021810D01*
X037912Y021810D01*
X037667Y021565D01*
X036997Y021565D01*
X036854Y021506D01*
X036783Y021434D01*
X036257Y021434D01*
X036142Y021387D01*
X036053Y021298D01*
X036005Y021182D01*
X036005Y020348D01*
X036010Y020336D01*
X036010Y019952D01*
X036058Y019837D01*
X036145Y019749D01*
X036145Y019660D01*
X036600Y019660D01*
X036600Y019510D01*
X036145Y019510D01*
X036145Y019260D01*
X036102Y019363D01*
X036013Y019452D01*
X035898Y019500D01*
X035890Y019500D01*
X035890Y019677D01*
X035812Y019867D01*
X035667Y020012D01*
X035477Y020090D01*
X035273Y020090D01*
X035083Y020012D01*
X034938Y019867D01*
X034860Y019677D01*
X034860Y019500D01*
X034752Y019500D01*
X034675Y019468D01*
X034598Y019500D01*
X034102Y019500D01*
X034090Y019512D01*
X034090Y019677D01*
X034012Y019867D01*
X033867Y020012D01*
X033851Y020018D01*
X033860Y020039D01*
X033860Y020311D01*
X033756Y020563D01*
X033644Y020675D01*
X033675Y020706D01*
X033787Y020594D01*
X034039Y020490D01*
X034311Y020490D01*
X034563Y020594D01*
X034675Y020706D01*
X034787Y020594D01*
X035039Y020490D01*
X035311Y020490D01*
X035563Y020594D01*
X035756Y020787D01*
X035860Y021039D01*
X035860Y021311D01*
X035756Y021563D01*
X035563Y021756D01*
X035311Y021860D01*
X035039Y021860D01*
X034787Y021756D01*
X034675Y021644D01*
X034563Y021756D01*
X034311Y021860D01*
X034039Y021860D01*
X033787Y021756D01*
X033675Y021644D01*
X033563Y021756D01*
X033311Y021860D01*
X033039Y021860D01*
X032787Y021756D01*
X032675Y021644D01*
X032563Y021756D01*
X032311Y021860D01*
X032039Y021860D01*
X031787Y021756D01*
X031675Y021644D01*
X031563Y021756D01*
X031311Y021860D01*
X031039Y021860D01*
X030787Y021756D01*
X030675Y021644D01*
X030563Y021756D01*
X030311Y021860D01*
X030039Y021860D01*
X029787Y021756D01*
X029675Y021644D01*
X029563Y021756D01*
X029311Y021860D01*
X029039Y021860D01*
X028787Y021756D01*
X028675Y021644D01*
X028563Y021756D01*
X028311Y021860D01*
X028039Y021860D01*
X027787Y021756D01*
X027594Y021563D01*
X027490Y021311D01*
X027490Y021039D01*
X027594Y020787D01*
X027787Y020594D01*
X027843Y020571D01*
X027738Y020467D01*
X027660Y020277D01*
X027660Y020073D01*
X027715Y019940D01*
X026926Y019940D01*
X026850Y020016D01*
X026860Y020039D01*
X026860Y020311D01*
X026756Y020563D01*
X026644Y020675D01*
X026756Y020787D01*
X026860Y021039D01*
X026860Y021311D01*
X026756Y021563D01*
X026563Y021756D01*
X026311Y021860D01*
X026039Y021860D01*
X025787Y021756D01*
X025675Y021644D01*
X025563Y021756D01*
X025311Y021860D01*
X025039Y021860D01*
X024787Y021756D01*
X024675Y021644D01*
X024563Y021756D01*
X024311Y021860D01*
X024039Y021860D01*
X023787Y021756D01*
X023675Y021644D01*
X023563Y021756D01*
X023311Y021860D01*
X023039Y021860D01*
X022787Y021756D01*
X022675Y021644D01*
X022563Y021756D01*
X022311Y021860D01*
X022039Y021860D01*
X021787Y021756D01*
X021675Y021644D01*
X021563Y021756D01*
X021311Y021860D01*
X021039Y021860D01*
X020787Y021756D01*
X020675Y021644D01*
X020563Y021756D01*
X020311Y021860D01*
X020039Y021860D01*
X019787Y021756D01*
X019675Y021644D01*
X019563Y021756D01*
X019311Y021860D01*
X019039Y021860D01*
X018787Y021756D01*
X018594Y021563D01*
X018490Y021311D01*
X018490Y021039D01*
X018594Y020787D01*
X018787Y020594D01*
X019039Y020490D01*
X019311Y020490D01*
X019563Y020594D01*
X019675Y020706D01*
X019787Y020594D01*
X020039Y020490D01*
X020311Y020490D01*
X020334Y020500D01*
X020968Y019866D01*
X021102Y019810D01*
X022918Y019810D01*
X022787Y019756D01*
X022594Y019563D01*
X022490Y019311D01*
X022490Y019039D01*
X022594Y018787D01*
X022787Y018594D01*
X023039Y018490D01*
X023311Y018490D01*
X023563Y018594D01*
X023675Y018706D01*
X023787Y018594D01*
X023810Y018585D01*
X023810Y016852D01*
X023866Y016718D01*
X025044Y015540D01*
X022826Y015540D01*
X022350Y016016D01*
X022360Y016039D01*
X022360Y016311D01*
X022256Y016563D01*
X022063Y016756D01*
X021811Y016860D01*
X021539Y016860D01*
X021287Y016756D01*
X021094Y016563D01*
X021085Y016540D01*
X020432Y016540D01*
X020563Y016594D01*
X020756Y016787D01*
X020860Y017039D01*
X020860Y017311D01*
X020756Y017563D01*
X020608Y017710D01*
X020810Y017912D01*
X020810Y018438D01*
X020474Y018774D01*
X020670Y018970D01*
X020670Y019150D01*
X020200Y019150D01*
X020200Y019200D01*
X020150Y019200D01*
X020150Y019670D01*
X019970Y019670D01*
X019680Y019380D01*
X019680Y019200D01*
X020150Y019200D01*
X020150Y019150D01*
X019680Y019150D01*
X019680Y018970D01*
X019876Y018774D01*
X019675Y018573D01*
X019474Y018774D01*
X019670Y018970D01*
X019670Y019150D01*
X019200Y019150D01*
X019200Y019200D01*
X019150Y019200D01*
X019150Y019670D01*
X018970Y019670D01*
X018774Y019474D01*
X018438Y019810D01*
X017912Y019810D01*
X017675Y019573D01*
X017438Y019810D01*
X016912Y019810D01*
X016675Y019573D01*
X016438Y019810D01*
X015912Y019810D01*
X015540Y019438D01*
X015540Y019092D01*
X015094Y018646D01*
X015035Y018503D01*
X015035Y017837D01*
X014943Y017745D01*
X014643Y017745D01*
X014810Y017912D01*
X014810Y018438D01*
X014573Y018675D01*
X014810Y018912D01*
X014810Y019438D01*
X014438Y019810D01*
X013912Y019810D01*
X013675Y019573D01*
X013438Y019810D01*
X012912Y019810D01*
X012675Y019573D01*
X012438Y019810D01*
X011912Y019810D01*
X011540Y019438D01*
X011540Y018912D01*
X011777Y018675D01*
X011540Y018438D01*
X011540Y017912D01*
X011912Y017540D01*
X012438Y017540D01*
X012675Y017777D01*
X012912Y017540D01*
X013093Y017540D01*
X013090Y017537D01*
X013067Y017497D01*
X013056Y017453D01*
X013056Y017150D01*
X013510Y017150D01*
X013510Y017605D01*
X013503Y017605D01*
X013675Y017777D01*
X013798Y017654D01*
X013749Y017605D01*
X013660Y017605D01*
X013660Y017150D01*
X013510Y017150D01*
X013510Y017000D01*
X013660Y017000D01*
X013660Y016545D01*
X013749Y016545D01*
X013769Y016526D01*
X013756Y016526D01*
X013756Y016446D01*
X013742Y016413D01*
X013742Y016138D01*
X013630Y016138D01*
X013630Y016526D01*
X013315Y016526D01*
X013271Y016514D01*
X013231Y016491D01*
X013198Y016458D01*
X013175Y016418D01*
X013163Y016374D01*
X013163Y016138D01*
X013630Y016138D01*
X013630Y016012D01*
X013742Y016012D01*
X013742Y015737D01*
X013756Y015704D01*
X013756Y015624D01*
X013788Y015624D01*
X013790Y015621D01*
X013878Y015532D01*
X013968Y015495D01*
X013965Y015490D01*
X013953Y015446D01*
X013953Y014823D01*
X014246Y014823D01*
X014246Y014823D01*
X013953Y014823D01*
X013953Y014200D01*
X013965Y014155D01*
X013988Y014115D01*
X014020Y014083D01*
X014060Y014060D01*
X014105Y014048D01*
X014258Y014048D01*
X014292Y014048D01*
X014294Y014044D01*
X014382Y013956D01*
X014498Y013908D01*
X014581Y013908D01*
X014573Y013887D01*
X014573Y007463D01*
X014592Y007416D01*
X014529Y007442D01*
X014144Y007442D01*
X014028Y007394D01*
X013939Y007306D01*
X013938Y007302D01*
X013903Y007302D01*
X013750Y007302D01*
X013706Y007290D01*
X013666Y007267D01*
X013633Y007235D01*
X013610Y007195D01*
X013598Y007150D01*
X013598Y006527D01*
X013598Y005904D01*
X013610Y005860D01*
X013633Y005820D01*
X013666Y005787D01*
X013706Y005764D01*
X013750Y005752D01*
X013784Y005752D01*
X013594Y005563D01*
X013490Y005311D01*
X013490Y005039D01*
X013531Y004940D01*
X010702Y004940D01*
X010568Y004884D01*
X010466Y004782D01*
X010284Y004600D01*
X009850Y004600D01*
X009850Y004748D01*
X009802Y004863D01*
X009713Y004952D01*
X009598Y005000D01*
X009540Y005000D01*
X009540Y005310D01*
X009812Y005310D01*
X009883Y005238D01*
X010073Y005160D01*
X010277Y005160D01*
X010467Y005238D01*
X010612Y005383D01*
X010690Y005573D01*
X010690Y005777D01*
X010612Y005967D01*
X010467Y006112D01*
X010277Y006190D01*
X010073Y006190D01*
X009883Y006112D01*
X009812Y006040D01*
X009102Y006040D01*
X008968Y005984D01*
X008866Y005882D01*
X008810Y005748D01*
X008810Y005000D01*
X008452Y005000D01*
X008337Y004952D01*
X008248Y004863D01*
X008200Y004748D01*
X008200Y004402D01*
X008248Y004287D01*
X008337Y004198D01*
X008392Y004175D01*
X008337Y004152D01*
X008248Y004063D01*
X008200Y003948D01*
X008200Y003602D01*
X008248Y003487D01*
X008337Y003398D01*
X008452Y003350D01*
X008785Y003350D01*
X008785Y003315D01*
X004097Y003315D01*
X003954Y003256D01*
X003844Y003146D01*
X003785Y003003D01*
X003785Y002754D01*
X003594Y002563D01*
X003490Y002311D01*
X003490Y002039D01*
X003594Y001787D01*
X003787Y001594D01*
X004039Y001490D01*
X004311Y001490D01*
X004563Y001594D01*
X004675Y001706D01*
X004787Y001594D01*
X005039Y001490D01*
X005311Y001490D01*
X005563Y001594D01*
X005675Y001706D01*
X005787Y001594D01*
X006039Y001490D01*
X006311Y001490D01*
X006563Y001594D01*
X006675Y001706D01*
X006787Y001594D01*
X007039Y001490D01*
X007311Y001490D01*
X007563Y001594D01*
X007675Y001706D01*
X007787Y001594D01*
X008039Y001490D01*
X008311Y001490D01*
X008563Y001594D01*
X008675Y001706D01*
X008787Y001594D01*
X009039Y001490D01*
X009308Y001490D01*
X009308Y001490D01*
X001675Y001490D01*
X001639Y001494D01*
X001572Y001521D01*
X001521Y001572D01*
X001494Y001639D01*
X001490Y001675D01*
X001490Y007934D01*
X001523Y007854D01*
X001571Y007771D01*
X001629Y007696D01*
X001696Y007629D01*
X001771Y007571D01*
X001854Y007523D01*
X001941Y007487D01*
X002033Y007462D01*
X002100Y007454D01*
X002100Y008100D01*
X002250Y008100D01*
X002250Y008250D01*
X002100Y008250D01*
X002100Y008896D01*
X002033Y008888D01*
X001941Y008863D01*
X001854Y008827D01*
X001771Y008779D01*
X001696Y008721D01*
X001629Y008654D01*
X001571Y008579D01*
X001523Y008496D01*
X001490Y008416D01*
X001490Y009934D01*
X001523Y009854D01*
X001571Y009771D01*
X001629Y009696D01*
X001696Y009629D01*
X001771Y009571D01*
X001854Y009523D01*
X001941Y009487D01*
X002033Y009462D01*
X002100Y009454D01*
X002100Y010100D01*
X002250Y010100D01*
X002250Y009454D01*
X002317Y009462D01*
X002363Y009475D01*
X002310Y009347D01*
X002310Y009003D01*
X002363Y008875D01*
X002317Y008888D01*
X002250Y008896D01*
X002250Y008250D01*
X002896Y008250D01*
X002888Y008317D01*
X002875Y008363D01*
X003003Y008310D01*
X003347Y008310D01*
X003475Y008363D01*
X003462Y008317D01*
X003454Y008250D01*
X004100Y008250D01*
X004100Y008100D01*
X004250Y008100D01*
X004250Y008250D01*
X004896Y008250D01*
X004888Y008317D01*
X004864Y008405D01*
X005660Y008405D01*
X005660Y007540D01*
X005450Y007540D01*
X005450Y007000D01*
X005300Y007000D01*
X005300Y007540D01*
X004932Y007540D01*
X004887Y007528D01*
X004848Y007505D01*
X004815Y007472D01*
X004792Y007433D01*
X004780Y007388D01*
X004780Y007000D01*
X005300Y007000D01*
X005300Y006850D01*
X005450Y006850D01*
X005450Y006310D01*
X005587Y006310D01*
X005588Y006307D01*
X005677Y006218D01*
X005792Y006170D01*
X006558Y006170D01*
X006673Y006218D01*
X006762Y006307D01*
X006763Y006310D01*
X006900Y006310D01*
X006900Y006850D01*
X007050Y006850D01*
X007050Y007000D01*
X006900Y007000D01*
X006900Y007540D01*
X006690Y007540D01*
X006690Y008405D01*
X007028Y008405D01*
X007311Y008522D01*
X007373Y008584D01*
X007977Y008584D01*
X008039Y008522D01*
X008322Y008405D01*
X009228Y008405D01*
X009511Y008522D01*
X009571Y008582D01*
X009571Y008475D01*
X009583Y008430D01*
X009606Y008390D01*
X009639Y008358D01*
X009679Y008335D01*
X009723Y008323D01*
X010346Y008323D01*
X010346Y008616D01*
X010346Y008616D01*
X010346Y008323D01*
X010969Y008323D01*
X011014Y008335D01*
X011054Y008358D01*
X011086Y008390D01*
X011109Y008430D01*
X011121Y008475D01*
X011121Y008628D01*
X011121Y008662D01*
X011125Y008664D01*
X011213Y008752D01*
X011261Y008868D01*
X011261Y009253D01*
X011213Y009369D01*
X011125Y009458D01*
X011121Y009459D01*
X011121Y009494D01*
X011121Y009647D01*
X011109Y009691D01*
X011086Y009731D01*
X011054Y009764D01*
X011014Y009787D01*
X010969Y009799D01*
X010346Y009799D01*
X009723Y009799D01*
X009679Y009787D01*
X009639Y009764D01*
X009607Y009732D01*
X009511Y009828D01*
X009228Y009945D01*
X008322Y009945D01*
X008039Y009828D01*
X007977Y009766D01*
X007373Y009766D01*
X007311Y009828D01*
X007028Y009945D01*
X006790Y009945D01*
X006790Y010065D01*
X006766Y010124D01*
X006766Y011324D01*
X006758Y011342D01*
X006776Y011334D01*
X007856Y011334D01*
X007972Y011382D01*
X008060Y011471D01*
X008062Y011474D01*
X008094Y011474D01*
X008094Y011554D01*
X008108Y011587D01*
X008108Y011862D01*
X008220Y011862D01*
X008220Y011474D01*
X008535Y011474D01*
X008579Y011486D01*
X008619Y011509D01*
X008652Y011542D01*
X008675Y011582D01*
X008687Y011626D01*
X008687Y011862D01*
X008220Y011862D01*
X008220Y011988D01*
X008108Y011988D01*
X008108Y012016D02*
X008220Y012016D01*
X008220Y011988D02*
X008220Y012376D01*
X008535Y012376D01*
X008579Y012364D01*
X008619Y012341D01*
X008652Y012308D01*
X008675Y012268D01*
X008687Y012224D01*
X008687Y011988D01*
X008220Y011988D01*
X008220Y011867D02*
X014573Y011867D01*
X014573Y011719D02*
X008687Y011719D01*
X008668Y011570D02*
X014573Y011570D01*
X014573Y011422D02*
X008011Y011422D01*
X008101Y011570D02*
X008220Y011570D01*
X008220Y011719D02*
X008108Y011719D01*
X008108Y012164D02*
X008220Y012164D01*
X008220Y012313D02*
X008094Y012313D01*
X007978Y012461D02*
X009576Y012461D01*
X009571Y012313D02*
X008647Y012313D01*
X008687Y012164D02*
X009571Y012164D01*
X009645Y012016D02*
X008687Y012016D01*
X009571Y012610D02*
X001490Y012610D01*
X001490Y012758D02*
X005302Y012758D01*
X005311Y012749D02*
X005382Y012697D01*
X005460Y012657D01*
X005544Y012630D01*
X005622Y012618D01*
X005622Y013122D01*
X005728Y013122D01*
X005728Y013228D01*
X006232Y013228D01*
X006220Y013306D01*
X006193Y013390D01*
X006153Y013468D01*
X006101Y013539D01*
X006039Y013601D01*
X005968Y013653D01*
X005890Y013693D01*
X005806Y013720D01*
X005728Y013732D01*
X005728Y013228D01*
X005622Y013228D01*
X005622Y013732D01*
X005544Y013720D01*
X005460Y013693D01*
X005382Y013653D01*
X005311Y013601D01*
X005249Y013539D01*
X005197Y013468D01*
X005157Y013390D01*
X005130Y013306D01*
X005118Y013228D01*
X005622Y013228D01*
X005622Y013122D01*
X005118Y013122D01*
X005130Y013044D01*
X005157Y012960D01*
X005197Y012882D01*
X005249Y012811D01*
X005311Y012749D01*
X005185Y012907D02*
X001490Y012907D01*
X001490Y013055D02*
X005128Y013055D01*
X005622Y013055D02*
X005728Y013055D01*
X005728Y013122D02*
X005728Y012618D01*
X005806Y012630D01*
X005890Y012657D01*
X005968Y012697D01*
X006039Y012749D01*
X006101Y012811D01*
X006153Y012882D01*
X006193Y012960D01*
X006220Y013044D01*
X006232Y013122D01*
X005728Y013122D01*
X005728Y013204D02*
X014573Y013204D01*
X014573Y013352D02*
X006205Y013352D01*
X006129Y013501D02*
X014573Y013501D01*
X014573Y013649D02*
X005973Y013649D01*
X005728Y013649D02*
X005622Y013649D01*
X005622Y013501D02*
X005728Y013501D01*
X005728Y013352D02*
X005622Y013352D01*
X005622Y013204D02*
X001490Y013204D01*
X001490Y013352D02*
X005145Y013352D01*
X005221Y013501D02*
X001490Y013501D01*
X001490Y013649D02*
X005377Y013649D01*
X005622Y012907D02*
X005728Y012907D01*
X005728Y012758D02*
X005622Y012758D01*
X006048Y012758D02*
X009571Y012758D01*
X009580Y012907D02*
X006165Y012907D01*
X006222Y013055D02*
X014573Y013055D01*
X014573Y012907D02*
X011113Y012907D01*
X011109Y012920D02*
X011086Y012960D01*
X011054Y012992D01*
X011014Y013015D01*
X010969Y013027D01*
X010346Y013027D01*
X010346Y012722D01*
X010346Y012722D01*
X011121Y012722D01*
X011121Y012569D01*
X011109Y012525D01*
X011098Y012506D01*
X011109Y012487D01*
X011121Y012442D01*
X011121Y012289D01*
X010346Y012289D01*
X010346Y012289D01*
X010346Y012289D01*
X010346Y012313D02*
X010346Y012313D01*
X010346Y012461D02*
X010346Y012461D01*
X010346Y012610D02*
X010346Y012610D01*
X010346Y012722D02*
X011121Y012722D01*
X011121Y012875D01*
X011109Y012920D01*
X011121Y012758D02*
X014573Y012758D01*
X014573Y012610D02*
X011121Y012610D01*
X011116Y012461D02*
X014573Y012461D01*
X014573Y012313D02*
X011121Y012313D01*
X011121Y012164D02*
X014573Y012164D01*
X014573Y012016D02*
X011047Y012016D01*
X010346Y012016D02*
X010346Y012016D01*
X010346Y012164D02*
X010346Y012164D01*
X010175Y012675D02*
X010175Y014925D01*
X011575Y014925D01*
X011581Y014823D01*
X011886Y014823D01*
X012014Y014823D01*
X012319Y014823D01*
X012319Y015446D01*
X012307Y015490D01*
X012284Y015530D01*
X012251Y015563D01*
X012211Y015586D01*
X012167Y015598D01*
X012014Y015598D01*
X012014Y014823D01*
X012014Y014823D01*
X012014Y014823D01*
X012319Y014823D01*
X012319Y014200D01*
X012307Y014155D01*
X012284Y014115D01*
X012251Y014083D01*
X012211Y014060D01*
X012167Y014048D01*
X012014Y014048D01*
X012014Y014823D01*
X012014Y015598D01*
X011861Y015598D01*
X011816Y015586D01*
X011797Y015575D01*
X011778Y015586D01*
X011734Y015598D01*
X011581Y015598D01*
X011581Y014823D01*
X011581Y014823D01*
X011581Y014823D01*
X012014Y014823D01*
X012075Y014925D01*
X013675Y014925D01*
X013675Y016175D01*
X013693Y016075D01*
X013630Y016025D02*
X001490Y016025D01*
X001490Y015877D02*
X013163Y015877D01*
X013163Y015776D02*
X013175Y015732D01*
X013198Y015692D01*
X013231Y015659D01*
X013271Y015636D01*
X013315Y015624D01*
X013630Y015624D01*
X013630Y016012D01*
X013163Y016012D01*
X013163Y015776D01*
X013178Y015728D02*
X001490Y015728D01*
X001490Y015580D02*
X011372Y015580D01*
X011383Y015586D02*
X011343Y015563D01*
X011310Y015530D01*
X011287Y015490D01*
X011276Y015446D01*
X011276Y014823D01*
X011580Y014823D01*
X011580Y014823D01*
X011581Y014823D02*
X011581Y015598D01*
X011427Y015598D01*
X011383Y015586D01*
X011276Y015431D02*
X001490Y015431D01*
X001490Y015283D02*
X011276Y015283D01*
X011276Y015134D02*
X001490Y015134D01*
X001490Y014986D02*
X011276Y014986D01*
X011276Y014837D02*
X001490Y014837D01*
X001490Y014689D02*
X011276Y014689D01*
X011276Y014823D02*
X011276Y014200D01*
X011287Y014155D01*
X011310Y014115D01*
X011343Y014083D01*
X011383Y014060D01*
X011427Y014048D01*
X011581Y014048D01*
X011734Y014048D01*
X011778Y014060D01*
X011797Y014071D01*
X011816Y014060D01*
X011861Y014048D01*
X012014Y014048D01*
X012014Y014823D01*
X011975Y014925D01*
X011675Y014925D01*
X011581Y014823D01*
X011581Y014048D01*
X011581Y014823D01*
X011581Y014823D01*
X011580Y014823D02*
X011276Y014823D01*
X011276Y014540D02*
X001490Y014540D01*
X001490Y014392D02*
X011276Y014392D01*
X011276Y014243D02*
X001490Y014243D01*
X001490Y014095D02*
X011331Y014095D01*
X011581Y014095D02*
X011581Y014095D01*
X011581Y014243D02*
X011581Y014243D01*
X011581Y014392D02*
X011581Y014392D01*
X011581Y014540D02*
X011581Y014540D01*
X011581Y014689D02*
X011581Y014689D01*
X011581Y014837D02*
X011581Y014837D01*
X011575Y014925D02*
X011575Y019775D01*
X018575Y019775D01*
X019175Y019175D01*
X020175Y019175D01*
X020200Y019200D02*
X020200Y019670D01*
X020380Y019670D01*
X020670Y019380D01*
X020670Y019200D01*
X020200Y019200D01*
X020200Y019292D02*
X020150Y019292D01*
X020150Y019441D02*
X020200Y019441D01*
X020200Y019589D02*
X020150Y019589D01*
X019889Y019589D02*
X019461Y019589D01*
X019380Y019670D02*
X019200Y019670D01*
X019200Y019200D01*
X019670Y019200D01*
X019670Y019380D01*
X019380Y019670D01*
X019200Y019589D02*
X019150Y019589D01*
X019150Y019441D02*
X019200Y019441D01*
X019200Y019292D02*
X019150Y019292D01*
X018889Y019589D02*
X018659Y019589D01*
X018510Y019738D02*
X022769Y019738D01*
X022620Y019589D02*
X020461Y019589D01*
X020610Y019441D02*
X022544Y019441D01*
X022490Y019292D02*
X020670Y019292D01*
X020670Y019144D02*
X022490Y019144D01*
X022508Y018995D02*
X020670Y018995D01*
X020547Y018847D02*
X022570Y018847D01*
X022683Y018698D02*
X020550Y018698D01*
X020698Y018550D02*
X022895Y018550D01*
X023455Y018550D02*
X023810Y018550D01*
X023810Y018401D02*
X020810Y018401D01*
X020810Y018253D02*
X023810Y018253D01*
X023810Y018104D02*
X020810Y018104D01*
X020810Y017956D02*
X023810Y017956D01*
X023810Y017807D02*
X020705Y017807D01*
X020660Y017659D02*
X023810Y017659D01*
X023810Y017510D02*
X020778Y017510D01*
X020839Y017362D02*
X023810Y017362D01*
X023810Y017213D02*
X020860Y017213D01*
X020860Y017065D02*
X023810Y017065D01*
X023810Y016916D02*
X020809Y016916D01*
X020736Y016768D02*
X021315Y016768D01*
X021150Y016619D02*
X020588Y016619D01*
X022035Y016768D02*
X023845Y016768D01*
X023965Y016619D02*
X022200Y016619D01*
X022294Y016471D02*
X024113Y016471D01*
X024262Y016322D02*
X022356Y016322D01*
X022360Y016174D02*
X024410Y016174D01*
X024559Y016025D02*
X022354Y016025D01*
X022490Y015877D02*
X024707Y015877D01*
X024856Y015728D02*
X022638Y015728D01*
X022787Y015580D02*
X025004Y015580D01*
X023602Y014740D02*
X023468Y014684D01*
X021919Y013135D01*
X021919Y013387D01*
X021871Y013503D01*
X021782Y013592D01*
X021666Y013640D01*
X021340Y013640D01*
X021340Y014412D01*
X021412Y014483D01*
X021433Y014534D01*
X021539Y014490D01*
X021811Y014490D01*
X022063Y014594D01*
X022256Y014787D01*
X022341Y014993D01*
X022468Y014866D01*
X022602Y014810D01*
X031998Y014810D01*
X032132Y014866D01*
X032234Y014968D01*
X032882Y015616D01*
X032984Y015718D01*
X033040Y015852D01*
X033040Y016524D01*
X033556Y017039D01*
X033556Y016750D01*
X034010Y016750D01*
X034010Y017205D01*
X033721Y017205D01*
X033926Y017410D01*
X034848Y017410D01*
X034982Y017466D01*
X035084Y017568D01*
X035366Y017850D01*
X035898Y017850D01*
X036013Y017898D01*
X036102Y017987D01*
X036150Y018102D01*
X036150Y018448D01*
X036102Y018563D01*
X036013Y018652D01*
X036010Y018653D01*
X036010Y018675D01*
X036010Y018697D01*
X036013Y018698D01*
X036102Y018787D01*
X036150Y018902D01*
X036150Y019189D01*
X036157Y019163D01*
X036180Y019123D01*
X036213Y019090D01*
X036253Y019067D01*
X036297Y019056D01*
X036600Y019056D01*
X036600Y019510D01*
X036750Y019510D01*
X036750Y019660D01*
X037205Y019660D01*
X037205Y019749D01*
X037292Y019837D01*
X037340Y019952D01*
X037340Y020336D01*
X037345Y020348D01*
X037345Y020785D01*
X037667Y020785D01*
X037777Y020675D01*
X037540Y020438D01*
X037540Y019912D01*
X037777Y019675D01*
X037540Y019438D01*
X037540Y018912D01*
X037777Y018675D01*
X037710Y018608D01*
X037563Y018756D01*
X037311Y018860D01*
X037039Y018860D01*
X036787Y018756D01*
X036594Y018563D01*
X036490Y018311D01*
X036490Y018039D01*
X036594Y017787D01*
X036706Y017675D01*
X036594Y017563D01*
X036490Y017311D01*
X036490Y017039D01*
X036594Y016787D01*
X036787Y016594D01*
X037039Y016490D01*
X037311Y016490D01*
X037563Y016594D01*
X037710Y016742D01*
X037777Y016675D01*
X037540Y016438D01*
X037540Y015912D01*
X037777Y015675D01*
X037540Y015438D01*
X037540Y014912D01*
X037777Y014675D01*
X037540Y014438D01*
X037540Y013912D01*
X037777Y013675D01*
X037540Y013438D01*
X037540Y012912D01*
X037777Y012675D01*
X037540Y012438D01*
X037540Y011912D01*
X037777Y011675D01*
X037540Y011438D01*
X037540Y010912D01*
X037777Y010675D01*
X037540Y010438D01*
X037540Y009912D01*
X037777Y009675D01*
X037540Y009438D01*
X037540Y008912D01*
X037777Y008675D01*
X037540Y008438D01*
X037540Y007912D01*
X037777Y007675D01*
X037540Y007438D01*
X037540Y007326D01*
X037390Y007476D01*
X037390Y013448D01*
X037334Y013582D01*
X037232Y013684D01*
X037098Y013740D01*
X037095Y013740D01*
X037095Y014502D01*
X037090Y014514D01*
X037090Y014836D01*
X037095Y014848D01*
X037095Y015682D01*
X037047Y015798D01*
X036958Y015887D01*
X036843Y015934D01*
X036007Y015934D01*
X035892Y015887D01*
X035803Y015798D01*
X035772Y015722D01*
X035712Y015867D01*
X035665Y015913D01*
X035665Y016005D01*
X035682Y016005D01*
X035798Y016053D01*
X035887Y016142D01*
X035934Y016257D01*
X035934Y017093D01*
X035887Y017208D01*
X035798Y017297D01*
X035682Y017345D01*
X034848Y017345D01*
X034836Y017340D01*
X034452Y017340D01*
X034337Y017292D01*
X034249Y017205D01*
X034160Y017205D01*
X034160Y016750D01*
X034200Y016750D01*
X034200Y016600D01*
X034160Y016600D01*
X034160Y016750D01*
X034010Y016750D01*
X034010Y016600D01*
X034160Y016600D01*
X034160Y016145D01*
X034249Y016145D01*
X034337Y016058D01*
X034452Y016010D01*
X034836Y016010D01*
X034848Y016005D01*
X034885Y016005D01*
X034885Y015913D01*
X034838Y015867D01*
X034760Y015677D01*
X034760Y015500D01*
X034410Y015500D01*
X034440Y015573D01*
X034440Y015777D01*
X034362Y015967D01*
X034217Y016112D01*
X034027Y016190D01*
X034010Y016190D01*
X034010Y016600D01*
X033556Y016600D01*
X033556Y016297D01*
X033567Y016253D01*
X033590Y016213D01*
X033623Y016180D01*
X033663Y016157D01*
X033707Y016145D01*
X033714Y016145D01*
X033633Y016112D01*
X033488Y015967D01*
X033410Y015777D01*
X033410Y015712D01*
X033198Y015500D01*
X032952Y015500D01*
X032837Y015452D01*
X032748Y015363D01*
X032700Y015248D01*
X032700Y014902D01*
X032748Y014787D01*
X032837Y014698D01*
X032840Y014697D01*
X032840Y014676D01*
X032832Y014684D01*
X032698Y014740D01*
X023602Y014740D01*
X023575Y014675D02*
X021675Y012775D01*
X021075Y012775D01*
X021004Y012762D01*
X020975Y012775D01*
X020175Y012775D01*
X020175Y013775D01*
X019975Y013975D01*
X018375Y013975D01*
X018375Y014775D01*
X018352Y014823D01*
X015525Y015025D02*
X014775Y015025D01*
X014691Y014823D01*
X014675Y014875D01*
X014675Y016175D01*
X014657Y016075D01*
X014675Y016175D02*
X014675Y017175D01*
X014765Y017075D01*
X014775Y017175D01*
X014875Y017275D01*
X014925Y017175D01*
X015425Y017675D01*
X015425Y018425D01*
X016175Y019175D01*
X017175Y019175D01*
X018175Y019175D01*
X017691Y019589D02*
X017659Y019589D01*
X017510Y019738D02*
X017840Y019738D01*
X017711Y020490D02*
X017963Y020594D01*
X018156Y020787D01*
X018260Y021039D01*
X018260Y021311D01*
X018156Y021563D01*
X017963Y021756D01*
X017711Y021860D01*
X017439Y021860D01*
X017187Y021756D01*
X017075Y021644D01*
X016963Y021756D01*
X016711Y021860D01*
X016439Y021860D01*
X016187Y021756D01*
X016075Y021644D01*
X015963Y021756D01*
X015711Y021860D01*
X015439Y021860D01*
X015187Y021756D01*
X015075Y021644D01*
X014963Y021756D01*
X014711Y021860D01*
X014439Y021860D01*
X014187Y021756D01*
X014075Y021644D01*
X013963Y021756D01*
X013711Y021860D01*
X013439Y021860D01*
X013187Y021756D01*
X013075Y021644D01*
X012963Y021756D01*
X012711Y021860D01*
X012439Y021860D01*
X012187Y021756D01*
X011994Y021563D01*
X011984Y021537D01*
X011930Y021591D01*
X011861Y021641D01*
X011784Y021680D01*
X011703Y021707D01*
X011618Y021720D01*
X011600Y021720D01*
X011600Y021200D01*
X011550Y021200D01*
X011550Y021720D01*
X011532Y021720D01*
X011447Y021707D01*
X011366Y021680D01*
X011289Y021641D01*
X011220Y021591D01*
X011166Y021537D01*
X011156Y021563D01*
X010963Y021756D01*
X010711Y021860D01*
X010439Y021860D01*
X010187Y021756D01*
X010075Y021644D01*
X009963Y021756D01*
X009711Y021860D01*
X009439Y021860D01*
X009187Y021756D01*
X009075Y021644D01*
X008963Y021756D01*
X008711Y021860D01*
X008439Y021860D01*
X008187Y021756D01*
X007994Y021563D01*
X007890Y021311D01*
X007890Y021039D01*
X007994Y020787D01*
X008187Y020594D01*
X008439Y020490D01*
X008711Y020490D01*
X008963Y020594D01*
X009075Y020706D01*
X009187Y020594D01*
X009439Y020490D01*
X009711Y020490D01*
X009963Y020594D01*
X010075Y020706D01*
X010187Y020594D01*
X010439Y020490D01*
X010711Y020490D01*
X010963Y020594D01*
X011156Y020787D01*
X011166Y020813D01*
X011220Y020759D01*
X011289Y020709D01*
X011366Y020670D01*
X011447Y020643D01*
X011532Y020630D01*
X011550Y020630D01*
X011550Y021150D01*
X011600Y021150D01*
X011600Y020630D01*
X011618Y020630D01*
X011703Y020643D01*
X011784Y020670D01*
X011861Y020709D01*
X011930Y020759D01*
X011984Y020813D01*
X011994Y020787D01*
X012187Y020594D01*
X012439Y020490D01*
X012711Y020490D01*
X012963Y020594D01*
X013075Y020706D01*
X013187Y020594D01*
X013439Y020490D01*
X013711Y020490D01*
X013963Y020594D01*
X014075Y020706D01*
X014187Y020594D01*
X014439Y020490D01*
X014711Y020490D01*
X014963Y020594D01*
X015075Y020706D01*
X015187Y020594D01*
X015439Y020490D01*
X015711Y020490D01*
X015963Y020594D01*
X016075Y020706D01*
X016187Y020594D01*
X016439Y020490D01*
X016711Y020490D01*
X016963Y020594D01*
X017075Y020706D01*
X017187Y020594D01*
X017439Y020490D01*
X017711Y020490D01*
X017997Y020629D02*
X018753Y020629D01*
X018604Y020777D02*
X018146Y020777D01*
X018213Y020926D02*
X018537Y020926D01*
X018490Y021074D02*
X018260Y021074D01*
X018260Y021223D02*
X018490Y021223D01*
X018515Y021371D02*
X018235Y021371D01*
X018174Y021520D02*
X018576Y021520D01*
X018699Y021668D02*
X018051Y021668D01*
X017816Y021817D02*
X018934Y021817D01*
X019416Y021817D02*
X019934Y021817D01*
X019699Y021668D02*
X019651Y021668D01*
X020416Y021817D02*
X020934Y021817D01*
X020699Y021668D02*
X020651Y021668D01*
X021416Y021817D02*
X021934Y021817D01*
X021699Y021668D02*
X021651Y021668D01*
X022416Y021817D02*
X022934Y021817D01*
X022699Y021668D02*
X022651Y021668D01*
X023416Y021817D02*
X023934Y021817D01*
X023699Y021668D02*
X023651Y021668D01*
X024416Y021817D02*
X024934Y021817D01*
X024699Y021668D02*
X024651Y021668D01*
X025416Y021817D02*
X025934Y021817D01*
X025699Y021668D02*
X025651Y021668D01*
X026416Y021817D02*
X027934Y021817D01*
X027699Y021668D02*
X026651Y021668D01*
X026774Y021520D02*
X027576Y021520D01*
X027515Y021371D02*
X026835Y021371D01*
X026860Y021223D02*
X027490Y021223D01*
X027490Y021074D02*
X026860Y021074D01*
X026813Y020926D02*
X027537Y020926D01*
X027604Y020777D02*
X026746Y020777D01*
X026690Y020629D02*
X027753Y020629D01*
X027752Y020480D02*
X026790Y020480D01*
X026852Y020332D02*
X027682Y020332D01*
X027660Y020183D02*
X026860Y020183D01*
X026858Y020035D02*
X027676Y020035D01*
X028175Y020175D02*
X031175Y020175D01*
X031775Y019575D01*
X033475Y019575D01*
X033525Y019525D01*
X033575Y019575D01*
X033525Y019525D02*
X033975Y019075D01*
X034025Y019075D01*
X034025Y018675D02*
X035325Y018675D01*
X036425Y018675D01*
X036425Y017425D01*
X034175Y017425D01*
X034175Y016675D01*
X034085Y016675D01*
X033975Y016675D01*
X034010Y016619D02*
X033135Y016619D01*
X033040Y016471D02*
X033556Y016471D01*
X033556Y016322D02*
X033040Y016322D01*
X033040Y016174D02*
X033634Y016174D01*
X033547Y016025D02*
X033040Y016025D01*
X033040Y015877D02*
X033451Y015877D01*
X033410Y015728D02*
X032988Y015728D01*
X032846Y015580D02*
X033278Y015580D01*
X032816Y015431D02*
X032697Y015431D01*
X032775Y015375D02*
X032775Y014675D01*
X023575Y014675D01*
X023478Y014689D02*
X022157Y014689D01*
X022276Y014837D02*
X022537Y014837D01*
X022348Y014986D02*
X022338Y014986D01*
X021932Y014540D02*
X023324Y014540D01*
X023175Y014392D02*
X021340Y014392D01*
X021340Y014243D02*
X023027Y014243D01*
X022878Y014095D02*
X021340Y014095D01*
X021340Y013946D02*
X022730Y013946D01*
X022581Y013798D02*
X021340Y013798D01*
X021340Y013649D02*
X022433Y013649D01*
X022284Y013501D02*
X021872Y013501D01*
X021919Y013352D02*
X022136Y013352D01*
X021987Y013204D02*
X021919Y013204D01*
X022826Y012610D02*
X025555Y012610D01*
X025538Y012627D02*
X025598Y012567D01*
X025594Y012563D01*
X025585Y012540D01*
X025502Y012540D01*
X025368Y012484D01*
X025266Y012382D01*
X025210Y012248D01*
X025210Y010856D01*
X024632Y011434D01*
X024498Y011490D01*
X022338Y011490D01*
X022267Y011562D01*
X022077Y011640D01*
X021893Y011640D01*
X021919Y011702D01*
X023926Y013710D01*
X025532Y013710D01*
X025490Y013608D01*
X025490Y012742D01*
X025538Y012627D01*
X025490Y012758D02*
X022974Y012758D01*
X023123Y012907D02*
X025490Y012907D01*
X025490Y013055D02*
X023271Y013055D01*
X023420Y013204D02*
X025490Y013204D01*
X025490Y013352D02*
X023568Y013352D01*
X023717Y013501D02*
X025490Y013501D01*
X025507Y013649D02*
X023865Y013649D01*
X022677Y012461D02*
X025345Y012461D01*
X025237Y012313D02*
X022529Y012313D01*
X022380Y012164D02*
X025210Y012164D01*
X025210Y012016D02*
X022232Y012016D01*
X022083Y011867D02*
X025210Y011867D01*
X025210Y011719D02*
X021935Y011719D01*
X022246Y011570D02*
X025210Y011570D01*
X025210Y011422D02*
X024645Y011422D01*
X024793Y011273D02*
X025210Y011273D01*
X025210Y011125D02*
X024942Y011125D01*
X025090Y010976D02*
X025210Y010976D01*
X026322Y010494D02*
X026563Y010594D01*
X026756Y010787D01*
X026766Y010813D01*
X026820Y010759D01*
X026889Y010709D01*
X026966Y010670D01*
X027047Y010643D01*
X027132Y010630D01*
X027150Y010630D01*
X027150Y011150D01*
X027200Y011150D01*
X027200Y011200D01*
X027720Y011200D01*
X027720Y011218D01*
X027707Y011303D01*
X027680Y011384D01*
X027641Y011461D01*
X027591Y011530D01*
X027537Y011584D01*
X027563Y011594D01*
X027756Y011787D01*
X027860Y012039D01*
X027860Y012311D01*
X027756Y012563D01*
X027644Y012675D01*
X027756Y012787D01*
X027848Y013010D01*
X033056Y013010D01*
X033056Y012750D01*
X033510Y012750D01*
X033510Y012600D01*
X033660Y012600D01*
X033660Y012145D01*
X033749Y012145D01*
X033837Y012058D01*
X033952Y012010D01*
X033965Y012010D01*
X033954Y012006D01*
X033844Y011896D01*
X033448Y011500D01*
X032952Y011500D01*
X032837Y011452D01*
X032748Y011363D01*
X032700Y011248D01*
X032700Y010902D01*
X032748Y010787D01*
X032837Y010698D01*
X032840Y010697D01*
X032840Y010675D01*
X032892Y010675D01*
X032892Y010675D01*
X032892Y010675D01*
X032840Y010675D01*
X032840Y010653D01*
X032837Y010652D01*
X032825Y010640D01*
X032415Y010640D01*
X032387Y010708D01*
X032298Y010797D01*
X032182Y010845D01*
X031348Y010845D01*
X031336Y010840D01*
X031035Y010840D01*
X031090Y010973D01*
X031090Y011177D01*
X031012Y011367D01*
X030867Y011512D01*
X030677Y011590D01*
X030473Y011590D01*
X030283Y011512D01*
X030138Y011367D01*
X030060Y011177D01*
X030060Y010973D01*
X030121Y010825D01*
X030052Y010797D01*
X029963Y010708D01*
X029916Y010593D01*
X029916Y009790D01*
X029826Y009790D01*
X028690Y010926D01*
X028690Y011027D01*
X028612Y011217D01*
X028467Y011362D01*
X028277Y011440D01*
X028073Y011440D01*
X027883Y011362D01*
X027738Y011217D01*
X027711Y011150D01*
X027200Y011150D01*
X027200Y010630D01*
X027218Y010630D01*
X027303Y010643D01*
X027384Y010670D01*
X027461Y010709D01*
X027530Y010759D01*
X027591Y010820D01*
X027641Y010889D01*
X027660Y010926D01*
X027660Y010823D01*
X027738Y010633D01*
X027883Y010488D01*
X028073Y010410D01*
X028174Y010410D01*
X029319Y009265D01*
X029061Y009265D01*
X029047Y009298D01*
X028958Y009387D01*
X028843Y009434D01*
X028233Y009434D01*
X028290Y009573D01*
X028290Y009777D01*
X028212Y009967D01*
X028067Y010112D01*
X027877Y010190D01*
X027673Y010190D01*
X027483Y010112D01*
X027412Y010040D01*
X027190Y010040D01*
X027190Y010177D01*
X027112Y010367D01*
X026967Y010512D01*
X026777Y010590D01*
X026573Y010590D01*
X026383Y010512D01*
X026344Y010472D01*
X026322Y010494D01*
X026409Y010531D02*
X026429Y010531D01*
X026648Y010679D02*
X026948Y010679D01*
X026921Y010531D02*
X027841Y010531D01*
X027719Y010679D02*
X027402Y010679D01*
X027200Y010679D02*
X027150Y010679D01*
X027150Y010828D02*
X027200Y010828D01*
X027200Y010976D02*
X027150Y010976D01*
X027150Y011125D02*
X027200Y011125D01*
X027175Y011175D02*
X027475Y011475D01*
X032375Y011475D01*
X032375Y010675D01*
X033525Y010675D01*
X034825Y010675D01*
X035975Y010675D01*
X035975Y009875D01*
X035125Y009025D01*
X036075Y008075D01*
X036285Y008065D02*
X034520Y008065D01*
X034601Y008145D01*
X034690Y008145D01*
X034690Y008600D01*
X034840Y008600D01*
X034840Y008145D01*
X035143Y008145D01*
X035187Y008157D01*
X035227Y008180D01*
X035260Y008213D01*
X035283Y008253D01*
X035294Y008297D01*
X035294Y008600D01*
X034840Y008600D01*
X036285Y008600D01*
X036285Y008452D02*
X035294Y008452D01*
X035294Y008303D02*
X036285Y008303D01*
X036285Y008155D02*
X035178Y008155D01*
X034840Y008155D02*
X034690Y008155D01*
X034690Y008303D02*
X034840Y008303D01*
X034840Y008452D02*
X034690Y008452D01*
X034840Y008600D02*
X034840Y008750D01*
X034690Y008750D01*
X034690Y009205D01*
X034601Y009205D01*
X034513Y009292D01*
X034398Y009340D01*
X034356Y009340D01*
X034866Y009850D01*
X035398Y009850D01*
X035513Y009898D01*
X035602Y009987D01*
X035650Y010102D01*
X035650Y010448D01*
X035603Y010560D01*
X035777Y010560D01*
X035967Y010638D01*
X036112Y010783D01*
X036142Y010857D01*
X036285Y010713D01*
X036285Y008065D01*
X036675Y007675D02*
X036675Y005675D01*
X036175Y005175D01*
X033175Y005175D01*
X030925Y002925D01*
X029925Y002925D01*
X028575Y001575D01*
X020775Y001575D01*
X019425Y002925D01*
X018925Y002925D01*
X018075Y003775D01*
X013775Y003775D01*
X013175Y003175D01*
X011675Y004175D02*
X011275Y003775D01*
X009175Y003775D01*
X009025Y003775D01*
X009175Y003775D02*
X009175Y002925D01*
X008175Y002925D01*
X004175Y002925D01*
X004175Y002175D01*
X003691Y002660D02*
X003308Y002660D01*
X003331Y002605D02*
X003193Y002938D01*
X002938Y003193D01*
X002605Y003331D01*
X002245Y003331D01*
X001912Y003193D01*
X001657Y002938D01*
X001519Y002605D01*
X001519Y002245D01*
X001657Y001912D01*
X001912Y001657D01*
X002245Y001519D01*
X002605Y001519D01*
X002938Y001657D01*
X003193Y001912D01*
X003331Y002245D01*
X003331Y002605D01*
X003331Y002512D02*
X003573Y002512D01*
X003511Y002363D02*
X003331Y002363D01*
X003318Y002215D02*
X003490Y002215D01*
X003490Y002066D02*
X003256Y002066D01*
X003195Y001918D02*
X003540Y001918D01*
X003612Y001769D02*
X003050Y001769D01*
X002849Y001621D02*
X003761Y001621D01*
X004589Y001621D02*
X004761Y001621D01*
X005589Y001621D02*
X005761Y001621D01*
X006589Y001621D02*
X006761Y001621D01*
X007589Y001621D02*
X007761Y001621D01*
X008589Y001621D02*
X008761Y001621D01*
X009175Y002175D02*
X009775Y001575D01*
X014575Y001575D01*
X015175Y002175D01*
X015675Y001706D02*
X015787Y001594D01*
X016039Y001490D01*
X016311Y001490D01*
X016563Y001594D01*
X016756Y001787D01*
X016766Y001813D01*
X016820Y001759D01*
X016889Y001709D01*
X016966Y001670D01*
X017047Y001643D01*
X017132Y001630D01*
X017150Y001630D01*
X017150Y002150D01*
X017200Y002150D01*
X017200Y002200D01*
X017150Y002200D01*
X017150Y003150D01*
X017200Y003150D01*
X017200Y003200D01*
X017720Y003200D01*
X017720Y003218D01*
X017707Y003303D01*
X017680Y003384D01*
X017680Y003385D01*
X017913Y003385D01*
X018665Y002634D01*
X018594Y002563D01*
X018584Y002537D01*
X018530Y002591D01*
X018461Y002641D01*
X018384Y002680D01*
X018303Y002707D01*
X018218Y002720D01*
X018200Y002720D01*
X018200Y002200D01*
X018150Y002200D01*
X018150Y002720D01*
X018132Y002720D01*
X018047Y002707D01*
X017966Y002680D01*
X017889Y002641D01*
X017820Y002591D01*
X017759Y002530D01*
X017709Y002461D01*
X017675Y002394D01*
X017641Y002461D01*
X017591Y002530D01*
X017530Y002591D01*
X017461Y002641D01*
X017394Y002675D01*
X017461Y002709D01*
X017530Y002759D01*
X017591Y002820D01*
X017641Y002889D01*
X017680Y002966D01*
X017707Y003047D01*
X017720Y003132D01*
X017720Y003150D01*
X017200Y003150D01*
X017200Y002720D01*
X017200Y002200D01*
X018150Y002200D01*
X018150Y002150D01*
X018200Y002150D01*
X018200Y001630D01*
X018218Y001630D01*
X018303Y001643D01*
X018384Y001670D01*
X018461Y001709D01*
X018530Y001759D01*
X018584Y001813D01*
X018594Y001787D01*
X018787Y001594D01*
X019039Y001490D01*
X019311Y001490D01*
X019563Y001594D01*
X019756Y001787D01*
X019831Y001968D01*
X020308Y001490D01*
X015042Y001490D01*
X015311Y001490D01*
X015563Y001594D01*
X015675Y001706D01*
X015589Y001621D02*
X015761Y001621D01*
X015042Y001490D02*
X015042Y001490D01*
X016589Y001621D02*
X018761Y001621D01*
X018612Y001769D02*
X018540Y001769D01*
X018200Y001769D02*
X018150Y001769D01*
X018150Y001630D02*
X018150Y002150D01*
X017720Y002150D01*
X017200Y002150D01*
X017200Y001630D01*
X017218Y001630D01*
X017303Y001643D01*
X017384Y001670D01*
X017461Y001709D01*
X017530Y001759D01*
X017591Y001820D01*
X017641Y001889D01*
X017675Y001956D01*
X017709Y001889D01*
X017759Y001820D01*
X017820Y001759D01*
X017889Y001709D01*
X017966Y001670D01*
X018047Y001643D01*
X018132Y001630D01*
X018150Y001630D01*
X017810Y001769D02*
X017540Y001769D01*
X017655Y001918D02*
X017695Y001918D01*
X018150Y001918D02*
X018200Y001918D01*
X018200Y002066D02*
X018150Y002066D01*
X018150Y002215D02*
X018200Y002215D01*
X018200Y002363D02*
X018150Y002363D01*
X018150Y002512D02*
X018200Y002512D01*
X018200Y002660D02*
X018150Y002660D01*
X017926Y002660D02*
X017424Y002660D01*
X017579Y002809D02*
X018490Y002809D01*
X018424Y002660D02*
X018638Y002660D01*
X018341Y002957D02*
X017676Y002957D01*
X017716Y003106D02*
X018193Y003106D01*
X018044Y003254D02*
X017714Y003254D01*
X017200Y003106D02*
X017150Y003106D01*
X017150Y002957D02*
X017200Y002957D01*
X017200Y002809D02*
X017150Y002809D01*
X017150Y002660D02*
X017200Y002660D01*
X017200Y002512D02*
X017150Y002512D01*
X017150Y002363D02*
X017200Y002363D01*
X017200Y002215D02*
X017150Y002215D01*
X017150Y002066D02*
X017200Y002066D01*
X017200Y001918D02*
X017150Y001918D01*
X017150Y001769D02*
X017200Y001769D01*
X016810Y001769D02*
X016738Y001769D01*
X017604Y002512D02*
X017746Y002512D01*
X018999Y003403D02*
X020230Y003403D01*
X020238Y003383D02*
X020383Y003238D01*
X020573Y003160D01*
X020777Y003160D01*
X020967Y003238D01*
X021038Y003310D01*
X021830Y003310D01*
X021768Y003284D01*
X021666Y003182D01*
X021334Y002850D01*
X021311Y002860D01*
X021039Y002860D01*
X020787Y002756D01*
X020594Y002563D01*
X020519Y002382D01*
X019646Y003256D01*
X019503Y003315D01*
X019087Y003315D01*
X018406Y003996D01*
X018296Y004106D01*
X018198Y004146D01*
X018337Y004285D01*
X018666Y004285D01*
X018666Y004257D01*
X018713Y004142D01*
X018802Y004053D01*
X018918Y004005D01*
X019752Y004005D01*
X019764Y004010D01*
X020148Y004010D01*
X020263Y004058D01*
X020351Y004145D01*
X020440Y004145D01*
X020440Y004600D01*
X020590Y004600D01*
X020590Y004190D01*
X020573Y004190D01*
X020383Y004112D01*
X020238Y003967D01*
X020160Y003777D01*
X020160Y003573D01*
X020238Y003383D01*
X020169Y003551D02*
X018851Y003551D01*
X018702Y003700D02*
X020160Y003700D01*
X020189Y003848D02*
X018554Y003848D01*
X018405Y003997D02*
X020268Y003997D01*
X020350Y004145D02*
X020464Y004145D01*
X020440Y004294D02*
X020590Y004294D01*
X020590Y004442D02*
X020440Y004442D01*
X020425Y004425D02*
X020275Y004575D01*
X020515Y004675D01*
X020275Y004675D01*
X020775Y004175D01*
X025025Y004175D01*
X026325Y004175D01*
X026325Y004575D02*
X028275Y004575D01*
X028375Y004675D01*
X028425Y004765D01*
X028475Y004775D01*
X028425Y004925D01*
X028425Y005175D01*
X033175Y005175D01*
X033291Y004739D02*
X036160Y004739D01*
X036215Y004591D02*
X033142Y004591D01*
X032994Y004442D02*
X036330Y004442D01*
X037020Y004442D02*
X037742Y004442D01*
X037680Y004294D02*
X032845Y004294D01*
X032697Y004145D02*
X037680Y004145D01*
X037680Y004150D02*
X037680Y003970D01*
X037970Y003680D01*
X038150Y003680D01*
X038150Y004150D01*
X037680Y004150D01*
X037680Y003997D02*
X032548Y003997D01*
X032400Y003848D02*
X033010Y003848D01*
X032731Y003700D02*
X032619Y003700D01*
X033340Y003848D02*
X034010Y003848D01*
X033731Y003700D02*
X033619Y003700D01*
X034340Y003848D02*
X035010Y003848D01*
X034731Y003700D02*
X034619Y003700D01*
X035340Y003848D02*
X037802Y003848D01*
X037950Y003700D02*
X035619Y003700D01*
X035761Y003551D02*
X038780Y003551D01*
X038679Y003403D02*
X035822Y003403D01*
X035860Y003254D02*
X038636Y003254D01*
X038630Y003150D02*
X038630Y003132D01*
X038643Y003047D01*
X038670Y002966D01*
X038709Y002889D01*
X038759Y002820D01*
X038820Y002759D01*
X038889Y002709D01*
X038966Y002670D01*
X039047Y002643D01*
X039132Y002630D01*
X039150Y002630D01*
X039150Y003150D01*
X039200Y003150D01*
X039200Y003200D01*
X039720Y003200D01*
X039720Y003218D01*
X039707Y003303D01*
X039680Y003384D01*
X039641Y003461D01*
X039591Y003530D01*
X039530Y003591D01*
X039461Y003641D01*
X039384Y003680D01*
X039381Y003681D01*
X039670Y003970D01*
X039670Y004150D01*
X039200Y004150D01*
X039200Y003200D01*
X039150Y003200D01*
X039150Y003150D01*
X038630Y003150D01*
X038634Y003106D02*
X035860Y003106D01*
X035826Y002957D02*
X038674Y002957D01*
X038771Y002809D02*
X037436Y002809D01*
X037659Y002660D02*
X038996Y002660D01*
X039150Y002660D02*
X039200Y002660D01*
X039200Y002630D02*
X039218Y002630D01*
X039303Y002643D01*
X039384Y002670D01*
X039461Y002709D01*
X039530Y002759D01*
X039591Y002820D01*
X039641Y002889D01*
X039680Y002966D01*
X039707Y003047D01*
X039720Y003132D01*
X039720Y003150D01*
X039200Y003150D01*
X039200Y002630D01*
X039354Y002660D02*
X039860Y002660D01*
X039860Y002512D02*
X037777Y002512D01*
X037839Y002363D02*
X039860Y002363D01*
X039860Y002215D02*
X037860Y002215D01*
X037860Y002066D02*
X039860Y002066D01*
X039860Y001918D02*
X037810Y001918D01*
X037738Y001769D02*
X039860Y001769D01*
X039849Y001621D02*
X037589Y001621D01*
X036761Y001621D02*
X036589Y001621D01*
X035761Y001621D02*
X035589Y001621D01*
X034761Y001621D02*
X034589Y001621D01*
X033761Y001621D02*
X033589Y001621D01*
X032761Y001621D02*
X032589Y001621D01*
X031761Y001621D02*
X031589Y001621D01*
X030761Y001621D02*
X030589Y001621D01*
X029761Y001621D02*
X029172Y001621D01*
X029321Y001769D02*
X029612Y001769D01*
X029540Y001918D02*
X029469Y001918D01*
X025075Y004575D02*
X025025Y004575D01*
X025075Y004575D02*
X025075Y005375D01*
X022075Y005375D01*
X019175Y005375D01*
X018775Y005775D01*
X018775Y006475D01*
X018785Y006527D01*
X019218Y006527D02*
X019275Y006575D01*
X019275Y007375D01*
X017875Y007375D01*
X017875Y006575D01*
X017919Y006527D01*
X017075Y006575D02*
X017053Y006527D01*
X017075Y006475D01*
X017075Y005575D01*
X017110Y005526D02*
X016940Y005356D01*
X016940Y005672D01*
X017017Y005749D01*
X017018Y005752D01*
X017053Y005752D01*
X017088Y005752D01*
X017089Y005749D01*
X017110Y005728D01*
X017110Y005526D01*
X017065Y005482D02*
X016940Y005482D01*
X016940Y005630D02*
X017110Y005630D01*
X017053Y005752D02*
X017053Y005836D01*
X017053Y005836D01*
X017053Y005836D01*
X017053Y005752D01*
X017053Y005779D02*
X017053Y005779D01*
X017075Y006575D02*
X017075Y007375D01*
X013875Y007375D01*
X013875Y006575D01*
X013903Y006527D01*
X013925Y006425D01*
X012175Y006425D01*
X012132Y006527D01*
X012132Y006527D01*
X012437Y006527D01*
X012437Y005904D01*
X012425Y005860D01*
X012402Y005820D01*
X012369Y005787D01*
X012329Y005764D01*
X012285Y005752D01*
X012132Y005752D01*
X012132Y006527D01*
X012132Y006527D01*
X012132Y005752D01*
X011979Y005752D01*
X011934Y005764D01*
X011915Y005775D01*
X011896Y005764D01*
X011852Y005752D01*
X011699Y005752D01*
X011699Y006527D01*
X011699Y006527D01*
X012132Y006527D01*
X012437Y006527D01*
X012437Y007150D01*
X012425Y007195D01*
X012402Y007235D01*
X012369Y007267D01*
X012329Y007290D01*
X012285Y007302D01*
X012132Y007302D01*
X012132Y006527D01*
X012132Y006527D01*
X012132Y006527D01*
X012004Y006527D01*
X011699Y006527D01*
X011699Y006527D01*
X011699Y005752D01*
X011546Y005752D01*
X011501Y005764D01*
X011461Y005787D01*
X011429Y005820D01*
X011406Y005860D01*
X011394Y005904D01*
X011394Y006527D01*
X011699Y006527D01*
X011675Y006425D01*
X010175Y006425D01*
X010175Y007175D01*
X011394Y007150D02*
X011394Y006527D01*
X011699Y006527D01*
X011699Y006527D01*
X011699Y006527D01*
X011699Y007302D01*
X011852Y007302D01*
X011896Y007290D01*
X011915Y007279D01*
X011934Y007290D01*
X011979Y007302D01*
X012132Y007302D01*
X012132Y006527D01*
X012132Y006521D02*
X012132Y006521D01*
X012175Y006425D02*
X011675Y006425D01*
X011699Y006373D02*
X011699Y006373D01*
X011699Y006521D02*
X011699Y006521D01*
X011699Y006527D02*
X011699Y007302D01*
X011546Y007302D01*
X011501Y007290D01*
X011461Y007267D01*
X011429Y007235D01*
X011406Y007195D01*
X011394Y007150D01*
X011394Y007115D02*
X007570Y007115D01*
X007570Y007000D02*
X007050Y007000D01*
X007050Y007540D01*
X007418Y007540D01*
X007463Y007528D01*
X007502Y007505D01*
X007535Y007472D01*
X007558Y007433D01*
X007570Y007388D01*
X007570Y007000D01*
X007570Y006850D02*
X007050Y006850D01*
X007050Y006310D01*
X007418Y006310D01*
X007463Y006322D01*
X007502Y006345D01*
X007535Y006378D01*
X007558Y006417D01*
X007570Y006462D01*
X007570Y006850D01*
X007570Y006818D02*
X011394Y006818D01*
X011394Y006670D02*
X007570Y006670D01*
X007570Y006521D02*
X011394Y006521D01*
X011394Y006373D02*
X007530Y006373D01*
X007050Y006373D02*
X006900Y006373D01*
X006925Y006275D02*
X006925Y006925D01*
X006975Y006925D01*
X007050Y006967D02*
X011394Y006967D01*
X011699Y006967D02*
X011699Y006967D01*
X011699Y007115D02*
X011699Y007115D01*
X011699Y007264D02*
X011699Y007264D01*
X011457Y007264D02*
X007570Y007264D01*
X007564Y007412D02*
X014070Y007412D01*
X013903Y007302D02*
X013903Y007219D01*
X013903Y007219D01*
X013903Y007302D01*
X013903Y007264D02*
X013903Y007264D01*
X013662Y007264D02*
X012373Y007264D01*
X012437Y007115D02*
X013598Y007115D01*
X013598Y006967D02*
X012437Y006967D01*
X012437Y006818D02*
X013598Y006818D01*
X013598Y006670D02*
X012437Y006670D01*
X012437Y006521D02*
X013598Y006521D01*
X013598Y006527D02*
X013891Y006527D01*
X013891Y006527D01*
X013598Y006527D01*
X013598Y006373D02*
X012437Y006373D01*
X012437Y006224D02*
X013598Y006224D01*
X013598Y006076D02*
X012437Y006076D01*
X012437Y005927D02*
X013598Y005927D01*
X013681Y005779D02*
X012354Y005779D01*
X012132Y005779D02*
X012132Y005779D01*
X012132Y005927D02*
X012132Y005927D01*
X012132Y006076D02*
X012132Y006076D01*
X012132Y006224D02*
X012132Y006224D01*
X012132Y006373D02*
X012132Y006373D01*
X012132Y006670D02*
X012132Y006670D01*
X012132Y006818D02*
X012132Y006818D01*
X012132Y006967D02*
X012132Y006967D01*
X012132Y007115D02*
X012132Y007115D01*
X012132Y007264D02*
X012132Y007264D01*
X011699Y006818D02*
X011699Y006818D01*
X011699Y006670D02*
X011699Y006670D01*
X011699Y006224D02*
X011699Y006224D01*
X011699Y006076D02*
X011699Y006076D01*
X011699Y005927D02*
X011699Y005927D01*
X011699Y005779D02*
X011699Y005779D01*
X011476Y005779D02*
X010690Y005779D01*
X010690Y005630D02*
X013661Y005630D01*
X013561Y005482D02*
X010652Y005482D01*
X010561Y005333D02*
X013499Y005333D01*
X013490Y005185D02*
X010337Y005185D01*
X010013Y005185D02*
X009540Y005185D01*
X009540Y005036D02*
X013491Y005036D01*
X011675Y004175D02*
X017675Y004175D01*
X018175Y004675D01*
X019175Y004675D01*
X019335Y004675D01*
X019175Y004675D02*
X019175Y005375D01*
X019417Y005765D02*
X019456Y005787D01*
X019488Y005820D01*
X019511Y005860D01*
X019523Y005904D01*
X019523Y006527D01*
X019230Y006527D01*
X019230Y006527D01*
X019523Y006527D01*
X019523Y007150D01*
X019511Y007195D01*
X019502Y007210D01*
X020068Y007210D01*
X020184Y007258D01*
X020273Y007347D01*
X020321Y007463D01*
X020321Y008152D01*
X020341Y008143D01*
X021255Y008143D01*
X021394Y008004D01*
X021504Y007894D01*
X021505Y007893D01*
X021505Y007348D01*
X021510Y007336D01*
X021510Y006952D01*
X021558Y006837D01*
X021645Y006749D01*
X021645Y006660D01*
X022100Y006660D01*
X022100Y006700D01*
X022250Y006700D01*
X022250Y006660D01*
X022100Y006660D01*
X022100Y006510D01*
X021645Y006510D01*
X021645Y006207D01*
X021657Y006163D01*
X021680Y006123D01*
X021713Y006090D01*
X021753Y006067D01*
X021797Y006056D01*
X022100Y006056D01*
X022100Y006510D01*
X022250Y006510D01*
X022250Y006660D01*
X022705Y006660D01*
X022705Y006749D01*
X022792Y006837D01*
X022840Y006952D01*
X022840Y007336D01*
X022845Y007348D01*
X022845Y008182D01*
X022797Y008298D01*
X022708Y008387D01*
X022593Y008434D01*
X022574Y008434D01*
X022590Y008473D01*
X022590Y008677D01*
X022512Y008867D01*
X022367Y009012D01*
X022250Y009060D01*
X023736Y009060D01*
X023660Y008877D01*
X023660Y008673D01*
X023738Y008483D01*
X023883Y008338D01*
X024073Y008260D01*
X024138Y008260D01*
X024154Y008244D01*
X024297Y008185D01*
X024340Y008185D01*
X024340Y008175D01*
X024392Y008175D01*
X024392Y008175D01*
X024392Y008175D01*
X024340Y008175D01*
X024340Y008153D01*
X024337Y008152D01*
X024325Y008140D01*
X024202Y008140D01*
X024068Y008084D01*
X023966Y007982D01*
X023924Y007940D01*
X023823Y007940D01*
X023633Y007862D01*
X023488Y007717D01*
X023410Y007527D01*
X023410Y007323D01*
X023488Y007133D01*
X023633Y006988D01*
X023823Y006910D01*
X024027Y006910D01*
X024217Y006988D01*
X024362Y007133D01*
X024440Y007323D01*
X024440Y007355D01*
X024452Y007350D01*
X025598Y007350D01*
X025675Y007382D01*
X025752Y007350D01*
X026898Y007350D01*
X027013Y007398D01*
X027025Y007410D01*
X027755Y007410D01*
X027755Y007168D01*
X027803Y007052D01*
X027892Y006963D01*
X028007Y006916D01*
X028843Y006916D01*
X028958Y006963D01*
X029047Y007052D01*
X029095Y007168D01*
X029095Y007479D01*
X029476Y007860D01*
X029577Y007860D01*
X029767Y007938D01*
X029912Y008083D01*
X029990Y008273D01*
X029990Y008477D01*
X029987Y008485D01*
X032916Y008485D01*
X032916Y008257D01*
X032963Y008142D01*
X033052Y008053D01*
X033168Y008005D01*
X033185Y008005D01*
X033185Y007500D01*
X032952Y007500D01*
X032837Y007452D01*
X032748Y007363D01*
X032700Y007248D01*
X032700Y006902D01*
X032748Y006787D01*
X032837Y006698D01*
X032840Y006697D01*
X032840Y006675D01*
X032892Y006675D01*
X032892Y006675D01*
X032892Y006675D01*
X032840Y006675D01*
X032840Y006653D01*
X032837Y006652D01*
X032825Y006640D01*
X032434Y006640D01*
X032434Y007093D01*
X032387Y007208D01*
X032298Y007297D01*
X032182Y007345D01*
X031348Y007345D01*
X031336Y007340D01*
X031014Y007340D01*
X031002Y007345D01*
X030440Y007345D01*
X030440Y007427D01*
X030362Y007617D01*
X030217Y007762D01*
X030027Y007840D01*
X029823Y007840D01*
X029633Y007762D01*
X029488Y007617D01*
X029410Y007427D01*
X029410Y007223D01*
X029488Y007033D01*
X029633Y006888D01*
X029823Y006810D01*
X029916Y006810D01*
X029916Y006340D01*
X029288Y006340D01*
X029217Y006412D01*
X029027Y006490D01*
X028823Y006490D01*
X028633Y006412D01*
X028488Y006267D01*
X028410Y006077D01*
X028410Y005915D01*
X026794Y005915D01*
X026794Y006100D01*
X026340Y006100D01*
X026340Y006250D01*
X026190Y006250D01*
X026150Y006250D01*
X026150Y006100D01*
X026190Y006100D01*
X026190Y006250D01*
X026190Y006705D01*
X026101Y006705D01*
X026013Y006792D01*
X025898Y006840D01*
X025514Y006840D01*
X025502Y006845D01*
X024668Y006845D01*
X024552Y006797D01*
X024463Y006708D01*
X024416Y006593D01*
X024416Y005765D01*
X022413Y005765D01*
X022367Y005812D01*
X022177Y005890D01*
X021973Y005890D01*
X021783Y005812D01*
X021737Y005765D01*
X019417Y005765D01*
X019440Y005779D02*
X021750Y005779D01*
X022250Y006056D02*
X022553Y006056D01*
X022597Y006067D01*
X022637Y006090D01*
X022670Y006123D01*
X022693Y006163D01*
X022705Y006207D01*
X022705Y006510D01*
X022250Y006510D01*
X022250Y006056D01*
X022250Y006076D02*
X022100Y006076D01*
X022100Y006224D02*
X022250Y006224D01*
X022250Y006373D02*
X022100Y006373D01*
X022100Y006521D02*
X019523Y006521D01*
X019523Y006373D02*
X021645Y006373D01*
X021645Y006224D02*
X019523Y006224D01*
X019523Y006076D02*
X021739Y006076D01*
X022250Y006521D02*
X024416Y006521D01*
X024416Y006373D02*
X022705Y006373D01*
X022705Y006224D02*
X024416Y006224D01*
X024416Y006076D02*
X022611Y006076D01*
X022400Y005779D02*
X024416Y005779D01*
X024416Y005927D02*
X019523Y005927D01*
X019275Y006575D02*
X020175Y006575D01*
X020175Y009075D01*
X020975Y009075D01*
X021004Y009021D01*
X021075Y009025D01*
X022825Y009025D01*
X023675Y008175D01*
X025025Y008175D01*
X026325Y008175D01*
X026325Y008575D02*
X028275Y008575D01*
X028375Y008675D01*
X028425Y008765D01*
X028475Y008875D01*
X033475Y008875D01*
X033575Y008675D01*
X033585Y008675D01*
X033575Y008675D02*
X033575Y007675D01*
X036675Y007675D01*
X036675Y010875D01*
X035875Y011675D01*
X035075Y011675D01*
X034175Y011675D01*
X033575Y011075D01*
X033525Y011075D01*
X033518Y011570D02*
X030726Y011570D01*
X030957Y011422D02*
X032806Y011422D01*
X032711Y011273D02*
X031050Y011273D01*
X031090Y011125D02*
X032700Y011125D01*
X032700Y010976D02*
X031090Y010976D01*
X030424Y011570D02*
X027551Y011570D01*
X027661Y011422D02*
X028028Y011422D01*
X027795Y011273D02*
X027711Y011273D01*
X028322Y011422D02*
X030193Y011422D01*
X030100Y011273D02*
X028555Y011273D01*
X028650Y011125D02*
X030060Y011125D01*
X030060Y010976D02*
X028690Y010976D01*
X028789Y010828D02*
X030120Y010828D01*
X029951Y010679D02*
X028937Y010679D01*
X029086Y010531D02*
X029916Y010531D01*
X029916Y010382D02*
X029234Y010382D01*
X029383Y010234D02*
X029916Y010234D01*
X029916Y010085D02*
X029531Y010085D01*
X029680Y009937D02*
X029916Y009937D01*
X029241Y009343D02*
X029002Y009343D01*
X029093Y009491D02*
X028256Y009491D01*
X028290Y009640D02*
X028944Y009640D01*
X028796Y009788D02*
X028286Y009788D01*
X028224Y009937D02*
X028647Y009937D01*
X028499Y010085D02*
X028093Y010085D01*
X028350Y010234D02*
X027167Y010234D01*
X027190Y010085D02*
X027457Y010085D01*
X027096Y010382D02*
X028202Y010382D01*
X027660Y010828D02*
X027596Y010828D01*
X027687Y011719D02*
X033667Y011719D01*
X033815Y011867D02*
X027789Y011867D01*
X027850Y012016D02*
X033939Y012016D01*
X033660Y012164D02*
X033510Y012164D01*
X033510Y012145D02*
X033510Y012600D01*
X033056Y012600D01*
X033056Y012297D01*
X033067Y012253D01*
X033090Y012213D01*
X033123Y012180D01*
X033163Y012157D01*
X033207Y012145D01*
X033510Y012145D01*
X033510Y012313D02*
X033660Y012313D01*
X033660Y012461D02*
X033510Y012461D01*
X033510Y012610D02*
X027709Y012610D01*
X027727Y012758D02*
X033056Y012758D01*
X033056Y012907D02*
X027805Y012907D01*
X027798Y012461D02*
X033056Y012461D01*
X033056Y012313D02*
X027859Y012313D01*
X027860Y012164D02*
X033151Y012164D01*
X033575Y012675D02*
X033585Y012675D01*
X033575Y012675D02*
X032375Y011475D01*
X032224Y010828D02*
X032731Y010828D01*
X032840Y010679D02*
X032399Y010679D01*
X034359Y009343D02*
X036285Y009343D01*
X036285Y009491D02*
X034507Y009491D01*
X034656Y009640D02*
X036285Y009640D01*
X036285Y009788D02*
X034804Y009788D01*
X035552Y009937D02*
X036285Y009937D01*
X036285Y010085D02*
X035643Y010085D01*
X035650Y010234D02*
X036285Y010234D01*
X036285Y010382D02*
X035650Y010382D01*
X035616Y010531D02*
X036285Y010531D01*
X036285Y010679D02*
X036007Y010679D01*
X036130Y010828D02*
X036171Y010828D01*
X035675Y011075D02*
X034825Y011075D01*
X037390Y011125D02*
X037540Y011125D01*
X037540Y011273D02*
X037390Y011273D01*
X037390Y011422D02*
X037540Y011422D01*
X037672Y011570D02*
X037390Y011570D01*
X037390Y011719D02*
X037733Y011719D01*
X037585Y011867D02*
X037390Y011867D01*
X037390Y012016D02*
X037540Y012016D01*
X037540Y012164D02*
X037390Y012164D01*
X037390Y012313D02*
X037540Y012313D01*
X037563Y012461D02*
X037390Y012461D01*
X037390Y012610D02*
X037711Y012610D01*
X037694Y012758D02*
X037390Y012758D01*
X037390Y012907D02*
X037545Y012907D01*
X037540Y013055D02*
X037390Y013055D01*
X037390Y013204D02*
X037540Y013204D01*
X037540Y013352D02*
X037390Y013352D01*
X037368Y013501D02*
X037602Y013501D01*
X037751Y013649D02*
X037267Y013649D01*
X037095Y013798D02*
X037654Y013798D01*
X037540Y013946D02*
X037095Y013946D01*
X037095Y014095D02*
X037540Y014095D01*
X037540Y014243D02*
X037095Y014243D01*
X037095Y014392D02*
X037540Y014392D01*
X037642Y014540D02*
X037090Y014540D01*
X037090Y014689D02*
X037763Y014689D01*
X037615Y014837D02*
X037090Y014837D01*
X037095Y014986D02*
X037540Y014986D01*
X037540Y015134D02*
X037095Y015134D01*
X037095Y015283D02*
X037540Y015283D01*
X037540Y015431D02*
X037095Y015431D01*
X037095Y015580D02*
X037681Y015580D01*
X037724Y015728D02*
X037076Y015728D01*
X036968Y015877D02*
X037575Y015877D01*
X037540Y016025D02*
X035730Y016025D01*
X035702Y015877D02*
X035882Y015877D01*
X035774Y015728D02*
X035769Y015728D01*
X035275Y015575D02*
X035275Y016675D01*
X035265Y016675D01*
X035934Y016619D02*
X036762Y016619D01*
X036614Y016768D02*
X035934Y016768D01*
X035934Y016916D02*
X036541Y016916D01*
X036490Y017065D02*
X035934Y017065D01*
X035882Y017213D02*
X036490Y017213D01*
X036511Y017362D02*
X033878Y017362D01*
X033729Y017213D02*
X034258Y017213D01*
X034160Y017065D02*
X034010Y017065D01*
X034010Y016916D02*
X034160Y016916D01*
X034160Y016768D02*
X034010Y016768D01*
X034075Y016675D02*
X034085Y016675D01*
X034075Y016675D02*
X032775Y015375D01*
X032714Y015283D02*
X032549Y015283D01*
X032400Y015134D02*
X032700Y015134D01*
X032700Y014986D02*
X032252Y014986D01*
X032063Y014837D02*
X032727Y014837D01*
X032775Y014675D02*
X033525Y014675D01*
X034825Y014675D01*
X034825Y015075D02*
X035275Y015075D01*
X035275Y015575D01*
X034760Y015580D02*
X034440Y015580D01*
X034440Y015728D02*
X034781Y015728D01*
X034848Y015877D02*
X034399Y015877D01*
X034416Y016025D02*
X034303Y016025D01*
X034160Y016174D02*
X034067Y016174D01*
X034010Y016322D02*
X034160Y016322D01*
X034160Y016471D02*
X034010Y016471D01*
X034160Y016619D02*
X034200Y016619D01*
X033556Y016768D02*
X033284Y016768D01*
X033432Y016916D02*
X033556Y016916D01*
X035026Y017510D02*
X036572Y017510D01*
X036690Y017659D02*
X035175Y017659D01*
X035323Y017807D02*
X036586Y017807D01*
X036524Y017956D02*
X036071Y017956D01*
X036150Y018104D02*
X036490Y018104D01*
X036490Y018253D02*
X036150Y018253D01*
X036150Y018401D02*
X036527Y018401D01*
X036589Y018550D02*
X036108Y018550D01*
X036010Y018675D02*
X035958Y018675D01*
X035958Y018675D01*
X035958Y018675D01*
X036010Y018675D01*
X036014Y018698D02*
X036729Y018698D01*
X036425Y018675D02*
X036425Y019425D01*
X036675Y019585D01*
X036750Y019589D02*
X037691Y019589D01*
X037714Y019738D02*
X037205Y019738D01*
X037313Y019886D02*
X037566Y019886D01*
X037540Y020035D02*
X037340Y020035D01*
X037340Y020183D02*
X037540Y020183D01*
X037540Y020332D02*
X037340Y020332D01*
X037345Y020480D02*
X037582Y020480D01*
X037731Y020629D02*
X037345Y020629D01*
X037345Y020777D02*
X037675Y020777D01*
X038175Y021175D02*
X037075Y021175D01*
X036675Y020775D01*
X036675Y020765D01*
X036005Y020777D02*
X035746Y020777D01*
X035813Y020926D02*
X036005Y020926D01*
X036005Y021074D02*
X035860Y021074D01*
X035860Y021223D02*
X036022Y021223D01*
X036126Y021371D02*
X035835Y021371D01*
X035774Y021520D02*
X036888Y021520D01*
X037770Y021668D02*
X035651Y021668D01*
X035416Y021817D02*
X039790Y021817D01*
X039860Y021668D02*
X039580Y021668D01*
X039728Y021520D02*
X039860Y021520D01*
X039860Y021371D02*
X039810Y021371D01*
X039810Y021223D02*
X039860Y021223D01*
X039860Y021074D02*
X039810Y021074D01*
X039810Y020926D02*
X039860Y020926D01*
X039860Y020777D02*
X039675Y020777D01*
X039619Y020629D02*
X039860Y020629D01*
X039860Y020480D02*
X039768Y020480D01*
X039810Y020332D02*
X039860Y020332D01*
X039860Y020183D02*
X039810Y020183D01*
X039810Y020035D02*
X039860Y020035D01*
X039860Y019886D02*
X039784Y019886D01*
X039860Y019738D02*
X039636Y019738D01*
X039659Y019589D02*
X039860Y019589D01*
X039860Y019441D02*
X039807Y019441D01*
X039810Y019292D02*
X039860Y019292D01*
X039860Y019144D02*
X039810Y019144D01*
X039810Y018995D02*
X039860Y018995D01*
X039860Y018847D02*
X039745Y018847D01*
X039860Y018698D02*
X039596Y018698D01*
X039698Y018550D02*
X039860Y018550D01*
X039860Y018401D02*
X039810Y018401D01*
X039810Y018253D02*
X039860Y018253D01*
X039860Y018104D02*
X039810Y018104D01*
X039810Y017956D02*
X039860Y017956D01*
X039860Y017807D02*
X039705Y017807D01*
X039589Y017659D02*
X039860Y017659D01*
X039860Y017510D02*
X039738Y017510D01*
X039810Y017362D02*
X039860Y017362D01*
X039860Y017213D02*
X039810Y017213D01*
X039810Y017065D02*
X039860Y017065D01*
X039860Y016916D02*
X039810Y016916D01*
X039860Y016768D02*
X039666Y016768D01*
X039629Y016619D02*
X039860Y016619D01*
X039860Y016471D02*
X039777Y016471D01*
X039810Y016322D02*
X039860Y016322D01*
X039860Y016174D02*
X039810Y016174D01*
X039810Y016025D02*
X039860Y016025D01*
X039860Y015877D02*
X039775Y015877D01*
X039860Y015728D02*
X039626Y015728D01*
X039668Y015580D02*
X039860Y015580D01*
X039860Y015431D02*
X039810Y015431D01*
X039810Y015283D02*
X039860Y015283D01*
X039860Y015134D02*
X039810Y015134D01*
X039810Y014986D02*
X039860Y014986D01*
X039860Y014837D02*
X039735Y014837D01*
X039860Y014689D02*
X039587Y014689D01*
X039708Y014540D02*
X039860Y014540D01*
X039860Y014392D02*
X039810Y014392D01*
X039810Y014243D02*
X039860Y014243D01*
X039860Y014095D02*
X039810Y014095D01*
X039810Y013946D02*
X039860Y013946D01*
X039860Y013798D02*
X039696Y013798D01*
X039599Y013649D02*
X039860Y013649D01*
X039860Y013501D02*
X039748Y013501D01*
X039810Y013352D02*
X039860Y013352D01*
X039860Y013204D02*
X039810Y013204D01*
X039810Y013055D02*
X039860Y013055D01*
X039860Y012907D02*
X039805Y012907D01*
X039860Y012758D02*
X039656Y012758D01*
X039639Y012610D02*
X039860Y012610D01*
X039860Y012461D02*
X039787Y012461D01*
X039810Y012313D02*
X039860Y012313D01*
X039860Y012164D02*
X039810Y012164D01*
X039810Y012016D02*
X039860Y012016D01*
X039860Y011867D02*
X039765Y011867D01*
X039860Y011719D02*
X039617Y011719D01*
X039678Y011570D02*
X039860Y011570D01*
X039860Y011422D02*
X039810Y011422D01*
X039810Y011273D02*
X039860Y011273D01*
X039860Y011125D02*
X039810Y011125D01*
X039810Y010976D02*
X039860Y010976D01*
X039860Y010828D02*
X039726Y010828D01*
X039860Y010679D02*
X039577Y010679D01*
X039718Y010531D02*
X039860Y010531D01*
X039860Y010382D02*
X039810Y010382D01*
X039810Y010234D02*
X039860Y010234D01*
X039860Y010085D02*
X039810Y010085D01*
X039810Y009937D02*
X039860Y009937D01*
X039860Y009788D02*
X039686Y009788D01*
X039609Y009640D02*
X039860Y009640D01*
X039860Y009491D02*
X039757Y009491D01*
X039810Y009343D02*
X039860Y009343D01*
X039860Y009194D02*
X039810Y009194D01*
X039810Y009046D02*
X039860Y009046D01*
X039860Y008897D02*
X039795Y008897D01*
X039860Y008749D02*
X039647Y008749D01*
X039648Y008600D02*
X039860Y008600D01*
X039860Y008452D02*
X039797Y008452D01*
X039810Y008303D02*
X039860Y008303D01*
X039860Y008155D02*
X039810Y008155D01*
X039810Y008006D02*
X039860Y008006D01*
X039860Y007858D02*
X039756Y007858D01*
X039860Y007709D02*
X039607Y007709D01*
X039688Y007561D02*
X039860Y007561D01*
X039860Y007412D02*
X039810Y007412D01*
X039810Y007264D02*
X039860Y007264D01*
X039860Y007115D02*
X039810Y007115D01*
X039810Y006967D02*
X039860Y006967D01*
X039860Y006818D02*
X039716Y006818D01*
X039579Y006670D02*
X039860Y006670D01*
X039860Y006521D02*
X039727Y006521D01*
X039810Y006373D02*
X039860Y006373D01*
X039860Y006224D02*
X039810Y006224D01*
X039810Y006076D02*
X039860Y006076D01*
X039860Y005927D02*
X039810Y005927D01*
X039860Y005779D02*
X039677Y005779D01*
X039618Y005630D02*
X039860Y005630D01*
X039860Y005482D02*
X039767Y005482D01*
X039810Y005333D02*
X039860Y005333D01*
X039860Y005185D02*
X039810Y005185D01*
X039810Y005036D02*
X039860Y005036D01*
X039860Y004888D02*
X039786Y004888D01*
X039860Y004739D02*
X039637Y004739D01*
X039489Y004591D02*
X039860Y004591D01*
X039860Y004442D02*
X039608Y004442D01*
X039670Y004294D02*
X039860Y004294D01*
X039860Y004145D02*
X039670Y004145D01*
X039670Y003997D02*
X039860Y003997D01*
X039860Y003848D02*
X039548Y003848D01*
X039400Y003700D02*
X039860Y003700D01*
X039860Y003551D02*
X039570Y003551D01*
X039671Y003403D02*
X039860Y003403D01*
X039860Y003254D02*
X039714Y003254D01*
X039716Y003106D02*
X039860Y003106D01*
X039860Y002957D02*
X039676Y002957D01*
X039579Y002809D02*
X039860Y002809D01*
X039200Y002809D02*
X039150Y002809D01*
X039150Y002957D02*
X039200Y002957D01*
X039200Y003106D02*
X039150Y003106D01*
X039150Y003254D02*
X039200Y003254D01*
X039200Y003403D02*
X039150Y003403D01*
X039150Y003551D02*
X039200Y003551D01*
X039200Y003700D02*
X039150Y003700D01*
X039150Y003848D02*
X039200Y003848D01*
X039200Y003997D02*
X039150Y003997D01*
X039150Y004145D02*
X039200Y004145D01*
X039175Y004175D02*
X038175Y004175D01*
X038200Y004150D02*
X038200Y003680D01*
X038380Y003680D01*
X038670Y003970D01*
X038670Y004150D01*
X038200Y004150D01*
X038200Y004145D02*
X038150Y004145D01*
X038150Y003997D02*
X038200Y003997D01*
X038200Y003848D02*
X038150Y003848D01*
X038150Y003700D02*
X038200Y003700D01*
X038400Y003700D02*
X038950Y003700D01*
X038802Y003848D02*
X038548Y003848D01*
X038670Y003997D02*
X038680Y003997D01*
X038670Y004145D02*
X038680Y004145D01*
X038670Y004294D02*
X038680Y004294D01*
X038742Y004442D02*
X038608Y004442D01*
X038489Y004591D02*
X038861Y004591D01*
X038713Y004739D02*
X038637Y004739D01*
X037861Y004591D02*
X037135Y004591D01*
X037190Y004739D02*
X037713Y004739D01*
X037564Y004888D02*
X037254Y004888D01*
X037402Y005036D02*
X037540Y005036D01*
X036075Y005825D02*
X035775Y005525D01*
X025075Y005525D01*
X025075Y006175D01*
X025085Y006175D01*
X024447Y006670D02*
X022705Y006670D01*
X022773Y006818D02*
X024603Y006818D01*
X024343Y007115D02*
X027777Y007115D01*
X027755Y007264D02*
X024416Y007264D01*
X024164Y006967D02*
X027889Y006967D01*
X028594Y006373D02*
X026794Y006373D01*
X026794Y006250D02*
X026340Y006250D01*
X026340Y006705D01*
X026643Y006705D01*
X026687Y006693D01*
X026727Y006670D01*
X026760Y006637D01*
X026783Y006597D01*
X026794Y006553D01*
X026794Y006250D01*
X026794Y006076D02*
X028410Y006076D01*
X028410Y005927D02*
X026794Y005927D01*
X026340Y006224D02*
X028471Y006224D01*
X029256Y006373D02*
X029916Y006373D01*
X029916Y006521D02*
X026794Y006521D01*
X026727Y006670D02*
X029916Y006670D01*
X029803Y006818D02*
X025951Y006818D01*
X026175Y006775D02*
X029175Y006775D01*
X029175Y007375D01*
X029775Y007975D01*
X031575Y007975D01*
X032875Y006675D01*
X033525Y006675D01*
X034825Y006675D01*
X035675Y006675D01*
X035685Y006670D02*
X035510Y006670D01*
X035510Y006675D02*
X035458Y006675D01*
X035458Y006675D01*
X035458Y006675D01*
X035510Y006675D01*
X035510Y006685D01*
X035685Y006685D01*
X035685Y005987D01*
X035613Y005915D01*
X035530Y005915D01*
X035602Y005987D01*
X035650Y006102D01*
X035650Y006448D01*
X035602Y006563D01*
X035513Y006652D01*
X035510Y006653D01*
X035510Y006675D01*
X035620Y006521D02*
X035685Y006521D01*
X035685Y006373D02*
X035650Y006373D01*
X035650Y006224D02*
X035685Y006224D01*
X035685Y006076D02*
X035639Y006076D01*
X035625Y005927D02*
X035542Y005927D01*
X036075Y005825D02*
X036075Y006875D01*
X035875Y007075D01*
X035675Y007075D01*
X035675Y007275D01*
X035675Y007075D02*
X034825Y007075D01*
X033575Y007075D02*
X033525Y007075D01*
X033575Y007075D02*
X033575Y007675D01*
X033185Y007709D02*
X030269Y007709D01*
X030385Y007561D02*
X033185Y007561D01*
X033185Y007858D02*
X029474Y007858D01*
X029581Y007709D02*
X029325Y007709D01*
X029465Y007561D02*
X029177Y007561D01*
X029095Y007412D02*
X029410Y007412D01*
X029410Y007264D02*
X029095Y007264D01*
X029073Y007115D02*
X029455Y007115D01*
X029555Y006967D02*
X028961Y006967D01*
X030440Y007412D02*
X032797Y007412D01*
X032707Y007264D02*
X032331Y007264D01*
X032425Y007115D02*
X032700Y007115D01*
X032700Y006967D02*
X032434Y006967D01*
X032434Y006818D02*
X032735Y006818D01*
X032840Y006670D02*
X032434Y006670D01*
X033166Y008006D02*
X029834Y008006D01*
X029941Y008155D02*
X032958Y008155D01*
X032916Y008303D02*
X029990Y008303D01*
X029990Y008452D02*
X032916Y008452D01*
X034690Y008897D02*
X034840Y008897D01*
X034840Y008750D02*
X034840Y009205D01*
X035143Y009205D01*
X035187Y009193D01*
X035227Y009170D01*
X035260Y009137D01*
X035283Y009097D01*
X035294Y009053D01*
X035294Y008750D01*
X034840Y008750D01*
X034840Y008749D02*
X036285Y008749D01*
X036285Y008897D02*
X035294Y008897D01*
X035294Y009046D02*
X036285Y009046D01*
X036285Y009194D02*
X035183Y009194D01*
X035125Y009025D02*
X034775Y008675D01*
X034765Y008675D01*
X034690Y009046D02*
X034840Y009046D01*
X034840Y009194D02*
X034690Y009194D01*
X037390Y009194D02*
X037540Y009194D01*
X037540Y009046D02*
X037390Y009046D01*
X037390Y008897D02*
X037555Y008897D01*
X037703Y008749D02*
X037390Y008749D01*
X037390Y008600D02*
X037702Y008600D01*
X037553Y008452D02*
X037390Y008452D01*
X037390Y008303D02*
X037540Y008303D01*
X037540Y008155D02*
X037390Y008155D01*
X037390Y008006D02*
X037540Y008006D01*
X037594Y007858D02*
X037390Y007858D01*
X037390Y007709D02*
X037743Y007709D01*
X037662Y007561D02*
X037390Y007561D01*
X037454Y007412D02*
X037540Y007412D01*
X037540Y009343D02*
X037390Y009343D01*
X037390Y009491D02*
X037593Y009491D01*
X037741Y009640D02*
X037390Y009640D01*
X037390Y009788D02*
X037664Y009788D01*
X037540Y009937D02*
X037390Y009937D01*
X037390Y010085D02*
X037540Y010085D01*
X037540Y010234D02*
X037390Y010234D01*
X037390Y010382D02*
X037540Y010382D01*
X037632Y010531D02*
X037390Y010531D01*
X037390Y010679D02*
X037773Y010679D01*
X037624Y010828D02*
X037390Y010828D01*
X037390Y010976D02*
X037540Y010976D01*
X035675Y012675D02*
X034765Y012675D01*
X032840Y014689D02*
X032822Y014689D01*
X033325Y015075D02*
X033525Y015075D01*
X033325Y015075D02*
X033925Y015675D01*
X035275Y015075D02*
X036275Y015075D01*
X036375Y015175D01*
X036425Y015265D01*
X035900Y016174D02*
X037540Y016174D01*
X037540Y016322D02*
X035934Y016322D01*
X035934Y016471D02*
X037573Y016471D01*
X037588Y016619D02*
X037721Y016619D01*
X037754Y018698D02*
X037621Y018698D01*
X037605Y018847D02*
X037344Y018847D01*
X037540Y018995D02*
X036150Y018995D01*
X036150Y019144D02*
X036168Y019144D01*
X036145Y019292D02*
X036132Y019292D01*
X036145Y019441D02*
X036025Y019441D01*
X035890Y019589D02*
X036600Y019589D01*
X036600Y019441D02*
X036750Y019441D01*
X036750Y019510D02*
X036750Y019056D01*
X037053Y019056D01*
X037097Y019067D01*
X037137Y019090D01*
X037170Y019123D01*
X037193Y019163D01*
X037205Y019207D01*
X037205Y019510D01*
X036750Y019510D01*
X036750Y019292D02*
X036600Y019292D01*
X036600Y019144D02*
X036750Y019144D01*
X037006Y018847D02*
X036127Y018847D01*
X035375Y019075D02*
X035325Y019075D01*
X035375Y019075D02*
X035375Y019575D01*
X034860Y019589D02*
X034090Y019589D01*
X034065Y019738D02*
X034885Y019738D01*
X034958Y019886D02*
X033992Y019886D01*
X033858Y020035D02*
X035139Y020035D01*
X035611Y020035D02*
X036010Y020035D01*
X036010Y020183D02*
X033860Y020183D01*
X033852Y020332D02*
X036010Y020332D01*
X036005Y020480D02*
X033790Y020480D01*
X033753Y020629D02*
X033690Y020629D01*
X034597Y020629D02*
X034753Y020629D01*
X035597Y020629D02*
X036005Y020629D01*
X036037Y019886D02*
X035792Y019886D01*
X035865Y019738D02*
X036145Y019738D01*
X037205Y019441D02*
X037543Y019441D01*
X037540Y019292D02*
X037205Y019292D01*
X037182Y019144D02*
X037540Y019144D01*
X038175Y021175D02*
X039175Y021175D01*
X038770Y021668D02*
X038580Y021668D01*
X034934Y021817D02*
X034416Y021817D01*
X034651Y021668D02*
X034699Y021668D01*
X033934Y021817D02*
X033416Y021817D01*
X033651Y021668D02*
X033699Y021668D01*
X032934Y021817D02*
X032416Y021817D01*
X032651Y021668D02*
X032699Y021668D01*
X031934Y021817D02*
X031416Y021817D01*
X031651Y021668D02*
X031699Y021668D01*
X030934Y021817D02*
X030416Y021817D01*
X030651Y021668D02*
X030699Y021668D01*
X029934Y021817D02*
X029416Y021817D01*
X029651Y021668D02*
X029699Y021668D01*
X028934Y021817D02*
X028416Y021817D01*
X028651Y021668D02*
X028699Y021668D01*
X023683Y018698D02*
X023667Y018698D01*
X020948Y019886D02*
X001490Y019886D01*
X001490Y019738D02*
X011840Y019738D01*
X011691Y019589D02*
X001490Y019589D01*
X001490Y019441D02*
X011543Y019441D01*
X011540Y019292D02*
X001490Y019292D01*
X001490Y019144D02*
X011540Y019144D01*
X011540Y018995D02*
X001490Y018995D01*
X001490Y018847D02*
X011605Y018847D01*
X011754Y018698D02*
X001490Y018698D01*
X001490Y018550D02*
X011652Y018550D01*
X011540Y018401D02*
X001490Y018401D01*
X001490Y018253D02*
X011540Y018253D01*
X011540Y018104D02*
X001490Y018104D01*
X001490Y017956D02*
X011540Y017956D01*
X011645Y017807D02*
X001490Y017807D01*
X001490Y017659D02*
X011793Y017659D01*
X012557Y017659D02*
X012793Y017659D01*
X013075Y017510D02*
X001490Y017510D01*
X001490Y017362D02*
X013056Y017362D01*
X013056Y017213D02*
X001490Y017213D01*
X001490Y017065D02*
X013510Y017065D01*
X013510Y017000D02*
X013056Y017000D01*
X013056Y016697D01*
X013067Y016653D01*
X013090Y016613D01*
X013123Y016580D01*
X013163Y016557D01*
X013207Y016545D01*
X013510Y016545D01*
X013510Y017000D01*
X013510Y016916D02*
X013660Y016916D01*
X013660Y016768D02*
X013510Y016768D01*
X013510Y016619D02*
X013660Y016619D01*
X013630Y016471D02*
X013756Y016471D01*
X013742Y016322D02*
X013630Y016322D01*
X013630Y016174D02*
X013742Y016174D01*
X013675Y016175D02*
X013675Y017175D01*
X013585Y017075D01*
X013510Y017213D02*
X013660Y017213D01*
X013660Y017362D02*
X013510Y017362D01*
X013510Y017510D02*
X013660Y017510D01*
X013557Y017659D02*
X013793Y017659D01*
X014705Y017807D02*
X015005Y017807D01*
X015035Y017956D02*
X014810Y017956D01*
X014810Y018104D02*
X015035Y018104D01*
X015035Y018253D02*
X014810Y018253D01*
X014810Y018401D02*
X015035Y018401D01*
X015054Y018550D02*
X014698Y018550D01*
X014596Y018698D02*
X015146Y018698D01*
X015295Y018847D02*
X014745Y018847D01*
X014810Y018995D02*
X015443Y018995D01*
X015540Y019144D02*
X014810Y019144D01*
X014810Y019292D02*
X015540Y019292D01*
X015543Y019441D02*
X014807Y019441D01*
X014659Y019589D02*
X015691Y019589D01*
X015840Y019738D02*
X014510Y019738D01*
X013840Y019738D02*
X013510Y019738D01*
X013659Y019589D02*
X013691Y019589D01*
X012840Y019738D02*
X012510Y019738D01*
X012659Y019589D02*
X012691Y019589D01*
X011575Y019775D02*
X011575Y021175D01*
X011550Y021223D02*
X011600Y021223D01*
X011600Y021371D02*
X011550Y021371D01*
X011550Y021520D02*
X011600Y021520D01*
X011600Y021668D02*
X011550Y021668D01*
X011342Y021668D02*
X011051Y021668D01*
X010816Y021817D02*
X012334Y021817D01*
X012099Y021668D02*
X011808Y021668D01*
X011600Y021074D02*
X011550Y021074D01*
X011550Y020926D02*
X011600Y020926D01*
X011600Y020777D02*
X011550Y020777D01*
X011202Y020777D02*
X011146Y020777D01*
X010997Y020629D02*
X012153Y020629D01*
X012004Y020777D02*
X011948Y020777D01*
X012997Y020629D02*
X013153Y020629D01*
X013997Y020629D02*
X014153Y020629D01*
X014997Y020629D02*
X015153Y020629D01*
X015997Y020629D02*
X016153Y020629D01*
X016997Y020629D02*
X017153Y020629D01*
X016840Y019738D02*
X016510Y019738D01*
X016659Y019589D02*
X016691Y019589D01*
X019610Y019441D02*
X019740Y019441D01*
X019680Y019292D02*
X019670Y019292D01*
X019670Y019144D02*
X019680Y019144D01*
X019670Y018995D02*
X019680Y018995D01*
X019803Y018847D02*
X019547Y018847D01*
X019550Y018698D02*
X019800Y018698D01*
X020799Y020035D02*
X002642Y020035D01*
X002605Y020019D02*
X002938Y020157D01*
X003193Y020412D01*
X003331Y020745D01*
X003331Y021105D01*
X003193Y021438D01*
X002938Y021693D01*
X002605Y021831D01*
X002245Y021831D01*
X001912Y021693D01*
X001657Y021438D01*
X001519Y021105D01*
X001519Y020745D01*
X001657Y020412D01*
X001912Y020157D01*
X002245Y020019D01*
X002605Y020019D01*
X002964Y020183D02*
X020651Y020183D01*
X020502Y020332D02*
X003112Y020332D01*
X003221Y020480D02*
X005256Y020480D01*
X005279Y020457D02*
X005536Y020350D01*
X005814Y020350D01*
X006071Y020457D01*
X006267Y020653D01*
X006374Y020910D01*
X006374Y021188D01*
X006267Y021445D01*
X006071Y021641D01*
X005814Y021748D01*
X005536Y021748D01*
X005279Y021641D01*
X005083Y021445D01*
X004976Y021188D01*
X004976Y020910D01*
X005083Y020653D01*
X005279Y020457D01*
X005107Y020629D02*
X003282Y020629D01*
X003331Y020777D02*
X005031Y020777D01*
X004976Y020926D02*
X003331Y020926D01*
X003331Y021074D02*
X004976Y021074D01*
X004990Y021223D02*
X003282Y021223D01*
X003220Y021371D02*
X005052Y021371D01*
X005157Y021520D02*
X003111Y021520D01*
X002963Y021668D02*
X005343Y021668D01*
X006007Y021668D02*
X008099Y021668D01*
X007976Y021520D02*
X006193Y021520D01*
X006298Y021371D02*
X007915Y021371D01*
X007890Y021223D02*
X006360Y021223D01*
X006374Y021074D02*
X007890Y021074D01*
X007937Y020926D02*
X006374Y020926D01*
X006319Y020777D02*
X008004Y020777D01*
X008153Y020629D02*
X006243Y020629D01*
X006094Y020480D02*
X020354Y020480D01*
X019753Y020629D02*
X019597Y020629D01*
X017334Y021817D02*
X016816Y021817D01*
X017051Y021668D02*
X017099Y021668D01*
X016334Y021817D02*
X015816Y021817D01*
X016051Y021668D02*
X016099Y021668D01*
X015334Y021817D02*
X014816Y021817D01*
X015051Y021668D02*
X015099Y021668D01*
X014334Y021817D02*
X013816Y021817D01*
X014051Y021668D02*
X014099Y021668D01*
X013334Y021817D02*
X012816Y021817D01*
X013051Y021668D02*
X013099Y021668D01*
X010334Y021817D02*
X009816Y021817D01*
X010051Y021668D02*
X010099Y021668D01*
X009334Y021817D02*
X008816Y021817D01*
X009051Y021668D02*
X009099Y021668D01*
X008334Y021817D02*
X002639Y021817D01*
X002211Y021817D02*
X001560Y021817D01*
X001490Y021668D02*
X001887Y021668D01*
X001739Y021520D02*
X001490Y021520D01*
X001490Y021371D02*
X001630Y021371D01*
X001568Y021223D02*
X001490Y021223D01*
X001490Y021074D02*
X001519Y021074D01*
X001519Y020926D02*
X001490Y020926D01*
X001490Y020777D02*
X001519Y020777D01*
X001490Y020629D02*
X001568Y020629D01*
X001629Y020480D02*
X001490Y020480D01*
X001490Y020332D02*
X001738Y020332D01*
X001886Y020183D02*
X001490Y020183D01*
X001490Y020035D02*
X002208Y020035D01*
X001490Y016916D02*
X013056Y016916D01*
X013056Y016768D02*
X001490Y016768D01*
X001490Y016619D02*
X013087Y016619D01*
X013211Y016471D02*
X001490Y016471D01*
X001490Y016322D02*
X013163Y016322D01*
X013163Y016174D02*
X001490Y016174D01*
X001490Y013946D02*
X014405Y013946D01*
X014258Y014048D02*
X014258Y014131D01*
X014258Y014131D01*
X014258Y014048D01*
X014258Y014095D02*
X014258Y014095D01*
X014008Y014095D02*
X012263Y014095D01*
X012319Y014243D02*
X013953Y014243D01*
X013953Y014392D02*
X012319Y014392D01*
X012319Y014540D02*
X013953Y014540D01*
X013953Y014689D02*
X012319Y014689D01*
X012319Y014837D02*
X013953Y014837D01*
X013953Y014986D02*
X012319Y014986D01*
X012319Y015134D02*
X013953Y015134D01*
X013953Y015283D02*
X012319Y015283D01*
X012319Y015431D02*
X013953Y015431D01*
X013831Y015580D02*
X012222Y015580D01*
X012014Y015580D02*
X012014Y015580D01*
X012014Y015431D02*
X012014Y015431D01*
X012014Y015283D02*
X012014Y015283D01*
X012014Y015134D02*
X012014Y015134D01*
X012014Y014986D02*
X012014Y014986D01*
X012014Y014837D02*
X012014Y014837D01*
X012014Y014823D02*
X012014Y014823D01*
X012014Y014823D01*
X012014Y014689D02*
X012014Y014689D01*
X012014Y014540D02*
X012014Y014540D01*
X012014Y014392D02*
X012014Y014392D01*
X012014Y014243D02*
X012014Y014243D01*
X012014Y014095D02*
X012014Y014095D01*
X011581Y014986D02*
X011581Y014986D01*
X011581Y015134D02*
X011581Y015134D01*
X011581Y015283D02*
X011581Y015283D01*
X011581Y015431D02*
X011581Y015431D01*
X011581Y015580D02*
X011581Y015580D01*
X011789Y015580D02*
X011805Y015580D01*
X013630Y015728D02*
X013746Y015728D01*
X013742Y015877D02*
X013630Y015877D01*
X013675Y014925D02*
X014175Y014925D01*
X014258Y014823D01*
X014573Y013798D02*
X001490Y013798D01*
X001490Y012461D02*
X006653Y012461D01*
X006175Y011925D02*
X006175Y010907D01*
X006175Y011075D01*
X005584Y011125D02*
X001490Y011125D01*
X001490Y011273D02*
X005584Y011273D01*
X005625Y011422D02*
X001490Y011422D01*
X001490Y011570D02*
X005785Y011570D01*
X005703Y011719D02*
X001490Y011719D01*
X001490Y011867D02*
X005660Y011867D01*
X005660Y012016D02*
X001490Y012016D01*
X001490Y012164D02*
X005717Y012164D01*
X005834Y012313D02*
X001490Y012313D01*
X001490Y010976D02*
X005584Y010976D01*
X005584Y010828D02*
X004494Y010828D01*
X004496Y010827D02*
X004409Y010863D01*
X004317Y010888D01*
X004250Y010896D01*
X004250Y010250D01*
X004896Y010250D01*
X004888Y010317D01*
X004863Y010409D01*
X004827Y010496D01*
X004779Y010579D01*
X004721Y010654D01*
X004654Y010721D01*
X004579Y010779D01*
X004496Y010827D01*
X004250Y010828D02*
X004100Y010828D01*
X004100Y010679D02*
X004250Y010679D01*
X004250Y010531D02*
X004100Y010531D01*
X004100Y010382D02*
X004250Y010382D01*
X004250Y010234D02*
X005584Y010234D01*
X005584Y010382D02*
X004870Y010382D01*
X004807Y010531D02*
X005584Y010531D01*
X005584Y010679D02*
X004696Y010679D01*
X004894Y010085D02*
X005568Y010085D01*
X006766Y010234D02*
X014573Y010234D01*
X014573Y010382D02*
X006766Y010382D01*
X006766Y010531D02*
X014573Y010531D01*
X014573Y010679D02*
X006766Y010679D01*
X006766Y010828D02*
X014573Y010828D01*
X014573Y010976D02*
X006766Y010976D01*
X006766Y011125D02*
X014573Y011125D01*
X014573Y011273D02*
X006766Y011273D01*
X007193Y011925D02*
X006175Y011925D01*
X003856Y010828D02*
X002494Y010828D01*
X002496Y010827D02*
X002409Y010863D01*
X002317Y010888D01*
X002250Y010896D01*
X002250Y010250D01*
X002896Y010250D01*
X002888Y010317D01*
X002863Y010409D01*
X002827Y010496D01*
X002779Y010579D01*
X002721Y010654D01*
X002654Y010721D01*
X002579Y010779D01*
X002496Y010827D01*
X002250Y010828D02*
X002100Y010828D01*
X002100Y010679D02*
X002250Y010679D01*
X002250Y010531D02*
X002100Y010531D01*
X002100Y010382D02*
X002250Y010382D01*
X002250Y010234D02*
X004100Y010234D01*
X004175Y010175D02*
X002175Y010175D01*
X002100Y010085D02*
X002250Y010085D01*
X002250Y009937D02*
X002100Y009937D01*
X002100Y009788D02*
X002250Y009788D01*
X002250Y009640D02*
X002100Y009640D01*
X002100Y009491D02*
X002250Y009491D01*
X002310Y009343D02*
X001490Y009343D01*
X001490Y009491D02*
X001932Y009491D01*
X001685Y009640D02*
X001490Y009640D01*
X001490Y009788D02*
X001561Y009788D01*
X001490Y009194D02*
X002310Y009194D01*
X002310Y009046D02*
X001490Y009046D01*
X001490Y008897D02*
X002354Y008897D01*
X002250Y008749D02*
X002100Y008749D01*
X002100Y008600D02*
X002250Y008600D01*
X002250Y008452D02*
X002100Y008452D01*
X002100Y008303D02*
X002250Y008303D01*
X002175Y008175D02*
X004175Y008175D01*
X004175Y006925D01*
X005375Y006925D01*
X005425Y006925D01*
X005425Y006275D01*
X006925Y006275D01*
X006900Y006521D02*
X007050Y006521D01*
X007050Y006670D02*
X006900Y006670D01*
X006900Y006818D02*
X007050Y006818D01*
X007050Y007115D02*
X006900Y007115D01*
X006900Y007264D02*
X007050Y007264D01*
X007050Y007412D02*
X006900Y007412D01*
X006690Y007561D02*
X014573Y007561D01*
X014573Y007709D02*
X006690Y007709D01*
X006690Y007858D02*
X014573Y007858D01*
X014573Y008006D02*
X006690Y008006D01*
X006690Y008155D02*
X014573Y008155D01*
X014573Y008303D02*
X006690Y008303D01*
X007140Y008452D02*
X008210Y008452D01*
X009340Y008452D02*
X009577Y008452D01*
X010346Y008452D02*
X010346Y008452D01*
X010346Y008600D02*
X010346Y008600D01*
X011038Y008628D02*
X011038Y008628D01*
X011121Y008628D01*
X011038Y008628D01*
X011121Y008600D02*
X014573Y008600D01*
X014573Y008452D02*
X011115Y008452D01*
X011209Y008749D02*
X014573Y008749D01*
X014573Y008897D02*
X011261Y008897D01*
X011261Y009046D02*
X014573Y009046D01*
X014573Y009194D02*
X011261Y009194D01*
X011224Y009343D02*
X014573Y009343D01*
X014573Y009491D02*
X011121Y009491D01*
X011121Y009494D02*
X011038Y009494D01*
X011038Y009494D01*
X011121Y009494D01*
X011121Y009640D02*
X014573Y009640D01*
X014573Y009788D02*
X011010Y009788D01*
X010346Y009788D02*
X010346Y009788D01*
X010346Y009799D02*
X010346Y009506D01*
X010346Y009506D01*
X010346Y009799D01*
X010346Y009640D02*
X010346Y009640D01*
X009683Y009788D02*
X009551Y009788D01*
X009249Y009937D02*
X014573Y009937D01*
X014573Y010085D02*
X006782Y010085D01*
X007049Y009937D02*
X008301Y009937D01*
X007999Y009788D02*
X007351Y009788D01*
X005660Y008303D02*
X004889Y008303D01*
X004896Y008100D02*
X004250Y008100D01*
X004250Y007454D01*
X004317Y007462D01*
X004409Y007487D01*
X004496Y007523D01*
X004579Y007571D01*
X004654Y007629D01*
X004721Y007696D01*
X004779Y007771D01*
X004827Y007854D01*
X004863Y007941D01*
X004888Y008033D01*
X004896Y008100D01*
X004880Y008006D02*
X005660Y008006D01*
X005660Y007858D02*
X004828Y007858D01*
X004731Y007709D02*
X005660Y007709D01*
X005660Y007561D02*
X004561Y007561D01*
X004786Y007412D02*
X001490Y007412D01*
X001490Y007264D02*
X004780Y007264D01*
X004780Y007115D02*
X001490Y007115D01*
X001490Y006967D02*
X005300Y006967D01*
X005300Y006850D02*
X004780Y006850D01*
X004780Y006462D01*
X004792Y006417D01*
X004815Y006378D01*
X004848Y006345D01*
X004887Y006322D01*
X004932Y006310D01*
X005300Y006310D01*
X005300Y006850D01*
X005300Y006818D02*
X005450Y006818D01*
X005450Y006670D02*
X005300Y006670D01*
X005300Y006521D02*
X005450Y006521D01*
X005450Y006373D02*
X005300Y006373D01*
X005671Y006224D02*
X002750Y006224D01*
X002750Y006190D02*
X002750Y006340D01*
X003205Y006340D01*
X003205Y006643D01*
X003193Y006687D01*
X003170Y006727D01*
X003137Y006760D01*
X003097Y006783D01*
X003053Y006794D01*
X002750Y006794D01*
X002750Y006340D01*
X002600Y006340D01*
X002600Y006190D01*
X002600Y006150D01*
X002750Y006150D01*
X002750Y006190D01*
X002600Y006190D01*
X002145Y006190D01*
X002145Y006101D01*
X002058Y006013D01*
X002010Y005898D01*
X002010Y005514D01*
X002005Y005502D01*
X002005Y004668D01*
X002053Y004552D01*
X002142Y004463D01*
X002257Y004416D01*
X002383Y004416D01*
X002454Y004344D01*
X002597Y004285D01*
X003846Y004285D01*
X004037Y004094D01*
X004289Y003990D01*
X004561Y003990D01*
X004650Y004027D01*
X004670Y003966D01*
X004709Y003889D01*
X004759Y003820D01*
X004820Y003759D01*
X004889Y003709D01*
X004966Y003670D01*
X005047Y003643D01*
X005132Y003630D01*
X005170Y003630D01*
X005170Y004170D01*
X005180Y004170D01*
X005180Y004180D01*
X005720Y004180D01*
X005720Y004218D01*
X005707Y004303D01*
X005680Y004384D01*
X005641Y004461D01*
X005591Y004530D01*
X005537Y004584D01*
X005563Y004594D01*
X005754Y004785D01*
X006510Y004785D01*
X006510Y004452D01*
X006558Y004337D01*
X006645Y004249D01*
X006645Y004160D01*
X007100Y004160D01*
X007100Y004010D01*
X006645Y004010D01*
X006645Y003707D01*
X006657Y003663D01*
X006680Y003623D01*
X006713Y003590D01*
X006753Y003567D01*
X006797Y003556D01*
X007100Y003556D01*
X007100Y004010D01*
X007250Y004010D01*
X007250Y004160D01*
X007705Y004160D01*
X007705Y004249D01*
X007792Y004337D01*
X007840Y004452D01*
X007840Y004836D01*
X007845Y004848D01*
X007845Y005682D01*
X007797Y005798D01*
X007708Y005887D01*
X007593Y005934D01*
X006757Y005934D01*
X006642Y005887D01*
X006553Y005798D01*
X006505Y005682D01*
X006505Y005565D01*
X005754Y005565D01*
X005563Y005756D01*
X005311Y005860D01*
X005039Y005860D01*
X004787Y005756D01*
X004594Y005563D01*
X004510Y005360D01*
X004289Y005360D01*
X004037Y005256D01*
X003846Y005065D01*
X003345Y005065D01*
X003345Y005502D01*
X003340Y005514D01*
X003340Y005898D01*
X003292Y006013D01*
X003205Y006101D01*
X003205Y006190D01*
X002750Y006190D01*
X002675Y006175D02*
X001925Y006175D01*
X002120Y006076D02*
X001490Y006076D01*
X001490Y006224D02*
X002600Y006224D01*
X002675Y006265D02*
X002675Y006175D01*
X002600Y006340D02*
X002145Y006340D01*
X002145Y006643D01*
X002157Y006687D01*
X002180Y006727D01*
X002213Y006760D01*
X002253Y006783D01*
X002297Y006794D01*
X002600Y006794D01*
X002600Y006340D01*
X002600Y006373D02*
X002750Y006373D01*
X002750Y006521D02*
X002600Y006521D01*
X002600Y006670D02*
X002750Y006670D01*
X003198Y006670D02*
X004780Y006670D01*
X004780Y006818D02*
X001490Y006818D01*
X001490Y006670D02*
X002152Y006670D01*
X002145Y006521D02*
X001490Y006521D01*
X001490Y006373D02*
X002145Y006373D01*
X002022Y005927D02*
X001490Y005927D01*
X001490Y005779D02*
X002010Y005779D01*
X002010Y005630D02*
X001490Y005630D01*
X001490Y005482D02*
X002005Y005482D01*
X002005Y005333D02*
X001490Y005333D01*
X001490Y005185D02*
X002005Y005185D01*
X002005Y005036D02*
X001490Y005036D01*
X001490Y004888D02*
X002005Y004888D01*
X002005Y004739D02*
X001490Y004739D01*
X001490Y004591D02*
X002037Y004591D01*
X002193Y004442D02*
X001490Y004442D01*
X001490Y004294D02*
X002577Y004294D01*
X002675Y004675D02*
X002675Y005085D01*
X002675Y004675D02*
X004425Y004675D01*
X003966Y005185D02*
X003345Y005185D01*
X003345Y005333D02*
X004224Y005333D01*
X004561Y005482D02*
X003345Y005482D01*
X003340Y005630D02*
X004661Y005630D01*
X004842Y005779D02*
X003340Y005779D01*
X003328Y005927D02*
X006739Y005927D01*
X006545Y005779D02*
X005508Y005779D01*
X005689Y005630D02*
X006505Y005630D01*
X006679Y006224D02*
X011394Y006224D01*
X011394Y006076D02*
X010503Y006076D01*
X010628Y005927D02*
X011394Y005927D01*
X009847Y006076D02*
X003230Y006076D01*
X003205Y006373D02*
X004820Y006373D01*
X004780Y006521D02*
X003205Y006521D01*
X003941Y007487D02*
X004033Y007462D01*
X004100Y007454D01*
X004100Y008100D01*
X003454Y008100D01*
X003462Y008033D01*
X003487Y007941D01*
X003523Y007854D01*
X003571Y007771D01*
X003629Y007696D01*
X003696Y007629D01*
X003771Y007571D01*
X003854Y007523D01*
X003941Y007487D01*
X003789Y007561D02*
X002561Y007561D01*
X002579Y007571D02*
X002654Y007629D01*
X002721Y007696D01*
X002779Y007771D01*
X002827Y007854D01*
X002863Y007941D01*
X002888Y008033D01*
X002896Y008100D01*
X002250Y008100D01*
X002250Y007454D01*
X002317Y007462D01*
X002409Y007487D01*
X002496Y007523D01*
X002579Y007571D01*
X002731Y007709D02*
X003619Y007709D01*
X003522Y007858D02*
X002828Y007858D01*
X002880Y008006D02*
X003470Y008006D01*
X003461Y008303D02*
X002889Y008303D01*
X002250Y008155D02*
X004100Y008155D01*
X004100Y008006D02*
X004250Y008006D01*
X004250Y007858D02*
X004100Y007858D01*
X004100Y007709D02*
X004250Y007709D01*
X004250Y007561D02*
X004100Y007561D01*
X004250Y008155D02*
X005660Y008155D01*
X005450Y007412D02*
X005300Y007412D01*
X005300Y007264D02*
X005450Y007264D01*
X005450Y007115D02*
X005300Y007115D01*
X007611Y005927D02*
X008911Y005927D01*
X008823Y005779D02*
X007805Y005779D01*
X007845Y005630D02*
X008810Y005630D01*
X008810Y005482D02*
X007845Y005482D01*
X007845Y005333D02*
X008810Y005333D01*
X008810Y005185D02*
X007845Y005185D01*
X007845Y005036D02*
X008810Y005036D01*
X008272Y004888D02*
X007845Y004888D01*
X007840Y004739D02*
X008200Y004739D01*
X008200Y004591D02*
X007840Y004591D01*
X007836Y004442D02*
X008200Y004442D01*
X008245Y004294D02*
X007749Y004294D01*
X007705Y004010D02*
X007250Y004010D01*
X007250Y003556D01*
X007553Y003556D01*
X007597Y003567D01*
X007637Y003590D01*
X007670Y003623D01*
X007693Y003663D01*
X007705Y003707D01*
X007705Y004010D01*
X007705Y003997D02*
X008220Y003997D01*
X008200Y003848D02*
X007705Y003848D01*
X007703Y003700D02*
X008200Y003700D01*
X008221Y003551D02*
X001490Y003551D01*
X001490Y003403D02*
X008332Y003403D01*
X008175Y002925D02*
X008175Y002175D01*
X007250Y003700D02*
X007100Y003700D01*
X007100Y003848D02*
X007250Y003848D01*
X007250Y003997D02*
X007100Y003997D01*
X007175Y004075D02*
X007175Y004085D01*
X007175Y004075D02*
X005175Y004075D01*
X005175Y004175D01*
X004675Y003675D01*
X001925Y003675D01*
X001490Y003700D02*
X004908Y003700D01*
X004739Y003848D02*
X001490Y003848D01*
X001490Y003997D02*
X004273Y003997D01*
X004577Y003997D02*
X004660Y003997D01*
X005170Y003997D02*
X005180Y003997D01*
X005170Y004145D02*
X005180Y004145D01*
X005180Y004170D02*
X005180Y003630D01*
X005218Y003630D01*
X005303Y003643D01*
X005384Y003670D01*
X005461Y003709D01*
X005530Y003759D01*
X005591Y003820D01*
X005641Y003889D01*
X005680Y003966D01*
X005707Y004047D01*
X005720Y004132D01*
X005720Y004170D01*
X005180Y004170D01*
X005170Y003848D02*
X005180Y003848D01*
X005170Y003700D02*
X005180Y003700D01*
X005442Y003700D02*
X006647Y003700D01*
X006645Y003848D02*
X005611Y003848D01*
X005690Y003997D02*
X006645Y003997D01*
X006601Y004294D02*
X005708Y004294D01*
X005720Y004145D02*
X007100Y004145D01*
X007250Y004145D02*
X008330Y004145D01*
X009778Y004888D02*
X010576Y004888D01*
X010423Y004739D02*
X009850Y004739D01*
X007175Y005175D02*
X007175Y005265D01*
X007175Y005175D02*
X005175Y005175D01*
X005708Y004739D02*
X006510Y004739D01*
X006510Y004591D02*
X005554Y004591D01*
X005651Y004442D02*
X006514Y004442D01*
X003986Y004145D02*
X001490Y004145D01*
X001490Y003254D02*
X002060Y003254D01*
X001825Y003106D02*
X001490Y003106D01*
X001490Y002957D02*
X001676Y002957D01*
X001604Y002809D02*
X001490Y002809D01*
X001490Y002660D02*
X001542Y002660D01*
X001519Y002512D02*
X001490Y002512D01*
X001490Y002363D02*
X001519Y002363D01*
X001532Y002215D02*
X001490Y002215D01*
X001490Y002066D02*
X001594Y002066D01*
X001655Y001918D02*
X001490Y001918D01*
X001490Y001769D02*
X001800Y001769D01*
X002001Y001621D02*
X001501Y001621D01*
X003246Y002809D02*
X003785Y002809D01*
X003785Y002957D02*
X003174Y002957D01*
X003025Y003106D02*
X003828Y003106D01*
X003952Y003254D02*
X002790Y003254D01*
X002250Y007561D02*
X002100Y007561D01*
X002100Y007709D02*
X002250Y007709D01*
X002250Y007858D02*
X002100Y007858D01*
X002100Y008006D02*
X002250Y008006D01*
X001789Y007561D02*
X001490Y007561D01*
X001490Y007709D02*
X001619Y007709D01*
X001522Y007858D02*
X001490Y007858D01*
X001490Y008452D02*
X001505Y008452D01*
X001490Y008600D02*
X001587Y008600D01*
X001490Y008749D02*
X001731Y008749D01*
X002894Y010085D02*
X003456Y010085D01*
X003480Y010382D02*
X002870Y010382D01*
X002807Y010531D02*
X003543Y010531D01*
X003654Y010679D02*
X002696Y010679D01*
X001856Y010828D02*
X001490Y010828D01*
X001490Y010679D02*
X001654Y010679D01*
X001543Y010531D02*
X001490Y010531D01*
X010346Y012722D02*
X010346Y012722D01*
X010346Y012758D02*
X010346Y012758D01*
X010346Y012907D02*
X010346Y012907D01*
X020175Y012775D02*
X020175Y009075D01*
X021004Y008588D02*
X021075Y008575D01*
X021375Y008575D01*
X021725Y008225D01*
X022075Y008575D01*
X021725Y008225D02*
X022175Y007775D01*
X022175Y007765D01*
X021505Y007709D02*
X020321Y007709D01*
X020321Y007561D02*
X021505Y007561D01*
X021505Y007412D02*
X020300Y007412D01*
X020189Y007264D02*
X021510Y007264D01*
X021510Y007115D02*
X019523Y007115D01*
X019523Y006967D02*
X021510Y006967D01*
X021577Y006818D02*
X019523Y006818D01*
X019523Y006670D02*
X021645Y006670D01*
X022100Y006670D02*
X022250Y006670D01*
X022175Y006675D02*
X022175Y006585D01*
X022175Y006575D01*
X020175Y006575D01*
X020321Y007858D02*
X021505Y007858D01*
X021504Y007894D02*
X021504Y007894D01*
X021394Y008004D02*
X021394Y008004D01*
X021392Y008006D02*
X020321Y008006D01*
X022285Y009046D02*
X023730Y009046D01*
X023668Y008897D02*
X022481Y008897D01*
X022561Y008749D02*
X023660Y008749D01*
X023690Y008600D02*
X022590Y008600D01*
X022581Y008452D02*
X023770Y008452D01*
X023969Y008303D02*
X022792Y008303D01*
X022845Y008155D02*
X024340Y008155D01*
X023990Y008006D02*
X022845Y008006D01*
X022845Y007858D02*
X023629Y007858D01*
X023485Y007709D02*
X022845Y007709D01*
X022845Y007561D02*
X023424Y007561D01*
X023410Y007412D02*
X022845Y007412D01*
X022840Y007264D02*
X023434Y007264D01*
X023507Y007115D02*
X022840Y007115D01*
X022840Y006967D02*
X023686Y006967D01*
X022275Y006775D02*
X022175Y006675D01*
X022275Y006775D02*
X026175Y006775D01*
X026175Y006175D01*
X026265Y006175D01*
X026190Y006224D02*
X026150Y006224D01*
X026190Y006373D02*
X026340Y006373D01*
X026340Y006521D02*
X026190Y006521D01*
X026190Y006670D02*
X026340Y006670D01*
X025075Y005525D02*
X025075Y005375D01*
X024416Y004985D02*
X024337Y004952D01*
X024248Y004863D01*
X024200Y004748D01*
X024200Y004402D01*
X024248Y004287D01*
X024337Y004198D01*
X024340Y004197D01*
X024340Y004175D01*
X024392Y004175D01*
X024392Y004175D01*
X024392Y004175D01*
X024340Y004175D01*
X024340Y004153D01*
X024337Y004152D01*
X024248Y004063D01*
X024238Y004040D01*
X021038Y004040D01*
X020967Y004112D01*
X020886Y004145D01*
X024330Y004145D01*
X024245Y004294D02*
X021044Y004294D01*
X021044Y004297D02*
X021044Y004600D01*
X020590Y004600D01*
X020590Y004750D01*
X021044Y004750D01*
X021044Y004985D01*
X021737Y004985D01*
X021783Y004938D01*
X021973Y004860D01*
X022177Y004860D01*
X022367Y004938D01*
X022413Y004985D01*
X024416Y004985D01*
X024272Y004888D02*
X022244Y004888D01*
X021906Y004888D02*
X021044Y004888D01*
X021044Y004591D02*
X024200Y004591D01*
X024200Y004739D02*
X020590Y004739D01*
X020590Y004591D02*
X020440Y004591D01*
X020425Y004425D02*
X019675Y003675D01*
X019175Y003675D01*
X019648Y003254D02*
X020368Y003254D01*
X019945Y002957D02*
X021441Y002957D01*
X021589Y003106D02*
X019796Y003106D01*
X020093Y002809D02*
X020914Y002809D01*
X020691Y002660D02*
X020242Y002660D01*
X020390Y002512D02*
X020573Y002512D01*
X019881Y001918D02*
X019810Y001918D01*
X019738Y001769D02*
X020029Y001769D01*
X020178Y001621D02*
X019589Y001621D01*
X020982Y003254D02*
X021738Y003254D01*
X020977Y004180D02*
X021010Y004213D01*
X021033Y004253D01*
X021044Y004297D01*
X020977Y004180D02*
X020937Y004157D01*
X020893Y004145D01*
X020886Y004145D01*
X021044Y004442D02*
X024200Y004442D01*
X018712Y004145D02*
X018201Y004145D01*
X017875Y007375D02*
X017075Y007375D01*
X024175Y008775D02*
X024375Y008575D01*
X025025Y008575D01*
X035659Y002660D02*
X035691Y002660D01*
X035765Y002809D02*
X035914Y002809D01*
X036436Y002809D02*
X036914Y002809D01*
X036691Y002660D02*
X036659Y002660D01*
X010153Y020629D02*
X009997Y020629D01*
X009153Y020629D02*
X008997Y020629D01*
D26*
X008675Y018675D03*
X005675Y018675D03*
X002675Y018675D03*
X002675Y015675D03*
X005675Y015675D03*
X008675Y015675D03*
X008675Y013175D03*
X006175Y011925D03*
X007175Y010175D03*
X008675Y010175D03*
X009925Y010175D03*
X011425Y010175D03*
X011425Y009000D03*
X011425Y007925D03*
X009925Y007925D03*
X008675Y007925D03*
X007175Y007925D03*
X010175Y005675D03*
X008175Y005425D03*
X013925Y007925D03*
X013925Y008925D03*
X013925Y010175D03*
X013925Y012175D03*
X013175Y015175D03*
X015525Y015025D03*
X017975Y016175D03*
X020975Y014775D03*
X022175Y014175D03*
X024175Y013175D03*
X022675Y011925D03*
X021975Y011125D03*
X024675Y009425D03*
X024175Y008775D03*
X022075Y008575D03*
X023925Y007425D03*
X020675Y006175D03*
X022075Y005375D03*
X020675Y003675D03*
X019175Y003675D03*
X018375Y005475D03*
X017075Y005575D03*
X026675Y010075D03*
X027775Y009675D03*
X027475Y009175D03*
X029475Y008375D03*
X029925Y007325D03*
X031575Y007975D03*
X028925Y005975D03*
X035675Y006675D03*
X035675Y007275D03*
X036075Y008075D03*
X035675Y011075D03*
X035075Y011675D03*
X035675Y012675D03*
X032875Y011975D03*
X030575Y011075D03*
X028175Y010925D03*
X028175Y013925D03*
X030675Y013875D03*
X033925Y015675D03*
X035275Y015575D03*
X036425Y017675D03*
X035375Y019575D03*
X033575Y019575D03*
X032775Y018975D03*
X032175Y019175D03*
X028175Y020175D03*
X021175Y017175D03*
X024175Y015925D03*
X036675Y004825D03*
X002675Y013175D03*
X001925Y003675D03*
D27*
X009025Y004575D02*
X009175Y004575D01*
X009175Y005675D01*
X010175Y005675D01*
X010775Y004575D02*
X016675Y004575D01*
X017475Y005375D01*
X017475Y006475D01*
X017486Y006527D01*
X016620Y006527D02*
X016575Y006475D01*
X016575Y005175D01*
X016175Y005175D01*
X014275Y005175D02*
X014275Y006475D01*
X014336Y006527D01*
X014275Y005175D02*
X014175Y005175D01*
X010775Y004575D02*
X010375Y004175D01*
X010325Y004175D01*
X018375Y005475D02*
X018375Y006475D01*
X018352Y006527D01*
X020675Y003675D02*
X025025Y003675D01*
X025025Y003775D01*
X026325Y003775D02*
X028275Y003775D01*
X028375Y003675D01*
X028425Y003585D01*
X028475Y003675D01*
X029175Y003675D01*
X029675Y004175D01*
X030175Y004175D01*
X030425Y003425D02*
X029675Y003425D01*
X029225Y002975D01*
X021975Y002975D01*
X021175Y002175D01*
X028925Y005975D02*
X034475Y005975D01*
X034775Y006275D01*
X034825Y006275D01*
X033525Y006275D02*
X032175Y006275D01*
X031775Y006675D01*
X031765Y006675D01*
X030585Y006675D02*
X030575Y006675D01*
X029925Y007325D01*
X029475Y008375D02*
X028775Y007675D01*
X028475Y007675D01*
X028425Y007585D01*
X028375Y007675D01*
X028275Y007775D01*
X026325Y007775D01*
X025025Y007775D02*
X024275Y007775D01*
X023925Y007425D01*
X025675Y009175D02*
X027475Y009175D01*
X027775Y009675D02*
X025875Y009675D01*
X024425Y011125D01*
X021975Y011125D01*
X021575Y011875D02*
X021075Y011875D01*
X021004Y011895D01*
X021004Y012329D02*
X021075Y012375D01*
X021675Y012375D01*
X023675Y014375D01*
X032625Y014375D01*
X032725Y014275D01*
X033525Y014275D01*
X034475Y013975D02*
X034775Y014275D01*
X034825Y014275D01*
X036275Y014275D01*
X036375Y014175D01*
X036425Y014085D01*
X037025Y013375D02*
X027875Y013375D01*
X027475Y013775D01*
X026775Y013775D01*
X026175Y013175D01*
X026175Y012175D02*
X025575Y012175D01*
X025575Y010725D01*
X026225Y010075D01*
X026675Y010075D01*
X025675Y009175D02*
X024975Y009875D01*
X021075Y009875D01*
X021004Y009888D01*
X021004Y009455D02*
X021075Y009425D01*
X024675Y009425D01*
X028175Y010925D02*
X029675Y009425D01*
X033925Y009425D01*
X034775Y010275D01*
X034825Y010275D01*
X033525Y010275D02*
X031875Y010275D01*
X031775Y010175D01*
X031765Y010175D01*
X030585Y010175D02*
X030575Y010175D01*
X030575Y011075D01*
X030675Y013875D02*
X030775Y013975D01*
X034475Y013975D01*
X037025Y013375D02*
X037025Y007325D01*
X038175Y006175D01*
X038675Y005675D02*
X037525Y005675D01*
X036675Y004825D01*
X038675Y005675D02*
X039175Y006175D01*
X031175Y004175D02*
X030425Y003425D01*
X021575Y011875D02*
X023775Y014075D01*
X028025Y014075D01*
X028175Y013925D01*
X025675Y015425D02*
X024175Y016925D01*
X024175Y019175D01*
X025175Y019175D02*
X024175Y020175D01*
X021175Y020175D01*
X020175Y021175D01*
X025175Y020175D02*
X026175Y019175D01*
X029175Y019175D01*
X029675Y019575D02*
X029675Y018675D01*
X029175Y018175D01*
X031175Y018175D02*
X031975Y018175D01*
X032775Y018975D01*
X032175Y019175D02*
X031175Y019175D01*
X032175Y020175D02*
X032175Y021175D01*
X033175Y021175D02*
X033175Y020175D01*
X033275Y018275D02*
X034025Y018275D01*
X033775Y017775D02*
X032675Y016675D01*
X032675Y015925D01*
X031925Y015175D01*
X022675Y015175D01*
X021675Y016175D01*
X018775Y016175D01*
X018775Y014875D01*
X018785Y014823D01*
X019218Y014823D02*
X019275Y014875D01*
X019575Y015175D01*
X021675Y015175D01*
X020975Y014775D02*
X020975Y013275D01*
X021004Y013195D01*
X017975Y014875D02*
X017919Y014823D01*
X017975Y014875D02*
X017975Y016175D01*
X017575Y016575D02*
X019575Y016575D01*
X020175Y017175D01*
X020175Y018175D01*
X019175Y018175D02*
X019175Y017175D01*
X018175Y017175D02*
X018175Y018175D01*
X017175Y018175D02*
X017175Y017175D01*
X016675Y016675D01*
X016675Y014875D01*
X016620Y014823D01*
X016975Y014775D02*
X017053Y014823D01*
X016975Y014775D02*
X016975Y013975D01*
X016475Y013975D01*
X016175Y014275D01*
X016175Y017175D01*
X016175Y018175D01*
X017575Y016575D02*
X017575Y014875D01*
X017486Y014823D01*
X025675Y015425D02*
X031675Y015425D01*
X032175Y015925D01*
X032175Y017175D01*
X033275Y018275D01*
X033775Y017775D02*
X034775Y017775D01*
X035275Y018275D01*
X035325Y018275D01*
X029675Y019575D02*
X029375Y019875D01*
X028925Y019875D01*
X028625Y019575D01*
X026775Y019575D01*
X026175Y020175D01*
D28*
X002175Y008175D02*
X001925Y007925D01*
X001925Y006175D01*
X001925Y003675D01*
D29*
X006175Y009175D02*
X006175Y009943D01*
D30*
X004975Y009175D02*
X003175Y009175D01*
D31*
X004975Y009175D02*
X006175Y009175D01*
X006875Y009175D01*
X008475Y009175D02*
X009075Y009175D01*
D32*
X008475Y009175D02*
X008157Y009175D01*
X007193Y009175D02*
X006875Y009175D01*
D33*
X006175Y009175D02*
X006175Y007925D01*
D34*
X009075Y009175D02*
X009175Y009061D01*
X010346Y009061D01*
M02*
