G75*
G70*
%OFA0B0*%
%FSLAX24Y24*%
%IPPOS*%
%LPD*%
%AMOC8*
5,1,8,0,0,1.08239X$1,22.5*
%
%ADD10C,0.0000*%
%ADD11C,0.0740*%
%ADD12R,0.0740X0.0740*%
%ADD13C,0.0768*%
%ADD14OC8,0.0640*%
%ADD15C,0.1100*%
%ADD16C,0.0150*%
%ADD17C,0.0400*%
%ADD18C,0.0160*%
%ADD19C,0.0100*%
D10*
X001675Y001175D02*
X039675Y001175D01*
X039719Y001177D01*
X039762Y001183D01*
X039804Y001192D01*
X039846Y001205D01*
X039886Y001222D01*
X039925Y001242D01*
X039962Y001265D01*
X039996Y001292D01*
X040029Y001321D01*
X040058Y001354D01*
X040085Y001388D01*
X040108Y001425D01*
X040128Y001464D01*
X040145Y001504D01*
X040158Y001546D01*
X040167Y001588D01*
X040173Y001631D01*
X040175Y001675D01*
X040175Y021675D01*
X040173Y021719D01*
X040167Y021762D01*
X040158Y021804D01*
X040145Y021846D01*
X040128Y021886D01*
X040108Y021925D01*
X040085Y021962D01*
X040058Y021996D01*
X040029Y022029D01*
X039996Y022058D01*
X039962Y022085D01*
X039925Y022108D01*
X039886Y022128D01*
X039846Y022145D01*
X039804Y022158D01*
X039762Y022167D01*
X039719Y022173D01*
X039675Y022175D01*
X001675Y022175D01*
X001631Y022173D01*
X001588Y022167D01*
X001546Y022158D01*
X001504Y022145D01*
X001464Y022128D01*
X001425Y022108D01*
X001388Y022085D01*
X001354Y022058D01*
X001321Y022029D01*
X001292Y021996D01*
X001265Y021962D01*
X001242Y021925D01*
X001222Y021886D01*
X001205Y021846D01*
X001192Y021804D01*
X001183Y021762D01*
X001177Y021719D01*
X001175Y021675D01*
X001175Y001675D01*
X001177Y001631D01*
X001183Y001588D01*
X001192Y001546D01*
X001205Y001504D01*
X001222Y001464D01*
X001242Y001425D01*
X001265Y001388D01*
X001292Y001354D01*
X001321Y001321D01*
X001354Y001292D01*
X001388Y001265D01*
X001425Y001242D01*
X001464Y001222D01*
X001504Y001205D01*
X001546Y001192D01*
X001588Y001183D01*
X001631Y001177D01*
X001675Y001175D01*
X001834Y002425D02*
X001836Y002473D01*
X001842Y002521D01*
X001852Y002568D01*
X001865Y002614D01*
X001883Y002659D01*
X001903Y002703D01*
X001928Y002745D01*
X001956Y002784D01*
X001986Y002821D01*
X002020Y002855D01*
X002057Y002887D01*
X002095Y002916D01*
X002136Y002941D01*
X002179Y002963D01*
X002224Y002981D01*
X002270Y002995D01*
X002317Y003006D01*
X002365Y003013D01*
X002413Y003016D01*
X002461Y003015D01*
X002509Y003010D01*
X002557Y003001D01*
X002603Y002989D01*
X002648Y002972D01*
X002692Y002952D01*
X002734Y002929D01*
X002774Y002902D01*
X002812Y002872D01*
X002847Y002839D01*
X002879Y002803D01*
X002909Y002765D01*
X002935Y002724D01*
X002957Y002681D01*
X002977Y002637D01*
X002992Y002592D01*
X003004Y002545D01*
X003012Y002497D01*
X003016Y002449D01*
X003016Y002401D01*
X003012Y002353D01*
X003004Y002305D01*
X002992Y002258D01*
X002977Y002213D01*
X002957Y002169D01*
X002935Y002126D01*
X002909Y002085D01*
X002879Y002047D01*
X002847Y002011D01*
X002812Y001978D01*
X002774Y001948D01*
X002734Y001921D01*
X002692Y001898D01*
X002648Y001878D01*
X002603Y001861D01*
X002557Y001849D01*
X002509Y001840D01*
X002461Y001835D01*
X002413Y001834D01*
X002365Y001837D01*
X002317Y001844D01*
X002270Y001855D01*
X002224Y001869D01*
X002179Y001887D01*
X002136Y001909D01*
X002095Y001934D01*
X002057Y001963D01*
X002020Y001995D01*
X001986Y002029D01*
X001956Y002066D01*
X001928Y002105D01*
X001903Y002147D01*
X001883Y002191D01*
X001865Y002236D01*
X001852Y002282D01*
X001842Y002329D01*
X001836Y002377D01*
X001834Y002425D01*
X001834Y020925D02*
X001836Y020973D01*
X001842Y021021D01*
X001852Y021068D01*
X001865Y021114D01*
X001883Y021159D01*
X001903Y021203D01*
X001928Y021245D01*
X001956Y021284D01*
X001986Y021321D01*
X002020Y021355D01*
X002057Y021387D01*
X002095Y021416D01*
X002136Y021441D01*
X002179Y021463D01*
X002224Y021481D01*
X002270Y021495D01*
X002317Y021506D01*
X002365Y021513D01*
X002413Y021516D01*
X002461Y021515D01*
X002509Y021510D01*
X002557Y021501D01*
X002603Y021489D01*
X002648Y021472D01*
X002692Y021452D01*
X002734Y021429D01*
X002774Y021402D01*
X002812Y021372D01*
X002847Y021339D01*
X002879Y021303D01*
X002909Y021265D01*
X002935Y021224D01*
X002957Y021181D01*
X002977Y021137D01*
X002992Y021092D01*
X003004Y021045D01*
X003012Y020997D01*
X003016Y020949D01*
X003016Y020901D01*
X003012Y020853D01*
X003004Y020805D01*
X002992Y020758D01*
X002977Y020713D01*
X002957Y020669D01*
X002935Y020626D01*
X002909Y020585D01*
X002879Y020547D01*
X002847Y020511D01*
X002812Y020478D01*
X002774Y020448D01*
X002734Y020421D01*
X002692Y020398D01*
X002648Y020378D01*
X002603Y020361D01*
X002557Y020349D01*
X002509Y020340D01*
X002461Y020335D01*
X002413Y020334D01*
X002365Y020337D01*
X002317Y020344D01*
X002270Y020355D01*
X002224Y020369D01*
X002179Y020387D01*
X002136Y020409D01*
X002095Y020434D01*
X002057Y020463D01*
X002020Y020495D01*
X001986Y020529D01*
X001956Y020566D01*
X001928Y020605D01*
X001903Y020647D01*
X001883Y020691D01*
X001865Y020736D01*
X001852Y020782D01*
X001842Y020829D01*
X001836Y020877D01*
X001834Y020925D01*
D11*
X008575Y021175D03*
X009575Y021175D03*
X010575Y021175D03*
X011575Y021175D03*
X012575Y021175D03*
X013575Y021175D03*
X014575Y021175D03*
X015575Y021175D03*
X016575Y021175D03*
X017575Y021175D03*
X019175Y021175D03*
X020175Y021175D03*
X021175Y021175D03*
X022175Y021175D03*
X023175Y021175D03*
X024175Y021175D03*
X025175Y021175D03*
X026175Y021175D03*
X026175Y020175D03*
X025175Y020175D03*
X025175Y019175D03*
X024175Y019175D03*
X023175Y019175D03*
X020175Y017175D03*
X019175Y017175D03*
X018175Y017175D03*
X017175Y017175D03*
X016175Y017175D03*
X021675Y016175D03*
X021675Y015175D03*
X026175Y012175D03*
X027175Y012175D03*
X027175Y013175D03*
X027175Y011175D03*
X026175Y011175D03*
X027175Y016175D03*
X027175Y017175D03*
X027175Y018175D03*
X032175Y020175D03*
X033175Y020175D03*
X033175Y021175D03*
X034175Y021175D03*
X035175Y021175D03*
X032175Y021175D03*
X031175Y021175D03*
X030175Y021175D03*
X029175Y021175D03*
X028175Y021175D03*
X037175Y018175D03*
X037175Y017175D03*
X016175Y005175D03*
X014175Y005175D03*
X013175Y003175D03*
X013175Y002175D03*
X012175Y002175D03*
X014175Y002175D03*
X015175Y002175D03*
X016175Y002175D03*
X017175Y002175D03*
X018175Y002175D03*
X019175Y002175D03*
X021175Y002175D03*
X022175Y002175D03*
X023175Y002175D03*
X024175Y002175D03*
X025175Y002175D03*
X026175Y002175D03*
X027175Y002175D03*
X028175Y002175D03*
X030175Y002175D03*
X031175Y002175D03*
X032175Y002175D03*
X033175Y002175D03*
X034175Y002175D03*
X035175Y002175D03*
X036175Y002175D03*
X037175Y002175D03*
X035175Y003175D03*
X034175Y003175D03*
X033175Y003175D03*
X032175Y003175D03*
X031175Y004175D03*
X030175Y004175D03*
X039175Y003175D03*
X017175Y003175D03*
X016175Y003175D03*
X015175Y003175D03*
X009175Y002175D03*
X008175Y002175D03*
X007175Y002175D03*
X006175Y002175D03*
X005175Y002175D03*
X004175Y002175D03*
X005175Y004175D03*
X004425Y004675D03*
X005175Y005175D03*
D12*
X026175Y013175D03*
D13*
X005675Y013175D03*
X005675Y021049D03*
D14*
X012175Y019175D03*
X013175Y019175D03*
X014175Y019175D03*
X014175Y018175D03*
X013175Y018175D03*
X012175Y018175D03*
X016175Y018175D03*
X017175Y018175D03*
X018175Y018175D03*
X019175Y018175D03*
X020175Y018175D03*
X020175Y019175D03*
X019175Y019175D03*
X018175Y019175D03*
X017175Y019175D03*
X016175Y019175D03*
X029175Y019175D03*
X030175Y019175D03*
X031175Y019175D03*
X031175Y018175D03*
X030175Y018175D03*
X029175Y018175D03*
X029175Y017175D03*
X030175Y017175D03*
X031175Y017175D03*
X031175Y016175D03*
X030175Y016175D03*
X029175Y016175D03*
X038175Y016175D03*
X039175Y016175D03*
X039175Y017175D03*
X038175Y017175D03*
X038175Y018175D03*
X039175Y018175D03*
X039175Y019175D03*
X038175Y019175D03*
X038175Y020175D03*
X039175Y020175D03*
X039175Y021175D03*
X038175Y021175D03*
X038175Y015175D03*
X039175Y015175D03*
X039175Y014175D03*
X038175Y014175D03*
X038175Y013175D03*
X039175Y013175D03*
X039175Y012175D03*
X038175Y012175D03*
X038175Y011175D03*
X039175Y011175D03*
X039175Y010175D03*
X038175Y010175D03*
X038175Y009175D03*
X039175Y009175D03*
X039175Y008175D03*
X038175Y008175D03*
X038175Y007175D03*
X039175Y007175D03*
X039175Y006175D03*
X038175Y006175D03*
X038175Y005175D03*
X039175Y005175D03*
X039175Y004175D03*
X038175Y004175D03*
D15*
X004175Y008175D03*
X003175Y009175D03*
X002175Y008175D03*
X002175Y010175D03*
X004175Y010175D03*
D16*
X004175Y011675D01*
X005675Y013175D01*
X005728Y013153D02*
X011681Y013153D01*
X011829Y013005D02*
X006207Y013005D01*
X006220Y013044D02*
X006232Y013122D01*
X005728Y013122D01*
X005728Y013228D01*
X006232Y013228D01*
X006220Y013306D01*
X006193Y013390D01*
X006153Y013468D01*
X006101Y013539D01*
X006039Y013601D01*
X005968Y013653D01*
X005890Y013693D01*
X005806Y013720D01*
X005728Y013732D01*
X005728Y013228D01*
X005622Y013228D01*
X005622Y013732D01*
X005544Y013720D01*
X005460Y013693D01*
X005382Y013653D01*
X005311Y013601D01*
X005249Y013539D01*
X005197Y013468D01*
X005157Y013390D01*
X005130Y013306D01*
X005118Y013228D01*
X005622Y013228D01*
X005622Y013122D01*
X005728Y013122D01*
X005728Y012618D01*
X005806Y012630D01*
X005890Y012657D01*
X005968Y012697D01*
X006039Y012749D01*
X006101Y012811D01*
X006153Y012882D01*
X006193Y012960D01*
X006220Y013044D01*
X006134Y012856D02*
X011978Y012856D01*
X012126Y012708D02*
X005982Y012708D01*
X005728Y012708D02*
X005622Y012708D01*
X005622Y012618D02*
X005622Y013122D01*
X005118Y013122D01*
X005130Y013044D01*
X005157Y012960D01*
X005197Y012882D01*
X005249Y012811D01*
X005311Y012749D01*
X005382Y012697D01*
X005460Y012657D01*
X005544Y012630D01*
X005622Y012618D01*
X005622Y012856D02*
X005728Y012856D01*
X005728Y013005D02*
X005622Y013005D01*
X005622Y013153D02*
X001490Y013153D01*
X001490Y013005D02*
X005143Y013005D01*
X005216Y012856D02*
X001490Y012856D01*
X001490Y012708D02*
X005368Y012708D01*
X005784Y012262D02*
X001490Y012262D01*
X001490Y012114D02*
X005696Y012114D01*
X005660Y012027D02*
X005660Y011823D01*
X005738Y011633D01*
X005883Y011488D01*
X006073Y011410D01*
X006277Y011410D01*
X006467Y011488D01*
X006513Y011535D01*
X011763Y011535D01*
X011785Y011513D01*
X011785Y007587D01*
X011263Y007065D01*
X003847Y007065D01*
X003704Y007006D01*
X003204Y006506D01*
X003094Y006396D01*
X003035Y006253D01*
X003035Y003096D01*
X002938Y003193D01*
X002605Y003331D01*
X002245Y003331D01*
X001912Y003193D01*
X001657Y002938D01*
X001519Y002605D01*
X001519Y002245D01*
X001657Y001912D01*
X001912Y001657D01*
X002245Y001519D01*
X002605Y001519D01*
X002938Y001657D01*
X003035Y001754D01*
X003035Y001497D01*
X003038Y001490D01*
X001738Y001490D01*
X001675Y001490D01*
X001639Y001494D01*
X001572Y001521D01*
X001521Y001572D01*
X001494Y001639D01*
X001490Y001675D01*
X001490Y007934D01*
X001523Y007854D01*
X001571Y007771D01*
X001629Y007696D01*
X001696Y007629D01*
X001771Y007571D01*
X001854Y007523D01*
X001941Y007487D01*
X002033Y007462D01*
X002100Y007454D01*
X002100Y008100D01*
X002250Y008100D01*
X002250Y008250D01*
X002100Y008250D01*
X002100Y008896D01*
X002033Y008888D01*
X001941Y008863D01*
X001854Y008827D01*
X001771Y008779D01*
X001696Y008721D01*
X001629Y008654D01*
X001571Y008579D01*
X001523Y008496D01*
X001490Y008416D01*
X001490Y009934D01*
X001523Y009854D01*
X001571Y009771D01*
X001629Y009696D01*
X001696Y009629D01*
X001771Y009571D01*
X001854Y009523D01*
X001941Y009487D01*
X002033Y009462D01*
X002100Y009454D01*
X002100Y010100D01*
X002250Y010100D01*
X002250Y010250D01*
X002100Y010250D01*
X002100Y010896D01*
X002033Y010888D01*
X001941Y010863D01*
X001854Y010827D01*
X001771Y010779D01*
X001696Y010721D01*
X001629Y010654D01*
X001571Y010579D01*
X001523Y010496D01*
X001490Y010416D01*
X001490Y021675D01*
X001494Y021711D01*
X001521Y021778D01*
X001572Y021829D01*
X001639Y021856D01*
X001675Y021860D01*
X007408Y021860D01*
X007344Y021796D01*
X007285Y021653D01*
X007285Y018597D01*
X007296Y018570D01*
X006040Y019826D01*
X006040Y020444D01*
X006071Y020457D01*
X006267Y020653D01*
X006374Y020910D01*
X006374Y021188D01*
X006267Y021445D01*
X006071Y021641D01*
X005814Y021748D01*
X005536Y021748D01*
X005279Y021641D01*
X005083Y021445D01*
X004976Y021188D01*
X004976Y020910D01*
X005083Y020653D01*
X005279Y020457D01*
X005310Y020444D01*
X005310Y019602D01*
X005366Y019468D01*
X005468Y019366D01*
X012310Y012524D01*
X012310Y012092D01*
X012256Y012146D01*
X012146Y012256D01*
X012003Y012315D01*
X006513Y012315D01*
X006467Y012362D01*
X006277Y012440D01*
X006073Y012440D01*
X005883Y012362D01*
X005738Y012217D01*
X005660Y012027D01*
X005660Y011965D02*
X001490Y011965D01*
X001490Y011817D02*
X005662Y011817D01*
X005724Y011668D02*
X001490Y011668D01*
X001490Y011520D02*
X005852Y011520D01*
X006498Y011520D02*
X011779Y011520D01*
X011785Y011371D02*
X001490Y011371D01*
X001490Y011223D02*
X011785Y011223D01*
X011785Y011074D02*
X001490Y011074D01*
X001490Y010926D02*
X011785Y010926D01*
X011785Y010777D02*
X004581Y010777D01*
X004579Y010779D02*
X004496Y010827D01*
X004409Y010863D01*
X004317Y010888D01*
X004250Y010896D01*
X004250Y010250D01*
X004100Y010250D01*
X004100Y010896D01*
X004033Y010888D01*
X003941Y010863D01*
X003854Y010827D01*
X003771Y010779D01*
X003696Y010721D01*
X003629Y010654D01*
X003571Y010579D01*
X003523Y010496D01*
X003487Y010409D01*
X003462Y010317D01*
X003454Y010250D01*
X004100Y010250D01*
X004100Y010100D01*
X003454Y010100D01*
X003462Y010033D01*
X003475Y009987D01*
X003347Y010040D01*
X003003Y010040D01*
X002875Y009987D01*
X002888Y010033D01*
X002896Y010100D01*
X002250Y010100D01*
X002250Y009454D01*
X002317Y009462D01*
X002363Y009475D01*
X002310Y009347D01*
X002310Y009003D01*
X002363Y008875D01*
X002317Y008888D01*
X002250Y008896D01*
X002250Y008250D01*
X002896Y008250D01*
X002888Y008317D01*
X002875Y008363D01*
X003003Y008310D01*
X003347Y008310D01*
X003475Y008363D01*
X003462Y008317D01*
X003454Y008250D01*
X004100Y008250D01*
X004100Y008896D01*
X004033Y008888D01*
X003987Y008875D01*
X004040Y009003D01*
X004040Y009347D01*
X003987Y009475D01*
X004033Y009462D01*
X004100Y009454D01*
X004100Y010100D01*
X004250Y010100D01*
X004250Y010250D01*
X004896Y010250D01*
X004888Y010317D01*
X004863Y010409D01*
X004827Y010496D01*
X004779Y010579D01*
X004721Y010654D01*
X004654Y010721D01*
X004579Y010779D01*
X004741Y010629D02*
X011785Y010629D01*
X011785Y010480D02*
X004833Y010480D01*
X004884Y010332D02*
X011785Y010332D01*
X011785Y010183D02*
X004250Y010183D01*
X004250Y010100D02*
X004896Y010100D01*
X004888Y010033D01*
X004863Y009941D01*
X004827Y009854D01*
X004779Y009771D01*
X004721Y009696D01*
X004654Y009629D01*
X004579Y009571D01*
X004496Y009523D01*
X004409Y009487D01*
X004317Y009462D01*
X004250Y009454D01*
X004250Y010100D01*
X004250Y010035D02*
X004100Y010035D01*
X004100Y010183D02*
X002250Y010183D01*
X002250Y010250D02*
X002896Y010250D01*
X002888Y010317D01*
X002863Y010409D01*
X002827Y010496D01*
X002779Y010579D01*
X002721Y010654D01*
X002654Y010721D01*
X002579Y010779D01*
X002496Y010827D01*
X002409Y010863D01*
X002317Y010888D01*
X002250Y010896D01*
X002250Y010250D01*
X002250Y010332D02*
X002100Y010332D01*
X002100Y010480D02*
X002250Y010480D01*
X002250Y010629D02*
X002100Y010629D01*
X002100Y010777D02*
X002250Y010777D01*
X002581Y010777D02*
X003769Y010777D01*
X003609Y010629D02*
X002741Y010629D01*
X002833Y010480D02*
X003517Y010480D01*
X003466Y010332D02*
X002884Y010332D01*
X002175Y010175D02*
X002175Y008175D01*
X002250Y008104D02*
X004100Y008104D01*
X004100Y008100D02*
X003454Y008100D01*
X003462Y008033D01*
X003487Y007941D01*
X003523Y007854D01*
X003571Y007771D01*
X003629Y007696D01*
X003696Y007629D01*
X003771Y007571D01*
X003854Y007523D01*
X003941Y007487D01*
X004033Y007462D01*
X004100Y007454D01*
X004100Y008100D01*
X004250Y008100D01*
X004250Y008250D01*
X004100Y008250D01*
X004100Y008100D01*
X004100Y007956D02*
X004250Y007956D01*
X004250Y008100D02*
X004250Y007454D01*
X004317Y007462D01*
X004409Y007487D01*
X004496Y007523D01*
X004579Y007571D01*
X004654Y007629D01*
X004721Y007696D01*
X004779Y007771D01*
X004827Y007854D01*
X004863Y007941D01*
X004888Y008033D01*
X004896Y008100D01*
X004250Y008100D01*
X004250Y008104D02*
X011785Y008104D01*
X011785Y007956D02*
X004867Y007956D01*
X004800Y007807D02*
X011785Y007807D01*
X011785Y007659D02*
X004684Y007659D01*
X004464Y007510D02*
X011708Y007510D01*
X011560Y007362D02*
X001490Y007362D01*
X001490Y007510D02*
X001886Y007510D01*
X002100Y007510D02*
X002250Y007510D01*
X002250Y007454D02*
X002317Y007462D01*
X002409Y007487D01*
X002496Y007523D01*
X002579Y007571D01*
X002654Y007629D01*
X002721Y007696D01*
X002779Y007771D01*
X002827Y007854D01*
X002863Y007941D01*
X002888Y008033D01*
X002896Y008100D01*
X002250Y008100D01*
X002250Y007454D01*
X002250Y007659D02*
X002100Y007659D01*
X002100Y007807D02*
X002250Y007807D01*
X002250Y007956D02*
X002100Y007956D01*
X002100Y008253D02*
X002250Y008253D01*
X002250Y008401D02*
X002100Y008401D01*
X002100Y008550D02*
X002250Y008550D01*
X002250Y008698D02*
X002100Y008698D01*
X002100Y008847D02*
X002250Y008847D01*
X002313Y008995D02*
X001490Y008995D01*
X001490Y008847D02*
X001902Y008847D01*
X001673Y008698D02*
X001490Y008698D01*
X001490Y008550D02*
X001554Y008550D01*
X001490Y009144D02*
X002310Y009144D01*
X002310Y009292D02*
X001490Y009292D01*
X001490Y009441D02*
X002349Y009441D01*
X002250Y009589D02*
X002100Y009589D01*
X002100Y009738D02*
X002250Y009738D01*
X002250Y009886D02*
X002100Y009886D01*
X002100Y010035D02*
X002250Y010035D01*
X002888Y010035D02*
X002990Y010035D01*
X003360Y010035D02*
X003462Y010035D01*
X004100Y009886D02*
X004250Y009886D01*
X004250Y009738D02*
X004100Y009738D01*
X004100Y009589D02*
X004250Y009589D01*
X004001Y009441D02*
X011785Y009441D01*
X011785Y009589D02*
X004602Y009589D01*
X004753Y009738D02*
X011785Y009738D01*
X011785Y009886D02*
X004840Y009886D01*
X004888Y010035D02*
X011785Y010035D01*
X011785Y009292D02*
X004040Y009292D01*
X004040Y009144D02*
X011785Y009144D01*
X011785Y008995D02*
X004037Y008995D01*
X004100Y008847D02*
X004250Y008847D01*
X004250Y008896D02*
X004250Y008250D01*
X004896Y008250D01*
X004888Y008317D01*
X004863Y008409D01*
X004827Y008496D01*
X004779Y008579D01*
X004721Y008654D01*
X004654Y008721D01*
X004579Y008779D01*
X004496Y008827D01*
X004409Y008863D01*
X004317Y008888D01*
X004250Y008896D01*
X004250Y008698D02*
X004100Y008698D01*
X004100Y008550D02*
X004250Y008550D01*
X004250Y008401D02*
X004100Y008401D01*
X004100Y008253D02*
X004250Y008253D01*
X004796Y008550D02*
X011785Y008550D01*
X011785Y008698D02*
X004677Y008698D01*
X004448Y008847D02*
X011785Y008847D01*
X011785Y008401D02*
X004865Y008401D01*
X004896Y008253D02*
X011785Y008253D01*
X012175Y007425D02*
X012175Y011675D01*
X011925Y011925D01*
X006175Y011925D01*
X006001Y012411D02*
X001490Y012411D01*
X001490Y012559D02*
X012275Y012559D01*
X012310Y012411D02*
X006349Y012411D01*
X006221Y013302D02*
X011532Y013302D01*
X011384Y013450D02*
X006162Y013450D01*
X006042Y013599D02*
X011235Y013599D01*
X011087Y013747D02*
X001490Y013747D01*
X001490Y013599D02*
X005308Y013599D01*
X005188Y013450D02*
X001490Y013450D01*
X001490Y013302D02*
X005129Y013302D01*
X005622Y013302D02*
X005728Y013302D01*
X005728Y013450D02*
X005622Y013450D01*
X005622Y013599D02*
X005728Y013599D01*
X009008Y015826D02*
X001490Y015826D01*
X001490Y015678D02*
X009156Y015678D01*
X009305Y015529D02*
X001490Y015529D01*
X001490Y015381D02*
X009453Y015381D01*
X009602Y015232D02*
X001490Y015232D01*
X001490Y015084D02*
X009750Y015084D01*
X009899Y014935D02*
X001490Y014935D01*
X001490Y014787D02*
X010047Y014787D01*
X010196Y014638D02*
X001490Y014638D01*
X001490Y014490D02*
X010344Y014490D01*
X010493Y014341D02*
X001490Y014341D01*
X001490Y014193D02*
X010641Y014193D01*
X010790Y014044D02*
X001490Y014044D01*
X001490Y013896D02*
X010938Y013896D01*
X012264Y014638D02*
X015184Y014638D01*
X015233Y014588D02*
X015423Y014510D01*
X015488Y014510D01*
X021584Y008414D01*
X021638Y008283D01*
X021685Y008237D01*
X021685Y005713D01*
X021638Y005667D01*
X021560Y005477D01*
X021560Y005273D01*
X021638Y005083D01*
X021783Y004938D01*
X021973Y004860D01*
X022177Y004860D01*
X022367Y004938D01*
X022512Y005083D01*
X022590Y005273D01*
X022590Y005477D01*
X022512Y005667D01*
X022465Y005713D01*
X022465Y008237D01*
X022512Y008283D01*
X022554Y008385D01*
X023837Y008385D01*
X023883Y008338D01*
X024073Y008260D01*
X024244Y008260D01*
X023924Y007940D01*
X023823Y007940D01*
X023633Y007862D01*
X023488Y007717D01*
X023410Y007527D01*
X023410Y007323D01*
X023488Y007133D01*
X023633Y006988D01*
X023823Y006910D01*
X024027Y006910D01*
X024217Y006988D01*
X024362Y007133D01*
X024440Y007323D01*
X024440Y007424D01*
X024810Y007794D01*
X024810Y007326D01*
X021190Y003706D01*
X021190Y003777D01*
X021112Y003967D01*
X020967Y004112D01*
X020777Y004190D01*
X020573Y004190D01*
X020383Y004112D01*
X020319Y004047D01*
X018890Y005476D01*
X018890Y005577D01*
X018812Y005767D01*
X018667Y005912D01*
X018477Y005990D01*
X018273Y005990D01*
X018083Y005912D01*
X017938Y005767D01*
X017860Y005577D01*
X017860Y005373D01*
X017938Y005183D01*
X018083Y005038D01*
X018273Y004960D01*
X018374Y004960D01*
X019866Y003468D01*
X019968Y003366D01*
X020102Y003310D01*
X020312Y003310D01*
X020383Y003238D01*
X020573Y003160D01*
X020644Y003160D01*
X019841Y002357D01*
X019756Y002563D01*
X019563Y002756D01*
X019311Y002860D01*
X019039Y002860D01*
X018787Y002756D01*
X018594Y002563D01*
X018584Y002537D01*
X018530Y002591D01*
X018461Y002641D01*
X018384Y002680D01*
X018303Y002707D01*
X018218Y002720D01*
X018200Y002720D01*
X018200Y002200D01*
X018150Y002200D01*
X018150Y002720D01*
X018132Y002720D01*
X018047Y002707D01*
X017966Y002680D01*
X017889Y002641D01*
X017820Y002591D01*
X017759Y002530D01*
X017709Y002461D01*
X017641Y002461D01*
X017591Y002530D01*
X017530Y002591D01*
X017461Y002641D01*
X017394Y002675D01*
X017461Y002709D01*
X017530Y002759D01*
X017591Y002820D01*
X017641Y002889D01*
X017680Y002966D01*
X017707Y003047D01*
X017720Y003132D01*
X017720Y003150D01*
X017200Y003150D01*
X017200Y003200D01*
X017150Y003200D01*
X017150Y003720D01*
X017132Y003720D01*
X017047Y003707D01*
X016966Y003680D01*
X016889Y003641D01*
X016820Y003591D01*
X016766Y003537D01*
X016756Y003563D01*
X016564Y003755D01*
X016506Y003896D01*
X016396Y004006D01*
X015822Y004580D01*
X016039Y004490D01*
X016311Y004490D01*
X016563Y004594D01*
X016756Y004787D01*
X016860Y005039D01*
X016860Y005311D01*
X016756Y005563D01*
X016563Y005756D01*
X016311Y005860D01*
X016039Y005860D01*
X015787Y005756D01*
X015594Y005563D01*
X015565Y005492D01*
X015565Y006253D01*
X015506Y006396D01*
X015396Y006506D01*
X015253Y006565D01*
X013565Y006565D01*
X013565Y013253D01*
X013506Y013396D01*
X013396Y013506D01*
X008065Y018837D01*
X008065Y020716D01*
X008187Y020594D01*
X008439Y020490D01*
X008711Y020490D01*
X008963Y020594D01*
X009075Y020706D01*
X009187Y020594D01*
X009439Y020490D01*
X009711Y020490D01*
X009963Y020594D01*
X010075Y020706D01*
X010187Y020594D01*
X010439Y020490D01*
X010711Y020490D01*
X010963Y020594D01*
X011156Y020787D01*
X011166Y020813D01*
X011220Y020759D01*
X011289Y020709D01*
X011366Y020670D01*
X011447Y020643D01*
X011532Y020630D01*
X011550Y020630D01*
X011550Y021150D01*
X011600Y021150D01*
X011600Y020630D01*
X011618Y020630D01*
X011703Y020643D01*
X011784Y020670D01*
X011861Y020709D01*
X011930Y020759D01*
X011984Y020813D01*
X011994Y020787D01*
X012187Y020594D01*
X012210Y020585D01*
X012210Y019810D01*
X011912Y019810D01*
X011540Y019438D01*
X011540Y018912D01*
X011777Y018675D01*
X011540Y018438D01*
X011540Y017912D01*
X011810Y017642D01*
X011810Y017602D01*
X011866Y017468D01*
X013718Y015616D01*
X013852Y015560D01*
X015774Y015560D01*
X021366Y009968D01*
X021468Y009866D01*
X021602Y009810D01*
X023748Y009810D01*
X023882Y009866D01*
X023984Y009968D01*
X025699Y011683D01*
X025706Y011675D01*
X025594Y011563D01*
X025490Y011311D01*
X025490Y011039D01*
X025500Y011016D01*
X024968Y010484D01*
X024866Y010382D01*
X024810Y010248D01*
X024810Y009927D01*
X024777Y009940D01*
X024573Y009940D01*
X024383Y009862D01*
X024238Y009717D01*
X024160Y009527D01*
X024160Y009323D01*
X024173Y009290D01*
X024073Y009290D01*
X023883Y009212D01*
X023837Y009165D01*
X021997Y009165D01*
X021954Y009147D01*
X016040Y015062D01*
X016040Y015127D01*
X015962Y015317D01*
X015817Y015462D01*
X015627Y015540D01*
X015423Y015540D01*
X015233Y015462D01*
X015088Y015317D01*
X015010Y015127D01*
X015010Y014923D01*
X015088Y014733D01*
X015233Y014588D01*
X015066Y014787D02*
X012115Y014787D01*
X011967Y014935D02*
X015010Y014935D01*
X015010Y015084D02*
X011818Y015084D01*
X011670Y015232D02*
X015053Y015232D01*
X015152Y015381D02*
X011521Y015381D01*
X011373Y015529D02*
X015396Y015529D01*
X015654Y015529D02*
X015805Y015529D01*
X015898Y015381D02*
X015953Y015381D01*
X015997Y015232D02*
X016102Y015232D01*
X016040Y015084D02*
X016250Y015084D01*
X016167Y014935D02*
X016399Y014935D01*
X016315Y014787D02*
X016547Y014787D01*
X016464Y014638D02*
X016696Y014638D01*
X016612Y014490D02*
X016844Y014490D01*
X016761Y014341D02*
X016993Y014341D01*
X016909Y014193D02*
X017141Y014193D01*
X017058Y014044D02*
X017290Y014044D01*
X017206Y013896D02*
X017438Y013896D01*
X017355Y013747D02*
X017587Y013747D01*
X017503Y013599D02*
X017735Y013599D01*
X017652Y013450D02*
X017884Y013450D01*
X017800Y013302D02*
X018032Y013302D01*
X017949Y013153D02*
X018181Y013153D01*
X018097Y013005D02*
X018329Y013005D01*
X018246Y012856D02*
X018478Y012856D01*
X018394Y012708D02*
X018626Y012708D01*
X018543Y012559D02*
X018775Y012559D01*
X018691Y012411D02*
X018923Y012411D01*
X018840Y012262D02*
X019072Y012262D01*
X018988Y012114D02*
X019220Y012114D01*
X019137Y011965D02*
X019369Y011965D01*
X019285Y011817D02*
X019517Y011817D01*
X019434Y011668D02*
X019666Y011668D01*
X019582Y011520D02*
X019814Y011520D01*
X019731Y011371D02*
X019963Y011371D01*
X019879Y011223D02*
X020111Y011223D01*
X020028Y011074D02*
X020260Y011074D01*
X020176Y010926D02*
X020408Y010926D01*
X020325Y010777D02*
X020557Y010777D01*
X020473Y010629D02*
X020705Y010629D01*
X020622Y010480D02*
X020854Y010480D01*
X020770Y010332D02*
X021002Y010332D01*
X020919Y010183D02*
X021151Y010183D01*
X021067Y010035D02*
X021299Y010035D01*
X021216Y009886D02*
X021448Y009886D01*
X021364Y009738D02*
X024259Y009738D01*
X024186Y009589D02*
X021513Y009589D01*
X021661Y009441D02*
X024160Y009441D01*
X024173Y009292D02*
X021810Y009292D01*
X022075Y008775D02*
X022075Y008575D01*
X022075Y008475D01*
X015525Y015025D01*
X015509Y014490D02*
X012412Y014490D01*
X012561Y014341D02*
X015657Y014341D01*
X015806Y014193D02*
X012709Y014193D01*
X012858Y014044D02*
X015954Y014044D01*
X016103Y013896D02*
X013006Y013896D01*
X013155Y013747D02*
X016251Y013747D01*
X016400Y013599D02*
X013303Y013599D01*
X013452Y013450D02*
X016548Y013450D01*
X016697Y013302D02*
X013545Y013302D01*
X013565Y013153D02*
X016845Y013153D01*
X016994Y013005D02*
X013565Y013005D01*
X013565Y012856D02*
X017142Y012856D01*
X017291Y012708D02*
X013565Y012708D01*
X013565Y012559D02*
X017439Y012559D01*
X017588Y012411D02*
X013565Y012411D01*
X013565Y012262D02*
X017736Y012262D01*
X017885Y012114D02*
X013565Y012114D01*
X013565Y011965D02*
X018033Y011965D01*
X018182Y011817D02*
X013565Y011817D01*
X013565Y011668D02*
X018330Y011668D01*
X018479Y011520D02*
X013565Y011520D01*
X013565Y011371D02*
X018627Y011371D01*
X018776Y011223D02*
X013565Y011223D01*
X013565Y011074D02*
X018924Y011074D01*
X019073Y010926D02*
X013565Y010926D01*
X013565Y010777D02*
X019221Y010777D01*
X019370Y010629D02*
X013565Y010629D01*
X013565Y010480D02*
X019518Y010480D01*
X019667Y010332D02*
X013565Y010332D01*
X013565Y010183D02*
X019815Y010183D01*
X019964Y010035D02*
X013565Y010035D01*
X013565Y009886D02*
X020112Y009886D01*
X020261Y009738D02*
X013565Y009738D01*
X013565Y009589D02*
X020409Y009589D01*
X020558Y009441D02*
X013565Y009441D01*
X013565Y009292D02*
X020706Y009292D01*
X020855Y009144D02*
X013565Y009144D01*
X013565Y008995D02*
X021003Y008995D01*
X021152Y008847D02*
X013565Y008847D01*
X013565Y008698D02*
X021300Y008698D01*
X021449Y008550D02*
X013565Y008550D01*
X013565Y008401D02*
X021590Y008401D01*
X021669Y008253D02*
X013565Y008253D01*
X013565Y008104D02*
X021685Y008104D01*
X021685Y007956D02*
X013565Y007956D01*
X013565Y007807D02*
X021685Y007807D01*
X021685Y007659D02*
X013565Y007659D01*
X013565Y007510D02*
X021685Y007510D01*
X021685Y007362D02*
X013565Y007362D01*
X013565Y007213D02*
X021685Y007213D01*
X021685Y007065D02*
X013565Y007065D01*
X013565Y006916D02*
X021685Y006916D01*
X021685Y006768D02*
X013565Y006768D01*
X013565Y006619D02*
X021685Y006619D01*
X021685Y006471D02*
X015431Y006471D01*
X015536Y006322D02*
X021685Y006322D01*
X021685Y006174D02*
X015565Y006174D01*
X015565Y006025D02*
X021685Y006025D01*
X021685Y005877D02*
X018702Y005877D01*
X018828Y005728D02*
X021685Y005728D01*
X021602Y005580D02*
X018889Y005580D01*
X018935Y005431D02*
X021560Y005431D01*
X021560Y005283D02*
X019084Y005283D01*
X019232Y005134D02*
X021617Y005134D01*
X021736Y004986D02*
X019381Y004986D01*
X019529Y004837D02*
X022321Y004837D01*
X022414Y004986D02*
X022469Y004986D01*
X022533Y005134D02*
X022618Y005134D01*
X022590Y005283D02*
X022766Y005283D01*
X022915Y005431D02*
X022590Y005431D01*
X022548Y005580D02*
X023063Y005580D01*
X023212Y005728D02*
X022465Y005728D01*
X022465Y005877D02*
X023360Y005877D01*
X023509Y006025D02*
X022465Y006025D01*
X022465Y006174D02*
X023657Y006174D01*
X023806Y006322D02*
X022465Y006322D01*
X022465Y006471D02*
X023954Y006471D01*
X024103Y006619D02*
X022465Y006619D01*
X022465Y006768D02*
X024251Y006768D01*
X024400Y006916D02*
X024042Y006916D01*
X023808Y006916D02*
X022465Y006916D01*
X022465Y007065D02*
X023557Y007065D01*
X023455Y007213D02*
X022465Y007213D01*
X022465Y007362D02*
X023410Y007362D01*
X023410Y007510D02*
X022465Y007510D01*
X022465Y007659D02*
X023464Y007659D01*
X023579Y007807D02*
X022465Y007807D01*
X022465Y007956D02*
X023939Y007956D01*
X024088Y008104D02*
X022465Y008104D01*
X022481Y008253D02*
X024236Y008253D01*
X024175Y008775D02*
X022075Y008775D01*
X022075Y008475D02*
X022075Y005375D01*
X022172Y004689D02*
X019678Y004689D01*
X019826Y004540D02*
X022024Y004540D01*
X021875Y004392D02*
X019975Y004392D01*
X020123Y004243D02*
X021727Y004243D01*
X021578Y004095D02*
X020984Y004095D01*
X021120Y003946D02*
X021430Y003946D01*
X021281Y003798D02*
X021182Y003798D01*
X021868Y003352D02*
X031507Y003352D01*
X031490Y003311D02*
X031490Y003039D01*
X031594Y002787D01*
X031706Y002675D01*
X031675Y002644D01*
X031563Y002756D01*
X031311Y002860D01*
X031039Y002860D01*
X030787Y002756D01*
X030675Y002644D01*
X030563Y002756D01*
X030311Y002860D01*
X030039Y002860D01*
X029787Y002756D01*
X029594Y002563D01*
X029490Y002311D01*
X029490Y002039D01*
X029594Y001787D01*
X029787Y001594D01*
X030039Y001490D01*
X030311Y001490D01*
X030563Y001594D01*
X030675Y001706D01*
X030787Y001594D01*
X031039Y001490D01*
X031311Y001490D01*
X031563Y001594D01*
X031675Y001706D01*
X031787Y001594D01*
X032039Y001490D01*
X032311Y001490D01*
X032563Y001594D01*
X032675Y001706D01*
X032787Y001594D01*
X033039Y001490D01*
X033311Y001490D01*
X033563Y001594D01*
X033675Y001706D01*
X033787Y001594D01*
X034039Y001490D01*
X034311Y001490D01*
X034563Y001594D01*
X034675Y001706D01*
X034787Y001594D01*
X035039Y001490D01*
X035311Y001490D01*
X035563Y001594D01*
X035675Y001706D01*
X035787Y001594D01*
X036039Y001490D01*
X036311Y001490D01*
X036563Y001594D01*
X036675Y001706D01*
X036787Y001594D01*
X037039Y001490D01*
X037311Y001490D01*
X037563Y001594D01*
X037756Y001787D01*
X037860Y002039D01*
X037860Y002311D01*
X037756Y002563D01*
X037563Y002756D01*
X037311Y002860D01*
X037039Y002860D01*
X036787Y002756D01*
X036675Y002644D01*
X036563Y002756D01*
X036311Y002860D01*
X036039Y002860D01*
X035787Y002756D01*
X035675Y002644D01*
X035644Y002675D01*
X035756Y002787D01*
X035860Y003039D01*
X035860Y003248D01*
X035952Y003210D01*
X038348Y003210D01*
X038482Y003266D01*
X038933Y003717D01*
X038969Y003681D01*
X038966Y003680D01*
X038889Y003641D01*
X038820Y003591D01*
X038759Y003530D01*
X038709Y003461D01*
X038670Y003384D01*
X038643Y003303D01*
X038630Y003218D01*
X038630Y003200D01*
X039150Y003200D01*
X039150Y003680D01*
X039150Y004150D01*
X039200Y004150D01*
X039200Y004200D01*
X039670Y004200D01*
X039670Y004380D01*
X039474Y004576D01*
X039810Y004912D01*
X039810Y005438D01*
X039573Y005675D01*
X039810Y005912D01*
X039810Y006438D01*
X039573Y006675D01*
X039810Y006912D01*
X039810Y007438D01*
X039573Y007675D01*
X039810Y007912D01*
X039810Y008438D01*
X039573Y008675D01*
X039810Y008912D01*
X039810Y009438D01*
X039573Y009675D01*
X039810Y009912D01*
X039810Y010438D01*
X039573Y010675D01*
X039810Y010912D01*
X039810Y011438D01*
X039573Y011675D01*
X039810Y011912D01*
X039810Y012438D01*
X039573Y012675D01*
X039810Y012912D01*
X039810Y013438D01*
X039573Y013675D01*
X039810Y013912D01*
X039810Y014438D01*
X039573Y014675D01*
X039810Y014912D01*
X039810Y015438D01*
X039573Y015675D01*
X039810Y015912D01*
X039810Y016438D01*
X039573Y016675D01*
X039810Y016912D01*
X039810Y017438D01*
X039573Y017675D01*
X039810Y017912D01*
X039810Y018438D01*
X039573Y018675D01*
X039810Y018912D01*
X039810Y019438D01*
X039573Y019675D01*
X039810Y019912D01*
X039810Y020438D01*
X039573Y020675D01*
X039810Y020912D01*
X039810Y021438D01*
X039438Y021810D01*
X038912Y021810D01*
X038675Y021573D01*
X038565Y021683D01*
X038565Y021853D01*
X038562Y021860D01*
X039675Y021860D01*
X039711Y021856D01*
X039778Y021829D01*
X039829Y021778D01*
X039856Y021711D01*
X039860Y021675D01*
X039860Y001675D01*
X039856Y001639D01*
X039829Y001572D01*
X039778Y001521D01*
X039711Y001494D01*
X039675Y001490D01*
X020006Y001490D01*
X020509Y001993D01*
X020594Y001787D01*
X020787Y001594D01*
X021039Y001490D01*
X021311Y001490D01*
X021563Y001594D01*
X021675Y001706D01*
X021787Y001594D01*
X022039Y001490D01*
X022311Y001490D01*
X022563Y001594D01*
X022675Y001706D01*
X022787Y001594D01*
X023039Y001490D01*
X023311Y001490D01*
X023563Y001594D01*
X023675Y001706D01*
X023787Y001594D01*
X024039Y001490D01*
X024311Y001490D01*
X024563Y001594D01*
X024675Y001706D01*
X024787Y001594D01*
X025039Y001490D01*
X025311Y001490D01*
X025563Y001594D01*
X025675Y001706D01*
X025787Y001594D01*
X026039Y001490D01*
X026311Y001490D01*
X026563Y001594D01*
X026675Y001706D01*
X026787Y001594D01*
X027039Y001490D01*
X027311Y001490D01*
X027563Y001594D01*
X027675Y001706D01*
X027787Y001594D01*
X028039Y001490D01*
X028311Y001490D01*
X028563Y001594D01*
X028756Y001787D01*
X028860Y002039D01*
X028860Y002311D01*
X028756Y002563D01*
X028563Y002756D01*
X028311Y002860D01*
X028039Y002860D01*
X027787Y002756D01*
X027675Y002644D01*
X027563Y002756D01*
X027311Y002860D01*
X027039Y002860D01*
X026787Y002756D01*
X026675Y002644D01*
X026563Y002756D01*
X026311Y002860D01*
X026039Y002860D01*
X025787Y002756D01*
X025675Y002644D01*
X025563Y002756D01*
X025311Y002860D01*
X025039Y002860D01*
X024787Y002756D01*
X024675Y002644D01*
X024563Y002756D01*
X024311Y002860D01*
X024039Y002860D01*
X023787Y002756D01*
X023675Y002644D01*
X023563Y002756D01*
X023311Y002860D01*
X023039Y002860D01*
X022787Y002756D01*
X022675Y002644D01*
X022563Y002756D01*
X022311Y002860D01*
X022039Y002860D01*
X021787Y002756D01*
X021675Y002644D01*
X021563Y002756D01*
X021357Y002841D01*
X025382Y006866D01*
X025484Y006968D01*
X025540Y007102D01*
X025540Y010024D01*
X026016Y010500D01*
X026039Y010490D01*
X026311Y010490D01*
X026563Y010594D01*
X026756Y010787D01*
X026766Y010813D01*
X026820Y010759D01*
X026889Y010709D01*
X026966Y010670D01*
X027047Y010643D01*
X027132Y010630D01*
X027150Y010630D01*
X027150Y011150D01*
X027200Y011150D01*
X027200Y010630D01*
X027218Y010630D01*
X027303Y010643D01*
X027384Y010670D01*
X027410Y010683D01*
X027410Y010038D01*
X027338Y009967D01*
X027260Y009777D01*
X027260Y009643D01*
X027183Y009612D01*
X027038Y009467D01*
X026960Y009277D01*
X026960Y009073D01*
X027038Y008883D01*
X027110Y008812D01*
X027110Y007352D01*
X027166Y007218D01*
X027268Y007116D01*
X028410Y005974D01*
X028410Y005873D01*
X028488Y005683D01*
X028633Y005538D01*
X028823Y005460D01*
X029027Y005460D01*
X029217Y005538D01*
X029362Y005683D01*
X029440Y005873D01*
X029440Y006077D01*
X029362Y006267D01*
X029217Y006412D01*
X029027Y006490D01*
X028926Y006490D01*
X027840Y007576D01*
X027840Y008044D01*
X030518Y005366D01*
X030652Y005310D01*
X035024Y005310D01*
X035716Y004618D01*
X035818Y004516D01*
X035952Y004460D01*
X036312Y004460D01*
X036383Y004388D01*
X036573Y004310D01*
X036777Y004310D01*
X036967Y004388D01*
X037112Y004533D01*
X037190Y004723D01*
X037190Y004927D01*
X037112Y005117D01*
X036967Y005262D01*
X036777Y005340D01*
X036573Y005340D01*
X036383Y005262D01*
X036312Y005190D01*
X036176Y005190D01*
X035382Y005984D01*
X035248Y006040D01*
X030876Y006040D01*
X030083Y006833D01*
X030217Y006888D01*
X030362Y007033D01*
X030440Y007223D01*
X030440Y007427D01*
X030362Y007617D01*
X030217Y007762D01*
X030027Y007840D01*
X029926Y007840D01*
X029797Y007969D01*
X029912Y008083D01*
X029990Y008273D01*
X029990Y008374D01*
X032284Y010668D01*
X032340Y010802D01*
X032340Y017548D01*
X032284Y017682D01*
X032182Y017784D01*
X032140Y017826D01*
X032140Y018660D01*
X032277Y018660D01*
X032338Y018685D01*
X032338Y018683D01*
X032483Y018538D01*
X032673Y018460D01*
X032877Y018460D01*
X033067Y018538D01*
X033212Y018683D01*
X033290Y018873D01*
X033290Y019077D01*
X033252Y019170D01*
X033283Y019138D01*
X033473Y019060D01*
X033538Y019060D01*
X034785Y017813D01*
X034785Y015738D01*
X034760Y015677D01*
X034760Y015635D01*
X034756Y015646D01*
X034646Y015756D01*
X034506Y015896D01*
X034396Y016006D01*
X034271Y016057D01*
X034217Y016112D01*
X034027Y016190D01*
X033823Y016190D01*
X033633Y016112D01*
X033488Y015967D01*
X033410Y015777D01*
X033410Y015573D01*
X033488Y015383D01*
X033633Y015238D01*
X033823Y015160D01*
X034027Y015160D01*
X034035Y015163D01*
X034035Y011297D01*
X034094Y011154D01*
X034394Y010854D01*
X034504Y010744D01*
X034647Y010685D01*
X035285Y010685D01*
X035285Y007613D01*
X035238Y007567D01*
X035160Y007377D01*
X035160Y007173D01*
X035238Y006983D01*
X035383Y006838D01*
X035573Y006760D01*
X035777Y006760D01*
X035967Y006838D01*
X036112Y006983D01*
X036190Y007173D01*
X036190Y007377D01*
X036112Y007567D01*
X036065Y007613D01*
X036065Y010737D01*
X036112Y010783D01*
X036190Y010973D01*
X036190Y011177D01*
X036112Y011367D01*
X036065Y011413D01*
X036065Y012337D01*
X036112Y012383D01*
X036190Y012573D01*
X036190Y012777D01*
X036112Y012967D01*
X036065Y013013D01*
X036065Y019353D01*
X036006Y019496D01*
X035896Y019606D01*
X035890Y019612D01*
X035890Y019677D01*
X035812Y019867D01*
X035667Y020012D01*
X035477Y020090D01*
X035273Y020090D01*
X035083Y020012D01*
X034938Y019867D01*
X034860Y019677D01*
X034860Y019473D01*
X034938Y019283D01*
X035083Y019138D01*
X035273Y019060D01*
X035285Y019060D01*
X035285Y018417D01*
X034090Y019612D01*
X034090Y019677D01*
X034012Y019867D01*
X033867Y020012D01*
X033851Y020018D01*
X033860Y020039D01*
X033860Y020311D01*
X033756Y020563D01*
X033644Y020675D01*
X033675Y020706D01*
X033787Y020594D01*
X034039Y020490D01*
X034311Y020490D01*
X034563Y020594D01*
X034675Y020706D01*
X034787Y020594D01*
X035039Y020490D01*
X035311Y020490D01*
X035563Y020594D01*
X035756Y020787D01*
X035860Y021039D01*
X035860Y021311D01*
X035829Y021385D01*
X037540Y021385D01*
X037540Y020912D01*
X037777Y020675D01*
X037540Y020438D01*
X037540Y019912D01*
X037777Y019675D01*
X037540Y019438D01*
X037540Y018912D01*
X037777Y018675D01*
X037710Y018608D01*
X037563Y018756D01*
X037311Y018860D01*
X037039Y018860D01*
X036787Y018756D01*
X036594Y018563D01*
X036490Y018311D01*
X036490Y018039D01*
X036594Y017787D01*
X036706Y017675D01*
X036594Y017563D01*
X036490Y017311D01*
X036065Y017311D01*
X036065Y017163D02*
X036490Y017163D01*
X036490Y017039D02*
X036594Y016787D01*
X036787Y016594D01*
X037039Y016490D01*
X037311Y016490D01*
X037563Y016594D01*
X037710Y016742D01*
X037777Y016675D01*
X037540Y016438D01*
X037540Y015912D01*
X037777Y015675D01*
X037540Y015438D01*
X037540Y014912D01*
X037777Y014675D01*
X037540Y014438D01*
X037540Y013912D01*
X037777Y013675D01*
X037540Y013438D01*
X037540Y012912D01*
X037777Y012675D01*
X037540Y012438D01*
X037540Y011912D01*
X037777Y011675D01*
X037540Y011438D01*
X037540Y010912D01*
X037777Y010675D01*
X037540Y010438D01*
X037540Y009912D01*
X037777Y009675D01*
X037540Y009438D01*
X037540Y008912D01*
X037777Y008675D01*
X037540Y008438D01*
X037540Y007912D01*
X037777Y007675D01*
X037540Y007438D01*
X037540Y006912D01*
X037777Y006675D01*
X037540Y006438D01*
X037540Y005912D01*
X037777Y005675D01*
X037540Y005438D01*
X037540Y004912D01*
X037876Y004576D01*
X037680Y004380D01*
X037680Y004200D01*
X038150Y004200D01*
X038150Y004150D01*
X037680Y004150D01*
X037680Y003970D01*
X037710Y003940D01*
X036176Y003940D01*
X034882Y005234D01*
X034748Y005290D01*
X027976Y005290D01*
X026790Y006476D01*
X026790Y009274D01*
X026984Y009468D01*
X027040Y009602D01*
X027040Y009712D01*
X027112Y009783D01*
X027190Y009973D01*
X027190Y010177D01*
X027112Y010367D01*
X026967Y010512D01*
X026777Y010590D01*
X026573Y010590D01*
X026383Y010512D01*
X026238Y010367D01*
X026160Y010177D01*
X026160Y009973D01*
X026238Y009783D01*
X026253Y009769D01*
X026218Y009734D01*
X026116Y009632D01*
X026060Y009498D01*
X026060Y006252D01*
X026116Y006118D01*
X027516Y004718D01*
X027618Y004616D01*
X027752Y004560D01*
X029593Y004560D01*
X029490Y004311D01*
X029490Y004039D01*
X029594Y003787D01*
X029787Y003594D01*
X030039Y003490D01*
X030311Y003490D01*
X030563Y003594D01*
X030675Y003706D01*
X030787Y003594D01*
X031039Y003490D01*
X031311Y003490D01*
X031563Y003594D01*
X031756Y003787D01*
X031860Y004039D01*
X031860Y004311D01*
X031757Y004560D01*
X034524Y004560D01*
X035224Y003860D01*
X035039Y003860D01*
X034787Y003756D01*
X034675Y003644D01*
X034563Y003756D01*
X034311Y003860D01*
X034039Y003860D01*
X033787Y003756D01*
X033675Y003644D01*
X033563Y003756D01*
X033311Y003860D01*
X033039Y003860D01*
X032787Y003756D01*
X032675Y003644D01*
X032563Y003756D01*
X032311Y003860D01*
X032039Y003860D01*
X031787Y003756D01*
X031594Y003563D01*
X031490Y003311D01*
X031490Y003204D02*
X021720Y003204D01*
X021571Y003055D02*
X031490Y003055D01*
X031545Y002907D02*
X021423Y002907D01*
X021557Y002758D02*
X021793Y002758D01*
X022557Y002758D02*
X022793Y002758D01*
X023557Y002758D02*
X023793Y002758D01*
X024557Y002758D02*
X024793Y002758D01*
X025557Y002758D02*
X025793Y002758D01*
X026557Y002758D02*
X026793Y002758D01*
X027557Y002758D02*
X027793Y002758D01*
X028557Y002758D02*
X029793Y002758D01*
X029641Y002610D02*
X028709Y002610D01*
X028798Y002461D02*
X029552Y002461D01*
X029491Y002313D02*
X028859Y002313D01*
X028860Y002164D02*
X029490Y002164D01*
X029500Y002016D02*
X028850Y002016D01*
X028789Y001867D02*
X029561Y001867D01*
X029663Y001719D02*
X028687Y001719D01*
X028504Y001570D02*
X029846Y001570D01*
X030504Y001570D02*
X030846Y001570D01*
X031504Y001570D02*
X031846Y001570D01*
X032504Y001570D02*
X032846Y001570D01*
X033504Y001570D02*
X033846Y001570D01*
X034504Y001570D02*
X034846Y001570D01*
X035504Y001570D02*
X035846Y001570D01*
X036504Y001570D02*
X036846Y001570D01*
X037504Y001570D02*
X039827Y001570D01*
X039860Y001719D02*
X037687Y001719D01*
X037789Y001867D02*
X039860Y001867D01*
X039860Y002016D02*
X037850Y002016D01*
X037860Y002164D02*
X039860Y002164D01*
X039860Y002313D02*
X037859Y002313D01*
X037798Y002461D02*
X039860Y002461D01*
X039860Y002610D02*
X037709Y002610D01*
X037557Y002758D02*
X038822Y002758D01*
X038820Y002759D02*
X038889Y002709D01*
X038966Y002670D01*
X039047Y002643D01*
X039132Y002630D01*
X039150Y002630D01*
X039150Y003150D01*
X039200Y003150D01*
X039200Y003200D01*
X039150Y003200D01*
X039150Y003150D01*
X038630Y003150D01*
X038630Y003132D01*
X038643Y003047D01*
X038670Y002966D01*
X038709Y002889D01*
X038759Y002820D01*
X038820Y002759D01*
X038700Y002907D02*
X035805Y002907D01*
X035793Y002758D02*
X035727Y002758D01*
X035860Y003055D02*
X038642Y003055D01*
X038630Y003204D02*
X035860Y003204D01*
X036557Y002758D02*
X036793Y002758D01*
X036170Y003946D02*
X037704Y003946D01*
X037680Y004095D02*
X036022Y004095D01*
X035873Y004243D02*
X037680Y004243D01*
X037691Y004392D02*
X036970Y004392D01*
X037114Y004540D02*
X037840Y004540D01*
X037763Y004689D02*
X037176Y004689D01*
X037190Y004837D02*
X037615Y004837D01*
X037540Y004986D02*
X037166Y004986D01*
X037094Y005134D02*
X037540Y005134D01*
X037540Y005283D02*
X036916Y005283D01*
X036434Y005283D02*
X036084Y005283D01*
X035935Y005431D02*
X037540Y005431D01*
X037681Y005580D02*
X035787Y005580D01*
X035638Y005728D02*
X037724Y005728D01*
X037575Y005877D02*
X035490Y005877D01*
X035284Y006025D02*
X037540Y006025D01*
X037540Y006174D02*
X030743Y006174D01*
X030594Y006322D02*
X037540Y006322D01*
X037573Y006471D02*
X030446Y006471D01*
X030297Y006619D02*
X037721Y006619D01*
X037684Y006768D02*
X035796Y006768D01*
X035675Y006675D02*
X036025Y006325D01*
X036075Y006375D01*
X036075Y008075D01*
X036065Y008104D02*
X037540Y008104D01*
X037540Y007956D02*
X036065Y007956D01*
X036065Y007807D02*
X037645Y007807D01*
X037761Y007659D02*
X036065Y007659D01*
X036135Y007510D02*
X037612Y007510D01*
X037540Y007362D02*
X036190Y007362D01*
X036190Y007213D02*
X037540Y007213D01*
X037540Y007065D02*
X036145Y007065D01*
X036044Y006916D02*
X037540Y006916D01*
X036025Y006325D02*
X038175Y004175D01*
X038865Y003649D02*
X038905Y003649D01*
X038738Y003501D02*
X038717Y003501D01*
X038659Y003352D02*
X038568Y003352D01*
X039150Y003352D02*
X039200Y003352D01*
X039200Y003204D02*
X039150Y003204D01*
X039200Y003200D02*
X039200Y004150D01*
X039670Y004150D01*
X039670Y003970D01*
X039381Y003681D01*
X039384Y003680D01*
X039461Y003641D01*
X039530Y003591D01*
X039591Y003530D01*
X039641Y003461D01*
X039680Y003384D01*
X039707Y003303D01*
X039720Y003218D01*
X039720Y003200D01*
X039200Y003200D01*
X039200Y003150D02*
X039720Y003150D01*
X039720Y003132D01*
X039707Y003047D01*
X039680Y002966D01*
X039641Y002889D01*
X039591Y002820D01*
X039530Y002759D01*
X039461Y002709D01*
X039384Y002670D01*
X039303Y002643D01*
X039218Y002630D01*
X039200Y002630D01*
X039200Y003150D01*
X039200Y003055D02*
X039150Y003055D01*
X039150Y002907D02*
X039200Y002907D01*
X039200Y002758D02*
X039150Y002758D01*
X039528Y002758D02*
X039860Y002758D01*
X039860Y002907D02*
X039650Y002907D01*
X039708Y003055D02*
X039860Y003055D01*
X039860Y003204D02*
X039720Y003204D01*
X039691Y003352D02*
X039860Y003352D01*
X039860Y003501D02*
X039612Y003501D01*
X039445Y003649D02*
X039860Y003649D01*
X039860Y003798D02*
X039498Y003798D01*
X039646Y003946D02*
X039860Y003946D01*
X039860Y004095D02*
X039670Y004095D01*
X039670Y004243D02*
X039860Y004243D01*
X039860Y004392D02*
X039659Y004392D01*
X039510Y004540D02*
X039860Y004540D01*
X039860Y004689D02*
X039587Y004689D01*
X039735Y004837D02*
X039860Y004837D01*
X039860Y004986D02*
X039810Y004986D01*
X039810Y005134D02*
X039860Y005134D01*
X039860Y005283D02*
X039810Y005283D01*
X039810Y005431D02*
X039860Y005431D01*
X039860Y005580D02*
X039668Y005580D01*
X039626Y005728D02*
X039860Y005728D01*
X039860Y005877D02*
X039775Y005877D01*
X039810Y006025D02*
X039860Y006025D01*
X039860Y006174D02*
X039810Y006174D01*
X039810Y006322D02*
X039860Y006322D01*
X039860Y006471D02*
X039777Y006471D01*
X039860Y006619D02*
X039629Y006619D01*
X039666Y006768D02*
X039860Y006768D01*
X039860Y006916D02*
X039810Y006916D01*
X039810Y007065D02*
X039860Y007065D01*
X039860Y007213D02*
X039810Y007213D01*
X039810Y007362D02*
X039860Y007362D01*
X039860Y007510D02*
X039738Y007510D01*
X039860Y007659D02*
X039589Y007659D01*
X039705Y007807D02*
X039860Y007807D01*
X039860Y007956D02*
X039810Y007956D01*
X039810Y008104D02*
X039860Y008104D01*
X039860Y008253D02*
X039810Y008253D01*
X039810Y008401D02*
X039860Y008401D01*
X039860Y008550D02*
X039698Y008550D01*
X039596Y008698D02*
X039860Y008698D01*
X039860Y008847D02*
X039745Y008847D01*
X039810Y008995D02*
X039860Y008995D01*
X039860Y009144D02*
X039810Y009144D01*
X039810Y009292D02*
X039860Y009292D01*
X039860Y009441D02*
X039807Y009441D01*
X039860Y009589D02*
X039659Y009589D01*
X039636Y009738D02*
X039860Y009738D01*
X039860Y009886D02*
X039784Y009886D01*
X039810Y010035D02*
X039860Y010035D01*
X039860Y010183D02*
X039810Y010183D01*
X039810Y010332D02*
X039860Y010332D01*
X039860Y010480D02*
X039768Y010480D01*
X039860Y010629D02*
X039619Y010629D01*
X039675Y010777D02*
X039860Y010777D01*
X039860Y010926D02*
X039810Y010926D01*
X039810Y011074D02*
X039860Y011074D01*
X039860Y011223D02*
X039810Y011223D01*
X039810Y011371D02*
X039860Y011371D01*
X039860Y011520D02*
X039728Y011520D01*
X039860Y011668D02*
X039580Y011668D01*
X039715Y011817D02*
X039860Y011817D01*
X039860Y011965D02*
X039810Y011965D01*
X039810Y012114D02*
X039860Y012114D01*
X039860Y012262D02*
X039810Y012262D01*
X039810Y012411D02*
X039860Y012411D01*
X039860Y012559D02*
X039689Y012559D01*
X039606Y012708D02*
X039860Y012708D01*
X039860Y012856D02*
X039754Y012856D01*
X039810Y013005D02*
X039860Y013005D01*
X039860Y013153D02*
X039810Y013153D01*
X039810Y013302D02*
X039860Y013302D01*
X039860Y013450D02*
X039798Y013450D01*
X039860Y013599D02*
X039649Y013599D01*
X039645Y013747D02*
X039860Y013747D01*
X039860Y013896D02*
X039794Y013896D01*
X039810Y014044D02*
X039860Y014044D01*
X039860Y014193D02*
X039810Y014193D01*
X039810Y014341D02*
X039860Y014341D01*
X039860Y014490D02*
X039758Y014490D01*
X039860Y014638D02*
X039610Y014638D01*
X039685Y014787D02*
X039860Y014787D01*
X039860Y014935D02*
X039810Y014935D01*
X039810Y015084D02*
X039860Y015084D01*
X039860Y015232D02*
X039810Y015232D01*
X039810Y015381D02*
X039860Y015381D01*
X039860Y015529D02*
X039719Y015529D01*
X039860Y015678D02*
X039576Y015678D01*
X039724Y015826D02*
X039860Y015826D01*
X039860Y015975D02*
X039810Y015975D01*
X039810Y016123D02*
X039860Y016123D01*
X039860Y016272D02*
X039810Y016272D01*
X039810Y016420D02*
X039860Y016420D01*
X039860Y016569D02*
X039679Y016569D01*
X039615Y016717D02*
X039860Y016717D01*
X039860Y016866D02*
X039764Y016866D01*
X039810Y017014D02*
X039860Y017014D01*
X039860Y017163D02*
X039810Y017163D01*
X039810Y017311D02*
X039860Y017311D01*
X039860Y017460D02*
X039788Y017460D01*
X039860Y017608D02*
X039640Y017608D01*
X039655Y017757D02*
X039860Y017757D01*
X039860Y017905D02*
X039803Y017905D01*
X039810Y018054D02*
X039860Y018054D01*
X039860Y018202D02*
X039810Y018202D01*
X039810Y018351D02*
X039860Y018351D01*
X039860Y018499D02*
X039749Y018499D01*
X039860Y018648D02*
X039600Y018648D01*
X039694Y018796D02*
X039860Y018796D01*
X039860Y018945D02*
X039810Y018945D01*
X039810Y019093D02*
X039860Y019093D01*
X039860Y019242D02*
X039810Y019242D01*
X039810Y019390D02*
X039860Y019390D01*
X039860Y019539D02*
X039709Y019539D01*
X039585Y019687D02*
X039860Y019687D01*
X039860Y019836D02*
X039734Y019836D01*
X039810Y019984D02*
X039860Y019984D01*
X039860Y020133D02*
X039810Y020133D01*
X039810Y020281D02*
X039860Y020281D01*
X039860Y020430D02*
X039810Y020430D01*
X039860Y020578D02*
X039670Y020578D01*
X039625Y020727D02*
X039860Y020727D01*
X039860Y020875D02*
X039773Y020875D01*
X039810Y021024D02*
X039860Y021024D01*
X039860Y021172D02*
X039810Y021172D01*
X039810Y021321D02*
X039860Y021321D01*
X039860Y021469D02*
X039779Y021469D01*
X039860Y021618D02*
X039630Y021618D01*
X039482Y021766D02*
X039834Y021766D01*
X038868Y021766D02*
X038565Y021766D01*
X038630Y021618D02*
X038720Y021618D01*
X038175Y021775D02*
X038175Y021175D01*
X037725Y020727D02*
X035695Y020727D01*
X035792Y020875D02*
X037577Y020875D01*
X037540Y021024D02*
X035854Y021024D01*
X035860Y021172D02*
X037540Y021172D01*
X037540Y021321D02*
X035856Y021321D01*
X035524Y020578D02*
X037680Y020578D01*
X037540Y020430D02*
X033811Y020430D01*
X033826Y020578D02*
X033741Y020578D01*
X033860Y020281D02*
X037540Y020281D01*
X037540Y020133D02*
X033860Y020133D01*
X033894Y019984D02*
X035056Y019984D01*
X034925Y019836D02*
X034025Y019836D01*
X034086Y019687D02*
X034864Y019687D01*
X034860Y019539D02*
X034163Y019539D01*
X034311Y019390D02*
X034894Y019390D01*
X034980Y019242D02*
X034460Y019242D01*
X034608Y019093D02*
X035193Y019093D01*
X035285Y018945D02*
X034757Y018945D01*
X034905Y018796D02*
X035285Y018796D01*
X035285Y018648D02*
X035054Y018648D01*
X035202Y018499D02*
X035285Y018499D01*
X036065Y018499D02*
X036568Y018499D01*
X036506Y018351D02*
X036065Y018351D01*
X036065Y018202D02*
X036490Y018202D01*
X036490Y018054D02*
X036065Y018054D01*
X036065Y017905D02*
X036545Y017905D01*
X036625Y017757D02*
X036065Y017757D01*
X036065Y017608D02*
X036639Y017608D01*
X036551Y017460D02*
X036065Y017460D01*
X036490Y017311D02*
X036490Y017039D01*
X036500Y017014D02*
X036065Y017014D01*
X036065Y016866D02*
X036562Y016866D01*
X036664Y016717D02*
X036065Y016717D01*
X036065Y016569D02*
X036849Y016569D01*
X037501Y016569D02*
X037671Y016569D01*
X037686Y016717D02*
X037735Y016717D01*
X037540Y016420D02*
X036065Y016420D01*
X036065Y016272D02*
X037540Y016272D01*
X037540Y016123D02*
X036065Y016123D01*
X036065Y015975D02*
X037540Y015975D01*
X037626Y015826D02*
X036065Y015826D01*
X036065Y015678D02*
X037774Y015678D01*
X037631Y015529D02*
X036065Y015529D01*
X036065Y015381D02*
X037540Y015381D01*
X037540Y015232D02*
X036065Y015232D01*
X036065Y015084D02*
X037540Y015084D01*
X037540Y014935D02*
X036065Y014935D01*
X036065Y014787D02*
X037665Y014787D01*
X037740Y014638D02*
X036065Y014638D01*
X036065Y014490D02*
X037592Y014490D01*
X037540Y014341D02*
X036065Y014341D01*
X036065Y014193D02*
X037540Y014193D01*
X037540Y014044D02*
X036065Y014044D01*
X036065Y013896D02*
X037556Y013896D01*
X037705Y013747D02*
X036065Y013747D01*
X036065Y013599D02*
X037701Y013599D01*
X037552Y013450D02*
X036065Y013450D01*
X036065Y013302D02*
X037540Y013302D01*
X037540Y013153D02*
X036065Y013153D01*
X036074Y013005D02*
X037540Y013005D01*
X037596Y012856D02*
X036157Y012856D01*
X036190Y012708D02*
X037744Y012708D01*
X037661Y012559D02*
X036184Y012559D01*
X036123Y012411D02*
X037540Y012411D01*
X037540Y012262D02*
X036065Y012262D01*
X036065Y012114D02*
X037540Y012114D01*
X037540Y011965D02*
X036065Y011965D01*
X036065Y011817D02*
X037635Y011817D01*
X037770Y011668D02*
X036065Y011668D01*
X036065Y011520D02*
X037622Y011520D01*
X037540Y011371D02*
X036107Y011371D01*
X036171Y011223D02*
X037540Y011223D01*
X037540Y011074D02*
X036190Y011074D01*
X036171Y010926D02*
X037540Y010926D01*
X037675Y010777D02*
X036105Y010777D01*
X036065Y010629D02*
X037731Y010629D01*
X037582Y010480D02*
X036065Y010480D01*
X036065Y010332D02*
X037540Y010332D01*
X037540Y010183D02*
X036065Y010183D01*
X036065Y010035D02*
X037540Y010035D01*
X037566Y009886D02*
X036065Y009886D01*
X036065Y009738D02*
X037714Y009738D01*
X037691Y009589D02*
X036065Y009589D01*
X036065Y009441D02*
X037543Y009441D01*
X037540Y009292D02*
X036065Y009292D01*
X036065Y009144D02*
X037540Y009144D01*
X037540Y008995D02*
X036065Y008995D01*
X036065Y008847D02*
X037605Y008847D01*
X037754Y008698D02*
X036065Y008698D01*
X036065Y008550D02*
X037652Y008550D01*
X037540Y008401D02*
X036065Y008401D01*
X036065Y008253D02*
X037540Y008253D01*
X035675Y007275D02*
X035675Y011075D01*
X034725Y011075D01*
X034425Y011375D01*
X034425Y015425D01*
X034175Y015675D01*
X033925Y015675D01*
X033496Y015975D02*
X032340Y015975D01*
X032340Y016123D02*
X033661Y016123D01*
X034189Y016123D02*
X034785Y016123D01*
X034785Y015975D02*
X034427Y015975D01*
X034576Y015826D02*
X034785Y015826D01*
X034760Y015678D02*
X034724Y015678D01*
X035175Y015575D02*
X035275Y015575D01*
X035075Y015375D01*
X035075Y011675D01*
X035675Y011875D02*
X035675Y012675D01*
X035675Y019275D01*
X035375Y019575D01*
X035825Y019836D02*
X037616Y019836D01*
X037540Y019984D02*
X035694Y019984D01*
X035886Y019687D02*
X037765Y019687D01*
X037641Y019539D02*
X035963Y019539D01*
X036049Y019390D02*
X037540Y019390D01*
X037540Y019242D02*
X036065Y019242D01*
X036065Y019093D02*
X037540Y019093D01*
X037540Y018945D02*
X036065Y018945D01*
X036065Y018796D02*
X036884Y018796D01*
X036679Y018648D02*
X036065Y018648D01*
X035175Y017975D02*
X035175Y015575D01*
X034785Y016272D02*
X032340Y016272D01*
X032340Y016420D02*
X034785Y016420D01*
X034785Y016569D02*
X032340Y016569D01*
X032340Y016717D02*
X034785Y016717D01*
X034785Y016866D02*
X032340Y016866D01*
X032340Y017014D02*
X034785Y017014D01*
X034785Y017163D02*
X032340Y017163D01*
X032340Y017311D02*
X034785Y017311D01*
X034785Y017460D02*
X032340Y017460D01*
X032315Y017608D02*
X034785Y017608D01*
X034785Y017757D02*
X032210Y017757D01*
X032140Y017905D02*
X034693Y017905D01*
X034545Y018054D02*
X032140Y018054D01*
X032140Y018202D02*
X034396Y018202D01*
X034248Y018351D02*
X032140Y018351D01*
X032140Y018499D02*
X032578Y018499D01*
X032374Y018648D02*
X032140Y018648D01*
X032972Y018499D02*
X034099Y018499D01*
X033951Y018648D02*
X033176Y018648D01*
X033258Y018796D02*
X033802Y018796D01*
X033654Y018945D02*
X033290Y018945D01*
X033284Y019093D02*
X033393Y019093D01*
X033575Y019575D02*
X035175Y017975D01*
X037466Y018796D02*
X037656Y018796D01*
X037671Y018648D02*
X037750Y018648D01*
X034826Y020578D02*
X034524Y020578D01*
X038175Y021775D02*
X027175Y021775D01*
X007875Y021775D01*
X007675Y021575D01*
X007675Y018675D01*
X013175Y013175D01*
X013175Y006175D01*
X015175Y006175D01*
X015175Y004675D01*
X016175Y003675D01*
X016175Y003175D01*
X016175Y002175D01*
X017150Y002200D02*
X017150Y003150D01*
X017200Y003150D01*
X017200Y002630D01*
X017200Y002200D01*
X018150Y002200D01*
X018150Y002150D01*
X017630Y002150D01*
X017200Y002150D01*
X017200Y002200D01*
X017150Y002200D01*
X017175Y002175D02*
X017175Y003175D01*
X017175Y003675D01*
X019175Y003675D01*
X019388Y003946D02*
X016456Y003946D01*
X016546Y003798D02*
X019536Y003798D01*
X019685Y003649D02*
X017445Y003649D01*
X017461Y003641D02*
X017384Y003680D01*
X017303Y003707D01*
X017218Y003720D01*
X017200Y003720D01*
X017200Y003200D01*
X017720Y003200D01*
X017720Y003218D01*
X017707Y003303D01*
X017680Y003384D01*
X017641Y003461D01*
X017591Y003530D01*
X017530Y003591D01*
X017461Y003641D01*
X017612Y003501D02*
X019833Y003501D01*
X020001Y003352D02*
X017691Y003352D01*
X017720Y003204D02*
X020467Y003204D01*
X020539Y003055D02*
X017708Y003055D01*
X017650Y002907D02*
X020390Y002907D01*
X020242Y002758D02*
X019557Y002758D01*
X019709Y002610D02*
X020093Y002610D01*
X019945Y002461D02*
X019798Y002461D01*
X018793Y002758D02*
X017528Y002758D01*
X017504Y002610D02*
X017846Y002610D01*
X017709Y002461D02*
X017675Y002394D01*
X017641Y002461D01*
X017200Y002461D02*
X017150Y002461D01*
X017150Y002313D02*
X017200Y002313D01*
X017175Y002175D02*
X018175Y002175D01*
X018150Y002164D02*
X017200Y002164D01*
X017200Y002610D02*
X017150Y002610D01*
X017150Y002758D02*
X017200Y002758D01*
X017200Y002907D02*
X017150Y002907D01*
X017150Y003055D02*
X017200Y003055D01*
X017200Y003204D02*
X017150Y003204D01*
X017150Y003352D02*
X017200Y003352D01*
X017200Y003501D02*
X017150Y003501D01*
X017150Y003649D02*
X017200Y003649D01*
X017175Y003675D02*
X017075Y003675D01*
X017075Y005575D01*
X016810Y005431D02*
X017860Y005431D01*
X017861Y005580D02*
X016739Y005580D01*
X016591Y005728D02*
X017922Y005728D01*
X018048Y005877D02*
X015565Y005877D01*
X015565Y005728D02*
X015759Y005728D01*
X015611Y005580D02*
X015565Y005580D01*
X014785Y004858D02*
X014785Y004597D01*
X014844Y004454D01*
X015528Y003770D01*
X015311Y003860D01*
X015039Y003860D01*
X014787Y003756D01*
X014594Y003563D01*
X014490Y003311D01*
X014490Y003039D01*
X014594Y002787D01*
X014706Y002675D01*
X014675Y002644D01*
X014563Y002756D01*
X014311Y002860D01*
X014039Y002860D01*
X013787Y002756D01*
X013675Y002644D01*
X013644Y002675D01*
X013756Y002787D01*
X013860Y003039D01*
X013860Y003311D01*
X013756Y003563D01*
X013563Y003756D01*
X013311Y003860D01*
X013039Y003860D01*
X012787Y003756D01*
X012594Y003563D01*
X012490Y003311D01*
X012490Y003039D01*
X012594Y002787D01*
X012706Y002675D01*
X012675Y002644D01*
X012563Y002756D01*
X012311Y002860D01*
X012039Y002860D01*
X011787Y002756D01*
X011594Y002563D01*
X011490Y002311D01*
X011490Y002039D01*
X011594Y001787D01*
X011787Y001594D01*
X012039Y001490D01*
X012311Y001490D01*
X012563Y001594D01*
X012675Y001706D01*
X012787Y001594D01*
X013039Y001490D01*
X013311Y001490D01*
X013563Y001594D01*
X013675Y001706D01*
X013787Y001594D01*
X014039Y001490D01*
X014311Y001490D01*
X014334Y001500D01*
X014344Y001490D01*
X005562Y001490D01*
X005565Y001497D01*
X005565Y001596D01*
X005675Y001706D01*
X005787Y001594D01*
X006039Y001490D01*
X006311Y001490D01*
X006563Y001594D01*
X006675Y001706D01*
X006787Y001594D01*
X007039Y001490D01*
X007311Y001490D01*
X007563Y001594D01*
X007675Y001706D01*
X007787Y001594D01*
X008039Y001490D01*
X008311Y001490D01*
X008563Y001594D01*
X008675Y001706D01*
X008787Y001594D01*
X009039Y001490D01*
X009311Y001490D01*
X009563Y001594D01*
X009756Y001787D01*
X009860Y002039D01*
X009860Y002311D01*
X009756Y002563D01*
X009563Y002756D01*
X009311Y002860D01*
X009039Y002860D01*
X008787Y002756D01*
X008675Y002644D01*
X008563Y002756D01*
X008311Y002860D01*
X008039Y002860D01*
X007787Y002756D01*
X007675Y002644D01*
X007565Y002754D01*
X007565Y005253D01*
X007506Y005396D01*
X007396Y005506D01*
X007253Y005565D01*
X005754Y005565D01*
X005563Y005756D01*
X005492Y005785D01*
X008513Y005785D01*
X009344Y004954D01*
X009454Y004844D01*
X009597Y004785D01*
X013253Y004785D01*
X013396Y004844D01*
X013506Y004954D01*
X013515Y004978D01*
X013594Y004787D01*
X013787Y004594D01*
X014039Y004490D01*
X014311Y004490D01*
X014563Y004594D01*
X014756Y004787D01*
X014785Y004858D01*
X014785Y004837D02*
X014776Y004837D01*
X014785Y004689D02*
X014657Y004689D01*
X014809Y004540D02*
X014432Y004540D01*
X013918Y004540D02*
X007565Y004540D01*
X007565Y004392D02*
X014907Y004392D01*
X015055Y004243D02*
X007565Y004243D01*
X007565Y004095D02*
X015204Y004095D01*
X015352Y003946D02*
X007565Y003946D01*
X007565Y003798D02*
X012888Y003798D01*
X012680Y003649D02*
X007565Y003649D01*
X007565Y003501D02*
X012568Y003501D01*
X012507Y003352D02*
X007565Y003352D01*
X007565Y003204D02*
X012490Y003204D01*
X012490Y003055D02*
X007565Y003055D01*
X007565Y002907D02*
X012545Y002907D01*
X012557Y002758D02*
X012623Y002758D01*
X013175Y003175D02*
X013175Y002175D01*
X013727Y002758D02*
X013793Y002758D01*
X013805Y002907D02*
X014545Y002907D01*
X014557Y002758D02*
X014623Y002758D01*
X014490Y003055D02*
X013860Y003055D01*
X013860Y003204D02*
X014490Y003204D01*
X014507Y003352D02*
X013843Y003352D01*
X013782Y003501D02*
X014568Y003501D01*
X014680Y003649D02*
X013670Y003649D01*
X013462Y003798D02*
X014888Y003798D01*
X015462Y003798D02*
X015501Y003798D01*
X016010Y004392D02*
X018942Y004392D01*
X018794Y004540D02*
X016432Y004540D01*
X016657Y004689D02*
X018645Y004689D01*
X018497Y004837D02*
X016776Y004837D01*
X016838Y004986D02*
X018211Y004986D01*
X017988Y005134D02*
X016860Y005134D01*
X016860Y005283D02*
X017897Y005283D01*
X019091Y004243D02*
X016159Y004243D01*
X016307Y004095D02*
X019239Y004095D01*
X020272Y004095D02*
X020366Y004095D01*
X022017Y003501D02*
X030013Y003501D01*
X029732Y003649D02*
X022165Y003649D01*
X022314Y003798D02*
X029590Y003798D01*
X029528Y003946D02*
X022462Y003946D01*
X022611Y004095D02*
X029490Y004095D01*
X029490Y004243D02*
X022759Y004243D01*
X022908Y004392D02*
X029523Y004392D01*
X029585Y004540D02*
X023056Y004540D01*
X023205Y004689D02*
X027545Y004689D01*
X027516Y004718D02*
X027516Y004718D01*
X027397Y004837D02*
X023353Y004837D01*
X023502Y004986D02*
X027248Y004986D01*
X027100Y005134D02*
X023650Y005134D01*
X023799Y005283D02*
X026951Y005283D01*
X026803Y005431D02*
X023947Y005431D01*
X024096Y005580D02*
X026654Y005580D01*
X026506Y005728D02*
X024244Y005728D01*
X024393Y005877D02*
X026357Y005877D01*
X026209Y006025D02*
X024541Y006025D01*
X024690Y006174D02*
X026093Y006174D01*
X026060Y006322D02*
X024838Y006322D01*
X024987Y006471D02*
X026060Y006471D01*
X026060Y006619D02*
X025135Y006619D01*
X025284Y006768D02*
X026060Y006768D01*
X026060Y006916D02*
X025432Y006916D01*
X025524Y007065D02*
X026060Y007065D01*
X026060Y007213D02*
X025540Y007213D01*
X025540Y007362D02*
X026060Y007362D01*
X026060Y007510D02*
X025540Y007510D01*
X025540Y007659D02*
X026060Y007659D01*
X026060Y007807D02*
X025540Y007807D01*
X025540Y007956D02*
X026060Y007956D01*
X026060Y008104D02*
X025540Y008104D01*
X025540Y008253D02*
X026060Y008253D01*
X026060Y008401D02*
X025540Y008401D01*
X025540Y008550D02*
X026060Y008550D01*
X026060Y008698D02*
X025540Y008698D01*
X025540Y008847D02*
X026060Y008847D01*
X026060Y008995D02*
X025540Y008995D01*
X025540Y009144D02*
X026060Y009144D01*
X026060Y009292D02*
X025540Y009292D01*
X025540Y009441D02*
X026060Y009441D01*
X026098Y009589D02*
X025540Y009589D01*
X025540Y009738D02*
X026221Y009738D01*
X026218Y009734D02*
X026218Y009734D01*
X026196Y009886D02*
X025540Y009886D01*
X025551Y010035D02*
X026160Y010035D01*
X026162Y010183D02*
X025699Y010183D01*
X025848Y010332D02*
X026224Y010332D01*
X026352Y010480D02*
X025996Y010480D01*
X026597Y010629D02*
X027410Y010629D01*
X027410Y010480D02*
X026998Y010480D01*
X027126Y010332D02*
X027410Y010332D01*
X027410Y010183D02*
X027188Y010183D01*
X027190Y010035D02*
X027406Y010035D01*
X027305Y009886D02*
X027154Y009886D01*
X027066Y009738D02*
X027260Y009738D01*
X027161Y009589D02*
X027034Y009589D01*
X027028Y009441D02*
X026957Y009441D01*
X026966Y009292D02*
X026808Y009292D01*
X026790Y009144D02*
X026960Y009144D01*
X026992Y008995D02*
X026790Y008995D01*
X026790Y008847D02*
X027075Y008847D01*
X027110Y008698D02*
X026790Y008698D01*
X026790Y008550D02*
X027110Y008550D01*
X027110Y008401D02*
X026790Y008401D01*
X026790Y008253D02*
X027110Y008253D01*
X027110Y008104D02*
X026790Y008104D01*
X026790Y007956D02*
X027110Y007956D01*
X027110Y007807D02*
X026790Y007807D01*
X026790Y007659D02*
X027110Y007659D01*
X027110Y007510D02*
X026790Y007510D01*
X026790Y007362D02*
X027110Y007362D01*
X027171Y007213D02*
X026790Y007213D01*
X026790Y007065D02*
X027319Y007065D01*
X027468Y006916D02*
X026790Y006916D01*
X026790Y006768D02*
X027616Y006768D01*
X027765Y006619D02*
X026790Y006619D01*
X026796Y006471D02*
X027913Y006471D01*
X028062Y006322D02*
X026944Y006322D01*
X027093Y006174D02*
X028210Y006174D01*
X028359Y006025D02*
X027241Y006025D01*
X027390Y005877D02*
X028410Y005877D01*
X028470Y005728D02*
X027538Y005728D01*
X027687Y005580D02*
X028592Y005580D01*
X029258Y005580D02*
X030304Y005580D01*
X030156Y005728D02*
X029380Y005728D01*
X029440Y005877D02*
X030007Y005877D01*
X029859Y006025D02*
X029440Y006025D01*
X029400Y006174D02*
X029710Y006174D01*
X029562Y006322D02*
X029306Y006322D01*
X029413Y006471D02*
X029074Y006471D01*
X029265Y006619D02*
X028797Y006619D01*
X028649Y006768D02*
X029116Y006768D01*
X028968Y006916D02*
X028500Y006916D01*
X028352Y007065D02*
X028819Y007065D01*
X028671Y007213D02*
X028203Y007213D01*
X028055Y007362D02*
X028522Y007362D01*
X028374Y007510D02*
X027906Y007510D01*
X027840Y007659D02*
X028225Y007659D01*
X028077Y007807D02*
X027840Y007807D01*
X027840Y007956D02*
X027928Y007956D01*
X029811Y007956D02*
X035285Y007956D01*
X035285Y008104D02*
X029920Y008104D01*
X029982Y008253D02*
X035285Y008253D01*
X035285Y008401D02*
X030017Y008401D01*
X030166Y008550D02*
X035285Y008550D01*
X035285Y008698D02*
X030314Y008698D01*
X030463Y008847D02*
X035285Y008847D01*
X035285Y008995D02*
X030611Y008995D01*
X030760Y009144D02*
X035285Y009144D01*
X035285Y009292D02*
X030908Y009292D01*
X031057Y009441D02*
X035285Y009441D01*
X035285Y009589D02*
X031205Y009589D01*
X031354Y009738D02*
X035285Y009738D01*
X035285Y009886D02*
X031502Y009886D01*
X031651Y010035D02*
X035285Y010035D01*
X035285Y010183D02*
X031799Y010183D01*
X031948Y010332D02*
X035285Y010332D01*
X035285Y010480D02*
X032096Y010480D01*
X032245Y010629D02*
X035285Y010629D01*
X035675Y011075D02*
X035675Y012675D01*
X034035Y012708D02*
X032340Y012708D01*
X032340Y012856D02*
X034035Y012856D01*
X034035Y013005D02*
X032340Y013005D01*
X032340Y013153D02*
X034035Y013153D01*
X034035Y013302D02*
X032340Y013302D01*
X032340Y013450D02*
X034035Y013450D01*
X034035Y013599D02*
X032340Y013599D01*
X032340Y013747D02*
X034035Y013747D01*
X034035Y013896D02*
X032340Y013896D01*
X032340Y014044D02*
X034035Y014044D01*
X034035Y014193D02*
X032340Y014193D01*
X032340Y014341D02*
X034035Y014341D01*
X034035Y014490D02*
X032340Y014490D01*
X032340Y014638D02*
X034035Y014638D01*
X034035Y014787D02*
X032340Y014787D01*
X032340Y014935D02*
X034035Y014935D01*
X034035Y015084D02*
X032340Y015084D01*
X032340Y015232D02*
X033649Y015232D01*
X033491Y015381D02*
X032340Y015381D01*
X032340Y015529D02*
X033428Y015529D01*
X033410Y015678D02*
X032340Y015678D01*
X032340Y015826D02*
X033430Y015826D01*
X027775Y015975D02*
X027775Y016575D01*
X027175Y017175D01*
X026425Y016925D02*
X026425Y019175D01*
X027175Y019925D01*
X027175Y021775D01*
X028175Y020175D02*
X027175Y019175D01*
X027175Y018175D01*
X026035Y018202D02*
X020810Y018202D01*
X020810Y018054D02*
X026035Y018054D01*
X026035Y017905D02*
X020803Y017905D01*
X020810Y017912D02*
X020810Y018438D01*
X020474Y018774D01*
X020670Y018970D01*
X020670Y019150D01*
X020200Y019150D01*
X020200Y019200D01*
X020150Y019200D01*
X020150Y019670D01*
X019970Y019670D01*
X019680Y019380D01*
X019680Y019200D01*
X020150Y019200D01*
X020150Y019150D01*
X019680Y019150D01*
X019680Y018970D01*
X019876Y018774D01*
X019675Y018573D01*
X019474Y018774D01*
X019670Y018970D01*
X019670Y019150D01*
X019200Y019150D01*
X019200Y019200D01*
X019150Y019200D01*
X019150Y019670D01*
X018970Y019670D01*
X018774Y019474D01*
X018438Y019810D01*
X017912Y019810D01*
X017675Y019573D01*
X017438Y019810D01*
X016912Y019810D01*
X016675Y019573D01*
X016438Y019810D01*
X015912Y019810D01*
X015540Y019438D01*
X015540Y018912D01*
X015777Y018675D01*
X015540Y018438D01*
X015540Y017912D01*
X015742Y017710D01*
X015594Y017563D01*
X015490Y017311D01*
X015305Y017311D01*
X015490Y017311D02*
X015490Y017126D01*
X014757Y017859D01*
X014810Y017912D01*
X014810Y018438D01*
X014573Y018675D01*
X014810Y018912D01*
X014810Y019294D01*
X014884Y019368D01*
X014940Y019502D01*
X014940Y020585D01*
X014963Y020594D01*
X015075Y020706D01*
X015187Y020594D01*
X015439Y020490D01*
X015711Y020490D01*
X015963Y020594D01*
X016075Y020706D01*
X016187Y020594D01*
X016439Y020490D01*
X016711Y020490D01*
X016963Y020594D01*
X017075Y020706D01*
X017187Y020594D01*
X017439Y020490D01*
X017711Y020490D01*
X017963Y020594D01*
X018156Y020787D01*
X018260Y021039D01*
X018260Y021311D01*
X018229Y021385D01*
X018521Y021385D01*
X018490Y021311D01*
X018490Y021039D01*
X018594Y020787D01*
X018787Y020594D01*
X019039Y020490D01*
X019311Y020490D01*
X019334Y020500D01*
X019616Y020218D01*
X019718Y020116D01*
X019852Y020060D01*
X021774Y020060D01*
X022500Y019334D01*
X022490Y019311D01*
X022490Y019039D01*
X022594Y018787D01*
X022787Y018594D01*
X023039Y018490D01*
X023311Y018490D01*
X023563Y018594D01*
X023675Y018706D01*
X023787Y018594D01*
X024039Y018490D01*
X024311Y018490D01*
X024563Y018594D01*
X024675Y018706D01*
X024787Y018594D01*
X025039Y018490D01*
X025311Y018490D01*
X025563Y018594D01*
X025756Y018787D01*
X025860Y019039D01*
X025860Y019311D01*
X025756Y019563D01*
X025644Y019675D01*
X025675Y019706D01*
X025787Y019594D01*
X026039Y019490D01*
X026188Y019490D01*
X026094Y019396D01*
X026035Y019253D01*
X026035Y016847D01*
X026094Y016704D01*
X026204Y016594D01*
X026490Y016308D01*
X026490Y016039D01*
X026594Y015787D01*
X026787Y015594D01*
X027039Y015490D01*
X027285Y015490D01*
X027285Y013860D01*
X027039Y013860D01*
X026787Y013756D01*
X026783Y013752D01*
X026723Y013812D01*
X026608Y013860D01*
X025742Y013860D01*
X025627Y013812D01*
X025538Y013723D01*
X025490Y013608D01*
X025490Y013493D01*
X025468Y013484D01*
X025366Y013382D01*
X023024Y011040D01*
X022490Y011040D01*
X022490Y011227D01*
X022412Y011417D01*
X022267Y011562D01*
X022077Y011640D01*
X021976Y011640D01*
X017956Y015660D01*
X018077Y015660D01*
X018267Y015738D01*
X018412Y015883D01*
X018490Y016073D01*
X018490Y016182D01*
X018540Y016302D01*
X018540Y016585D01*
X018563Y016594D01*
X018675Y016706D01*
X018787Y016594D01*
X018810Y016585D01*
X018810Y016502D01*
X018866Y016368D01*
X018968Y016266D01*
X020460Y014774D01*
X020460Y014673D01*
X020538Y014483D01*
X020683Y014338D01*
X020873Y014260D01*
X021077Y014260D01*
X021267Y014338D01*
X021412Y014483D01*
X021433Y014534D01*
X021539Y014490D01*
X021811Y014490D01*
X022063Y014594D01*
X022256Y014787D01*
X022360Y015039D01*
X022360Y015311D01*
X022256Y015563D01*
X022144Y015675D01*
X022256Y015787D01*
X022360Y016039D01*
X022360Y016311D01*
X022256Y016563D01*
X022063Y016756D01*
X021811Y016860D01*
X021539Y016860D01*
X021287Y016756D01*
X021094Y016563D01*
X020990Y016311D01*
X020990Y016039D01*
X021094Y015787D01*
X021206Y015675D01*
X021094Y015563D01*
X020990Y015311D01*
X020990Y015290D01*
X020976Y015290D01*
X019617Y016649D01*
X019675Y016706D01*
X019787Y016594D01*
X020039Y016490D01*
X020311Y016490D01*
X020563Y016594D01*
X020756Y016787D01*
X020860Y017039D01*
X020860Y017311D01*
X026035Y017311D01*
X026035Y017163D02*
X020860Y017163D01*
X020860Y017311D02*
X020756Y017563D01*
X020608Y017710D01*
X020810Y017912D01*
X020655Y017757D02*
X026035Y017757D01*
X026035Y017608D02*
X020711Y017608D01*
X020799Y017460D02*
X026035Y017460D01*
X026035Y017014D02*
X020850Y017014D01*
X020788Y016866D02*
X026035Y016866D01*
X026089Y016717D02*
X022102Y016717D01*
X022250Y016569D02*
X026230Y016569D01*
X026378Y016420D02*
X022315Y016420D01*
X022360Y016272D02*
X026490Y016272D01*
X026490Y016123D02*
X022360Y016123D01*
X022333Y015975D02*
X026517Y015975D01*
X026578Y015826D02*
X022272Y015826D01*
X022146Y015678D02*
X026704Y015678D01*
X026944Y015529D02*
X022270Y015529D01*
X022331Y015381D02*
X027285Y015381D01*
X027285Y015232D02*
X022360Y015232D01*
X022360Y015084D02*
X027285Y015084D01*
X027285Y014935D02*
X022317Y014935D01*
X022255Y014787D02*
X027285Y014787D01*
X027285Y014638D02*
X022107Y014638D01*
X021414Y014490D02*
X027285Y014490D01*
X027285Y014341D02*
X021269Y014341D01*
X020681Y014341D02*
X019275Y014341D01*
X019127Y014490D02*
X020536Y014490D01*
X020474Y014638D02*
X018978Y014638D01*
X018830Y014787D02*
X020447Y014787D01*
X020299Y014935D02*
X018681Y014935D01*
X018533Y015084D02*
X020150Y015084D01*
X020002Y015232D02*
X018384Y015232D01*
X018236Y015381D02*
X019853Y015381D01*
X019705Y015529D02*
X018087Y015529D01*
X018120Y015678D02*
X019556Y015678D01*
X019408Y015826D02*
X018354Y015826D01*
X018449Y015975D02*
X019259Y015975D01*
X019111Y016123D02*
X018490Y016123D01*
X018527Y016272D02*
X018962Y016272D01*
X018844Y016420D02*
X018540Y016420D01*
X018540Y016569D02*
X018810Y016569D01*
X019698Y016569D02*
X019849Y016569D01*
X019846Y016420D02*
X021035Y016420D01*
X020990Y016272D02*
X019995Y016272D01*
X020143Y016123D02*
X020990Y016123D01*
X021017Y015975D02*
X020292Y015975D01*
X020440Y015826D02*
X021078Y015826D01*
X021204Y015678D02*
X020589Y015678D01*
X020737Y015529D02*
X021080Y015529D01*
X021019Y015381D02*
X020886Y015381D01*
X021100Y016569D02*
X020501Y016569D01*
X020686Y016717D02*
X021248Y016717D01*
X020810Y018351D02*
X026035Y018351D01*
X026035Y018499D02*
X025333Y018499D01*
X025017Y018499D02*
X024333Y018499D01*
X024017Y018499D02*
X023333Y018499D01*
X023017Y018499D02*
X020749Y018499D01*
X020600Y018648D02*
X022734Y018648D01*
X022591Y018796D02*
X020496Y018796D01*
X020645Y018945D02*
X022529Y018945D01*
X022490Y019093D02*
X020670Y019093D01*
X020670Y019200D02*
X020200Y019200D01*
X020200Y019670D01*
X020380Y019670D01*
X020670Y019380D01*
X020670Y019200D01*
X020670Y019242D02*
X022490Y019242D01*
X022444Y019390D02*
X020660Y019390D01*
X020511Y019539D02*
X022295Y019539D01*
X022147Y019687D02*
X018561Y019687D01*
X018709Y019539D02*
X018839Y019539D01*
X019150Y019539D02*
X019200Y019539D01*
X019200Y019670D02*
X019200Y019200D01*
X019670Y019200D01*
X019670Y019380D01*
X019380Y019670D01*
X019200Y019670D01*
X019200Y019390D02*
X019150Y019390D01*
X019150Y019242D02*
X019200Y019242D01*
X019511Y019539D02*
X019839Y019539D01*
X019690Y019390D02*
X019660Y019390D01*
X019670Y019242D02*
X019680Y019242D01*
X019670Y019093D02*
X019680Y019093D01*
X019705Y018945D02*
X019645Y018945D01*
X019496Y018796D02*
X019854Y018796D01*
X019750Y018648D02*
X019600Y018648D01*
X020150Y019242D02*
X020200Y019242D01*
X020200Y019390D02*
X020150Y019390D01*
X020150Y019539D02*
X020200Y019539D01*
X019701Y020133D02*
X014940Y020133D01*
X014940Y020281D02*
X019553Y020281D01*
X019404Y020430D02*
X014940Y020430D01*
X014940Y020578D02*
X015226Y020578D01*
X015924Y020578D02*
X016226Y020578D01*
X016924Y020578D02*
X017226Y020578D01*
X017924Y020578D02*
X018826Y020578D01*
X018655Y020727D02*
X018095Y020727D01*
X018192Y020875D02*
X018558Y020875D01*
X018496Y021024D02*
X018254Y021024D01*
X018260Y021172D02*
X018490Y021172D01*
X018494Y021321D02*
X018256Y021321D01*
X017789Y019687D02*
X017561Y019687D01*
X016789Y019687D02*
X016561Y019687D01*
X015789Y019687D02*
X014940Y019687D01*
X014940Y019539D02*
X015641Y019539D01*
X015540Y019390D02*
X014893Y019390D01*
X014810Y019242D02*
X015540Y019242D01*
X015540Y019093D02*
X014810Y019093D01*
X014810Y018945D02*
X015540Y018945D01*
X015656Y018796D02*
X014694Y018796D01*
X014600Y018648D02*
X015750Y018648D01*
X015601Y018499D02*
X014749Y018499D01*
X014810Y018351D02*
X015540Y018351D01*
X015540Y018202D02*
X014810Y018202D01*
X014810Y018054D02*
X015540Y018054D01*
X015547Y017905D02*
X014803Y017905D01*
X014860Y017757D02*
X015695Y017757D01*
X015639Y017608D02*
X015008Y017608D01*
X015157Y017460D02*
X015551Y017460D01*
X015490Y017163D02*
X015454Y017163D01*
X013359Y015975D02*
X010927Y015975D01*
X010779Y016123D02*
X013211Y016123D01*
X013062Y016272D02*
X010630Y016272D01*
X010481Y016420D02*
X012914Y016420D01*
X012765Y016569D02*
X010333Y016569D01*
X010184Y016717D02*
X012617Y016717D01*
X012468Y016866D02*
X010036Y016866D01*
X009887Y017014D02*
X012320Y017014D01*
X012171Y017163D02*
X009739Y017163D01*
X009590Y017311D02*
X012023Y017311D01*
X011874Y017460D02*
X009442Y017460D01*
X009293Y017608D02*
X011810Y017608D01*
X011695Y017757D02*
X009145Y017757D01*
X008996Y017905D02*
X011547Y017905D01*
X011540Y018054D02*
X008848Y018054D01*
X008699Y018202D02*
X011540Y018202D01*
X011540Y018351D02*
X008551Y018351D01*
X008402Y018499D02*
X011601Y018499D01*
X011750Y018648D02*
X008254Y018648D01*
X008105Y018796D02*
X011656Y018796D01*
X011540Y018945D02*
X008065Y018945D01*
X008065Y019093D02*
X011540Y019093D01*
X011540Y019242D02*
X008065Y019242D01*
X008065Y019390D02*
X011540Y019390D01*
X011641Y019539D02*
X008065Y019539D01*
X008065Y019687D02*
X011789Y019687D01*
X012210Y019836D02*
X008065Y019836D01*
X008065Y019984D02*
X012210Y019984D01*
X012210Y020133D02*
X008065Y020133D01*
X008065Y020281D02*
X012210Y020281D01*
X012210Y020430D02*
X008065Y020430D01*
X008065Y020578D02*
X008226Y020578D01*
X008924Y020578D02*
X009226Y020578D01*
X009924Y020578D02*
X010226Y020578D01*
X010924Y020578D02*
X012210Y020578D01*
X012055Y020727D02*
X011885Y020727D01*
X011600Y020727D02*
X011550Y020727D01*
X011550Y020875D02*
X011600Y020875D01*
X011600Y021024D02*
X011550Y021024D01*
X011265Y020727D02*
X011095Y020727D01*
X007285Y020727D02*
X006298Y020727D01*
X006359Y020875D02*
X007285Y020875D01*
X007285Y021024D02*
X006374Y021024D01*
X006374Y021172D02*
X007285Y021172D01*
X007285Y021321D02*
X006319Y021321D01*
X006243Y021469D02*
X007285Y021469D01*
X007285Y021618D02*
X006095Y021618D01*
X005255Y021618D02*
X003013Y021618D01*
X002938Y021693D02*
X002605Y021831D01*
X002245Y021831D01*
X001912Y021693D01*
X001657Y021438D01*
X001519Y021105D01*
X001519Y020745D01*
X001657Y020412D01*
X001912Y020157D01*
X002245Y020019D01*
X002605Y020019D01*
X002938Y020157D01*
X003193Y020412D01*
X003331Y020745D01*
X003331Y021105D01*
X003193Y021438D01*
X002938Y021693D01*
X002761Y021766D02*
X007332Y021766D01*
X007285Y020578D02*
X006192Y020578D01*
X006040Y020430D02*
X007285Y020430D01*
X007285Y020281D02*
X006040Y020281D01*
X006040Y020133D02*
X007285Y020133D01*
X007285Y019984D02*
X006040Y019984D01*
X006040Y019836D02*
X007285Y019836D01*
X007285Y019687D02*
X006179Y019687D01*
X006328Y019539D02*
X007285Y019539D01*
X007285Y019390D02*
X006476Y019390D01*
X006625Y019242D02*
X007285Y019242D01*
X007285Y019093D02*
X006773Y019093D01*
X006922Y018945D02*
X007285Y018945D01*
X007285Y018796D02*
X007070Y018796D01*
X007219Y018648D02*
X007285Y018648D01*
X006780Y018054D02*
X001490Y018054D01*
X001490Y018202D02*
X006632Y018202D01*
X006483Y018351D02*
X001490Y018351D01*
X001490Y018499D02*
X006335Y018499D01*
X006186Y018648D02*
X001490Y018648D01*
X001490Y018796D02*
X006038Y018796D01*
X005889Y018945D02*
X001490Y018945D01*
X001490Y019093D02*
X005741Y019093D01*
X005592Y019242D02*
X001490Y019242D01*
X001490Y019390D02*
X005444Y019390D01*
X005336Y019539D02*
X001490Y019539D01*
X001490Y019687D02*
X005310Y019687D01*
X005310Y019836D02*
X001490Y019836D01*
X001490Y019984D02*
X005310Y019984D01*
X005310Y020133D02*
X002878Y020133D01*
X003062Y020281D02*
X005310Y020281D01*
X005310Y020430D02*
X003200Y020430D01*
X003261Y020578D02*
X005158Y020578D01*
X005052Y020727D02*
X003323Y020727D01*
X003331Y020875D02*
X004991Y020875D01*
X004976Y021024D02*
X003331Y021024D01*
X003303Y021172D02*
X004976Y021172D01*
X005031Y021321D02*
X003241Y021321D01*
X003162Y021469D02*
X005107Y021469D01*
X002089Y021766D02*
X001516Y021766D01*
X001490Y021618D02*
X001837Y021618D01*
X001688Y021469D02*
X001490Y021469D01*
X001490Y021321D02*
X001609Y021321D01*
X001547Y021172D02*
X001490Y021172D01*
X001490Y021024D02*
X001519Y021024D01*
X001519Y020875D02*
X001490Y020875D01*
X001490Y020727D02*
X001527Y020727D01*
X001490Y020578D02*
X001589Y020578D01*
X001650Y020430D02*
X001490Y020430D01*
X001490Y020281D02*
X001788Y020281D01*
X001972Y020133D02*
X001490Y020133D01*
X001490Y017905D02*
X006929Y017905D01*
X007077Y017757D02*
X001490Y017757D01*
X001490Y017608D02*
X007226Y017608D01*
X007374Y017460D02*
X001490Y017460D01*
X001490Y017311D02*
X007523Y017311D01*
X007671Y017163D02*
X001490Y017163D01*
X001490Y017014D02*
X007820Y017014D01*
X007968Y016866D02*
X001490Y016866D01*
X001490Y016717D02*
X008117Y016717D01*
X008265Y016569D02*
X001490Y016569D01*
X001490Y016420D02*
X008414Y016420D01*
X008562Y016272D02*
X001490Y016272D01*
X001490Y016123D02*
X008711Y016123D01*
X008859Y015975D02*
X001490Y015975D01*
X001490Y010777D02*
X001769Y010777D01*
X001609Y010629D02*
X001490Y010629D01*
X001490Y010480D02*
X001517Y010480D01*
X001490Y009886D02*
X001510Y009886D01*
X001490Y009738D02*
X001597Y009738D01*
X001490Y009589D02*
X001748Y009589D01*
X004100Y010332D02*
X004250Y010332D01*
X004250Y010480D02*
X004100Y010480D01*
X004100Y010629D02*
X004250Y010629D01*
X004250Y010777D02*
X004100Y010777D01*
X003454Y008253D02*
X002896Y008253D01*
X002867Y007956D02*
X003483Y007956D01*
X003550Y007807D02*
X002800Y007807D01*
X002684Y007659D02*
X003666Y007659D01*
X003886Y007510D02*
X002464Y007510D01*
X001666Y007659D02*
X001490Y007659D01*
X001490Y007807D02*
X001550Y007807D01*
X001490Y007213D02*
X011411Y007213D01*
X011425Y006675D02*
X012175Y007425D01*
X011425Y006675D02*
X003925Y006675D01*
X003425Y006175D01*
X003425Y001575D01*
X005175Y001575D01*
X005175Y002175D01*
X006175Y002175D02*
X006175Y002675D01*
X005675Y003175D01*
X004675Y003175D01*
X004425Y003425D01*
X004425Y004675D01*
X004475Y004675D01*
X004475Y006175D01*
X008675Y006175D01*
X009675Y005175D01*
X013175Y005175D01*
X013175Y006175D01*
X013378Y004837D02*
X013574Y004837D01*
X013693Y004689D02*
X007565Y004689D01*
X007565Y004837D02*
X009472Y004837D01*
X009313Y004986D02*
X007565Y004986D01*
X007565Y005134D02*
X009164Y005134D01*
X009016Y005283D02*
X007553Y005283D01*
X007471Y005431D02*
X008867Y005431D01*
X008719Y005580D02*
X005739Y005580D01*
X005591Y005728D02*
X008570Y005728D01*
X007175Y005175D02*
X005175Y005175D01*
X005657Y004689D02*
X006785Y004689D01*
X006785Y004785D02*
X006785Y002754D01*
X006675Y002644D01*
X006564Y002755D01*
X006506Y002896D01*
X006396Y003006D01*
X006006Y003396D01*
X005896Y003506D01*
X005753Y003565D01*
X004837Y003565D01*
X004815Y003587D01*
X004815Y003764D01*
X004820Y003759D01*
X004889Y003709D01*
X004966Y003670D01*
X005047Y003643D01*
X005132Y003630D01*
X005170Y003630D01*
X005170Y004170D01*
X005180Y004170D01*
X005180Y004180D01*
X005720Y004180D01*
X005720Y004218D01*
X005707Y004303D01*
X005680Y004384D01*
X005641Y004461D01*
X005591Y004530D01*
X005537Y004584D01*
X005563Y004594D01*
X005754Y004785D01*
X006785Y004785D01*
X006785Y004540D02*
X005581Y004540D01*
X005676Y004392D02*
X006785Y004392D01*
X006785Y004243D02*
X005716Y004243D01*
X005720Y004170D02*
X005180Y004170D01*
X005180Y003630D01*
X005218Y003630D01*
X005303Y003643D01*
X005384Y003670D01*
X005461Y003709D01*
X005530Y003759D01*
X005591Y003820D01*
X005641Y003889D01*
X005680Y003966D01*
X005707Y004047D01*
X005720Y004132D01*
X005720Y004170D01*
X005714Y004095D02*
X006785Y004095D01*
X006785Y003946D02*
X005670Y003946D01*
X005568Y003798D02*
X006785Y003798D01*
X006785Y003649D02*
X005320Y003649D01*
X005180Y003649D02*
X005170Y003649D01*
X005030Y003649D02*
X004815Y003649D01*
X005170Y003798D02*
X005180Y003798D01*
X005170Y003946D02*
X005180Y003946D01*
X005170Y004095D02*
X005180Y004095D01*
X005901Y003501D02*
X006785Y003501D01*
X006785Y003352D02*
X006050Y003352D01*
X006006Y003396D02*
X006006Y003396D01*
X006198Y003204D02*
X006785Y003204D01*
X006785Y003055D02*
X006347Y003055D01*
X006396Y003006D02*
X006396Y003006D01*
X006495Y002907D02*
X006785Y002907D01*
X006785Y002758D02*
X006563Y002758D01*
X007175Y002175D02*
X007175Y005175D01*
X003846Y007065D02*
X001490Y007065D01*
X001490Y006916D02*
X003614Y006916D01*
X003466Y006768D02*
X001490Y006768D01*
X001490Y006619D02*
X003317Y006619D01*
X003169Y006471D02*
X001490Y006471D01*
X001490Y006322D02*
X003064Y006322D01*
X003035Y006174D02*
X001490Y006174D01*
X001490Y006025D02*
X003035Y006025D01*
X003035Y005877D02*
X001490Y005877D01*
X001490Y005728D02*
X003035Y005728D01*
X003035Y005580D02*
X001490Y005580D01*
X001490Y005431D02*
X003035Y005431D01*
X003035Y005283D02*
X001490Y005283D01*
X001490Y005134D02*
X003035Y005134D01*
X003035Y004986D02*
X001490Y004986D01*
X001490Y004837D02*
X003035Y004837D01*
X003035Y004689D02*
X001490Y004689D01*
X001490Y004540D02*
X003035Y004540D01*
X003035Y004392D02*
X001490Y004392D01*
X001490Y004243D02*
X003035Y004243D01*
X003035Y004095D02*
X001490Y004095D01*
X001490Y003946D02*
X003035Y003946D01*
X003035Y003798D02*
X001490Y003798D01*
X001490Y003649D02*
X003035Y003649D01*
X003035Y003501D02*
X001490Y003501D01*
X001490Y003352D02*
X003035Y003352D01*
X003035Y003204D02*
X002912Y003204D01*
X001938Y003204D02*
X001490Y003204D01*
X001490Y003055D02*
X001774Y003055D01*
X001644Y002907D02*
X001490Y002907D01*
X001490Y002758D02*
X001583Y002758D01*
X001521Y002610D02*
X001490Y002610D01*
X001490Y002461D02*
X001519Y002461D01*
X001519Y002313D02*
X001490Y002313D01*
X001490Y002164D02*
X001553Y002164D01*
X001490Y002016D02*
X001614Y002016D01*
X001702Y001867D02*
X001490Y001867D01*
X001490Y001719D02*
X001851Y001719D01*
X002123Y001570D02*
X001523Y001570D01*
X002727Y001570D02*
X003035Y001570D01*
X003035Y001719D02*
X002999Y001719D01*
X005565Y001570D02*
X005846Y001570D01*
X006504Y001570D02*
X006846Y001570D01*
X007504Y001570D02*
X007846Y001570D01*
X008504Y001570D02*
X008846Y001570D01*
X009504Y001570D02*
X011846Y001570D01*
X011663Y001719D02*
X009687Y001719D01*
X009789Y001867D02*
X011561Y001867D01*
X011500Y002016D02*
X009850Y002016D01*
X009860Y002164D02*
X011490Y002164D01*
X011491Y002313D02*
X009859Y002313D01*
X009798Y002461D02*
X011552Y002461D01*
X011641Y002610D02*
X009709Y002610D01*
X009557Y002758D02*
X011793Y002758D01*
X012504Y001570D02*
X012846Y001570D01*
X013504Y001570D02*
X013846Y001570D01*
X015175Y002175D02*
X015175Y003175D01*
X016670Y003649D02*
X016905Y003649D01*
X015918Y004540D02*
X015862Y004540D01*
X018150Y002610D02*
X018200Y002610D01*
X018200Y002461D02*
X018150Y002461D01*
X018150Y002313D02*
X018200Y002313D01*
X018504Y002610D02*
X018641Y002610D01*
X020235Y001719D02*
X020663Y001719D01*
X020561Y001867D02*
X020383Y001867D01*
X020086Y001570D02*
X020846Y001570D01*
X021504Y001570D02*
X021846Y001570D01*
X022504Y001570D02*
X022846Y001570D01*
X023504Y001570D02*
X023846Y001570D01*
X024504Y001570D02*
X024846Y001570D01*
X025504Y001570D02*
X025846Y001570D01*
X026504Y001570D02*
X026846Y001570D01*
X027504Y001570D02*
X027846Y001570D01*
X030557Y002758D02*
X030793Y002758D01*
X031557Y002758D02*
X031623Y002758D01*
X031568Y003501D02*
X031337Y003501D01*
X031618Y003649D02*
X031680Y003649D01*
X031760Y003798D02*
X031888Y003798D01*
X031822Y003946D02*
X035138Y003946D01*
X034989Y004095D02*
X031860Y004095D01*
X031860Y004243D02*
X034841Y004243D01*
X034692Y004392D02*
X031827Y004392D01*
X031765Y004540D02*
X034544Y004540D01*
X035131Y004986D02*
X035348Y004986D01*
X035279Y004837D02*
X035497Y004837D01*
X035428Y004689D02*
X035645Y004689D01*
X035576Y004540D02*
X035794Y004540D01*
X035725Y004392D02*
X036380Y004392D01*
X035200Y005134D02*
X034982Y005134D01*
X035051Y005283D02*
X034766Y005283D01*
X034888Y003798D02*
X034462Y003798D01*
X034670Y003649D02*
X034680Y003649D01*
X033888Y003798D02*
X033462Y003798D01*
X033670Y003649D02*
X033680Y003649D01*
X032888Y003798D02*
X032462Y003798D01*
X032670Y003649D02*
X032680Y003649D01*
X031013Y003501D02*
X030337Y003501D01*
X030618Y003649D02*
X030732Y003649D01*
X030453Y005431D02*
X027835Y005431D01*
X030149Y006768D02*
X035554Y006768D01*
X035306Y006916D02*
X030244Y006916D01*
X030375Y007065D02*
X035205Y007065D01*
X035160Y007213D02*
X030436Y007213D01*
X030440Y007362D02*
X035160Y007362D01*
X035215Y007510D02*
X030406Y007510D01*
X030320Y007659D02*
X035285Y007659D01*
X035285Y007807D02*
X030107Y007807D01*
X024810Y007659D02*
X024675Y007659D01*
X024810Y007510D02*
X024526Y007510D01*
X024440Y007362D02*
X024810Y007362D01*
X024697Y007213D02*
X024395Y007213D01*
X024293Y007065D02*
X024548Y007065D01*
X024442Y009886D02*
X023902Y009886D01*
X024051Y010035D02*
X024810Y010035D01*
X024810Y010183D02*
X024199Y010183D01*
X024348Y010332D02*
X024845Y010332D01*
X024964Y010480D02*
X024496Y010480D01*
X024645Y010629D02*
X025112Y010629D01*
X025261Y010777D02*
X024793Y010777D01*
X024942Y010926D02*
X025409Y010926D01*
X025490Y011074D02*
X025090Y011074D01*
X025239Y011223D02*
X025490Y011223D01*
X025515Y011371D02*
X025387Y011371D01*
X025536Y011520D02*
X025576Y011520D01*
X025684Y011668D02*
X025699Y011668D01*
X026746Y010777D02*
X026802Y010777D01*
X027150Y010777D02*
X027200Y010777D01*
X027200Y010926D02*
X027150Y010926D01*
X027150Y011074D02*
X027200Y011074D01*
X024543Y012559D02*
X021057Y012559D01*
X020909Y012708D02*
X024691Y012708D01*
X024840Y012856D02*
X020760Y012856D01*
X020612Y013005D02*
X024988Y013005D01*
X025137Y013153D02*
X020463Y013153D01*
X020315Y013302D02*
X025285Y013302D01*
X025434Y013450D02*
X020166Y013450D01*
X020018Y013599D02*
X025490Y013599D01*
X025562Y013747D02*
X019869Y013747D01*
X019721Y013896D02*
X027285Y013896D01*
X027285Y014044D02*
X019572Y014044D01*
X019424Y014193D02*
X027285Y014193D01*
X027675Y013675D02*
X027675Y015875D01*
X027775Y015975D01*
X027175Y016175D02*
X026425Y016925D01*
X026035Y018648D02*
X025616Y018648D01*
X025759Y018796D02*
X026035Y018796D01*
X026035Y018945D02*
X025821Y018945D01*
X025860Y019093D02*
X026035Y019093D01*
X026035Y019242D02*
X025860Y019242D01*
X025827Y019390D02*
X026092Y019390D01*
X025922Y019539D02*
X025766Y019539D01*
X025694Y019687D02*
X025656Y019687D01*
X024734Y018648D02*
X024616Y018648D01*
X023734Y018648D02*
X023616Y018648D01*
X021998Y019836D02*
X014940Y019836D01*
X014940Y019984D02*
X021850Y019984D01*
X013656Y015678D02*
X011224Y015678D01*
X011076Y015826D02*
X013508Y015826D01*
X012310Y012262D02*
X012130Y012262D01*
X012288Y012114D02*
X012310Y012114D01*
X004250Y007807D02*
X004100Y007807D01*
X004100Y007659D02*
X004250Y007659D01*
X004250Y007510D02*
X004100Y007510D01*
X007565Y002758D02*
X007793Y002758D01*
X008557Y002758D02*
X008793Y002758D01*
X022490Y011074D02*
X023058Y011074D01*
X023206Y011223D02*
X022490Y011223D01*
X022431Y011371D02*
X023355Y011371D01*
X023503Y011520D02*
X022309Y011520D01*
X021948Y011668D02*
X023652Y011668D01*
X023800Y011817D02*
X021800Y011817D01*
X021651Y011965D02*
X023949Y011965D01*
X024097Y012114D02*
X021503Y012114D01*
X021354Y012262D02*
X024246Y012262D01*
X024394Y012411D02*
X021206Y012411D01*
X027175Y013175D02*
X027675Y013675D01*
X032340Y012559D02*
X034035Y012559D01*
X034035Y012411D02*
X032340Y012411D01*
X032340Y012262D02*
X034035Y012262D01*
X034035Y012114D02*
X032340Y012114D01*
X032340Y011965D02*
X034035Y011965D01*
X034035Y011817D02*
X032340Y011817D01*
X032340Y011668D02*
X034035Y011668D01*
X034035Y011520D02*
X032340Y011520D01*
X032340Y011371D02*
X034035Y011371D01*
X034066Y011223D02*
X032340Y011223D01*
X032340Y011074D02*
X034174Y011074D01*
X034323Y010926D02*
X032340Y010926D01*
X032329Y010777D02*
X034471Y010777D01*
X039150Y004095D02*
X039200Y004095D01*
X039200Y003946D02*
X039150Y003946D01*
X039150Y003798D02*
X039200Y003798D01*
X039200Y003649D02*
X039150Y003649D01*
X039150Y003501D02*
X039200Y003501D01*
D17*
X036675Y004825D03*
X035675Y006675D03*
X035675Y007275D03*
X036075Y008075D03*
X031575Y007975D03*
X029925Y007325D03*
X029475Y008375D03*
X027475Y009175D03*
X027775Y009675D03*
X026675Y010075D03*
X028175Y010925D03*
X030575Y011075D03*
X032875Y011975D03*
X035075Y011675D03*
X035675Y011075D03*
X035675Y012675D03*
X035275Y015575D03*
X033925Y015675D03*
X036425Y017675D03*
X035375Y019575D03*
X033575Y019575D03*
X032775Y018975D03*
X032175Y019175D03*
X028175Y020175D03*
X023675Y017675D03*
X021175Y017175D03*
X017975Y016175D03*
X015525Y015025D03*
X013175Y015175D03*
X008925Y012925D03*
X006175Y011925D03*
X007175Y010175D03*
X008675Y010175D03*
X009925Y010175D03*
X011425Y010175D03*
X011425Y009000D03*
X011425Y007925D03*
X009925Y007925D03*
X008675Y007925D03*
X007175Y007925D03*
X010175Y005675D03*
X008175Y005425D03*
X013925Y007925D03*
X013925Y008925D03*
X013925Y010175D03*
X013925Y012175D03*
X008675Y015675D03*
X005675Y015675D03*
X002675Y015675D03*
X002175Y013175D03*
X002675Y018675D03*
X005675Y018675D03*
X008675Y018675D03*
X020975Y014775D03*
X022175Y014175D03*
X023425Y012925D03*
X023175Y011925D03*
X021975Y011125D03*
X024675Y009425D03*
X024175Y008775D03*
X022075Y008575D03*
X023925Y007425D03*
X020675Y006175D03*
X022075Y005375D03*
X020675Y003675D03*
X019175Y003675D03*
X018375Y005475D03*
X017075Y005575D03*
X028925Y005975D03*
X028175Y013925D03*
X030675Y013875D03*
X001925Y003675D03*
D18*
X039175Y003175D02*
X039175Y004175D01*
D19*
X038675Y003975D02*
X038275Y003575D01*
X036025Y003575D01*
X034675Y004925D01*
X027825Y004925D01*
X026425Y006325D01*
X026425Y009425D01*
X026675Y009675D01*
X026675Y010075D01*
X027775Y009675D02*
X027975Y009675D01*
X027975Y008425D01*
X030725Y005675D01*
X035175Y005675D01*
X036025Y004825D01*
X036675Y004825D01*
X038175Y005175D02*
X038675Y004675D01*
X038675Y003975D01*
X035175Y003175D02*
X035175Y002175D01*
X034175Y002175D02*
X034175Y003175D01*
X033175Y003175D02*
X033175Y002175D01*
X032175Y002175D02*
X032175Y003175D01*
X028925Y005975D02*
X027475Y007425D01*
X027475Y009175D01*
X027775Y009675D02*
X027775Y011575D01*
X027175Y012175D01*
X026175Y012175D02*
X025675Y012175D01*
X023675Y010175D01*
X021675Y010175D01*
X015925Y015925D01*
X013925Y015925D01*
X012175Y017675D01*
X012175Y018175D01*
X013175Y018175D02*
X013175Y017925D01*
X014925Y016175D01*
X016175Y016175D01*
X021675Y010675D01*
X023175Y010675D01*
X025675Y013175D01*
X026175Y013175D01*
X028175Y013925D02*
X028175Y010925D01*
X030175Y011475D02*
X030175Y016175D01*
X029675Y016675D02*
X029675Y017675D01*
X029175Y018175D01*
X028675Y018675D02*
X028675Y017675D01*
X029175Y017175D01*
X028675Y016775D02*
X028375Y017075D01*
X028375Y019075D01*
X028975Y019675D01*
X029675Y019675D01*
X029675Y018675D01*
X030175Y018175D01*
X030675Y018675D02*
X030675Y017675D01*
X031175Y017175D01*
X031675Y017375D02*
X031175Y017875D01*
X031175Y018175D01*
X030675Y018675D02*
X031175Y019175D01*
X030675Y019675D02*
X031775Y019675D01*
X031775Y017675D01*
X031975Y017475D01*
X031975Y010875D01*
X029475Y008375D01*
X028675Y008575D02*
X028675Y016775D01*
X029175Y016175D02*
X029675Y016675D01*
X030175Y017175D02*
X030675Y016675D01*
X030675Y013875D01*
X031175Y016175D02*
X031675Y016675D01*
X031675Y017375D01*
X032775Y018975D02*
X032775Y019775D01*
X033175Y020175D01*
X032175Y020175D02*
X032175Y019175D01*
X030675Y019675D02*
X030175Y019175D01*
X029175Y019175D02*
X028675Y018675D01*
X026175Y020175D02*
X026175Y021175D01*
X025175Y021175D02*
X025175Y020175D01*
X023175Y019175D02*
X021925Y020425D01*
X019925Y020425D01*
X019175Y021175D01*
X014575Y021175D02*
X014575Y019575D01*
X014175Y019175D01*
X013575Y019575D02*
X013575Y021175D01*
X012575Y021175D02*
X012575Y019575D01*
X012175Y019175D01*
X013175Y019175D02*
X013575Y019575D01*
X014175Y018175D02*
X014175Y017925D01*
X015675Y016425D01*
X016675Y016425D01*
X021975Y011125D01*
X024675Y009425D02*
X024675Y008175D01*
X023925Y007425D01*
X025175Y007175D02*
X025175Y010175D01*
X026175Y011175D01*
X030175Y011475D02*
X030575Y011075D01*
X028675Y008575D02*
X029925Y007325D01*
X025175Y007175D02*
X019575Y001575D01*
X014775Y001575D01*
X014175Y002175D01*
X018375Y005475D02*
X020175Y003675D01*
X020675Y003675D01*
X012675Y005675D02*
X010175Y005675D01*
X012675Y005675D02*
X012675Y012675D01*
X005675Y019675D01*
X005675Y021049D01*
X018175Y017175D02*
X018175Y016375D01*
X017975Y016175D01*
X019175Y016575D02*
X019175Y017175D01*
X019175Y016575D02*
X020975Y014775D01*
X037175Y017175D02*
X038175Y017175D01*
X038175Y018175D02*
X037175Y018175D01*
M02*
