G75*
G70*
%OFA0B0*%
%FSLAX24Y24*%
%IPPOS*%
%LPD*%
%AMOC8*
5,1,8,0,0,1.08239X$1,22.5*
%
%ADD10C,0.0000*%
%ADD11C,0.0740*%
%ADD12R,0.0740X0.0740*%
%ADD13C,0.0768*%
%ADD14OC8,0.0640*%
%ADD15C,0.1100*%
%ADD16C,0.0150*%
%ADD17C,0.0400*%
%ADD18C,0.0160*%
%ADD19C,0.0100*%
D10*
X001675Y001175D02*
X039675Y001175D01*
X039719Y001177D01*
X039762Y001183D01*
X039804Y001192D01*
X039846Y001205D01*
X039886Y001222D01*
X039925Y001242D01*
X039962Y001265D01*
X039996Y001292D01*
X040029Y001321D01*
X040058Y001354D01*
X040085Y001388D01*
X040108Y001425D01*
X040128Y001464D01*
X040145Y001504D01*
X040158Y001546D01*
X040167Y001588D01*
X040173Y001631D01*
X040175Y001675D01*
X040175Y021675D01*
X040173Y021719D01*
X040167Y021762D01*
X040158Y021804D01*
X040145Y021846D01*
X040128Y021886D01*
X040108Y021925D01*
X040085Y021962D01*
X040058Y021996D01*
X040029Y022029D01*
X039996Y022058D01*
X039962Y022085D01*
X039925Y022108D01*
X039886Y022128D01*
X039846Y022145D01*
X039804Y022158D01*
X039762Y022167D01*
X039719Y022173D01*
X039675Y022175D01*
X001675Y022175D01*
X001631Y022173D01*
X001588Y022167D01*
X001546Y022158D01*
X001504Y022145D01*
X001464Y022128D01*
X001425Y022108D01*
X001388Y022085D01*
X001354Y022058D01*
X001321Y022029D01*
X001292Y021996D01*
X001265Y021962D01*
X001242Y021925D01*
X001222Y021886D01*
X001205Y021846D01*
X001192Y021804D01*
X001183Y021762D01*
X001177Y021719D01*
X001175Y021675D01*
X001175Y001675D01*
X001177Y001631D01*
X001183Y001588D01*
X001192Y001546D01*
X001205Y001504D01*
X001222Y001464D01*
X001242Y001425D01*
X001265Y001388D01*
X001292Y001354D01*
X001321Y001321D01*
X001354Y001292D01*
X001388Y001265D01*
X001425Y001242D01*
X001464Y001222D01*
X001504Y001205D01*
X001546Y001192D01*
X001588Y001183D01*
X001631Y001177D01*
X001675Y001175D01*
X001834Y002425D02*
X001836Y002473D01*
X001842Y002521D01*
X001852Y002568D01*
X001865Y002614D01*
X001883Y002659D01*
X001903Y002703D01*
X001928Y002745D01*
X001956Y002784D01*
X001986Y002821D01*
X002020Y002855D01*
X002057Y002887D01*
X002095Y002916D01*
X002136Y002941D01*
X002179Y002963D01*
X002224Y002981D01*
X002270Y002995D01*
X002317Y003006D01*
X002365Y003013D01*
X002413Y003016D01*
X002461Y003015D01*
X002509Y003010D01*
X002557Y003001D01*
X002603Y002989D01*
X002648Y002972D01*
X002692Y002952D01*
X002734Y002929D01*
X002774Y002902D01*
X002812Y002872D01*
X002847Y002839D01*
X002879Y002803D01*
X002909Y002765D01*
X002935Y002724D01*
X002957Y002681D01*
X002977Y002637D01*
X002992Y002592D01*
X003004Y002545D01*
X003012Y002497D01*
X003016Y002449D01*
X003016Y002401D01*
X003012Y002353D01*
X003004Y002305D01*
X002992Y002258D01*
X002977Y002213D01*
X002957Y002169D01*
X002935Y002126D01*
X002909Y002085D01*
X002879Y002047D01*
X002847Y002011D01*
X002812Y001978D01*
X002774Y001948D01*
X002734Y001921D01*
X002692Y001898D01*
X002648Y001878D01*
X002603Y001861D01*
X002557Y001849D01*
X002509Y001840D01*
X002461Y001835D01*
X002413Y001834D01*
X002365Y001837D01*
X002317Y001844D01*
X002270Y001855D01*
X002224Y001869D01*
X002179Y001887D01*
X002136Y001909D01*
X002095Y001934D01*
X002057Y001963D01*
X002020Y001995D01*
X001986Y002029D01*
X001956Y002066D01*
X001928Y002105D01*
X001903Y002147D01*
X001883Y002191D01*
X001865Y002236D01*
X001852Y002282D01*
X001842Y002329D01*
X001836Y002377D01*
X001834Y002425D01*
X001834Y020925D02*
X001836Y020973D01*
X001842Y021021D01*
X001852Y021068D01*
X001865Y021114D01*
X001883Y021159D01*
X001903Y021203D01*
X001928Y021245D01*
X001956Y021284D01*
X001986Y021321D01*
X002020Y021355D01*
X002057Y021387D01*
X002095Y021416D01*
X002136Y021441D01*
X002179Y021463D01*
X002224Y021481D01*
X002270Y021495D01*
X002317Y021506D01*
X002365Y021513D01*
X002413Y021516D01*
X002461Y021515D01*
X002509Y021510D01*
X002557Y021501D01*
X002603Y021489D01*
X002648Y021472D01*
X002692Y021452D01*
X002734Y021429D01*
X002774Y021402D01*
X002812Y021372D01*
X002847Y021339D01*
X002879Y021303D01*
X002909Y021265D01*
X002935Y021224D01*
X002957Y021181D01*
X002977Y021137D01*
X002992Y021092D01*
X003004Y021045D01*
X003012Y020997D01*
X003016Y020949D01*
X003016Y020901D01*
X003012Y020853D01*
X003004Y020805D01*
X002992Y020758D01*
X002977Y020713D01*
X002957Y020669D01*
X002935Y020626D01*
X002909Y020585D01*
X002879Y020547D01*
X002847Y020511D01*
X002812Y020478D01*
X002774Y020448D01*
X002734Y020421D01*
X002692Y020398D01*
X002648Y020378D01*
X002603Y020361D01*
X002557Y020349D01*
X002509Y020340D01*
X002461Y020335D01*
X002413Y020334D01*
X002365Y020337D01*
X002317Y020344D01*
X002270Y020355D01*
X002224Y020369D01*
X002179Y020387D01*
X002136Y020409D01*
X002095Y020434D01*
X002057Y020463D01*
X002020Y020495D01*
X001986Y020529D01*
X001956Y020566D01*
X001928Y020605D01*
X001903Y020647D01*
X001883Y020691D01*
X001865Y020736D01*
X001852Y020782D01*
X001842Y020829D01*
X001836Y020877D01*
X001834Y020925D01*
D11*
X008575Y021175D03*
X009575Y021175D03*
X010575Y021175D03*
X011575Y021175D03*
X012575Y021175D03*
X013575Y021175D03*
X014575Y021175D03*
X015575Y021175D03*
X016575Y021175D03*
X017575Y021175D03*
X019175Y021175D03*
X020175Y021175D03*
X021175Y021175D03*
X022175Y021175D03*
X023175Y021175D03*
X024175Y021175D03*
X025175Y021175D03*
X026175Y021175D03*
X026175Y020175D03*
X025175Y020175D03*
X025175Y019175D03*
X024175Y019175D03*
X023175Y019175D03*
X020175Y017175D03*
X019175Y017175D03*
X018175Y017175D03*
X017175Y017175D03*
X016175Y017175D03*
X021675Y016175D03*
X021675Y015175D03*
X026175Y012175D03*
X027175Y012175D03*
X027175Y013175D03*
X027175Y011175D03*
X026175Y011175D03*
X027175Y016175D03*
X027175Y017175D03*
X027175Y018175D03*
X032175Y020175D03*
X033175Y020175D03*
X033175Y021175D03*
X034175Y021175D03*
X035175Y021175D03*
X032175Y021175D03*
X031175Y021175D03*
X030175Y021175D03*
X029175Y021175D03*
X028175Y021175D03*
X037175Y018175D03*
X037175Y017175D03*
X016175Y005175D03*
X014175Y005175D03*
X013175Y003175D03*
X013175Y002175D03*
X012175Y002175D03*
X014175Y002175D03*
X015175Y002175D03*
X016175Y002175D03*
X017175Y002175D03*
X018175Y002175D03*
X019175Y002175D03*
X021175Y002175D03*
X022175Y002175D03*
X023175Y002175D03*
X024175Y002175D03*
X025175Y002175D03*
X026175Y002175D03*
X027175Y002175D03*
X028175Y002175D03*
X030175Y002175D03*
X031175Y002175D03*
X032175Y002175D03*
X033175Y002175D03*
X034175Y002175D03*
X035175Y002175D03*
X036175Y002175D03*
X037175Y002175D03*
X035175Y003175D03*
X034175Y003175D03*
X033175Y003175D03*
X032175Y003175D03*
X031175Y004175D03*
X030175Y004175D03*
X039175Y003175D03*
X017175Y003175D03*
X016175Y003175D03*
X015175Y003175D03*
X009175Y002175D03*
X008175Y002175D03*
X007175Y002175D03*
X006175Y002175D03*
X005175Y002175D03*
X004175Y002175D03*
X005175Y004175D03*
X004425Y004675D03*
X005175Y005175D03*
D12*
X026175Y013175D03*
D13*
X005675Y013175D03*
X005675Y021049D03*
D14*
X012175Y019175D03*
X013175Y019175D03*
X014175Y019175D03*
X014175Y018175D03*
X013175Y018175D03*
X012175Y018175D03*
X016175Y018175D03*
X017175Y018175D03*
X018175Y018175D03*
X019175Y018175D03*
X020175Y018175D03*
X020175Y019175D03*
X019175Y019175D03*
X018175Y019175D03*
X017175Y019175D03*
X016175Y019175D03*
X029175Y019175D03*
X030175Y019175D03*
X031175Y019175D03*
X031175Y018175D03*
X030175Y018175D03*
X029175Y018175D03*
X029175Y017175D03*
X030175Y017175D03*
X031175Y017175D03*
X031175Y016175D03*
X030175Y016175D03*
X029175Y016175D03*
X038175Y016175D03*
X039175Y016175D03*
X039175Y017175D03*
X038175Y017175D03*
X038175Y018175D03*
X039175Y018175D03*
X039175Y019175D03*
X038175Y019175D03*
X038175Y020175D03*
X039175Y020175D03*
X039175Y021175D03*
X038175Y021175D03*
X038175Y015175D03*
X039175Y015175D03*
X039175Y014175D03*
X038175Y014175D03*
X038175Y013175D03*
X039175Y013175D03*
X039175Y012175D03*
X038175Y012175D03*
X038175Y011175D03*
X039175Y011175D03*
X039175Y010175D03*
X038175Y010175D03*
X038175Y009175D03*
X039175Y009175D03*
X039175Y008175D03*
X038175Y008175D03*
X038175Y007175D03*
X039175Y007175D03*
X039175Y006175D03*
X038175Y006175D03*
X038175Y005175D03*
X039175Y005175D03*
X039175Y004175D03*
X038175Y004175D03*
D15*
X004175Y008175D03*
X003175Y009175D03*
X002175Y008175D03*
X002175Y010175D03*
X004175Y010175D03*
D16*
X004175Y011675D01*
X005675Y013175D01*
X005728Y013204D02*
X011630Y013204D01*
X011482Y013352D02*
X006205Y013352D01*
X006193Y013390D02*
X006220Y013306D01*
X006232Y013228D01*
X005728Y013228D01*
X005728Y013122D01*
X006232Y013122D01*
X006220Y013044D01*
X006193Y012960D01*
X006153Y012882D01*
X006101Y012811D01*
X006039Y012749D01*
X005968Y012697D01*
X005890Y012657D01*
X005806Y012630D01*
X005728Y012618D01*
X005728Y013122D01*
X005622Y013122D01*
X005622Y012618D01*
X005544Y012630D01*
X005460Y012657D01*
X005382Y012697D01*
X005311Y012749D01*
X005249Y012811D01*
X005197Y012882D01*
X005157Y012960D01*
X005130Y013044D01*
X005118Y013122D01*
X005622Y013122D01*
X005622Y013228D01*
X005622Y013732D01*
X005544Y013720D01*
X005460Y013693D01*
X005382Y013653D01*
X005311Y013601D01*
X005249Y013539D01*
X005197Y013468D01*
X005157Y013390D01*
X005130Y013306D01*
X005118Y013228D01*
X005622Y013228D01*
X005728Y013228D01*
X005728Y013732D01*
X005806Y013720D01*
X005890Y013693D01*
X005968Y013653D01*
X006039Y013601D01*
X006101Y013539D01*
X006153Y013468D01*
X006193Y013390D01*
X006129Y013501D02*
X011333Y013501D01*
X011185Y013649D02*
X005973Y013649D01*
X005728Y013649D02*
X005622Y013649D01*
X005622Y013501D02*
X005728Y013501D01*
X005728Y013352D02*
X005622Y013352D01*
X005622Y013204D02*
X001490Y013204D01*
X001490Y013352D02*
X005145Y013352D01*
X005221Y013501D02*
X001490Y013501D01*
X001490Y013649D02*
X005377Y013649D01*
X005622Y013055D02*
X005728Y013055D01*
X005728Y012907D02*
X005622Y012907D01*
X005622Y012758D02*
X005728Y012758D01*
X006048Y012758D02*
X012076Y012758D01*
X012224Y012610D02*
X001490Y012610D01*
X001490Y012758D02*
X005302Y012758D01*
X005185Y012907D02*
X001490Y012907D01*
X001490Y013055D02*
X005128Y013055D01*
X005883Y012362D02*
X006073Y012440D01*
X006277Y012440D01*
X006467Y012362D01*
X006513Y012315D01*
X012003Y012315D01*
X012146Y012256D01*
X012256Y012146D01*
X012310Y012092D01*
X012310Y012524D01*
X005468Y019366D01*
X005366Y019468D01*
X005310Y019602D01*
X005310Y020444D01*
X005279Y020457D01*
X005083Y020653D01*
X004976Y020910D01*
X004976Y021188D01*
X005083Y021445D01*
X005279Y021641D01*
X005536Y021748D01*
X005814Y021748D01*
X006071Y021641D01*
X006267Y021445D01*
X006374Y021188D01*
X006374Y020910D01*
X006267Y020653D01*
X006071Y020457D01*
X006040Y020444D01*
X006040Y019826D01*
X007296Y018570D01*
X007285Y018597D01*
X007285Y021653D01*
X007344Y021796D01*
X007408Y021860D01*
X001675Y021860D01*
X001639Y021856D01*
X001572Y021829D01*
X001521Y021778D01*
X001494Y021711D01*
X001490Y021675D01*
X001490Y010416D01*
X001523Y010496D01*
X001571Y010579D01*
X001629Y010654D01*
X001696Y010721D01*
X001771Y010779D01*
X001854Y010827D01*
X001941Y010863D01*
X002033Y010888D01*
X002100Y010896D01*
X002100Y010250D01*
X002250Y010250D01*
X002250Y010896D01*
X002317Y010888D01*
X002409Y010863D01*
X002496Y010827D01*
X002579Y010779D01*
X002654Y010721D01*
X002721Y010654D01*
X002779Y010579D01*
X002827Y010496D01*
X002863Y010409D01*
X002888Y010317D01*
X002896Y010250D01*
X002250Y010250D01*
X002250Y010100D01*
X002896Y010100D01*
X002888Y010033D01*
X002875Y009987D01*
X003003Y010040D01*
X003347Y010040D01*
X003475Y009987D01*
X003462Y010033D01*
X003454Y010100D01*
X004100Y010100D01*
X004100Y010250D01*
X004100Y010896D01*
X004033Y010888D01*
X003941Y010863D01*
X003854Y010827D01*
X003771Y010779D01*
X003696Y010721D01*
X003629Y010654D01*
X003571Y010579D01*
X003523Y010496D01*
X003487Y010409D01*
X003462Y010317D01*
X003454Y010250D01*
X004100Y010250D01*
X004250Y010250D01*
X004250Y010896D01*
X004317Y010888D01*
X004409Y010863D01*
X004496Y010827D01*
X004579Y010779D01*
X004654Y010721D01*
X004721Y010654D01*
X004779Y010579D01*
X004827Y010496D01*
X004863Y010409D01*
X004888Y010317D01*
X004896Y010250D01*
X004250Y010250D01*
X004250Y010100D01*
X004896Y010100D01*
X004888Y010033D01*
X004863Y009941D01*
X004827Y009854D01*
X004779Y009771D01*
X004721Y009696D01*
X004654Y009629D01*
X004579Y009571D01*
X004496Y009523D01*
X004409Y009487D01*
X004317Y009462D01*
X004250Y009454D01*
X004250Y010100D01*
X004100Y010100D01*
X004100Y009454D01*
X004033Y009462D01*
X003987Y009475D01*
X004040Y009347D01*
X004040Y009003D01*
X003987Y008875D01*
X004033Y008888D01*
X004100Y008896D01*
X004100Y008250D01*
X004250Y008250D01*
X004250Y008896D01*
X004317Y008888D01*
X004409Y008863D01*
X004496Y008827D01*
X004579Y008779D01*
X004654Y008721D01*
X004721Y008654D01*
X004779Y008579D01*
X004827Y008496D01*
X004863Y008409D01*
X004888Y008317D01*
X004896Y008250D01*
X004250Y008250D01*
X004250Y008100D01*
X004896Y008100D01*
X004888Y008033D01*
X004863Y007941D01*
X004827Y007854D01*
X004779Y007771D01*
X004721Y007696D01*
X004654Y007629D01*
X004579Y007571D01*
X004496Y007523D01*
X004409Y007487D01*
X004317Y007462D01*
X004250Y007454D01*
X004250Y008100D01*
X004100Y008100D01*
X004100Y007454D01*
X004033Y007462D01*
X003941Y007487D01*
X003854Y007523D01*
X003771Y007571D01*
X003696Y007629D01*
X003629Y007696D01*
X003571Y007771D01*
X003523Y007854D01*
X003487Y007941D01*
X003462Y008033D01*
X003454Y008100D01*
X004100Y008100D01*
X004100Y008250D01*
X003454Y008250D01*
X003462Y008317D01*
X003475Y008363D01*
X003347Y008310D01*
X003003Y008310D01*
X002875Y008363D01*
X002888Y008317D01*
X002896Y008250D01*
X002250Y008250D01*
X002100Y008250D01*
X002100Y008896D01*
X002033Y008888D01*
X001941Y008863D01*
X001854Y008827D01*
X001771Y008779D01*
X001696Y008721D01*
X001629Y008654D01*
X001571Y008579D01*
X001523Y008496D01*
X001490Y008416D01*
X001490Y009934D01*
X001523Y009854D01*
X001571Y009771D01*
X001629Y009696D01*
X001696Y009629D01*
X001771Y009571D01*
X001854Y009523D01*
X001941Y009487D01*
X002033Y009462D01*
X002100Y009454D01*
X002100Y010100D01*
X002250Y010100D01*
X002250Y009454D01*
X002317Y009462D01*
X002363Y009475D01*
X002310Y009347D01*
X002310Y009003D01*
X002363Y008875D01*
X002317Y008888D01*
X002250Y008896D01*
X002250Y008250D01*
X002250Y008100D01*
X002896Y008100D01*
X002888Y008033D01*
X002863Y007941D01*
X002827Y007854D01*
X002779Y007771D01*
X002721Y007696D01*
X002654Y007629D01*
X002579Y007571D01*
X002496Y007523D01*
X002409Y007487D01*
X002317Y007462D01*
X002250Y007454D01*
X002250Y008100D01*
X002100Y008100D01*
X002100Y007454D01*
X002033Y007462D01*
X001941Y007487D01*
X001854Y007523D01*
X001771Y007571D01*
X001696Y007629D01*
X001629Y007696D01*
X001571Y007771D01*
X001523Y007854D01*
X001490Y007934D01*
X001490Y001675D01*
X001494Y001639D01*
X001521Y001572D01*
X001572Y001521D01*
X001639Y001494D01*
X001675Y001490D01*
X001738Y001490D01*
X003038Y001490D01*
X003035Y001497D01*
X003035Y001754D01*
X002938Y001657D01*
X002605Y001519D01*
X002245Y001519D01*
X001912Y001657D01*
X001657Y001912D01*
X001519Y002245D01*
X001519Y002605D01*
X001657Y002938D01*
X001912Y003193D01*
X002245Y003331D01*
X002605Y003331D01*
X002938Y003193D01*
X003035Y003096D01*
X003035Y006253D01*
X003094Y006396D01*
X003204Y006506D01*
X003704Y007006D01*
X003847Y007065D01*
X011263Y007065D01*
X011785Y007587D01*
X011785Y011513D01*
X011763Y011535D01*
X006513Y011535D01*
X006467Y011488D01*
X006277Y011410D01*
X006073Y011410D01*
X005883Y011488D01*
X005738Y011633D01*
X005660Y011823D01*
X005660Y012027D01*
X005738Y012217D01*
X005883Y012362D01*
X005834Y012313D02*
X001490Y012313D01*
X001490Y012461D02*
X012310Y012461D01*
X012310Y012313D02*
X012009Y012313D01*
X012238Y012164D02*
X012310Y012164D01*
X011925Y011925D02*
X006175Y011925D01*
X005703Y011719D02*
X001490Y011719D01*
X001490Y011867D02*
X005660Y011867D01*
X005660Y012016D02*
X001490Y012016D01*
X001490Y012164D02*
X005717Y012164D01*
X005802Y011570D02*
X001490Y011570D01*
X001490Y011422D02*
X006045Y011422D01*
X006305Y011422D02*
X011785Y011422D01*
X011785Y011273D02*
X001490Y011273D01*
X001490Y011125D02*
X011785Y011125D01*
X011785Y010976D02*
X001490Y010976D01*
X001490Y010828D02*
X001856Y010828D01*
X002100Y010828D02*
X002250Y010828D01*
X002250Y010679D02*
X002100Y010679D01*
X002100Y010531D02*
X002250Y010531D01*
X002250Y010382D02*
X002100Y010382D01*
X002250Y010234D02*
X004100Y010234D01*
X004100Y010382D02*
X004250Y010382D01*
X004250Y010234D02*
X011785Y010234D01*
X011785Y010382D02*
X004870Y010382D01*
X004807Y010531D02*
X011785Y010531D01*
X011785Y010679D02*
X004696Y010679D01*
X004494Y010828D02*
X011785Y010828D01*
X011785Y010085D02*
X004894Y010085D01*
X004861Y009937D02*
X011785Y009937D01*
X011785Y009788D02*
X004789Y009788D01*
X004665Y009640D02*
X011785Y009640D01*
X011785Y009491D02*
X004418Y009491D01*
X004250Y009491D02*
X004100Y009491D01*
X004100Y009640D02*
X004250Y009640D01*
X004250Y009788D02*
X004100Y009788D01*
X004100Y009937D02*
X004250Y009937D01*
X004250Y010085D02*
X004100Y010085D01*
X003456Y010085D02*
X002894Y010085D01*
X002870Y010382D02*
X003480Y010382D01*
X003543Y010531D02*
X002807Y010531D01*
X002696Y010679D02*
X003654Y010679D01*
X003856Y010828D02*
X002494Y010828D01*
X002175Y010175D02*
X002175Y008175D01*
X002250Y008155D02*
X004100Y008155D01*
X004100Y008303D02*
X004250Y008303D01*
X004250Y008155D02*
X011785Y008155D01*
X011785Y008303D02*
X004889Y008303D01*
X004845Y008452D02*
X011785Y008452D01*
X011785Y008600D02*
X004763Y008600D01*
X004619Y008749D02*
X011785Y008749D01*
X011785Y008897D02*
X003996Y008897D01*
X004040Y009046D02*
X011785Y009046D01*
X011785Y009194D02*
X004040Y009194D01*
X004040Y009343D02*
X011785Y009343D01*
X013565Y009343D02*
X020656Y009343D01*
X020507Y009491D02*
X013565Y009491D01*
X013565Y009640D02*
X020359Y009640D01*
X020210Y009788D02*
X013565Y009788D01*
X013565Y009937D02*
X020062Y009937D01*
X019913Y010085D02*
X013565Y010085D01*
X013565Y010234D02*
X019765Y010234D01*
X019616Y010382D02*
X013565Y010382D01*
X013565Y010531D02*
X019468Y010531D01*
X019319Y010679D02*
X013565Y010679D01*
X013565Y010828D02*
X019171Y010828D01*
X019022Y010976D02*
X013565Y010976D01*
X013565Y011125D02*
X018874Y011125D01*
X018725Y011273D02*
X013565Y011273D01*
X013565Y011422D02*
X018577Y011422D01*
X018428Y011570D02*
X013565Y011570D01*
X013565Y011719D02*
X018280Y011719D01*
X018131Y011867D02*
X013565Y011867D01*
X013565Y012016D02*
X017983Y012016D01*
X017834Y012164D02*
X013565Y012164D01*
X013565Y012313D02*
X017686Y012313D01*
X017537Y012461D02*
X013565Y012461D01*
X013565Y012610D02*
X017389Y012610D01*
X017240Y012758D02*
X013565Y012758D01*
X013565Y012907D02*
X017092Y012907D01*
X016943Y013055D02*
X013565Y013055D01*
X013565Y013204D02*
X016795Y013204D01*
X016646Y013352D02*
X013524Y013352D01*
X013506Y013396D02*
X013396Y013506D01*
X008065Y018837D01*
X008065Y020716D01*
X008187Y020594D01*
X008439Y020490D01*
X008711Y020490D01*
X008963Y020594D01*
X009075Y020706D01*
X009187Y020594D01*
X009439Y020490D01*
X009711Y020490D01*
X009963Y020594D01*
X010075Y020706D01*
X010187Y020594D01*
X010439Y020490D01*
X010711Y020490D01*
X010963Y020594D01*
X011156Y020787D01*
X011166Y020813D01*
X011220Y020759D01*
X011289Y020709D01*
X011366Y020670D01*
X011447Y020643D01*
X011532Y020630D01*
X011550Y020630D01*
X011550Y021150D01*
X011600Y021150D01*
X011600Y020630D01*
X011618Y020630D01*
X011703Y020643D01*
X011784Y020670D01*
X011861Y020709D01*
X011930Y020759D01*
X011984Y020813D01*
X011994Y020787D01*
X012187Y020594D01*
X012210Y020585D01*
X012210Y019810D01*
X011912Y019810D01*
X011540Y019438D01*
X011540Y018912D01*
X011777Y018675D01*
X011540Y018438D01*
X011540Y017912D01*
X011810Y017642D01*
X011810Y017602D01*
X011866Y017468D01*
X013718Y015616D01*
X013852Y015560D01*
X015774Y015560D01*
X021366Y009968D01*
X021468Y009866D01*
X021602Y009810D01*
X023748Y009810D01*
X023882Y009866D01*
X023984Y009968D01*
X025699Y011683D01*
X025706Y011675D01*
X025594Y011563D01*
X025490Y011311D01*
X025490Y011039D01*
X025500Y011016D01*
X024968Y010484D01*
X024866Y010382D01*
X024398Y010382D01*
X024250Y010234D02*
X024810Y010234D01*
X024810Y010248D02*
X024810Y009927D01*
X024777Y009940D01*
X024573Y009940D01*
X024383Y009862D01*
X024238Y009717D01*
X024160Y009527D01*
X024160Y009323D01*
X024173Y009290D01*
X024073Y009290D01*
X023883Y009212D01*
X023837Y009165D01*
X021997Y009165D01*
X021954Y009147D01*
X016040Y015062D01*
X016040Y015127D01*
X015962Y015317D01*
X015817Y015462D01*
X015627Y015540D01*
X015423Y015540D01*
X015233Y015462D01*
X015088Y015317D01*
X015010Y015127D01*
X015010Y014923D01*
X015088Y014733D01*
X015233Y014588D01*
X015423Y014510D01*
X015488Y014510D01*
X021584Y008414D01*
X021638Y008283D01*
X021685Y008237D01*
X021685Y005713D01*
X021638Y005667D01*
X021560Y005477D01*
X021560Y005273D01*
X021638Y005083D01*
X021783Y004938D01*
X021973Y004860D01*
X022177Y004860D01*
X022367Y004938D01*
X022512Y005083D01*
X022590Y005273D01*
X022590Y005477D01*
X022512Y005667D01*
X022465Y005713D01*
X022465Y008237D01*
X022512Y008283D01*
X022554Y008385D01*
X023837Y008385D01*
X023883Y008338D01*
X024073Y008260D01*
X024244Y008260D01*
X023924Y007940D01*
X023823Y007940D01*
X023633Y007862D01*
X023488Y007717D01*
X023410Y007527D01*
X023410Y007323D01*
X023488Y007133D01*
X023633Y006988D01*
X023823Y006910D01*
X024027Y006910D01*
X024217Y006988D01*
X024362Y007133D01*
X024440Y007323D01*
X024440Y007424D01*
X024810Y007794D01*
X024810Y007326D01*
X021190Y003706D01*
X021190Y003777D01*
X021112Y003967D01*
X020967Y004112D01*
X020777Y004190D01*
X020573Y004190D01*
X020383Y004112D01*
X020319Y004047D01*
X018890Y005476D01*
X018890Y005577D01*
X018812Y005767D01*
X018667Y005912D01*
X018477Y005990D01*
X018273Y005990D01*
X018083Y005912D01*
X017938Y005767D01*
X017860Y005577D01*
X017860Y005373D01*
X017938Y005183D01*
X018083Y005038D01*
X018273Y004960D01*
X018374Y004960D01*
X019866Y003468D01*
X019968Y003366D01*
X020102Y003310D01*
X020312Y003310D01*
X020383Y003238D01*
X020573Y003160D01*
X020644Y003160D01*
X019841Y002357D01*
X019756Y002563D01*
X019563Y002756D01*
X019311Y002860D01*
X019039Y002860D01*
X018787Y002756D01*
X018594Y002563D01*
X018584Y002537D01*
X018530Y002591D01*
X018461Y002641D01*
X018384Y002680D01*
X018303Y002707D01*
X018218Y002720D01*
X018200Y002720D01*
X018200Y002200D01*
X018150Y002200D01*
X018150Y002720D01*
X018132Y002720D01*
X018047Y002707D01*
X017966Y002680D01*
X017889Y002641D01*
X017820Y002591D01*
X017759Y002530D01*
X017709Y002461D01*
X017675Y002394D01*
X017641Y002461D01*
X017591Y002530D01*
X017530Y002591D01*
X017461Y002641D01*
X017394Y002675D01*
X017461Y002709D01*
X017530Y002759D01*
X017591Y002820D01*
X017641Y002889D01*
X017680Y002966D01*
X017707Y003047D01*
X017720Y003132D01*
X017720Y003150D01*
X017200Y003150D01*
X017200Y003200D01*
X017150Y003200D01*
X017150Y003720D01*
X017132Y003720D01*
X017047Y003707D01*
X016966Y003680D01*
X016889Y003641D01*
X016820Y003591D01*
X016766Y003537D01*
X016756Y003563D01*
X016564Y003755D01*
X016506Y003896D01*
X016396Y004006D01*
X015822Y004580D01*
X016039Y004490D01*
X016311Y004490D01*
X016563Y004594D01*
X016756Y004787D01*
X016860Y005039D01*
X016860Y005311D01*
X016756Y005563D01*
X016563Y005756D01*
X016311Y005860D01*
X016039Y005860D01*
X015787Y005756D01*
X015594Y005563D01*
X015565Y005492D01*
X015565Y006253D01*
X015506Y006396D01*
X015396Y006506D01*
X015253Y006565D01*
X013565Y006565D01*
X013565Y013253D01*
X013506Y013396D01*
X013401Y013501D02*
X016498Y013501D01*
X016349Y013649D02*
X013253Y013649D01*
X013104Y013798D02*
X016201Y013798D01*
X016052Y013946D02*
X012956Y013946D01*
X012807Y014095D02*
X015904Y014095D01*
X015755Y014243D02*
X012659Y014243D01*
X012510Y014392D02*
X015607Y014392D01*
X015350Y014540D02*
X012362Y014540D01*
X012213Y014689D02*
X015133Y014689D01*
X015045Y014837D02*
X012065Y014837D01*
X011916Y014986D02*
X015010Y014986D01*
X015013Y015134D02*
X011768Y015134D01*
X011619Y015283D02*
X015074Y015283D01*
X015203Y015431D02*
X011471Y015431D01*
X011322Y015580D02*
X013805Y015580D01*
X013606Y015728D02*
X011174Y015728D01*
X011025Y015877D02*
X013457Y015877D01*
X013309Y016025D02*
X010877Y016025D01*
X010728Y016174D02*
X013160Y016174D01*
X013012Y016322D02*
X010580Y016322D01*
X010431Y016471D02*
X012863Y016471D01*
X012715Y016619D02*
X010283Y016619D01*
X010134Y016768D02*
X012566Y016768D01*
X012418Y016916D02*
X009986Y016916D01*
X009837Y017065D02*
X012269Y017065D01*
X012121Y017213D02*
X009689Y017213D01*
X009540Y017362D02*
X011972Y017362D01*
X011848Y017510D02*
X009392Y017510D01*
X009243Y017659D02*
X011793Y017659D01*
X011645Y017807D02*
X009095Y017807D01*
X008946Y017956D02*
X011540Y017956D01*
X011540Y018104D02*
X008798Y018104D01*
X008649Y018253D02*
X011540Y018253D01*
X011540Y018401D02*
X008501Y018401D01*
X008352Y018550D02*
X011652Y018550D01*
X011754Y018698D02*
X008204Y018698D01*
X008065Y018847D02*
X011605Y018847D01*
X011540Y018995D02*
X008065Y018995D01*
X008065Y019144D02*
X011540Y019144D01*
X011540Y019292D02*
X008065Y019292D01*
X008065Y019441D02*
X011543Y019441D01*
X011691Y019589D02*
X008065Y019589D01*
X008065Y019738D02*
X011840Y019738D01*
X012210Y019886D02*
X008065Y019886D01*
X008065Y020035D02*
X012210Y020035D01*
X012210Y020183D02*
X008065Y020183D01*
X008065Y020332D02*
X012210Y020332D01*
X012210Y020480D02*
X008065Y020480D01*
X008065Y020629D02*
X008153Y020629D01*
X008997Y020629D02*
X009153Y020629D01*
X009997Y020629D02*
X010153Y020629D01*
X010997Y020629D02*
X012153Y020629D01*
X012004Y020777D02*
X011948Y020777D01*
X011600Y020777D02*
X011550Y020777D01*
X011550Y020926D02*
X011600Y020926D01*
X011600Y021074D02*
X011550Y021074D01*
X011202Y020777D02*
X011146Y020777D01*
X007875Y021775D02*
X027175Y021775D01*
X038175Y021775D01*
X038175Y021175D01*
X037540Y021223D02*
X035860Y021223D01*
X035860Y021311D02*
X035860Y021039D01*
X035756Y020787D01*
X035563Y020594D01*
X035311Y020490D01*
X035039Y020490D01*
X034787Y020594D01*
X034675Y020706D01*
X034563Y020594D01*
X034311Y020490D01*
X034039Y020490D01*
X033787Y020594D01*
X033675Y020706D01*
X033644Y020675D01*
X033756Y020563D01*
X033860Y020311D01*
X033860Y020039D01*
X033851Y020018D01*
X033867Y020012D01*
X034012Y019867D01*
X034090Y019677D01*
X034090Y019612D01*
X035285Y018417D01*
X035285Y019060D01*
X035273Y019060D01*
X035083Y019138D01*
X034938Y019283D01*
X034860Y019473D01*
X034860Y019677D01*
X034938Y019867D01*
X035083Y020012D01*
X035273Y020090D01*
X035477Y020090D01*
X035667Y020012D01*
X035812Y019867D01*
X035890Y019677D01*
X035890Y019612D01*
X035896Y019606D01*
X036006Y019496D01*
X036065Y019353D01*
X036065Y013013D01*
X036112Y012967D01*
X036190Y012777D01*
X036190Y012573D01*
X036112Y012383D01*
X036065Y012337D01*
X036065Y011413D01*
X036112Y011367D01*
X036190Y011177D01*
X036190Y010973D01*
X036112Y010783D01*
X036065Y010737D01*
X036065Y007613D01*
X036112Y007567D01*
X036190Y007377D01*
X036190Y007173D01*
X036112Y006983D01*
X035967Y006838D01*
X035777Y006760D01*
X035573Y006760D01*
X035383Y006838D01*
X035238Y006983D01*
X035160Y007173D01*
X035160Y007377D01*
X035238Y007567D01*
X035285Y007613D01*
X035285Y010685D01*
X034647Y010685D01*
X034504Y010744D01*
X034394Y010854D01*
X034094Y011154D01*
X034035Y011297D01*
X034035Y015163D01*
X034027Y015160D01*
X033823Y015160D01*
X033633Y015238D01*
X033488Y015383D01*
X033410Y015573D01*
X033410Y015777D01*
X033488Y015967D01*
X033633Y016112D01*
X033823Y016190D01*
X034027Y016190D01*
X034217Y016112D01*
X034271Y016057D01*
X034396Y016006D01*
X034506Y015896D01*
X034646Y015756D01*
X034756Y015646D01*
X034760Y015635D01*
X034760Y015677D01*
X034785Y015738D01*
X034785Y017813D01*
X033538Y019060D01*
X033473Y019060D01*
X033283Y019138D01*
X033252Y019170D01*
X033290Y019077D01*
X033290Y018873D01*
X033212Y018683D01*
X033067Y018538D01*
X032877Y018460D01*
X032673Y018460D01*
X032483Y018538D01*
X032338Y018683D01*
X032338Y018685D01*
X032277Y018660D01*
X032140Y018660D01*
X032140Y017826D01*
X032182Y017784D01*
X032284Y017682D01*
X032340Y017548D01*
X032340Y010802D01*
X032284Y010668D01*
X029990Y008374D01*
X029990Y008273D01*
X029912Y008083D01*
X029797Y007969D01*
X029926Y007840D01*
X030027Y007840D01*
X030217Y007762D01*
X030362Y007617D01*
X030440Y007427D01*
X030440Y007223D01*
X030362Y007033D01*
X030217Y006888D01*
X030083Y006833D01*
X030876Y006040D01*
X035248Y006040D01*
X035382Y005984D01*
X036176Y005190D01*
X036312Y005190D01*
X036383Y005262D01*
X036573Y005340D01*
X036777Y005340D01*
X036967Y005262D01*
X037112Y005117D01*
X037190Y004927D01*
X037190Y004723D01*
X037112Y004533D01*
X036967Y004388D01*
X036777Y004310D01*
X036573Y004310D01*
X036383Y004388D01*
X036312Y004460D01*
X035952Y004460D01*
X035818Y004516D01*
X035716Y004618D01*
X035024Y005310D01*
X030652Y005310D01*
X030518Y005366D01*
X027840Y008044D01*
X027840Y007576D01*
X028926Y006490D01*
X029027Y006490D01*
X029217Y006412D01*
X029362Y006267D01*
X029440Y006077D01*
X029440Y005873D01*
X029362Y005683D01*
X029217Y005538D01*
X029027Y005460D01*
X028823Y005460D01*
X028633Y005538D01*
X028488Y005683D01*
X028410Y005873D01*
X028410Y005974D01*
X027268Y007116D01*
X027166Y007218D01*
X027110Y007352D01*
X027110Y008812D01*
X027038Y008883D01*
X026960Y009073D01*
X026960Y009277D01*
X027038Y009467D01*
X027183Y009612D01*
X027260Y009643D01*
X027260Y009777D01*
X027338Y009967D01*
X027410Y010038D01*
X027410Y010683D01*
X027384Y010670D01*
X027303Y010643D01*
X027218Y010630D01*
X027200Y010630D01*
X027200Y011150D01*
X027150Y011150D01*
X027150Y010630D01*
X027132Y010630D01*
X027047Y010643D01*
X026966Y010670D01*
X026889Y010709D01*
X026820Y010759D01*
X026766Y010813D01*
X026756Y010787D01*
X026563Y010594D01*
X026311Y010490D01*
X026039Y010490D01*
X026016Y010500D01*
X025540Y010024D01*
X025540Y007102D01*
X025484Y006968D01*
X025382Y006866D01*
X021357Y002841D01*
X021563Y002756D01*
X021675Y002644D01*
X021787Y002756D01*
X022039Y002860D01*
X022311Y002860D01*
X022563Y002756D01*
X022675Y002644D01*
X022787Y002756D01*
X023039Y002860D01*
X023311Y002860D01*
X023563Y002756D01*
X023675Y002644D01*
X023787Y002756D01*
X024039Y002860D01*
X024311Y002860D01*
X024563Y002756D01*
X024675Y002644D01*
X024787Y002756D01*
X025039Y002860D01*
X025311Y002860D01*
X025563Y002756D01*
X025675Y002644D01*
X025787Y002756D01*
X026039Y002860D01*
X026311Y002860D01*
X026563Y002756D01*
X026675Y002644D01*
X026787Y002756D01*
X027039Y002860D01*
X027311Y002860D01*
X027563Y002756D01*
X027675Y002644D01*
X027787Y002756D01*
X028039Y002860D01*
X028311Y002860D01*
X028563Y002756D01*
X028756Y002563D01*
X028860Y002311D01*
X028860Y002039D01*
X028756Y001787D01*
X028563Y001594D01*
X028311Y001490D01*
X028039Y001490D01*
X027787Y001594D01*
X027675Y001706D01*
X027563Y001594D01*
X027311Y001490D01*
X027039Y001490D01*
X026787Y001594D01*
X026675Y001706D01*
X026563Y001594D01*
X026311Y001490D01*
X026039Y001490D01*
X025787Y001594D01*
X025675Y001706D01*
X025563Y001594D01*
X025311Y001490D01*
X025039Y001490D01*
X024787Y001594D01*
X024675Y001706D01*
X024563Y001594D01*
X024311Y001490D01*
X024039Y001490D01*
X023787Y001594D01*
X023675Y001706D01*
X023563Y001594D01*
X023311Y001490D01*
X023039Y001490D01*
X022787Y001594D01*
X022675Y001706D01*
X022563Y001594D01*
X022311Y001490D01*
X022039Y001490D01*
X021787Y001594D01*
X021675Y001706D01*
X021563Y001594D01*
X021311Y001490D01*
X021039Y001490D01*
X020787Y001594D01*
X020594Y001787D01*
X020509Y001993D01*
X020006Y001490D01*
X039675Y001490D01*
X039711Y001494D01*
X039778Y001521D01*
X039829Y001572D01*
X039856Y001639D01*
X039860Y001675D01*
X039860Y021675D01*
X039856Y021711D01*
X039829Y021778D01*
X039778Y021829D01*
X039711Y021856D01*
X039675Y021860D01*
X038562Y021860D01*
X038565Y021853D01*
X038565Y021683D01*
X038675Y021573D01*
X038912Y021810D01*
X039438Y021810D01*
X039810Y021438D01*
X039810Y020912D01*
X039573Y020675D01*
X039810Y020438D01*
X039810Y019912D01*
X039573Y019675D01*
X039810Y019438D01*
X039810Y018912D01*
X039573Y018675D01*
X039810Y018438D01*
X039810Y017912D01*
X039573Y017675D01*
X039810Y017438D01*
X039810Y016912D01*
X039573Y016675D01*
X039810Y016438D01*
X039810Y015912D01*
X039573Y015675D01*
X039810Y015438D01*
X039810Y014912D01*
X039573Y014675D01*
X039810Y014438D01*
X039810Y013912D01*
X039573Y013675D01*
X039810Y013438D01*
X039810Y012912D01*
X039573Y012675D01*
X039810Y012438D01*
X039810Y011912D01*
X039573Y011675D01*
X039810Y011438D01*
X039810Y010912D01*
X039573Y010675D01*
X039810Y010438D01*
X039810Y009912D01*
X039573Y009675D01*
X039810Y009438D01*
X039810Y008912D01*
X039573Y008675D01*
X039810Y008438D01*
X039810Y007912D01*
X039573Y007675D01*
X039810Y007438D01*
X039810Y006912D01*
X039573Y006675D01*
X039810Y006438D01*
X039810Y005912D01*
X039573Y005675D01*
X039810Y005438D01*
X039810Y004912D01*
X039474Y004576D01*
X039670Y004380D01*
X039670Y004200D01*
X039200Y004200D01*
X039200Y004150D01*
X039670Y004150D01*
X039670Y003970D01*
X039381Y003681D01*
X039384Y003680D01*
X039461Y003641D01*
X039530Y003591D01*
X039591Y003530D01*
X039641Y003461D01*
X039680Y003384D01*
X039707Y003303D01*
X039720Y003218D01*
X039720Y003200D01*
X039200Y003200D01*
X039150Y003200D01*
X039150Y003680D01*
X039150Y004150D01*
X039200Y004150D01*
X039200Y003200D01*
X039200Y003150D01*
X039720Y003150D01*
X039720Y003132D01*
X039707Y003047D01*
X039680Y002966D01*
X039641Y002889D01*
X039591Y002820D01*
X039530Y002759D01*
X039461Y002709D01*
X039384Y002670D01*
X039303Y002643D01*
X039218Y002630D01*
X039200Y002630D01*
X039200Y003150D01*
X039150Y003150D01*
X039150Y002630D01*
X039132Y002630D01*
X039047Y002643D01*
X038966Y002670D01*
X038889Y002709D01*
X038820Y002759D01*
X038759Y002820D01*
X038709Y002889D01*
X038670Y002966D01*
X038643Y003047D01*
X038630Y003132D01*
X038630Y003150D01*
X039150Y003150D01*
X039150Y003200D01*
X038630Y003200D01*
X038630Y003218D01*
X038643Y003303D01*
X038670Y003384D01*
X038709Y003461D01*
X038759Y003530D01*
X038820Y003591D01*
X038889Y003641D01*
X038966Y003680D01*
X038969Y003681D01*
X038933Y003717D01*
X038482Y003266D01*
X038348Y003210D01*
X035952Y003210D01*
X035860Y003248D01*
X035860Y003039D01*
X035756Y002787D01*
X035644Y002675D01*
X035675Y002644D01*
X035787Y002756D01*
X036039Y002860D01*
X036311Y002860D01*
X036563Y002756D01*
X036675Y002644D01*
X036787Y002756D01*
X037039Y002860D01*
X037311Y002860D01*
X037563Y002756D01*
X037756Y002563D01*
X037860Y002311D01*
X037860Y002039D01*
X037756Y001787D01*
X037563Y001594D01*
X037311Y001490D01*
X037039Y001490D01*
X036787Y001594D01*
X036675Y001706D01*
X036563Y001594D01*
X036311Y001490D01*
X036039Y001490D01*
X035787Y001594D01*
X035675Y001706D01*
X035563Y001594D01*
X035311Y001490D01*
X035039Y001490D01*
X034787Y001594D01*
X034675Y001706D01*
X034563Y001594D01*
X034311Y001490D01*
X034039Y001490D01*
X033787Y001594D01*
X033675Y001706D01*
X033563Y001594D01*
X033311Y001490D01*
X033039Y001490D01*
X032787Y001594D01*
X032675Y001706D01*
X032563Y001594D01*
X032311Y001490D01*
X032039Y001490D01*
X031787Y001594D01*
X031675Y001706D01*
X031563Y001594D01*
X031311Y001490D01*
X031039Y001490D01*
X030787Y001594D01*
X030675Y001706D01*
X030563Y001594D01*
X030311Y001490D01*
X030039Y001490D01*
X029787Y001594D01*
X029594Y001787D01*
X029490Y002039D01*
X029490Y002311D01*
X029594Y002563D01*
X029787Y002756D01*
X030039Y002860D01*
X030311Y002860D01*
X030563Y002756D01*
X030675Y002644D01*
X030787Y002756D01*
X031039Y002860D01*
X031311Y002860D01*
X031563Y002756D01*
X031675Y002644D01*
X031706Y002675D01*
X031594Y002787D01*
X031490Y003039D01*
X031490Y003311D01*
X031594Y003563D01*
X031787Y003756D01*
X032039Y003860D01*
X032311Y003860D01*
X032563Y003756D01*
X032675Y003644D01*
X032787Y003756D01*
X033039Y003860D01*
X033311Y003860D01*
X033563Y003756D01*
X033675Y003644D01*
X033787Y003756D01*
X034039Y003860D01*
X034311Y003860D01*
X034563Y003756D01*
X034675Y003644D01*
X034787Y003756D01*
X035039Y003860D01*
X035224Y003860D01*
X034524Y004560D01*
X031757Y004560D01*
X031860Y004311D01*
X031860Y004039D01*
X031756Y003787D01*
X031563Y003594D01*
X031311Y003490D01*
X031039Y003490D01*
X030787Y003594D01*
X030675Y003706D01*
X030563Y003594D01*
X030311Y003490D01*
X030039Y003490D01*
X029787Y003594D01*
X029594Y003787D01*
X029490Y004039D01*
X029490Y004311D01*
X029593Y004560D01*
X027752Y004560D01*
X027618Y004616D01*
X027516Y004718D01*
X027516Y004718D01*
X026116Y006118D01*
X026060Y006252D01*
X026060Y009498D01*
X026116Y009632D01*
X026218Y009734D01*
X026218Y009734D01*
X026253Y009769D01*
X026238Y009783D01*
X026160Y009973D01*
X026160Y010177D01*
X026238Y010367D01*
X026383Y010512D01*
X026573Y010590D01*
X026777Y010590D01*
X026967Y010512D01*
X027112Y010367D01*
X027190Y010177D01*
X027190Y009973D01*
X027112Y009783D01*
X027040Y009712D01*
X027040Y009602D01*
X026984Y009468D01*
X026790Y009274D01*
X026790Y006476D01*
X027976Y005290D01*
X034748Y005290D01*
X034882Y005234D01*
X036176Y003940D01*
X037710Y003940D01*
X037680Y003970D01*
X037680Y004150D01*
X038150Y004150D01*
X038150Y004200D01*
X037680Y004200D01*
X037680Y004380D01*
X037876Y004576D01*
X037540Y004912D01*
X037540Y005438D01*
X037777Y005675D01*
X037540Y005912D01*
X037540Y006438D01*
X037777Y006675D01*
X037540Y006912D01*
X037540Y007438D01*
X037777Y007675D01*
X037540Y007912D01*
X037540Y008438D01*
X037777Y008675D01*
X037540Y008912D01*
X037540Y009438D01*
X037777Y009675D01*
X037540Y009912D01*
X037540Y010438D01*
X037777Y010675D01*
X037540Y010912D01*
X037540Y011438D01*
X037777Y011675D01*
X037540Y011912D01*
X037540Y012438D01*
X037777Y012675D01*
X037540Y012912D01*
X037540Y013438D01*
X037777Y013675D01*
X037540Y013912D01*
X037540Y014438D01*
X037777Y014675D01*
X037540Y014912D01*
X037540Y015438D01*
X037777Y015675D01*
X037540Y015912D01*
X037540Y016438D01*
X037777Y016675D01*
X037710Y016742D01*
X037563Y016594D01*
X037311Y016490D01*
X037039Y016490D01*
X036787Y016594D01*
X036594Y016787D01*
X036490Y017039D01*
X036490Y017311D01*
X036594Y017563D01*
X036706Y017675D01*
X036594Y017787D01*
X036490Y018039D01*
X036490Y018311D01*
X036594Y018563D01*
X036787Y018756D01*
X037039Y018860D01*
X037311Y018860D01*
X037563Y018756D01*
X037710Y018608D01*
X037777Y018675D01*
X037540Y018912D01*
X037540Y019438D01*
X037777Y019675D01*
X037540Y019912D01*
X037540Y020438D01*
X037777Y020675D01*
X037540Y020912D01*
X037540Y021385D01*
X035829Y021385D01*
X035860Y021311D01*
X035835Y021371D02*
X037540Y021371D01*
X037540Y021074D02*
X035860Y021074D01*
X035813Y020926D02*
X037540Y020926D01*
X037675Y020777D02*
X035746Y020777D01*
X035597Y020629D02*
X037731Y020629D01*
X037582Y020480D02*
X033790Y020480D01*
X033753Y020629D02*
X033690Y020629D01*
X033852Y020332D02*
X037540Y020332D01*
X037540Y020183D02*
X033860Y020183D01*
X033858Y020035D02*
X035139Y020035D01*
X034958Y019886D02*
X033992Y019886D01*
X034065Y019738D02*
X034885Y019738D01*
X034860Y019589D02*
X034113Y019589D01*
X034261Y019441D02*
X034873Y019441D01*
X034935Y019292D02*
X034410Y019292D01*
X034558Y019144D02*
X035078Y019144D01*
X035285Y018995D02*
X034707Y018995D01*
X034855Y018847D02*
X035285Y018847D01*
X035285Y018698D02*
X035004Y018698D01*
X035152Y018550D02*
X035285Y018550D01*
X036065Y018550D02*
X036589Y018550D01*
X036527Y018401D02*
X036065Y018401D01*
X036065Y018253D02*
X036490Y018253D01*
X036490Y018104D02*
X036065Y018104D01*
X036065Y017956D02*
X036524Y017956D01*
X036586Y017807D02*
X036065Y017807D01*
X036065Y017659D02*
X036690Y017659D01*
X036572Y017510D02*
X036065Y017510D01*
X036065Y017362D02*
X036511Y017362D01*
X036490Y017213D02*
X036065Y017213D01*
X036065Y017065D02*
X036490Y017065D01*
X036541Y016916D02*
X036065Y016916D01*
X036065Y016768D02*
X036614Y016768D01*
X036762Y016619D02*
X036065Y016619D01*
X036065Y016471D02*
X037573Y016471D01*
X037588Y016619D02*
X037721Y016619D01*
X037540Y016322D02*
X036065Y016322D01*
X036065Y016174D02*
X037540Y016174D01*
X037540Y016025D02*
X036065Y016025D01*
X036065Y015877D02*
X037575Y015877D01*
X037724Y015728D02*
X036065Y015728D01*
X036065Y015580D02*
X037681Y015580D01*
X037540Y015431D02*
X036065Y015431D01*
X036065Y015283D02*
X037540Y015283D01*
X037540Y015134D02*
X036065Y015134D01*
X036065Y014986D02*
X037540Y014986D01*
X037615Y014837D02*
X036065Y014837D01*
X036065Y014689D02*
X037763Y014689D01*
X037642Y014540D02*
X036065Y014540D01*
X036065Y014392D02*
X037540Y014392D01*
X037540Y014243D02*
X036065Y014243D01*
X036065Y014095D02*
X037540Y014095D01*
X037540Y013946D02*
X036065Y013946D01*
X036065Y013798D02*
X037654Y013798D01*
X037751Y013649D02*
X036065Y013649D01*
X036065Y013501D02*
X037602Y013501D01*
X037540Y013352D02*
X036065Y013352D01*
X036065Y013204D02*
X037540Y013204D01*
X037540Y013055D02*
X036065Y013055D01*
X036137Y012907D02*
X037545Y012907D01*
X037694Y012758D02*
X036190Y012758D01*
X036190Y012610D02*
X037711Y012610D01*
X037563Y012461D02*
X036144Y012461D01*
X036065Y012313D02*
X037540Y012313D01*
X037540Y012164D02*
X036065Y012164D01*
X036065Y012016D02*
X037540Y012016D01*
X037585Y011867D02*
X036065Y011867D01*
X036065Y011719D02*
X037733Y011719D01*
X037672Y011570D02*
X036065Y011570D01*
X036065Y011422D02*
X037540Y011422D01*
X037540Y011273D02*
X036150Y011273D01*
X036190Y011125D02*
X037540Y011125D01*
X037540Y010976D02*
X036190Y010976D01*
X036130Y010828D02*
X037624Y010828D01*
X037773Y010679D02*
X036065Y010679D01*
X036065Y010531D02*
X037632Y010531D01*
X037540Y010382D02*
X036065Y010382D01*
X036065Y010234D02*
X037540Y010234D01*
X037540Y010085D02*
X036065Y010085D01*
X036065Y009937D02*
X037540Y009937D01*
X037664Y009788D02*
X036065Y009788D01*
X036065Y009640D02*
X037741Y009640D01*
X037593Y009491D02*
X036065Y009491D01*
X036065Y009343D02*
X037540Y009343D01*
X037540Y009194D02*
X036065Y009194D01*
X036065Y009046D02*
X037540Y009046D01*
X037555Y008897D02*
X036065Y008897D01*
X036065Y008749D02*
X037703Y008749D01*
X037702Y008600D02*
X036065Y008600D01*
X036065Y008452D02*
X037553Y008452D01*
X037540Y008303D02*
X036065Y008303D01*
X036065Y008155D02*
X037540Y008155D01*
X037540Y008006D02*
X036065Y008006D01*
X036075Y008075D02*
X036075Y006375D01*
X036025Y006325D01*
X038175Y004175D01*
X037680Y004145D02*
X035971Y004145D01*
X035823Y004294D02*
X037680Y004294D01*
X037742Y004442D02*
X037020Y004442D01*
X037135Y004591D02*
X037861Y004591D01*
X037713Y004739D02*
X037190Y004739D01*
X037190Y004888D02*
X037564Y004888D01*
X037540Y005036D02*
X037145Y005036D01*
X037044Y005185D02*
X037540Y005185D01*
X037540Y005333D02*
X036794Y005333D01*
X036556Y005333D02*
X036033Y005333D01*
X035885Y005482D02*
X037583Y005482D01*
X037732Y005630D02*
X035736Y005630D01*
X035588Y005779D02*
X037673Y005779D01*
X037540Y005927D02*
X035439Y005927D01*
X036025Y006325D02*
X035675Y006675D01*
X035917Y006818D02*
X037634Y006818D01*
X037540Y006967D02*
X036095Y006967D01*
X036166Y007115D02*
X037540Y007115D01*
X037540Y007264D02*
X036190Y007264D01*
X036176Y007412D02*
X037540Y007412D01*
X037662Y007561D02*
X036114Y007561D01*
X036065Y007709D02*
X037743Y007709D01*
X037594Y007858D02*
X036065Y007858D01*
X035675Y007275D02*
X035675Y011075D01*
X034725Y011075D01*
X034425Y011375D01*
X034425Y015425D01*
X034175Y015675D01*
X033925Y015675D01*
X033547Y016025D02*
X032340Y016025D01*
X032340Y015877D02*
X033451Y015877D01*
X033410Y015728D02*
X032340Y015728D01*
X032340Y015580D02*
X033410Y015580D01*
X033469Y015431D02*
X032340Y015431D01*
X032340Y015283D02*
X033589Y015283D01*
X034035Y015134D02*
X032340Y015134D01*
X032340Y014986D02*
X034035Y014986D01*
X034035Y014837D02*
X032340Y014837D01*
X032340Y014689D02*
X034035Y014689D01*
X034035Y014540D02*
X032340Y014540D01*
X032340Y014392D02*
X034035Y014392D01*
X034035Y014243D02*
X032340Y014243D01*
X032340Y014095D02*
X034035Y014095D01*
X034035Y013946D02*
X032340Y013946D01*
X032340Y013798D02*
X034035Y013798D01*
X034035Y013649D02*
X032340Y013649D01*
X032340Y013501D02*
X034035Y013501D01*
X034035Y013352D02*
X032340Y013352D01*
X032340Y013204D02*
X034035Y013204D01*
X034035Y013055D02*
X032340Y013055D01*
X032340Y012907D02*
X034035Y012907D01*
X034035Y012758D02*
X032340Y012758D01*
X032340Y012610D02*
X034035Y012610D01*
X034035Y012461D02*
X032340Y012461D01*
X032340Y012313D02*
X034035Y012313D01*
X034035Y012164D02*
X032340Y012164D01*
X032340Y012016D02*
X034035Y012016D01*
X034035Y011867D02*
X032340Y011867D01*
X032340Y011719D02*
X034035Y011719D01*
X034035Y011570D02*
X032340Y011570D01*
X032340Y011422D02*
X034035Y011422D01*
X034045Y011273D02*
X032340Y011273D01*
X032340Y011125D02*
X034124Y011125D01*
X034272Y010976D02*
X032340Y010976D01*
X032340Y010828D02*
X034421Y010828D01*
X035285Y010679D02*
X032289Y010679D01*
X032147Y010531D02*
X035285Y010531D01*
X035285Y010382D02*
X031998Y010382D01*
X031850Y010234D02*
X035285Y010234D01*
X035285Y010085D02*
X031701Y010085D01*
X031553Y009937D02*
X035285Y009937D01*
X035285Y009788D02*
X031404Y009788D01*
X031256Y009640D02*
X035285Y009640D01*
X035285Y009491D02*
X031107Y009491D01*
X030959Y009343D02*
X035285Y009343D01*
X035285Y009194D02*
X030810Y009194D01*
X030662Y009046D02*
X035285Y009046D01*
X035285Y008897D02*
X030513Y008897D01*
X030365Y008749D02*
X035285Y008749D01*
X035285Y008600D02*
X030216Y008600D01*
X030068Y008452D02*
X035285Y008452D01*
X035285Y008303D02*
X029990Y008303D01*
X029941Y008155D02*
X035285Y008155D01*
X035285Y008006D02*
X029834Y008006D01*
X029909Y007858D02*
X035285Y007858D01*
X035285Y007709D02*
X030269Y007709D01*
X030385Y007561D02*
X035236Y007561D01*
X035174Y007412D02*
X030440Y007412D01*
X030440Y007264D02*
X035160Y007264D01*
X035184Y007115D02*
X030395Y007115D01*
X030295Y006967D02*
X035255Y006967D01*
X035433Y006818D02*
X030098Y006818D01*
X030247Y006670D02*
X037771Y006670D01*
X037623Y006521D02*
X030395Y006521D01*
X030544Y006373D02*
X037540Y006373D01*
X037540Y006224D02*
X030692Y006224D01*
X030841Y006076D02*
X037540Y006076D01*
X039579Y006670D02*
X039860Y006670D01*
X039860Y006818D02*
X039716Y006818D01*
X039810Y006967D02*
X039860Y006967D01*
X039860Y007115D02*
X039810Y007115D01*
X039810Y007264D02*
X039860Y007264D01*
X039860Y007412D02*
X039810Y007412D01*
X039860Y007561D02*
X039688Y007561D01*
X039607Y007709D02*
X039860Y007709D01*
X039860Y007858D02*
X039756Y007858D01*
X039810Y008006D02*
X039860Y008006D01*
X039860Y008155D02*
X039810Y008155D01*
X039810Y008303D02*
X039860Y008303D01*
X039860Y008452D02*
X039797Y008452D01*
X039860Y008600D02*
X039648Y008600D01*
X039647Y008749D02*
X039860Y008749D01*
X039860Y008897D02*
X039795Y008897D01*
X039810Y009046D02*
X039860Y009046D01*
X039860Y009194D02*
X039810Y009194D01*
X039810Y009343D02*
X039860Y009343D01*
X039860Y009491D02*
X039757Y009491D01*
X039860Y009640D02*
X039609Y009640D01*
X039686Y009788D02*
X039860Y009788D01*
X039860Y009937D02*
X039810Y009937D01*
X039810Y010085D02*
X039860Y010085D01*
X039860Y010234D02*
X039810Y010234D01*
X039810Y010382D02*
X039860Y010382D01*
X039860Y010531D02*
X039718Y010531D01*
X039577Y010679D02*
X039860Y010679D01*
X039860Y010828D02*
X039726Y010828D01*
X039810Y010976D02*
X039860Y010976D01*
X039860Y011125D02*
X039810Y011125D01*
X039810Y011273D02*
X039860Y011273D01*
X039860Y011422D02*
X039810Y011422D01*
X039860Y011570D02*
X039678Y011570D01*
X039617Y011719D02*
X039860Y011719D01*
X039860Y011867D02*
X039765Y011867D01*
X039810Y012016D02*
X039860Y012016D01*
X039860Y012164D02*
X039810Y012164D01*
X039810Y012313D02*
X039860Y012313D01*
X039860Y012461D02*
X039787Y012461D01*
X039860Y012610D02*
X039639Y012610D01*
X039656Y012758D02*
X039860Y012758D01*
X039860Y012907D02*
X039805Y012907D01*
X039810Y013055D02*
X039860Y013055D01*
X039860Y013204D02*
X039810Y013204D01*
X039810Y013352D02*
X039860Y013352D01*
X039860Y013501D02*
X039748Y013501D01*
X039860Y013649D02*
X039599Y013649D01*
X039696Y013798D02*
X039860Y013798D01*
X039860Y013946D02*
X039810Y013946D01*
X039810Y014095D02*
X039860Y014095D01*
X039860Y014243D02*
X039810Y014243D01*
X039810Y014392D02*
X039860Y014392D01*
X039860Y014540D02*
X039708Y014540D01*
X039587Y014689D02*
X039860Y014689D01*
X039860Y014837D02*
X039735Y014837D01*
X039810Y014986D02*
X039860Y014986D01*
X039860Y015134D02*
X039810Y015134D01*
X039810Y015283D02*
X039860Y015283D01*
X039860Y015431D02*
X039810Y015431D01*
X039860Y015580D02*
X039668Y015580D01*
X039626Y015728D02*
X039860Y015728D01*
X039860Y015877D02*
X039775Y015877D01*
X039810Y016025D02*
X039860Y016025D01*
X039860Y016174D02*
X039810Y016174D01*
X039810Y016322D02*
X039860Y016322D01*
X039860Y016471D02*
X039777Y016471D01*
X039860Y016619D02*
X039629Y016619D01*
X039666Y016768D02*
X039860Y016768D01*
X039860Y016916D02*
X039810Y016916D01*
X039810Y017065D02*
X039860Y017065D01*
X039860Y017213D02*
X039810Y017213D01*
X039810Y017362D02*
X039860Y017362D01*
X039860Y017510D02*
X039738Y017510D01*
X039860Y017659D02*
X039589Y017659D01*
X039705Y017807D02*
X039860Y017807D01*
X039860Y017956D02*
X039810Y017956D01*
X039810Y018104D02*
X039860Y018104D01*
X039860Y018253D02*
X039810Y018253D01*
X039810Y018401D02*
X039860Y018401D01*
X039860Y018550D02*
X039698Y018550D01*
X039596Y018698D02*
X039860Y018698D01*
X039860Y018847D02*
X039745Y018847D01*
X039810Y018995D02*
X039860Y018995D01*
X039860Y019144D02*
X039810Y019144D01*
X039810Y019292D02*
X039860Y019292D01*
X039860Y019441D02*
X039807Y019441D01*
X039860Y019589D02*
X039659Y019589D01*
X039636Y019738D02*
X039860Y019738D01*
X039860Y019886D02*
X039784Y019886D01*
X039810Y020035D02*
X039860Y020035D01*
X039860Y020183D02*
X039810Y020183D01*
X039810Y020332D02*
X039860Y020332D01*
X039860Y020480D02*
X039768Y020480D01*
X039860Y020629D02*
X039619Y020629D01*
X039675Y020777D02*
X039860Y020777D01*
X039860Y020926D02*
X039810Y020926D01*
X039810Y021074D02*
X039860Y021074D01*
X039860Y021223D02*
X039810Y021223D01*
X039810Y021371D02*
X039860Y021371D01*
X039860Y021520D02*
X039728Y021520D01*
X039860Y021668D02*
X039580Y021668D01*
X039790Y021817D02*
X038565Y021817D01*
X038580Y021668D02*
X038770Y021668D01*
X037540Y020035D02*
X035611Y020035D01*
X035792Y019886D02*
X037566Y019886D01*
X037714Y019738D02*
X035865Y019738D01*
X035913Y019589D02*
X037691Y019589D01*
X037543Y019441D02*
X036029Y019441D01*
X036065Y019292D02*
X037540Y019292D01*
X037540Y019144D02*
X036065Y019144D01*
X036065Y018995D02*
X037540Y018995D01*
X037605Y018847D02*
X037344Y018847D01*
X037621Y018698D02*
X037754Y018698D01*
X037006Y018847D02*
X036065Y018847D01*
X036065Y018698D02*
X036729Y018698D01*
X035675Y019275D02*
X035675Y012675D01*
X035675Y011875D01*
X035075Y011675D02*
X035075Y015375D01*
X035275Y015575D01*
X035175Y015575D01*
X035175Y017975D01*
X033575Y019575D01*
X033278Y019144D02*
X033263Y019144D01*
X033290Y018995D02*
X033603Y018995D01*
X033752Y018847D02*
X033279Y018847D01*
X033218Y018698D02*
X033900Y018698D01*
X034049Y018550D02*
X033078Y018550D01*
X032472Y018550D02*
X032140Y018550D01*
X032140Y018401D02*
X034197Y018401D01*
X034346Y018253D02*
X032140Y018253D01*
X032140Y018104D02*
X034494Y018104D01*
X034643Y017956D02*
X032140Y017956D01*
X032159Y017807D02*
X034785Y017807D01*
X034785Y017659D02*
X032294Y017659D01*
X032340Y017510D02*
X034785Y017510D01*
X034785Y017362D02*
X032340Y017362D01*
X032340Y017213D02*
X034785Y017213D01*
X034785Y017065D02*
X032340Y017065D01*
X032340Y016916D02*
X034785Y016916D01*
X034785Y016768D02*
X032340Y016768D01*
X032340Y016619D02*
X034785Y016619D01*
X034785Y016471D02*
X032340Y016471D01*
X032340Y016322D02*
X034785Y016322D01*
X034785Y016174D02*
X034067Y016174D01*
X033783Y016174D02*
X032340Y016174D01*
X034349Y016025D02*
X034785Y016025D01*
X034785Y015877D02*
X034525Y015877D01*
X034674Y015728D02*
X034781Y015728D01*
X035675Y012675D02*
X035675Y011075D01*
X028769Y007115D02*
X028301Y007115D01*
X028153Y007264D02*
X028620Y007264D01*
X028472Y007412D02*
X028004Y007412D01*
X027856Y007561D02*
X028323Y007561D01*
X028175Y007709D02*
X027840Y007709D01*
X027840Y007858D02*
X028026Y007858D01*
X027878Y008006D02*
X027840Y008006D01*
X027110Y008006D02*
X026790Y008006D01*
X026790Y007858D02*
X027110Y007858D01*
X027110Y007709D02*
X026790Y007709D01*
X026790Y007561D02*
X027110Y007561D01*
X027110Y007412D02*
X026790Y007412D01*
X026790Y007264D02*
X027147Y007264D01*
X027269Y007115D02*
X026790Y007115D01*
X026790Y006967D02*
X027417Y006967D01*
X027566Y006818D02*
X026790Y006818D01*
X026790Y006670D02*
X027714Y006670D01*
X027863Y006521D02*
X026790Y006521D01*
X026894Y006373D02*
X028011Y006373D01*
X028160Y006224D02*
X027042Y006224D01*
X027191Y006076D02*
X028308Y006076D01*
X028410Y005927D02*
X027339Y005927D01*
X027488Y005779D02*
X028449Y005779D01*
X028542Y005630D02*
X027636Y005630D01*
X027785Y005482D02*
X028771Y005482D01*
X029079Y005482D02*
X030402Y005482D01*
X030254Y005630D02*
X029308Y005630D01*
X029401Y005779D02*
X030105Y005779D01*
X029957Y005927D02*
X029440Y005927D01*
X029440Y006076D02*
X029808Y006076D01*
X029660Y006224D02*
X029379Y006224D01*
X029256Y006373D02*
X029511Y006373D01*
X029363Y006521D02*
X028895Y006521D01*
X028747Y006670D02*
X029214Y006670D01*
X029066Y006818D02*
X028598Y006818D01*
X028450Y006967D02*
X028917Y006967D01*
X027110Y008155D02*
X026790Y008155D01*
X026790Y008303D02*
X027110Y008303D01*
X027110Y008452D02*
X026790Y008452D01*
X026790Y008600D02*
X027110Y008600D01*
X027110Y008749D02*
X026790Y008749D01*
X026790Y008897D02*
X027033Y008897D01*
X026971Y009046D02*
X026790Y009046D01*
X026790Y009194D02*
X026960Y009194D01*
X026987Y009343D02*
X026859Y009343D01*
X026994Y009491D02*
X027063Y009491D01*
X027040Y009640D02*
X027251Y009640D01*
X027264Y009788D02*
X027114Y009788D01*
X027175Y009937D02*
X027326Y009937D01*
X027410Y010085D02*
X027190Y010085D01*
X027167Y010234D02*
X027410Y010234D01*
X027410Y010382D02*
X027096Y010382D01*
X026921Y010531D02*
X027410Y010531D01*
X027402Y010679D02*
X027410Y010679D01*
X027200Y010679D02*
X027150Y010679D01*
X027150Y010828D02*
X027200Y010828D01*
X027200Y010976D02*
X027150Y010976D01*
X027150Y011125D02*
X027200Y011125D01*
X026948Y010679D02*
X026648Y010679D01*
X026429Y010531D02*
X026409Y010531D01*
X026254Y010382D02*
X025898Y010382D01*
X025750Y010234D02*
X026183Y010234D01*
X026160Y010085D02*
X025601Y010085D01*
X025540Y009937D02*
X026175Y009937D01*
X026236Y009788D02*
X025540Y009788D01*
X025540Y009640D02*
X026123Y009640D01*
X026060Y009491D02*
X025540Y009491D01*
X025540Y009343D02*
X026060Y009343D01*
X026060Y009194D02*
X025540Y009194D01*
X025540Y009046D02*
X026060Y009046D01*
X026060Y008897D02*
X025540Y008897D01*
X025540Y008749D02*
X026060Y008749D01*
X026060Y008600D02*
X025540Y008600D01*
X025540Y008452D02*
X026060Y008452D01*
X026060Y008303D02*
X025540Y008303D01*
X025540Y008155D02*
X026060Y008155D01*
X026060Y008006D02*
X025540Y008006D01*
X025540Y007858D02*
X026060Y007858D01*
X026060Y007709D02*
X025540Y007709D01*
X025540Y007561D02*
X026060Y007561D01*
X026060Y007412D02*
X025540Y007412D01*
X025540Y007264D02*
X026060Y007264D01*
X026060Y007115D02*
X025540Y007115D01*
X025483Y006967D02*
X026060Y006967D01*
X026060Y006818D02*
X025334Y006818D01*
X025186Y006670D02*
X026060Y006670D01*
X026060Y006521D02*
X025037Y006521D01*
X024889Y006373D02*
X026060Y006373D01*
X026072Y006224D02*
X024740Y006224D01*
X024592Y006076D02*
X026158Y006076D01*
X026307Y005927D02*
X024443Y005927D01*
X024295Y005779D02*
X026455Y005779D01*
X026604Y005630D02*
X024146Y005630D01*
X023998Y005482D02*
X026752Y005482D01*
X026901Y005333D02*
X023849Y005333D01*
X023701Y005185D02*
X027049Y005185D01*
X027198Y005036D02*
X023552Y005036D01*
X023404Y004888D02*
X027346Y004888D01*
X027495Y004739D02*
X023255Y004739D01*
X023107Y004591D02*
X027679Y004591D01*
X027933Y005333D02*
X030597Y005333D01*
X029544Y004442D02*
X022958Y004442D01*
X022810Y004294D02*
X029490Y004294D01*
X029490Y004145D02*
X022661Y004145D01*
X022513Y003997D02*
X029507Y003997D01*
X029569Y003848D02*
X022364Y003848D01*
X022216Y003700D02*
X029682Y003700D01*
X029891Y003551D02*
X022067Y003551D01*
X021919Y003403D02*
X031528Y003403D01*
X031490Y003254D02*
X021770Y003254D01*
X021622Y003106D02*
X031490Y003106D01*
X031524Y002957D02*
X021473Y002957D01*
X021436Y002809D02*
X021914Y002809D01*
X021691Y002660D02*
X021659Y002660D01*
X022436Y002809D02*
X022914Y002809D01*
X022691Y002660D02*
X022659Y002660D01*
X023436Y002809D02*
X023914Y002809D01*
X023691Y002660D02*
X023659Y002660D01*
X024436Y002809D02*
X024914Y002809D01*
X024691Y002660D02*
X024659Y002660D01*
X025436Y002809D02*
X025914Y002809D01*
X025691Y002660D02*
X025659Y002660D01*
X026436Y002809D02*
X026914Y002809D01*
X026691Y002660D02*
X026659Y002660D01*
X027436Y002809D02*
X027914Y002809D01*
X027691Y002660D02*
X027659Y002660D01*
X028436Y002809D02*
X029914Y002809D01*
X029691Y002660D02*
X028659Y002660D01*
X028777Y002512D02*
X029573Y002512D01*
X029511Y002363D02*
X028839Y002363D01*
X028860Y002215D02*
X029490Y002215D01*
X029490Y002066D02*
X028860Y002066D01*
X028810Y001918D02*
X029540Y001918D01*
X029612Y001769D02*
X028738Y001769D01*
X028589Y001621D02*
X029761Y001621D01*
X030589Y001621D02*
X030761Y001621D01*
X031589Y001621D02*
X031761Y001621D01*
X032589Y001621D02*
X032761Y001621D01*
X033589Y001621D02*
X033761Y001621D01*
X034589Y001621D02*
X034761Y001621D01*
X035589Y001621D02*
X035761Y001621D01*
X036589Y001621D02*
X036761Y001621D01*
X037589Y001621D02*
X039849Y001621D01*
X039860Y001769D02*
X037738Y001769D01*
X037810Y001918D02*
X039860Y001918D01*
X039860Y002066D02*
X037860Y002066D01*
X037860Y002215D02*
X039860Y002215D01*
X039860Y002363D02*
X037839Y002363D01*
X037777Y002512D02*
X039860Y002512D01*
X039860Y002660D02*
X039354Y002660D01*
X039200Y002660D02*
X039150Y002660D01*
X039150Y002809D02*
X039200Y002809D01*
X039200Y002957D02*
X039150Y002957D01*
X039150Y003106D02*
X039200Y003106D01*
X039200Y003254D02*
X039150Y003254D01*
X039150Y003403D02*
X039200Y003403D01*
X039200Y003551D02*
X039150Y003551D01*
X039150Y003700D02*
X039200Y003700D01*
X039200Y003848D02*
X039150Y003848D01*
X039150Y003997D02*
X039200Y003997D01*
X039200Y004145D02*
X039150Y004145D01*
X039548Y003848D02*
X039860Y003848D01*
X039860Y003700D02*
X039400Y003700D01*
X039570Y003551D02*
X039860Y003551D01*
X039860Y003403D02*
X039671Y003403D01*
X039714Y003254D02*
X039860Y003254D01*
X039860Y003106D02*
X039716Y003106D01*
X039676Y002957D02*
X039860Y002957D01*
X039860Y002809D02*
X039579Y002809D01*
X038996Y002660D02*
X037659Y002660D01*
X037436Y002809D02*
X038771Y002809D01*
X038674Y002957D02*
X035826Y002957D01*
X035860Y003106D02*
X038634Y003106D01*
X038636Y003254D02*
X038454Y003254D01*
X038619Y003403D02*
X038679Y003403D01*
X038767Y003551D02*
X038780Y003551D01*
X038916Y003700D02*
X038950Y003700D01*
X039670Y003997D02*
X039860Y003997D01*
X039860Y004145D02*
X039670Y004145D01*
X039670Y004294D02*
X039860Y004294D01*
X039860Y004442D02*
X039608Y004442D01*
X039489Y004591D02*
X039860Y004591D01*
X039860Y004739D02*
X039637Y004739D01*
X039786Y004888D02*
X039860Y004888D01*
X039860Y005036D02*
X039810Y005036D01*
X039810Y005185D02*
X039860Y005185D01*
X039860Y005333D02*
X039810Y005333D01*
X039767Y005482D02*
X039860Y005482D01*
X039860Y005630D02*
X039618Y005630D01*
X039677Y005779D02*
X039860Y005779D01*
X039860Y005927D02*
X039810Y005927D01*
X039810Y006076D02*
X039860Y006076D01*
X039860Y006224D02*
X039810Y006224D01*
X039810Y006373D02*
X039860Y006373D01*
X039860Y006521D02*
X039727Y006521D01*
X036330Y004442D02*
X035674Y004442D01*
X035743Y004591D02*
X035526Y004591D01*
X035595Y004739D02*
X035377Y004739D01*
X035446Y004888D02*
X035229Y004888D01*
X035298Y005036D02*
X035080Y005036D01*
X035149Y005185D02*
X034932Y005185D01*
X034642Y004442D02*
X031806Y004442D01*
X031860Y004294D02*
X034790Y004294D01*
X034939Y004145D02*
X031860Y004145D01*
X031843Y003997D02*
X035087Y003997D01*
X035010Y003848D02*
X034340Y003848D01*
X034619Y003700D02*
X034731Y003700D01*
X034010Y003848D02*
X033340Y003848D01*
X033619Y003700D02*
X033731Y003700D01*
X033010Y003848D02*
X032340Y003848D01*
X032619Y003700D02*
X032731Y003700D01*
X032010Y003848D02*
X031781Y003848D01*
X031731Y003700D02*
X031668Y003700D01*
X031589Y003551D02*
X031459Y003551D01*
X030891Y003551D02*
X030459Y003551D01*
X030668Y003700D02*
X030682Y003700D01*
X030914Y002809D02*
X030436Y002809D01*
X030659Y002660D02*
X030691Y002660D01*
X031436Y002809D02*
X031585Y002809D01*
X031659Y002660D02*
X031691Y002660D01*
X027761Y001621D02*
X027589Y001621D01*
X026761Y001621D02*
X026589Y001621D01*
X025761Y001621D02*
X025589Y001621D01*
X024761Y001621D02*
X024589Y001621D01*
X023761Y001621D02*
X023589Y001621D01*
X022761Y001621D02*
X022589Y001621D01*
X021761Y001621D02*
X021589Y001621D01*
X020761Y001621D02*
X020137Y001621D01*
X020285Y001769D02*
X020612Y001769D01*
X020540Y001918D02*
X020434Y001918D01*
X019847Y002363D02*
X019839Y002363D01*
X019777Y002512D02*
X019995Y002512D01*
X020144Y002660D02*
X019659Y002660D01*
X019436Y002809D02*
X020292Y002809D01*
X020441Y002957D02*
X017676Y002957D01*
X017716Y003106D02*
X020589Y003106D01*
X020368Y003254D02*
X017714Y003254D01*
X017720Y003218D02*
X017707Y003303D01*
X017680Y003384D01*
X017641Y003461D01*
X017591Y003530D01*
X017530Y003591D01*
X017461Y003641D01*
X017384Y003680D01*
X017303Y003707D01*
X017218Y003720D01*
X017200Y003720D01*
X017200Y003200D01*
X017720Y003200D01*
X017720Y003218D01*
X017671Y003403D02*
X019931Y003403D01*
X019783Y003551D02*
X017570Y003551D01*
X017324Y003700D02*
X019634Y003700D01*
X019486Y003848D02*
X016525Y003848D01*
X016619Y003700D02*
X017026Y003700D01*
X017075Y003675D02*
X017175Y003675D01*
X019175Y003675D01*
X019337Y003997D02*
X016405Y003997D01*
X016257Y004145D02*
X019189Y004145D01*
X019040Y004294D02*
X016108Y004294D01*
X015960Y004442D02*
X018892Y004442D01*
X018743Y004591D02*
X016554Y004591D01*
X016708Y004739D02*
X018595Y004739D01*
X018446Y004888D02*
X016797Y004888D01*
X016859Y005036D02*
X018089Y005036D01*
X017938Y005185D02*
X016860Y005185D01*
X016851Y005333D02*
X017876Y005333D01*
X017860Y005482D02*
X016789Y005482D01*
X016689Y005630D02*
X017882Y005630D01*
X017950Y005779D02*
X016508Y005779D01*
X015842Y005779D02*
X015565Y005779D01*
X015565Y005927D02*
X018120Y005927D01*
X018630Y005927D02*
X021685Y005927D01*
X021685Y005779D02*
X018800Y005779D01*
X018868Y005630D02*
X021623Y005630D01*
X021562Y005482D02*
X018890Y005482D01*
X019033Y005333D02*
X021560Y005333D01*
X021596Y005185D02*
X019182Y005185D01*
X019330Y005036D02*
X021686Y005036D01*
X021906Y004888D02*
X019479Y004888D01*
X019627Y004739D02*
X022223Y004739D01*
X022244Y004888D02*
X022371Y004888D01*
X022464Y005036D02*
X022520Y005036D01*
X022554Y005185D02*
X022668Y005185D01*
X022590Y005333D02*
X022817Y005333D01*
X022965Y005482D02*
X022588Y005482D01*
X022527Y005630D02*
X023114Y005630D01*
X023262Y005779D02*
X022465Y005779D01*
X022465Y005927D02*
X023411Y005927D01*
X023559Y006076D02*
X022465Y006076D01*
X022465Y006224D02*
X023708Y006224D01*
X023856Y006373D02*
X022465Y006373D01*
X022465Y006521D02*
X024005Y006521D01*
X024153Y006670D02*
X022465Y006670D01*
X022465Y006818D02*
X024302Y006818D01*
X024164Y006967D02*
X024450Y006967D01*
X024343Y007115D02*
X024599Y007115D01*
X024747Y007264D02*
X024416Y007264D01*
X024440Y007412D02*
X024810Y007412D01*
X024810Y007561D02*
X024577Y007561D01*
X024725Y007709D02*
X024810Y007709D01*
X024138Y008155D02*
X022465Y008155D01*
X022465Y008006D02*
X023990Y008006D01*
X023969Y008303D02*
X022520Y008303D01*
X022075Y008475D02*
X022075Y008575D01*
X022075Y008775D01*
X024175Y008775D01*
X023866Y009194D02*
X021908Y009194D01*
X021759Y009343D02*
X024160Y009343D01*
X024160Y009491D02*
X021611Y009491D01*
X021462Y009640D02*
X024206Y009640D01*
X024310Y009788D02*
X021314Y009788D01*
X021397Y009937D02*
X021165Y009937D01*
X021249Y010085D02*
X021017Y010085D01*
X021100Y010234D02*
X020868Y010234D01*
X020952Y010382D02*
X020720Y010382D01*
X020803Y010531D02*
X020571Y010531D01*
X020655Y010679D02*
X020423Y010679D01*
X020506Y010828D02*
X020274Y010828D01*
X020358Y010976D02*
X020126Y010976D01*
X020209Y011125D02*
X019977Y011125D01*
X020061Y011273D02*
X019829Y011273D01*
X019912Y011422D02*
X019680Y011422D01*
X019764Y011570D02*
X019532Y011570D01*
X019615Y011719D02*
X019383Y011719D01*
X019467Y011867D02*
X019235Y011867D01*
X019318Y012016D02*
X019086Y012016D01*
X019170Y012164D02*
X018938Y012164D01*
X019021Y012313D02*
X018789Y012313D01*
X018873Y012461D02*
X018641Y012461D01*
X018724Y012610D02*
X018492Y012610D01*
X018576Y012758D02*
X018344Y012758D01*
X018427Y012907D02*
X018195Y012907D01*
X018279Y013055D02*
X018047Y013055D01*
X018130Y013204D02*
X017898Y013204D01*
X017982Y013352D02*
X017750Y013352D01*
X017833Y013501D02*
X017601Y013501D01*
X017685Y013649D02*
X017453Y013649D01*
X017536Y013798D02*
X017304Y013798D01*
X017388Y013946D02*
X017156Y013946D01*
X017239Y014095D02*
X017007Y014095D01*
X017091Y014243D02*
X016859Y014243D01*
X016942Y014392D02*
X016710Y014392D01*
X016794Y014540D02*
X016562Y014540D01*
X016645Y014689D02*
X016413Y014689D01*
X016497Y014837D02*
X016265Y014837D01*
X016348Y014986D02*
X016116Y014986D01*
X016037Y015134D02*
X016200Y015134D01*
X016051Y015283D02*
X015976Y015283D01*
X015903Y015431D02*
X015847Y015431D01*
X015525Y015025D02*
X022075Y008475D01*
X022075Y005375D01*
X021685Y006076D02*
X015565Y006076D01*
X015565Y006224D02*
X021685Y006224D01*
X021685Y006373D02*
X015515Y006373D01*
X015359Y006521D02*
X021685Y006521D01*
X021685Y006670D02*
X013565Y006670D01*
X013565Y006818D02*
X021685Y006818D01*
X021685Y006967D02*
X013565Y006967D01*
X013565Y007115D02*
X021685Y007115D01*
X021685Y007264D02*
X013565Y007264D01*
X013565Y007412D02*
X021685Y007412D01*
X021685Y007561D02*
X013565Y007561D01*
X013565Y007709D02*
X021685Y007709D01*
X021685Y007858D02*
X013565Y007858D01*
X013565Y008006D02*
X021685Y008006D01*
X021685Y008155D02*
X013565Y008155D01*
X013565Y008303D02*
X021630Y008303D01*
X021547Y008452D02*
X013565Y008452D01*
X013565Y008600D02*
X021398Y008600D01*
X021250Y008749D02*
X013565Y008749D01*
X013565Y008897D02*
X021101Y008897D01*
X020953Y009046D02*
X013565Y009046D01*
X013565Y009194D02*
X020804Y009194D01*
X022465Y007858D02*
X023629Y007858D01*
X023485Y007709D02*
X022465Y007709D01*
X022465Y007561D02*
X023424Y007561D01*
X023410Y007412D02*
X022465Y007412D01*
X022465Y007264D02*
X023434Y007264D01*
X023507Y007115D02*
X022465Y007115D01*
X022465Y006967D02*
X023686Y006967D01*
X022074Y004591D02*
X019776Y004591D01*
X019924Y004442D02*
X021926Y004442D01*
X021777Y004294D02*
X020073Y004294D01*
X020221Y004145D02*
X020464Y004145D01*
X020886Y004145D02*
X021629Y004145D01*
X021480Y003997D02*
X021082Y003997D01*
X021161Y003848D02*
X021332Y003848D01*
X018914Y002809D02*
X017579Y002809D01*
X017424Y002660D02*
X017926Y002660D01*
X018150Y002660D02*
X018200Y002660D01*
X018200Y002512D02*
X018150Y002512D01*
X018150Y002363D02*
X018200Y002363D01*
X018200Y002215D02*
X018150Y002215D01*
X018150Y002200D02*
X018150Y002150D01*
X017630Y002150D01*
X017200Y002150D01*
X017200Y002200D01*
X018150Y002200D01*
X018175Y002175D02*
X017175Y002175D01*
X017175Y003175D01*
X017175Y003675D01*
X017150Y003700D02*
X017200Y003700D01*
X017075Y003675D02*
X017075Y005575D01*
X015661Y005630D02*
X015565Y005630D01*
X015175Y006175D02*
X015175Y004675D01*
X016175Y003675D01*
X016175Y003175D01*
X016175Y002175D01*
X017150Y002200D02*
X017150Y003150D01*
X017200Y003150D01*
X017200Y002630D01*
X017200Y002200D01*
X017150Y002200D01*
X017150Y002215D02*
X017200Y002215D01*
X017200Y002363D02*
X017150Y002363D01*
X017150Y002512D02*
X017200Y002512D01*
X017200Y002660D02*
X017150Y002660D01*
X017150Y002809D02*
X017200Y002809D01*
X017200Y002957D02*
X017150Y002957D01*
X017150Y003106D02*
X017200Y003106D01*
X017200Y003254D02*
X017150Y003254D01*
X017150Y003403D02*
X017200Y003403D01*
X017200Y003551D02*
X017150Y003551D01*
X016780Y003551D02*
X016761Y003551D01*
X015528Y003770D02*
X015311Y003860D01*
X015039Y003860D01*
X014787Y003756D01*
X014594Y003563D01*
X014490Y003311D01*
X014490Y003039D01*
X014594Y002787D01*
X014706Y002675D01*
X014675Y002644D01*
X014563Y002756D01*
X014311Y002860D01*
X014039Y002860D01*
X013787Y002756D01*
X013675Y002644D01*
X013644Y002675D01*
X013756Y002787D01*
X013860Y003039D01*
X013860Y003311D01*
X013756Y003563D01*
X013563Y003756D01*
X013311Y003860D01*
X013039Y003860D01*
X012787Y003756D01*
X012594Y003563D01*
X012490Y003311D01*
X012490Y003039D01*
X012594Y002787D01*
X012706Y002675D01*
X012675Y002644D01*
X012563Y002756D01*
X012311Y002860D01*
X012039Y002860D01*
X011787Y002756D01*
X011594Y002563D01*
X011490Y002311D01*
X011490Y002039D01*
X011594Y001787D01*
X011787Y001594D01*
X012039Y001490D01*
X012311Y001490D01*
X012563Y001594D01*
X012675Y001706D01*
X012787Y001594D01*
X013039Y001490D01*
X013311Y001490D01*
X013563Y001594D01*
X013675Y001706D01*
X013787Y001594D01*
X014039Y001490D01*
X014311Y001490D01*
X014334Y001500D01*
X014344Y001490D01*
X005562Y001490D01*
X005565Y001497D01*
X005565Y001596D01*
X005675Y001706D01*
X005787Y001594D01*
X006039Y001490D01*
X006311Y001490D01*
X006563Y001594D01*
X006675Y001706D01*
X006787Y001594D01*
X007039Y001490D01*
X007311Y001490D01*
X007563Y001594D01*
X007675Y001706D01*
X007787Y001594D01*
X008039Y001490D01*
X008311Y001490D01*
X008563Y001594D01*
X008675Y001706D01*
X008787Y001594D01*
X009039Y001490D01*
X009311Y001490D01*
X009563Y001594D01*
X009756Y001787D01*
X009860Y002039D01*
X009860Y002311D01*
X009756Y002563D01*
X009563Y002756D01*
X009311Y002860D01*
X009039Y002860D01*
X008787Y002756D01*
X008675Y002644D01*
X008563Y002756D01*
X008311Y002860D01*
X008039Y002860D01*
X007787Y002756D01*
X007675Y002644D01*
X007565Y002754D01*
X007565Y005253D01*
X007506Y005396D01*
X007396Y005506D01*
X007253Y005565D01*
X005754Y005565D01*
X005563Y005756D01*
X005492Y005785D01*
X008513Y005785D01*
X009344Y004954D01*
X009454Y004844D01*
X009597Y004785D01*
X013253Y004785D01*
X013396Y004844D01*
X013506Y004954D01*
X013515Y004978D01*
X013594Y004787D01*
X013787Y004594D01*
X014039Y004490D01*
X014311Y004490D01*
X014563Y004594D01*
X014756Y004787D01*
X014785Y004858D01*
X014785Y004597D01*
X014844Y004454D01*
X015528Y003770D01*
X015450Y003848D02*
X015340Y003848D01*
X015302Y003997D02*
X007565Y003997D01*
X007565Y004145D02*
X015153Y004145D01*
X015005Y004294D02*
X007565Y004294D01*
X007565Y004442D02*
X014856Y004442D01*
X014788Y004591D02*
X014554Y004591D01*
X014708Y004739D02*
X014785Y004739D01*
X013796Y004591D02*
X007565Y004591D01*
X007565Y004739D02*
X013642Y004739D01*
X013553Y004888D02*
X013439Y004888D01*
X013175Y005175D02*
X009675Y005175D01*
X008675Y006175D01*
X004475Y006175D01*
X004475Y004675D01*
X004425Y004675D01*
X004425Y003425D01*
X004675Y003175D01*
X005675Y003175D01*
X006175Y002675D01*
X006175Y002175D01*
X006659Y002660D02*
X006691Y002660D01*
X006675Y002644D02*
X006564Y002755D01*
X006506Y002896D01*
X006396Y003006D01*
X006006Y003396D01*
X005896Y003506D01*
X005753Y003565D01*
X004837Y003565D01*
X004815Y003587D01*
X004815Y003764D01*
X004820Y003759D01*
X004889Y003709D01*
X004966Y003670D01*
X005047Y003643D01*
X005132Y003630D01*
X005170Y003630D01*
X005170Y004170D01*
X005180Y004170D01*
X005180Y004180D01*
X005720Y004180D01*
X005720Y004218D01*
X005707Y004303D01*
X005680Y004384D01*
X005641Y004461D01*
X005591Y004530D01*
X005537Y004584D01*
X005563Y004594D01*
X005754Y004785D01*
X006785Y004785D01*
X006785Y002754D01*
X006675Y002644D01*
X006785Y002809D02*
X006542Y002809D01*
X006445Y002957D02*
X006785Y002957D01*
X006785Y003106D02*
X006296Y003106D01*
X006396Y003006D02*
X006396Y003006D01*
X006148Y003254D02*
X006785Y003254D01*
X006785Y003403D02*
X005999Y003403D01*
X006006Y003396D02*
X006006Y003396D01*
X005786Y003551D02*
X006785Y003551D01*
X006785Y003700D02*
X005442Y003700D01*
X005461Y003709D02*
X005530Y003759D01*
X005591Y003820D01*
X005641Y003889D01*
X005680Y003966D01*
X005707Y004047D01*
X005720Y004132D01*
X005720Y004170D01*
X005180Y004170D01*
X005180Y003630D01*
X005218Y003630D01*
X005303Y003643D01*
X005384Y003670D01*
X005461Y003709D01*
X005611Y003848D02*
X006785Y003848D01*
X006785Y003997D02*
X005690Y003997D01*
X005720Y004145D02*
X006785Y004145D01*
X006785Y004294D02*
X005708Y004294D01*
X005651Y004442D02*
X006785Y004442D01*
X006785Y004591D02*
X005554Y004591D01*
X005708Y004739D02*
X006785Y004739D01*
X007175Y005175D02*
X005175Y005175D01*
X005689Y005630D02*
X008668Y005630D01*
X008520Y005779D02*
X005508Y005779D01*
X007175Y005175D02*
X007175Y002175D01*
X007659Y002660D02*
X007691Y002660D01*
X007565Y002809D02*
X007914Y002809D01*
X007565Y002957D02*
X012524Y002957D01*
X012490Y003106D02*
X007565Y003106D01*
X007565Y003254D02*
X012490Y003254D01*
X012528Y003403D02*
X007565Y003403D01*
X007565Y003551D02*
X012589Y003551D01*
X012731Y003700D02*
X007565Y003700D01*
X007565Y003848D02*
X013010Y003848D01*
X013340Y003848D02*
X015010Y003848D01*
X014731Y003700D02*
X013619Y003700D01*
X013761Y003551D02*
X014589Y003551D01*
X014528Y003403D02*
X013822Y003403D01*
X013860Y003254D02*
X014490Y003254D01*
X014490Y003106D02*
X013860Y003106D01*
X013826Y002957D02*
X014524Y002957D01*
X014585Y002809D02*
X014436Y002809D01*
X014659Y002660D02*
X014691Y002660D01*
X015175Y002175D02*
X015175Y003175D01*
X013914Y002809D02*
X013765Y002809D01*
X013691Y002660D02*
X013659Y002660D01*
X013175Y002175D02*
X013175Y003175D01*
X012585Y002809D02*
X012436Y002809D01*
X012659Y002660D02*
X012691Y002660D01*
X011914Y002809D02*
X009436Y002809D01*
X009659Y002660D02*
X011691Y002660D01*
X011573Y002512D02*
X009777Y002512D01*
X009839Y002363D02*
X011511Y002363D01*
X011490Y002215D02*
X009860Y002215D01*
X009860Y002066D02*
X011490Y002066D01*
X011540Y001918D02*
X009810Y001918D01*
X009738Y001769D02*
X011612Y001769D01*
X011761Y001621D02*
X009589Y001621D01*
X008761Y001621D02*
X008589Y001621D01*
X007761Y001621D02*
X007589Y001621D01*
X006761Y001621D02*
X006589Y001621D01*
X005761Y001621D02*
X005589Y001621D01*
X005175Y001575D02*
X003425Y001575D01*
X003425Y006175D01*
X003925Y006675D01*
X011425Y006675D01*
X012175Y007425D01*
X012175Y011675D01*
X011925Y011925D01*
X011927Y012907D02*
X006165Y012907D01*
X006222Y013055D02*
X011779Y013055D01*
X013175Y013175D02*
X013175Y006175D01*
X015175Y006175D01*
X013175Y006175D02*
X013175Y005175D01*
X011313Y007115D02*
X001490Y007115D01*
X001490Y006967D02*
X003665Y006967D01*
X003516Y006818D02*
X001490Y006818D01*
X001490Y006670D02*
X003368Y006670D01*
X003219Y006521D02*
X001490Y006521D01*
X001490Y006373D02*
X003085Y006373D01*
X003035Y006224D02*
X001490Y006224D01*
X001490Y006076D02*
X003035Y006076D01*
X003035Y005927D02*
X001490Y005927D01*
X001490Y005779D02*
X003035Y005779D01*
X003035Y005630D02*
X001490Y005630D01*
X001490Y005482D02*
X003035Y005482D01*
X003035Y005333D02*
X001490Y005333D01*
X001490Y005185D02*
X003035Y005185D01*
X003035Y005036D02*
X001490Y005036D01*
X001490Y004888D02*
X003035Y004888D01*
X003035Y004739D02*
X001490Y004739D01*
X001490Y004591D02*
X003035Y004591D01*
X003035Y004442D02*
X001490Y004442D01*
X001490Y004294D02*
X003035Y004294D01*
X003035Y004145D02*
X001490Y004145D01*
X001490Y003997D02*
X003035Y003997D01*
X003035Y003848D02*
X001490Y003848D01*
X001490Y003700D02*
X003035Y003700D01*
X003035Y003551D02*
X001490Y003551D01*
X001490Y003403D02*
X003035Y003403D01*
X003035Y003254D02*
X002790Y003254D01*
X003025Y003106D02*
X003035Y003106D01*
X002060Y003254D02*
X001490Y003254D01*
X001490Y003106D02*
X001825Y003106D01*
X001676Y002957D02*
X001490Y002957D01*
X001490Y002809D02*
X001604Y002809D01*
X001542Y002660D02*
X001490Y002660D01*
X001490Y002512D02*
X001519Y002512D01*
X001519Y002363D02*
X001490Y002363D01*
X001490Y002215D02*
X001532Y002215D01*
X001490Y002066D02*
X001594Y002066D01*
X001655Y001918D02*
X001490Y001918D01*
X001490Y001769D02*
X001800Y001769D01*
X002001Y001621D02*
X001501Y001621D01*
X002849Y001621D02*
X003035Y001621D01*
X005175Y001575D02*
X005175Y002175D01*
X005170Y003700D02*
X005180Y003700D01*
X005170Y003848D02*
X005180Y003848D01*
X005170Y003997D02*
X005180Y003997D01*
X005170Y004145D02*
X005180Y004145D01*
X004908Y003700D02*
X004815Y003700D01*
X007565Y004888D02*
X009411Y004888D01*
X009262Y005036D02*
X007565Y005036D01*
X007565Y005185D02*
X009114Y005185D01*
X008965Y005333D02*
X007532Y005333D01*
X007420Y005482D02*
X008817Y005482D01*
X011462Y007264D02*
X001490Y007264D01*
X001490Y007412D02*
X011610Y007412D01*
X011759Y007561D02*
X004561Y007561D01*
X004731Y007709D02*
X011785Y007709D01*
X011785Y007858D02*
X004828Y007858D01*
X004880Y008006D02*
X011785Y008006D01*
X004250Y008006D02*
X004100Y008006D01*
X004100Y007858D02*
X004250Y007858D01*
X004250Y007709D02*
X004100Y007709D01*
X004100Y007561D02*
X004250Y007561D01*
X003789Y007561D02*
X002561Y007561D01*
X002731Y007709D02*
X003619Y007709D01*
X003522Y007858D02*
X002828Y007858D01*
X002880Y008006D02*
X003470Y008006D01*
X003461Y008303D02*
X002889Y008303D01*
X002250Y008303D02*
X002100Y008303D01*
X002100Y008452D02*
X002250Y008452D01*
X002250Y008600D02*
X002100Y008600D01*
X002100Y008749D02*
X002250Y008749D01*
X002354Y008897D02*
X001490Y008897D01*
X001490Y008749D02*
X001731Y008749D01*
X001587Y008600D02*
X001490Y008600D01*
X001490Y008452D02*
X001505Y008452D01*
X001490Y009046D02*
X002310Y009046D01*
X002310Y009194D02*
X001490Y009194D01*
X001490Y009343D02*
X002310Y009343D01*
X002250Y009491D02*
X002100Y009491D01*
X002100Y009640D02*
X002250Y009640D01*
X002250Y009788D02*
X002100Y009788D01*
X002100Y009937D02*
X002250Y009937D01*
X002250Y010085D02*
X002100Y010085D01*
X001685Y009640D02*
X001490Y009640D01*
X001490Y009788D02*
X001561Y009788D01*
X001490Y009491D02*
X001932Y009491D01*
X001543Y010531D02*
X001490Y010531D01*
X001490Y010679D02*
X001654Y010679D01*
X004100Y010679D02*
X004250Y010679D01*
X004250Y010531D02*
X004100Y010531D01*
X004100Y010828D02*
X004250Y010828D01*
X004250Y008749D02*
X004100Y008749D01*
X004100Y008600D02*
X004250Y008600D01*
X004250Y008452D02*
X004100Y008452D01*
X002250Y008006D02*
X002100Y008006D01*
X002100Y007858D02*
X002250Y007858D01*
X002250Y007709D02*
X002100Y007709D01*
X002100Y007561D02*
X002250Y007561D01*
X001789Y007561D02*
X001490Y007561D01*
X001490Y007709D02*
X001619Y007709D01*
X001522Y007858D02*
X001490Y007858D01*
X008436Y002809D02*
X008914Y002809D01*
X008691Y002660D02*
X008659Y002660D01*
X012589Y001621D02*
X012761Y001621D01*
X013589Y001621D02*
X013761Y001621D01*
X017604Y002512D02*
X017746Y002512D01*
X018424Y002660D02*
X018691Y002660D01*
X023953Y009937D02*
X024564Y009937D01*
X024786Y009937D02*
X024810Y009937D01*
X024810Y010085D02*
X024101Y010085D01*
X024547Y010531D02*
X025014Y010531D01*
X025163Y010679D02*
X024695Y010679D01*
X024844Y010828D02*
X025311Y010828D01*
X025460Y010976D02*
X024992Y010976D01*
X025141Y011125D02*
X025490Y011125D01*
X025490Y011273D02*
X025289Y011273D01*
X025438Y011422D02*
X025536Y011422D01*
X025586Y011570D02*
X025601Y011570D01*
X024296Y012313D02*
X021304Y012313D01*
X021155Y012461D02*
X024445Y012461D01*
X024593Y012610D02*
X021007Y012610D01*
X020858Y012758D02*
X024742Y012758D01*
X024890Y012907D02*
X020710Y012907D01*
X020561Y013055D02*
X025039Y013055D01*
X025187Y013204D02*
X020413Y013204D01*
X020264Y013352D02*
X025336Y013352D01*
X025366Y013382D02*
X023024Y011040D01*
X022490Y011040D01*
X022490Y011227D01*
X022412Y011417D01*
X022267Y011562D01*
X022077Y011640D01*
X021976Y011640D01*
X017956Y015660D01*
X018077Y015660D01*
X018267Y015738D01*
X018412Y015883D01*
X018490Y016073D01*
X018490Y016182D01*
X018540Y016302D01*
X018540Y016585D01*
X018563Y016594D01*
X018675Y016706D01*
X018787Y016594D01*
X018810Y016585D01*
X018810Y016502D01*
X018866Y016368D01*
X018968Y016266D01*
X020460Y014774D01*
X020460Y014673D01*
X020538Y014483D01*
X020683Y014338D01*
X020873Y014260D01*
X021077Y014260D01*
X021267Y014338D01*
X021412Y014483D01*
X021433Y014534D01*
X021539Y014490D01*
X021811Y014490D01*
X022063Y014594D01*
X022256Y014787D01*
X022360Y015039D01*
X022360Y015311D01*
X022256Y015563D01*
X022144Y015675D01*
X022256Y015787D01*
X022360Y016039D01*
X022360Y016311D01*
X022256Y016563D01*
X022063Y016756D01*
X021811Y016860D01*
X021539Y016860D01*
X021287Y016756D01*
X021094Y016563D01*
X020990Y016311D01*
X020990Y016039D01*
X021094Y015787D01*
X021206Y015675D01*
X021094Y015563D01*
X020990Y015311D01*
X020990Y015290D01*
X020976Y015290D01*
X019617Y016649D01*
X019675Y016706D01*
X019787Y016594D01*
X020039Y016490D01*
X020311Y016490D01*
X020563Y016594D01*
X020756Y016787D01*
X020860Y017039D01*
X020860Y017311D01*
X020756Y017563D01*
X020608Y017710D01*
X020810Y017912D01*
X020810Y018438D01*
X020474Y018774D01*
X020670Y018970D01*
X020670Y019150D01*
X020200Y019150D01*
X020200Y019200D01*
X020150Y019200D01*
X020150Y019670D01*
X019970Y019670D01*
X019680Y019380D01*
X019680Y019200D01*
X020150Y019200D01*
X020150Y019150D01*
X019680Y019150D01*
X019680Y018970D01*
X019876Y018774D01*
X019675Y018573D01*
X019474Y018774D01*
X019670Y018970D01*
X019670Y019150D01*
X019200Y019150D01*
X019200Y019200D01*
X019150Y019200D01*
X019150Y019670D01*
X018970Y019670D01*
X018774Y019474D01*
X018438Y019810D01*
X017912Y019810D01*
X017675Y019573D01*
X017438Y019810D01*
X016912Y019810D01*
X016675Y019573D01*
X016438Y019810D01*
X015912Y019810D01*
X015540Y019438D01*
X015540Y018912D01*
X015777Y018675D01*
X015540Y018438D01*
X015540Y017912D01*
X015742Y017710D01*
X015594Y017563D01*
X015490Y017311D01*
X015490Y017126D01*
X014757Y017859D01*
X014810Y017912D01*
X014810Y018438D01*
X014573Y018675D01*
X014810Y018912D01*
X014810Y019294D01*
X014884Y019368D01*
X014940Y019502D01*
X014940Y020585D01*
X014963Y020594D01*
X015075Y020706D01*
X015187Y020594D01*
X015439Y020490D01*
X015711Y020490D01*
X015963Y020594D01*
X016075Y020706D01*
X016187Y020594D01*
X016439Y020490D01*
X016711Y020490D01*
X016963Y020594D01*
X017075Y020706D01*
X017187Y020594D01*
X017439Y020490D01*
X017711Y020490D01*
X017963Y020594D01*
X018156Y020787D01*
X018260Y021039D01*
X018260Y021311D01*
X018229Y021385D01*
X018521Y021385D01*
X018490Y021311D01*
X018490Y021039D01*
X018594Y020787D01*
X018787Y020594D01*
X019039Y020490D01*
X019311Y020490D01*
X019334Y020500D01*
X019616Y020218D01*
X019718Y020116D01*
X019852Y020060D01*
X021774Y020060D01*
X022500Y019334D01*
X022490Y019311D01*
X022490Y019039D01*
X022594Y018787D01*
X022787Y018594D01*
X023039Y018490D01*
X023311Y018490D01*
X023563Y018594D01*
X023675Y018706D01*
X023787Y018594D01*
X024039Y018490D01*
X024311Y018490D01*
X024563Y018594D01*
X024675Y018706D01*
X024787Y018594D01*
X025039Y018490D01*
X025311Y018490D01*
X025563Y018594D01*
X025756Y018787D01*
X025860Y019039D01*
X025860Y019311D01*
X025756Y019563D01*
X025644Y019675D01*
X025675Y019706D01*
X025787Y019594D01*
X026039Y019490D01*
X026188Y019490D01*
X026094Y019396D01*
X026035Y019253D01*
X026035Y016847D01*
X026094Y016704D01*
X026204Y016594D01*
X026490Y016308D01*
X026490Y016039D01*
X026594Y015787D01*
X026787Y015594D01*
X027039Y015490D01*
X027285Y015490D01*
X027285Y013860D01*
X027039Y013860D01*
X026787Y013756D01*
X026783Y013752D01*
X026723Y013812D01*
X026608Y013860D01*
X025742Y013860D01*
X025627Y013812D01*
X025538Y013723D01*
X025490Y013608D01*
X025490Y013493D01*
X025468Y013484D01*
X025366Y013382D01*
X025490Y013501D02*
X020116Y013501D01*
X019967Y013649D02*
X025507Y013649D01*
X025612Y013798D02*
X019819Y013798D01*
X019670Y013946D02*
X027285Y013946D01*
X027285Y014095D02*
X019522Y014095D01*
X019373Y014243D02*
X027285Y014243D01*
X027285Y014392D02*
X021320Y014392D01*
X021932Y014540D02*
X027285Y014540D01*
X027285Y014689D02*
X022157Y014689D01*
X022276Y014837D02*
X027285Y014837D01*
X027285Y014986D02*
X022338Y014986D01*
X022360Y015134D02*
X027285Y015134D01*
X027285Y015283D02*
X022360Y015283D01*
X022310Y015431D02*
X027285Y015431D01*
X026823Y015580D02*
X022239Y015580D01*
X022197Y015728D02*
X026653Y015728D01*
X026557Y015877D02*
X022293Y015877D01*
X022354Y016025D02*
X026496Y016025D01*
X026490Y016174D02*
X022360Y016174D01*
X022356Y016322D02*
X026476Y016322D01*
X026328Y016471D02*
X022294Y016471D01*
X022200Y016619D02*
X026179Y016619D01*
X026068Y016768D02*
X022035Y016768D01*
X021315Y016768D02*
X020736Y016768D01*
X020809Y016916D02*
X026035Y016916D01*
X026035Y017065D02*
X020860Y017065D01*
X020860Y017213D02*
X026035Y017213D01*
X026035Y017362D02*
X020839Y017362D01*
X020778Y017510D02*
X026035Y017510D01*
X026035Y017659D02*
X020660Y017659D01*
X020705Y017807D02*
X026035Y017807D01*
X026035Y017956D02*
X020810Y017956D01*
X020810Y018104D02*
X026035Y018104D01*
X026035Y018253D02*
X020810Y018253D01*
X020810Y018401D02*
X026035Y018401D01*
X026035Y018550D02*
X025455Y018550D01*
X025667Y018698D02*
X026035Y018698D01*
X026035Y018847D02*
X025780Y018847D01*
X025842Y018995D02*
X026035Y018995D01*
X026035Y019144D02*
X025860Y019144D01*
X025860Y019292D02*
X026051Y019292D01*
X026139Y019441D02*
X025806Y019441D01*
X025800Y019589D02*
X025730Y019589D01*
X026425Y019175D02*
X027175Y019925D01*
X027175Y021775D01*
X028175Y020175D02*
X027175Y019175D01*
X027175Y018175D01*
X027175Y017175D02*
X027775Y016575D01*
X027775Y015975D01*
X027675Y015875D01*
X027675Y013675D01*
X027175Y013175D01*
X026888Y013798D02*
X026738Y013798D01*
X024148Y012164D02*
X021452Y012164D01*
X021601Y012016D02*
X023999Y012016D01*
X023851Y011867D02*
X021749Y011867D01*
X021898Y011719D02*
X023702Y011719D01*
X023554Y011570D02*
X022246Y011570D01*
X022407Y011422D02*
X023405Y011422D01*
X023257Y011273D02*
X022471Y011273D01*
X022490Y011125D02*
X023108Y011125D01*
X024866Y010382D02*
X024810Y010248D01*
X020630Y014392D02*
X019225Y014392D01*
X019076Y014540D02*
X020515Y014540D01*
X020460Y014689D02*
X018928Y014689D01*
X018779Y014837D02*
X020397Y014837D01*
X020248Y014986D02*
X018631Y014986D01*
X018482Y015134D02*
X020100Y015134D01*
X019951Y015283D02*
X018334Y015283D01*
X018185Y015431D02*
X019803Y015431D01*
X019654Y015580D02*
X018037Y015580D01*
X018242Y015728D02*
X019506Y015728D01*
X019357Y015877D02*
X018405Y015877D01*
X018470Y016025D02*
X019209Y016025D01*
X019060Y016174D02*
X018490Y016174D01*
X018540Y016322D02*
X018912Y016322D01*
X018823Y016471D02*
X018540Y016471D01*
X018588Y016619D02*
X018762Y016619D01*
X019647Y016619D02*
X019762Y016619D01*
X019796Y016471D02*
X021056Y016471D01*
X020994Y016322D02*
X019944Y016322D01*
X020093Y016174D02*
X020990Y016174D01*
X020996Y016025D02*
X020241Y016025D01*
X020390Y015877D02*
X021057Y015877D01*
X021153Y015728D02*
X020538Y015728D01*
X020687Y015580D02*
X021111Y015580D01*
X021040Y015431D02*
X020835Y015431D01*
X020588Y016619D02*
X021150Y016619D01*
X020698Y018550D02*
X022895Y018550D01*
X022683Y018698D02*
X020550Y018698D01*
X020547Y018847D02*
X022570Y018847D01*
X022508Y018995D02*
X020670Y018995D01*
X020670Y019144D02*
X022490Y019144D01*
X022490Y019292D02*
X020670Y019292D01*
X020670Y019380D02*
X020380Y019670D01*
X020200Y019670D01*
X020200Y019200D01*
X020670Y019200D01*
X020670Y019380D01*
X020610Y019441D02*
X022393Y019441D01*
X022245Y019589D02*
X020461Y019589D01*
X020200Y019589D02*
X020150Y019589D01*
X020150Y019441D02*
X020200Y019441D01*
X020200Y019292D02*
X020150Y019292D01*
X019889Y019589D02*
X019461Y019589D01*
X019380Y019670D02*
X019200Y019670D01*
X019200Y019200D01*
X019670Y019200D01*
X019670Y019380D01*
X019380Y019670D01*
X019200Y019589D02*
X019150Y019589D01*
X019150Y019441D02*
X019200Y019441D01*
X019200Y019292D02*
X019150Y019292D01*
X018889Y019589D02*
X018659Y019589D01*
X018510Y019738D02*
X022096Y019738D01*
X021948Y019886D02*
X014940Y019886D01*
X014940Y019738D02*
X015840Y019738D01*
X015691Y019589D02*
X014940Y019589D01*
X014914Y019441D02*
X015543Y019441D01*
X015540Y019292D02*
X014810Y019292D01*
X014810Y019144D02*
X015540Y019144D01*
X015540Y018995D02*
X014810Y018995D01*
X014745Y018847D02*
X015605Y018847D01*
X015754Y018698D02*
X014596Y018698D01*
X014698Y018550D02*
X015652Y018550D01*
X015540Y018401D02*
X014810Y018401D01*
X014810Y018253D02*
X015540Y018253D01*
X015540Y018104D02*
X014810Y018104D01*
X014810Y017956D02*
X015540Y017956D01*
X015645Y017807D02*
X014809Y017807D01*
X014958Y017659D02*
X015690Y017659D01*
X015572Y017510D02*
X015106Y017510D01*
X015255Y017362D02*
X015511Y017362D01*
X015490Y017213D02*
X015403Y017213D01*
X016659Y019589D02*
X016691Y019589D01*
X016840Y019738D02*
X016510Y019738D01*
X017510Y019738D02*
X017840Y019738D01*
X017691Y019589D02*
X017659Y019589D01*
X019354Y020480D02*
X014940Y020480D01*
X014940Y020332D02*
X019502Y020332D01*
X019651Y020183D02*
X014940Y020183D01*
X014940Y020035D02*
X021799Y020035D01*
X019740Y019441D02*
X019610Y019441D01*
X019670Y019292D02*
X019680Y019292D01*
X019670Y019144D02*
X019680Y019144D01*
X019670Y018995D02*
X019680Y018995D01*
X019803Y018847D02*
X019547Y018847D01*
X019550Y018698D02*
X019800Y018698D01*
X018753Y020629D02*
X017997Y020629D01*
X018146Y020777D02*
X018604Y020777D01*
X018537Y020926D02*
X018213Y020926D01*
X018260Y021074D02*
X018490Y021074D01*
X018490Y021223D02*
X018260Y021223D01*
X018235Y021371D02*
X018515Y021371D01*
X017153Y020629D02*
X016997Y020629D01*
X016153Y020629D02*
X015997Y020629D01*
X015153Y020629D02*
X014997Y020629D01*
X007875Y021775D02*
X007675Y021575D01*
X007675Y018675D01*
X013175Y013175D01*
X011036Y013798D02*
X001490Y013798D01*
X001490Y013946D02*
X010888Y013946D01*
X010739Y014095D02*
X001490Y014095D01*
X001490Y014243D02*
X010591Y014243D01*
X010442Y014392D02*
X001490Y014392D01*
X001490Y014540D02*
X010294Y014540D01*
X010145Y014689D02*
X001490Y014689D01*
X001490Y014837D02*
X009997Y014837D01*
X009848Y014986D02*
X001490Y014986D01*
X001490Y015134D02*
X009700Y015134D01*
X009551Y015283D02*
X001490Y015283D01*
X001490Y015431D02*
X009403Y015431D01*
X009254Y015580D02*
X001490Y015580D01*
X001490Y015728D02*
X009106Y015728D01*
X008957Y015877D02*
X001490Y015877D01*
X001490Y016025D02*
X008809Y016025D01*
X008660Y016174D02*
X001490Y016174D01*
X001490Y016322D02*
X008512Y016322D01*
X008363Y016471D02*
X001490Y016471D01*
X001490Y016619D02*
X008215Y016619D01*
X008066Y016768D02*
X001490Y016768D01*
X001490Y016916D02*
X007918Y016916D01*
X007769Y017065D02*
X001490Y017065D01*
X001490Y017213D02*
X007621Y017213D01*
X007472Y017362D02*
X001490Y017362D01*
X001490Y017510D02*
X007324Y017510D01*
X007175Y017659D02*
X001490Y017659D01*
X001490Y017807D02*
X007027Y017807D01*
X006878Y017956D02*
X001490Y017956D01*
X001490Y018104D02*
X006730Y018104D01*
X006581Y018253D02*
X001490Y018253D01*
X001490Y018401D02*
X006433Y018401D01*
X006284Y018550D02*
X001490Y018550D01*
X001490Y018698D02*
X006136Y018698D01*
X005987Y018847D02*
X001490Y018847D01*
X001490Y018995D02*
X005839Y018995D01*
X005690Y019144D02*
X001490Y019144D01*
X001490Y019292D02*
X005542Y019292D01*
X005393Y019441D02*
X001490Y019441D01*
X001490Y019589D02*
X005316Y019589D01*
X005310Y019738D02*
X001490Y019738D01*
X001490Y019886D02*
X005310Y019886D01*
X005310Y020035D02*
X002642Y020035D01*
X002605Y020019D02*
X002938Y020157D01*
X003193Y020412D01*
X003331Y020745D01*
X003331Y021105D01*
X003193Y021438D01*
X002938Y021693D01*
X002605Y021831D01*
X002245Y021831D01*
X001912Y021693D01*
X001657Y021438D01*
X001519Y021105D01*
X001519Y020745D01*
X001657Y020412D01*
X001912Y020157D01*
X002245Y020019D01*
X002605Y020019D01*
X002964Y020183D02*
X005310Y020183D01*
X005310Y020332D02*
X003112Y020332D01*
X003221Y020480D02*
X005256Y020480D01*
X005107Y020629D02*
X003282Y020629D01*
X003331Y020777D02*
X005031Y020777D01*
X004976Y020926D02*
X003331Y020926D01*
X003331Y021074D02*
X004976Y021074D01*
X004990Y021223D02*
X003282Y021223D01*
X003220Y021371D02*
X005052Y021371D01*
X005157Y021520D02*
X003111Y021520D01*
X002963Y021668D02*
X005343Y021668D01*
X006007Y021668D02*
X007291Y021668D01*
X007285Y021520D02*
X006193Y021520D01*
X006298Y021371D02*
X007285Y021371D01*
X007285Y021223D02*
X006360Y021223D01*
X006374Y021074D02*
X007285Y021074D01*
X007285Y020926D02*
X006374Y020926D01*
X006319Y020777D02*
X007285Y020777D01*
X007285Y020629D02*
X006243Y020629D01*
X006094Y020480D02*
X007285Y020480D01*
X007285Y020332D02*
X006040Y020332D01*
X006040Y020183D02*
X007285Y020183D01*
X007285Y020035D02*
X006040Y020035D01*
X006040Y019886D02*
X007285Y019886D01*
X007285Y019738D02*
X006129Y019738D01*
X006277Y019589D02*
X007285Y019589D01*
X007285Y019441D02*
X006426Y019441D01*
X006574Y019292D02*
X007285Y019292D01*
X007285Y019144D02*
X006723Y019144D01*
X006871Y018995D02*
X007285Y018995D01*
X007285Y018847D02*
X007020Y018847D01*
X007168Y018698D02*
X007285Y018698D01*
X002208Y020035D02*
X001490Y020035D01*
X001490Y020183D02*
X001886Y020183D01*
X001738Y020332D02*
X001490Y020332D01*
X001490Y020480D02*
X001629Y020480D01*
X001568Y020629D02*
X001490Y020629D01*
X001490Y020777D02*
X001519Y020777D01*
X001519Y020926D02*
X001490Y020926D01*
X001490Y021074D02*
X001519Y021074D01*
X001490Y021223D02*
X001568Y021223D01*
X001630Y021371D02*
X001490Y021371D01*
X001490Y021520D02*
X001739Y021520D01*
X001887Y021668D02*
X001490Y021668D01*
X001560Y021817D02*
X002211Y021817D01*
X002639Y021817D02*
X007365Y021817D01*
X023455Y018550D02*
X023895Y018550D01*
X023683Y018698D02*
X023667Y018698D01*
X024455Y018550D02*
X024895Y018550D01*
X024683Y018698D02*
X024667Y018698D01*
X026425Y019175D02*
X026425Y016925D01*
X027175Y016175D01*
X034597Y020629D02*
X034753Y020629D01*
X035375Y019575D02*
X035675Y019275D01*
X036120Y003997D02*
X037680Y003997D01*
X036914Y002809D02*
X036436Y002809D01*
X036659Y002660D02*
X036691Y002660D01*
X035914Y002809D02*
X035765Y002809D01*
X035691Y002660D02*
X035659Y002660D01*
D17*
X036675Y004825D03*
X035675Y006675D03*
X035675Y007275D03*
X036075Y008075D03*
X031575Y007975D03*
X029925Y007325D03*
X029475Y008375D03*
X027475Y009175D03*
X027775Y009675D03*
X026675Y010075D03*
X028175Y010925D03*
X030575Y011075D03*
X032875Y011975D03*
X035075Y011675D03*
X035675Y011075D03*
X035675Y012675D03*
X035275Y015575D03*
X033925Y015675D03*
X036425Y017675D03*
X035375Y019575D03*
X033575Y019575D03*
X032775Y018975D03*
X032175Y019175D03*
X028175Y020175D03*
X021175Y017175D03*
X024175Y015925D03*
X022175Y014175D03*
X020975Y014775D03*
X017975Y016175D03*
X015525Y015025D03*
X013175Y015175D03*
X008675Y015675D03*
X005675Y015675D03*
X002675Y015675D03*
X002675Y013175D03*
X006175Y011925D03*
X008675Y013175D03*
X008675Y010175D03*
X007175Y010175D03*
X009925Y010175D03*
X011425Y010175D03*
X011425Y009000D03*
X011425Y007925D03*
X009925Y007925D03*
X008675Y007925D03*
X007175Y007925D03*
X010175Y005675D03*
X008175Y005425D03*
X013925Y007925D03*
X013925Y008925D03*
X013925Y010175D03*
X013925Y012175D03*
X021975Y011125D03*
X022675Y011925D03*
X024175Y013175D03*
X028175Y013925D03*
X030675Y013875D03*
X024675Y009425D03*
X024175Y008775D03*
X022075Y008575D03*
X023925Y007425D03*
X020675Y006175D03*
X022075Y005375D03*
X020675Y003675D03*
X019175Y003675D03*
X018375Y005475D03*
X017075Y005575D03*
X028925Y005975D03*
X008675Y018675D03*
X005675Y018675D03*
X002675Y018675D03*
X001925Y003675D03*
D18*
X039175Y003175D02*
X039175Y004175D01*
D19*
X038675Y003975D02*
X038275Y003575D01*
X036025Y003575D01*
X034675Y004925D01*
X027825Y004925D01*
X026425Y006325D01*
X026425Y009425D01*
X026675Y009675D01*
X026675Y010075D01*
X027775Y009675D02*
X027975Y009675D01*
X027975Y008425D01*
X030725Y005675D01*
X035175Y005675D01*
X036025Y004825D01*
X036675Y004825D01*
X038175Y005175D02*
X038675Y004675D01*
X038675Y003975D01*
X035175Y003175D02*
X035175Y002175D01*
X034175Y002175D02*
X034175Y003175D01*
X033175Y003175D02*
X033175Y002175D01*
X032175Y002175D02*
X032175Y003175D01*
X028925Y005975D02*
X027475Y007425D01*
X027475Y009175D01*
X027775Y009675D02*
X027775Y011575D01*
X027175Y012175D01*
X026175Y012175D02*
X025675Y012175D01*
X023675Y010175D01*
X021675Y010175D01*
X015925Y015925D01*
X013925Y015925D01*
X012175Y017675D01*
X012175Y018175D01*
X013175Y018175D02*
X013175Y017925D01*
X014925Y016175D01*
X016175Y016175D01*
X021675Y010675D01*
X023175Y010675D01*
X025675Y013175D01*
X026175Y013175D01*
X028175Y013925D02*
X028175Y010925D01*
X030175Y011475D02*
X030175Y016175D01*
X029675Y016675D02*
X029675Y017675D01*
X029175Y018175D01*
X028675Y018675D02*
X028675Y017675D01*
X029175Y017175D01*
X028675Y016775D02*
X028375Y017075D01*
X028375Y019075D01*
X028975Y019675D01*
X029675Y019675D01*
X029675Y018675D01*
X030175Y018175D01*
X030675Y018675D02*
X030675Y017675D01*
X031175Y017175D01*
X031675Y017375D02*
X031175Y017875D01*
X031175Y018175D01*
X030675Y018675D02*
X031175Y019175D01*
X030675Y019675D02*
X031775Y019675D01*
X031775Y017675D01*
X031975Y017475D01*
X031975Y010875D01*
X029475Y008375D01*
X028675Y008575D02*
X028675Y016775D01*
X029175Y016175D02*
X029675Y016675D01*
X030175Y017175D02*
X030675Y016675D01*
X030675Y013875D01*
X031175Y016175D02*
X031675Y016675D01*
X031675Y017375D01*
X032775Y018975D02*
X032775Y019775D01*
X033175Y020175D01*
X032175Y020175D02*
X032175Y019175D01*
X030675Y019675D02*
X030175Y019175D01*
X029175Y019175D02*
X028675Y018675D01*
X026175Y020175D02*
X026175Y021175D01*
X025175Y021175D02*
X025175Y020175D01*
X023175Y019175D02*
X021925Y020425D01*
X019925Y020425D01*
X019175Y021175D01*
X014575Y021175D02*
X014575Y019575D01*
X014175Y019175D01*
X013575Y019575D02*
X013575Y021175D01*
X012575Y021175D02*
X012575Y019575D01*
X012175Y019175D01*
X013175Y019175D02*
X013575Y019575D01*
X014175Y018175D02*
X014175Y017925D01*
X015675Y016425D01*
X016675Y016425D01*
X021975Y011125D01*
X024675Y009425D02*
X024675Y008175D01*
X023925Y007425D01*
X025175Y007175D02*
X025175Y010175D01*
X026175Y011175D01*
X030175Y011475D02*
X030575Y011075D01*
X028675Y008575D02*
X029925Y007325D01*
X025175Y007175D02*
X019575Y001575D01*
X014775Y001575D01*
X014175Y002175D01*
X018375Y005475D02*
X020175Y003675D01*
X020675Y003675D01*
X012675Y005675D02*
X010175Y005675D01*
X012675Y005675D02*
X012675Y012675D01*
X005675Y019675D01*
X005675Y021049D01*
X018175Y017175D02*
X018175Y016375D01*
X017975Y016175D01*
X019175Y016575D02*
X019175Y017175D01*
X019175Y016575D02*
X020975Y014775D01*
X037175Y017175D02*
X038175Y017175D01*
X038175Y018175D02*
X037175Y018175D01*
M02*
