%
M48
M72
T01C0.0200
T02C0.0320
T03C0.0400
T04C0.0512
T05C0.0610
T06C0.1181
%
T01
X35675Y12675
X35675Y11075
X33925Y15675
X35375Y19575
X24175Y8775
X22075Y8575
X22075Y5375
X15525Y15025
X35675Y7275
X28175Y20175
X35275Y15575
X35075Y11675
X33575Y19575
X35675Y6675
X17075Y5575
X19175Y3675
X36075Y8075
X22175Y14175
X5675Y18675
X2675Y18675
X2675Y13175
X2675Y15675
X5675Y15675
X8675Y15675
X7175Y10175
X20675Y6175
X22675Y11925
X24175Y13175
X24175Y15925
X21175Y17175
X9925Y7925
X9925Y10175
X8175Y5425
X8675Y18675
X13175Y15175
X8675Y7925
X11425Y9000
X11425Y7925
X11425Y10175
X8675Y10175
X13925Y7925
X13925Y8925
X13925Y10175
X13925Y12175
X8675Y13175
X36425Y17675
X1925Y3675
X31575Y7975
X32875Y11975
X7175Y7925
X10175Y5675
X23925Y7425
X24675Y9425
X28925Y5975
X27475Y9175
X28175Y10925
X28175Y13925
X32175Y19175
X32775Y18975
X20675Y3675
X18375Y5475
X29475Y8375
X30675Y13875
X29925Y7325
X30575Y11075
X21975Y11125
X27775Y9675
X36675Y4825
X26675Y10075
X6175Y11925
X17975Y16175
X20975Y14775
T02
X5175Y5175
X4425Y4675
X5175Y4175
T03
X29175Y21175
X30175Y21175
X31175Y21175
X32175Y21175
X33175Y21175
X34175Y21175
X35175Y21175
X28175Y21175
X22175Y2175
X23175Y2175
X24175Y2175
X25175Y2175
X26175Y2175
X27175Y2175
X28175Y2175
X21175Y2175
X20175Y21175
X21175Y21175
X22175Y21175
X23175Y21175
X24175Y21175
X25175Y21175
X26175Y21175
X19175Y21175
X11575Y21175
X12575Y21175
X13575Y21175
X14575Y21175
X15575Y21175
X16575Y21175
X17575Y21175
X10575Y21175
X14175Y2175
X15175Y2175
X16175Y2175
X17175Y2175
X18175Y2175
X19175Y2175
X27175Y13175
X26175Y13175
X26175Y12175
X27175Y12175
X26175Y11175
X27175Y11175
X31175Y2175
X32175Y2175
X33175Y2175
X34175Y2175
X35175Y2175
X36175Y2175
X37175Y2175
X30175Y2175
X9575Y21175
X8575Y21175
X12175Y2175
X13175Y2175
X9175Y2175
X8175Y2175
X7175Y2175
X31175Y19175
X31175Y18175
X31175Y17175
X31175Y16175
X30175Y19175
X30175Y18175
X30175Y17175
X30175Y16175
X29175Y19175
X29175Y18175
X29175Y17175
X29175Y16175
X23175Y19175
X24175Y19175
X25175Y19175
X27175Y18175
X27175Y17175
X27175Y16175
X14175Y19175
X14175Y18175
X13175Y19175
X13175Y18175
X12175Y19175
X12175Y18175
X16175Y5175
X14175Y5175
X21675Y16175
X21675Y15175
X16175Y17175
X17175Y17175
X18175Y17175
X19175Y17175
X20175Y17175
X6175Y2175
X5175Y2175
X4175Y2175
X16175Y18175
X16175Y19175
X17175Y18175
X17175Y19175
X18175Y18175
X18175Y19175
X19175Y18175
X19175Y19175
X20175Y18175
X20175Y19175
X26175Y20175
X25175Y20175
X33175Y20175
X32175Y20175
X31175Y4175
X30175Y4175
X38175Y21175
X39175Y21175
X38175Y20175
X39175Y20175
X38175Y19175
X39175Y19175
X38175Y18175
X39175Y18175
X38175Y17175
X39175Y17175
X38175Y16175
X39175Y16175
X38175Y15175
X39175Y15175
X38175Y14175
X39175Y14175
X38175Y13175
X39175Y13175
X38175Y12175
X39175Y12175
X38175Y11175
X39175Y11175
X38175Y10175
X39175Y10175
X38175Y9175
X39175Y9175
X38175Y8175
X39175Y8175
X38175Y7175
X39175Y7175
X38175Y6175
X39175Y6175
X38175Y5175
X39175Y5175
X38175Y4175
X39175Y4175
X13175Y3175
X15175Y3175
X16175Y3175
X17175Y3175
X35175Y3175
X34175Y3175
X33175Y3175
X32175Y3175
X37175Y17175
X37175Y18175
X39175Y3175
T04
X5675Y13175
X5675Y21049
T05
X4175Y10175
X4175Y8175
X2175Y10175
X2175Y8175
X3175Y9175
T06
X2425Y20925
X2425Y2425
M30
